<svg width="382" height="331" viewBox="0 0 382 331" fill="none" xmlns="http://www.w3.org/2000/svg">
<path d="M182.75 42.7133C190.62 34.85 190.62 22.1011 182.75 14.2378C174.88 6.37451 162.119 6.37452 154.249 14.2378C146.378 22.1011 146.378 34.85 154.249 42.7133C162.119 50.5766 174.88 50.5766 182.75 42.7133Z" fill="#09D17E"/>
<path d="M318.084 186.353C316.06 196.226 312.455 205.685 307.553 214.522C274.768 273.684 184.92 305.663 139.373 257.125C132.837 250.154 127.208 242.924 122.436 235.512C106.821 211.205 100.57 185.031 102.516 160.231C104.098 140.07 111.101 120.842 122.877 104.282C127.546 97.7001 132.992 91.5324 139.166 85.909C223.982 8.32154 333.568 110.372 318.084 186.353Z" fill="#1455FE"/>
<path d="M307.553 214.522C274.767 273.684 184.919 305.663 139.373 257.125C132.837 250.154 127.208 242.924 122.436 235.513C122.332 233.958 122.254 232.351 122.176 230.692C121.346 215.118 121.294 206.981 138.154 205.815C142.278 205.53 148.736 204.985 156.544 204.312C157.944 202.031 162.613 194.257 166.348 186.223C162.639 185.757 123.473 180.574 110.4 169.172C107.755 166.865 105.083 163.756 102.515 160.205C91.7254 145.382 82.284 122.967 80.9612 119.572C79.5606 115.996 79.4309 113.171 80.235 107.884C79.6384 108.584 74.3212 101.613 75.0993 99.1513C76.3962 95.1346 89.0538 86.7125 96.1088 85.8832C97.3538 85.7277 100.881 91.8694 100.077 92.0249C104.487 92.595 113.28 94.72 115.277 97.0264C116.159 98.037 119.297 100.836 122.851 104.282C128.609 109.828 135.43 117.058 135.534 121.101C135.716 127.657 136.701 127.579 138.724 127.761C140.773 127.942 142.459 128.927 142.278 131.311C142.096 133.721 142.459 135.587 146.558 134.939C150.656 134.317 153.405 135.017 154.209 138.412C155.013 141.78 166.218 141.884 170.472 141.962C174.726 142.04 196.358 143.724 198.9 145.253C200.43 130.689 206.266 107.625 206.266 107.625C206.266 107.625 188.473 101.717 188.732 98.8663C188.888 97.2596 203.128 91.7398 212.413 88.3191C212.543 88.2673 218.145 88.9411 221.154 87.6972C221.154 87.6972 216.2 101.224 232.1 106.718C232.1 106.718 232.307 109.362 233.449 109.517C234.227 109.621 235.394 108.999 235.913 106.537C236.146 105.423 236.25 103.92 236.146 101.95C236.146 101.95 236.25 101.95 236.457 101.95H236.483C239.103 101.976 241.567 102.235 243.616 102.676C246.469 103.298 248.467 104.334 248.882 105.708C249.53 107.807 247.948 110.269 241.593 111.227C239.207 118.458 239.57 124.781 241.853 125.117C244.368 125.506 245.328 124.677 246.547 123.796C247.766 122.915 248.726 127.398 243.616 130.793C239.622 133.436 234.616 134.447 230.699 131.855C229.714 138.878 228.65 146.782 227.846 153.986C229.662 154.012 256.326 170.986 263.536 174.795C268.205 177.283 277.543 182.984 284.624 191.147C300.031 190.292 304.518 191.458 306.178 203.456C306.567 205.737 307.034 209.624 307.553 214.522Z" fill="#F2F7FF"/>
<path d="M210.805 101.069C210.261 100.836 210.027 100.188 210.261 99.6698L211.376 97.182C211.61 96.6378 212.258 96.4046 212.777 96.6378C213.321 96.8711 213.555 97.5189 213.321 98.0372L212.206 100.525C211.999 101.069 211.35 101.328 210.805 101.069Z" fill="#090F20"/>
<path d="M217.342 104.023C216.797 103.79 216.563 103.142 216.797 102.624L217.912 100.136C218.146 99.592 218.794 99.3587 219.313 99.592C219.858 99.8252 220.091 100.473 219.858 100.991L218.742 103.479C218.509 104.023 217.886 104.257 217.342 104.023Z" fill="#090F20"/>
<path d="M172.107 33.9514C171.692 35.0139 171.095 35.7913 170.369 36.2837C169.642 36.776 168.709 36.9574 167.593 36.8538L166.478 39.6525C166.452 39.7303 166.4 39.7821 166.322 39.8339C166.245 39.8598 166.167 39.8598 166.089 39.8339L162.406 38.3568C162.328 38.3309 162.276 38.2791 162.224 38.2013C162.198 38.1236 162.198 38.0458 162.224 37.9681L163.21 35.4803C162.535 35.1694 161.913 34.8843 161.394 34.5733C161.316 34.5474 161.291 34.4697 161.265 34.3919C161.239 34.3142 161.239 34.2364 161.265 34.1587L162.743 31.3081C162.795 31.2304 162.847 31.1785 162.951 31.1526C163.054 31.1267 163.132 31.1526 163.21 31.2045C163.417 31.334 163.625 31.4895 163.858 31.6191C164.092 31.7487 164.377 31.9301 164.74 32.1115C165.103 32.3188 165.441 32.4743 165.778 32.6038C166.141 32.7593 166.452 32.8371 166.737 32.8371C167.023 32.8371 167.256 32.7852 167.412 32.6816C167.567 32.5779 167.697 32.4743 167.775 32.3706C167.853 32.267 167.931 32.1633 167.956 32.0855C168.008 31.9819 168.008 31.8523 168.034 31.7227C168.034 31.5932 168.034 31.4118 167.982 31.1785C167.931 30.9453 167.801 30.6862 167.593 30.4011C167.36 30.1161 167.075 29.831 166.686 29.5719C166.245 29.2609 165.881 28.8981 165.544 28.4575C165.207 28.017 164.948 27.5246 164.714 26.9804C164.507 26.4362 164.403 25.8143 164.403 25.1405C164.403 24.4667 164.559 23.767 164.818 23.0674C165.207 22.0826 165.778 21.357 166.556 20.8906C167.308 20.4241 168.242 20.2168 169.305 20.2686L170.446 17.3921C170.472 17.3144 170.524 17.2626 170.628 17.2107C170.706 17.1848 170.784 17.1589 170.861 17.2107L174.545 18.6878C174.622 18.7138 174.674 18.7915 174.726 18.8692C174.752 18.947 174.752 19.0506 174.726 19.1284L173.741 21.6162C174.389 21.9012 175.012 22.2122 175.634 22.5491C175.712 22.575 175.738 22.6527 175.79 22.7305C175.816 22.8082 175.816 22.886 175.764 22.9637L174.285 25.8143C174.233 25.892 174.182 25.9439 174.078 25.9698C173.974 25.9957 173.896 25.9957 173.818 25.9438C172.885 25.3219 172.003 24.8295 171.173 24.4926C170.836 24.3372 170.524 24.2594 170.239 24.2594C169.954 24.2594 169.72 24.3112 169.565 24.4149C169.409 24.5186 169.279 24.6222 169.176 24.7259C169.098 24.8295 169.02 24.9332 168.994 25.0109C168.968 25.1146 168.942 25.2183 168.916 25.3478C168.916 25.4774 168.916 25.6588 168.968 25.892C169.02 26.1253 169.15 26.3844 169.383 26.6695C169.616 26.9545 169.902 27.2396 170.291 27.4987C170.706 27.8097 171.095 28.1725 171.432 28.613C171.769 29.0536 172.055 29.5459 172.262 30.0901C172.47 30.6343 172.573 31.2563 172.573 31.9301C172.522 32.5779 172.366 33.2517 172.107 33.9514Z" fill="#090F20"/>
<path d="M166.192 40.2225C166.115 40.2225 166.011 40.1966 165.933 40.1706L162.25 38.6935C162.068 38.6158 161.939 38.4862 161.861 38.3307C161.783 38.1493 161.783 37.9679 161.861 37.7865L162.717 35.6356C162.172 35.3765 161.653 35.1173 161.212 34.8841C161.057 34.8064 160.953 34.6509 160.901 34.4954C160.849 34.3399 160.849 34.1585 160.927 33.9771C160.927 33.9771 160.927 33.9512 160.953 33.9512L162.431 31.1006C162.535 30.9192 162.691 30.7897 162.898 30.7378C163.106 30.686 163.287 30.7378 163.469 30.8415C163.676 30.9711 163.884 31.1265 164.091 31.2561C164.299 31.3857 164.584 31.5412 164.947 31.7485C165.285 31.9299 165.622 32.0854 165.933 32.2149C166.244 32.3445 166.53 32.4223 166.763 32.4223C167.022 32.4223 167.152 32.3704 167.204 32.3186C167.334 32.2409 167.437 32.1372 167.489 32.0854C167.567 32.0076 167.593 31.9299 167.619 31.904C167.645 31.8521 167.671 31.7744 167.671 31.6707C167.671 31.593 167.671 31.4634 167.619 31.2043C167.593 31.1006 167.515 30.8933 167.282 30.5823C167.074 30.3232 166.815 30.0641 166.478 29.8308C166.011 29.5199 165.596 29.1052 165.233 28.6388C164.87 28.1723 164.584 27.654 164.351 27.058C164.117 26.462 163.988 25.7882 164.014 25.0626C164.014 24.337 164.169 23.5855 164.481 22.8599C164.896 21.7974 165.544 21.02 166.374 20.5017C167.126 20.0352 168.034 19.802 169.072 19.802L170.109 17.1846C170.187 17.0032 170.291 16.8737 170.472 16.7959C170.654 16.7182 170.835 16.6923 171.017 16.77L174.7 18.2471C174.882 18.3249 175.011 18.4544 175.089 18.6358C175.167 18.8172 175.167 18.9986 175.089 19.18L174.233 21.3309C174.778 21.5901 175.297 21.8492 175.815 22.1084C175.971 22.1861 176.075 22.3416 176.152 22.4971C176.23 22.6785 176.204 22.8858 176.101 23.0672L174.622 25.9178C174.518 26.0992 174.363 26.2028 174.181 26.2806C173.974 26.3324 173.766 26.3065 173.585 26.1769C172.677 25.5809 171.821 25.0885 171.017 24.7516C170.706 24.622 170.446 24.5443 170.213 24.5443C170.005 24.5443 169.85 24.5702 169.746 24.648C169.564 24.7516 169.486 24.8294 169.435 24.8812C169.383 24.933 169.331 25.0108 169.305 25.0626C169.279 25.0885 169.279 25.1662 169.253 25.2958C169.253 25.3736 169.253 25.5031 169.305 25.7364C169.331 25.9178 169.461 26.1251 169.642 26.3583C169.85 26.6175 170.109 26.8766 170.446 27.1098C170.887 27.4467 171.302 27.8354 171.665 28.3019C172.028 28.7683 172.314 29.2866 172.547 29.8827C172.781 30.4787 172.884 31.1525 172.884 31.8781C172.884 32.6037 172.729 33.3293 172.417 34.0808C171.951 35.221 171.328 36.0503 170.55 36.5945C169.824 37.0868 168.89 37.2942 167.801 37.2423L166.789 39.7819C166.711 39.9633 166.581 40.0929 166.426 40.1706C166.374 40.1966 166.27 40.2225 166.192 40.2225ZM162.587 37.9938L166.141 39.4191L167.23 36.6981C167.282 36.5426 167.463 36.439 167.619 36.4649C168.656 36.5686 169.512 36.3872 170.161 35.9725C170.809 35.532 171.354 34.8064 171.743 33.8216C172.002 33.1738 172.132 32.5259 172.158 31.904C172.158 31.282 172.08 30.7119 171.873 30.1936C171.665 29.6753 171.406 29.2089 171.095 28.8202C170.783 28.4055 170.42 28.0687 170.031 27.7836C169.642 27.4985 169.305 27.1876 169.046 26.8766C168.786 26.5397 168.631 26.2287 168.579 25.9437C168.527 25.6845 168.501 25.4513 168.501 25.2958C168.501 25.1144 168.553 24.9589 168.605 24.8294C168.657 24.6739 168.76 24.5443 168.864 24.4147C168.968 24.2852 169.123 24.1815 169.331 24.0519C169.564 23.8965 169.876 23.8187 170.239 23.8187C170.576 23.8187 170.939 23.8965 171.328 24.0779C172.158 24.4147 173.04 24.9071 173.974 25.529L175.374 22.808C174.804 22.4971 174.181 22.212 173.559 21.927C173.377 21.8492 173.273 21.616 173.351 21.4346L174.311 18.9986L170.732 17.5734L169.616 20.398C169.564 20.5535 169.409 20.6572 169.227 20.6312C168.242 20.5794 167.386 20.7867 166.711 21.2014C166.011 21.616 165.492 22.2898 165.129 23.1709C164.87 23.8187 164.74 24.4666 164.74 25.0885C164.74 25.7105 164.818 26.2806 165.025 26.7989C165.233 27.3171 165.492 27.7836 165.803 28.1982C166.115 28.6129 166.478 28.9497 166.867 29.2348C167.282 29.5199 167.619 29.8308 167.852 30.1418C168.112 30.4787 168.267 30.7897 168.319 31.0747C168.371 31.3339 168.397 31.5412 168.371 31.7226C168.371 31.904 168.319 32.0595 168.267 32.2149C168.216 32.3445 168.138 32.4741 168.008 32.6037C167.904 32.7332 167.749 32.8628 167.567 32.9924C167.334 33.1479 167.022 33.2256 166.685 33.2256C166.348 33.2256 165.985 33.1219 165.57 32.9665C165.233 32.8369 164.87 32.6555 164.506 32.4482C164.143 32.2409 163.832 32.0854 163.599 31.9299C163.391 31.8003 163.184 31.6707 163.002 31.5412L161.601 34.2622C162.094 34.5472 162.691 34.8323 163.339 35.1173C163.521 35.1951 163.625 35.4283 163.547 35.6097L162.587 37.9938Z" fill="#090F20"/>
<path d="M328.147 89.5108C328.458 90.0032 328.588 90.4696 328.562 90.9102C328.536 91.3507 328.329 91.7913 327.966 92.2059L328.77 93.5016C328.796 93.5275 328.796 93.5794 328.796 93.6312C328.796 93.683 328.77 93.7089 328.718 93.7349L327.006 94.7973C326.98 94.8232 326.928 94.8233 326.876 94.8233C326.824 94.8233 326.798 94.7973 326.772 94.7455L326.072 93.6053C325.735 93.7867 325.45 93.9422 325.164 94.0717C325.138 94.0977 325.087 94.0977 325.061 94.0717C325.009 94.0458 324.983 94.0199 324.957 93.994L324.257 92.5428C324.231 92.491 324.231 92.4651 324.257 92.4132C324.282 92.3614 324.308 92.3355 324.36 92.3355C324.49 92.2836 324.594 92.2577 324.723 92.2059C324.853 92.1541 325.009 92.0763 325.19 91.9986C325.372 91.9208 325.553 91.8172 325.709 91.7394C325.865 91.6358 325.994 91.5321 326.098 91.4285C326.176 91.3248 326.228 91.1953 326.228 91.1175C326.228 91.0139 326.228 90.9361 326.202 90.8843C326.176 90.8065 326.176 90.7547 326.15 90.7288C326.124 90.677 326.072 90.6251 326.02 90.5992C325.968 90.5474 325.891 90.4956 325.787 90.4437C325.683 90.3919 325.527 90.366 325.346 90.366C325.164 90.366 324.957 90.4178 324.749 90.4697C324.49 90.5474 324.231 90.5992 323.945 90.5992C323.66 90.5992 323.375 90.5733 323.089 90.4956C322.804 90.4178 322.519 90.2882 322.259 90.055C321.974 89.8477 321.741 89.5886 321.559 89.2517C321.274 88.8111 321.17 88.3447 321.196 87.9041C321.248 87.4636 321.429 87.023 321.767 86.6084L320.962 85.2868C320.937 85.2609 320.937 85.209 320.937 85.1572C320.937 85.1054 320.962 85.0795 321.014 85.0536L322.726 83.9911C322.752 83.9652 322.804 83.9651 322.856 83.9651C322.908 83.9651 322.934 83.9911 322.96 84.0429L323.66 85.1831C323.971 85.0017 324.282 84.8462 324.594 84.6907C324.62 84.6648 324.672 84.6648 324.723 84.6907C324.775 84.6907 324.801 84.7167 324.827 84.7685L325.527 86.2197C325.553 86.2715 325.553 86.2974 325.527 86.3493C325.502 86.4011 325.476 86.427 325.45 86.427C324.905 86.6084 324.438 86.8157 324.049 87.049C323.893 87.1526 323.764 87.2563 323.686 87.3599C323.608 87.4636 323.556 87.5932 323.556 87.6968C323.556 87.8005 323.556 87.8782 323.556 87.93C323.582 87.9819 323.582 88.0596 323.608 88.0855C323.634 88.1374 323.686 88.1633 323.738 88.2151C323.79 88.2669 323.867 88.3188 323.971 88.3447C324.075 88.3965 324.231 88.4224 324.412 88.4224C324.594 88.4224 324.801 88.3706 325.009 88.3188C325.268 88.241 325.527 88.1892 325.813 88.1892C326.098 88.1892 326.383 88.2151 326.669 88.2928C326.954 88.3706 327.239 88.5261 327.499 88.7334C327.732 88.9407 327.966 89.1998 328.147 89.5108Z" fill="#090F20"/>
<path d="M326.928 95.1603C326.876 95.1603 326.85 95.1603 326.798 95.1344C326.669 95.1085 326.539 95.0049 326.461 94.8753L325.943 94.046C325.735 94.1497 325.528 94.2533 325.32 94.357C325.19 94.4088 325.061 94.4088 324.931 94.3829C324.801 94.3311 324.698 94.2533 324.62 94.1497C324.62 94.1497 324.62 94.1238 324.594 94.1238L323.893 92.6726C323.816 92.5171 323.816 92.3616 323.868 92.232C323.919 92.0765 324.049 91.9729 324.205 91.921C324.308 91.8951 324.438 91.8433 324.542 91.7915C324.672 91.7396 324.801 91.6878 324.983 91.5842C325.164 91.5064 325.32 91.4287 325.45 91.325C325.579 91.2473 325.683 91.1695 325.735 91.0918C325.787 91.014 325.787 90.9881 325.787 90.9881C325.787 90.9104 325.787 90.8586 325.787 90.8586C325.787 90.8326 325.761 90.8067 325.761 90.8067C325.761 90.8067 325.761 90.7808 325.709 90.7549C325.709 90.7549 325.657 90.7031 325.553 90.6512C325.528 90.6512 325.476 90.6253 325.294 90.6253C325.138 90.6253 324.983 90.6512 324.801 90.729C324.516 90.8326 324.205 90.8845 323.893 90.8845C323.582 90.8845 323.271 90.8326 322.934 90.7549C322.597 90.6772 322.259 90.4957 321.948 90.2625C321.637 90.0293 321.377 89.7183 321.144 89.3555C320.833 88.8372 320.677 88.293 320.729 87.7747C320.781 87.3342 320.937 86.8937 321.222 86.479L320.548 85.3906C320.47 85.2611 320.444 85.1315 320.47 85.0019C320.496 84.8464 320.599 84.7169 320.729 84.6391L322.441 83.5766C322.571 83.4989 322.726 83.473 322.856 83.4989C323.012 83.5248 323.115 83.6285 323.193 83.7321L323.712 84.5614C323.919 84.4577 324.127 84.3541 324.36 84.2504C324.49 84.1986 324.62 84.1986 324.749 84.2245C324.905 84.2763 325.035 84.38 325.087 84.5095L325.787 85.9607C325.865 86.0903 325.865 86.2458 325.813 86.4013C325.761 86.5568 325.631 86.6863 325.476 86.7382C324.983 86.9196 324.542 87.1269 324.179 87.3342C324.049 87.4119 323.971 87.4638 323.919 87.5415C323.868 87.5933 323.868 87.6452 323.868 87.6452C323.868 87.7488 323.868 87.7747 323.868 87.8007C323.868 87.8266 323.868 87.8266 323.893 87.8525C323.893 87.8525 323.893 87.8784 323.919 87.8784C323.919 87.8784 323.971 87.9043 324.075 87.9562C324.101 87.9562 324.179 87.9821 324.334 87.9821C324.49 87.9821 324.646 87.9562 324.827 87.8784C325.113 87.8007 325.424 87.7488 325.735 87.7229C326.046 87.7229 326.383 87.7488 326.695 87.8525C327.032 87.9561 327.369 88.1116 327.68 88.3449C327.992 88.5781 328.251 88.8891 328.484 89.2519C328.822 89.822 328.977 90.3662 328.951 90.8845C328.925 91.325 328.744 91.7656 328.433 92.1802L329.081 93.2427C329.159 93.3722 329.185 93.5018 329.159 93.6573C329.133 93.8128 329.029 93.9164 328.925 93.9942L327.213 95.0567C327.11 95.1344 327.032 95.1603 326.928 95.1603ZM326.072 93.1649C326.202 93.1649 326.332 93.2427 326.409 93.3463L327.006 94.3052L328.329 93.5018L327.654 92.4134C327.577 92.2579 327.577 92.0765 327.706 91.9469C328.018 91.5841 328.199 91.2473 328.225 90.8845C328.251 90.5217 328.121 90.133 327.862 89.7183C327.68 89.4333 327.499 89.2 327.265 89.0186C327.032 88.8372 326.798 88.7077 326.565 88.6558C326.306 88.5781 326.072 88.5522 325.839 88.5522C325.605 88.5522 325.372 88.604 325.138 88.6558C324.879 88.7336 324.646 88.7854 324.412 88.7854C324.179 88.7854 323.971 88.7595 323.816 88.6817C323.686 88.604 323.556 88.5522 323.478 88.4744C323.401 88.3967 323.323 88.3189 323.271 88.2412C323.219 88.1635 323.167 88.0598 323.167 87.9562C323.141 87.8525 323.141 87.7488 323.141 87.6193C323.141 87.4379 323.219 87.2565 323.349 87.0751C323.478 86.9196 323.634 86.79 323.842 86.6604C324.179 86.4531 324.594 86.2717 325.061 86.0903L324.568 85.0797C324.334 85.1833 324.075 85.3129 323.842 85.4425C323.66 85.5461 323.427 85.4943 323.323 85.3129L322.726 84.3541L321.403 85.1574L322.104 86.2976C322.182 86.4272 322.182 86.6086 322.078 86.7382C321.792 87.101 321.637 87.4638 321.585 87.8266C321.559 88.1894 321.637 88.5522 321.896 88.9409C322.078 89.226 322.285 89.4592 322.519 89.6406C322.752 89.822 322.986 89.9515 323.219 90.0034C323.478 90.0811 323.712 90.107 323.971 90.107C324.205 90.107 324.438 90.0811 324.646 90.0034C324.905 89.9256 325.138 89.8738 325.372 89.8738C325.605 89.8738 325.813 89.8997 325.968 89.9775C326.098 90.0552 326.202 90.107 326.28 90.1848C326.358 90.2625 326.435 90.3403 326.487 90.418C326.539 90.4958 326.565 90.5994 326.591 90.7031C326.617 90.8067 326.617 90.9104 326.617 91.0399C326.617 91.2213 326.539 91.4028 326.409 91.5842C326.28 91.7396 326.124 91.8692 325.917 91.9988C325.761 92.1024 325.579 92.1802 325.372 92.2838C325.164 92.3616 325.009 92.4393 324.879 92.4912C324.827 92.5171 324.775 92.5171 324.749 92.543L325.242 93.5796C325.45 93.4759 325.683 93.3463 325.917 93.2168C325.943 93.1908 326.02 93.1649 326.072 93.1649ZM325.268 86.0126C325.268 86.0385 325.268 86.0385 325.268 86.0126C325.268 86.0385 325.268 86.0385 325.268 86.0126Z" fill="#090F20"/>
<path d="M324.464 102.494C320.496 102.494 315.464 99.7994 311.781 88.4748C308.72 79.0161 297.774 59.1916 283.561 58.1809C283.171 58.155 282.834 57.87 282.731 57.4813C282.627 57.0926 282.808 56.7038 283.146 56.4965C284.053 55.9264 305.296 42.8138 310.795 41.3626C313.752 40.5851 317.02 41.8031 320.288 44.8869C323.323 47.7634 326.202 52.1429 328.64 57.559C331.519 63.9858 334.761 70.6198 338.937 75.5435C344.151 81.6593 349.39 83.4474 355.019 81.0115C355.33 80.8819 355.719 80.9337 355.978 81.167C356.238 81.4002 356.342 81.763 356.238 82.0999C353.463 91.4809 330.949 101.665 325.787 102.417C325.32 102.469 324.905 102.494 324.464 102.494ZM286.232 56.7557C293.391 58.3105 299.227 63.9598 302.988 68.7022C308.305 75.3621 311.884 83.0069 313.493 87.9047C316.449 97.0265 320.496 101.302 325.476 100.603C329.781 99.9808 348.923 91.3254 353.644 83.3956C339.871 87.205 330.897 67.1214 326.954 58.3105C322.337 47.9707 316.034 41.8808 311.262 43.1506C307.008 44.265 291.887 53.3091 286.232 56.7557Z" fill="#090F20"/>
<path d="M306.619 53.9568C306.282 53.9568 305.971 53.7754 305.815 53.4644C305.582 53.0239 305.763 52.4797 306.204 52.2464C306.23 52.2205 310.017 50.251 314.815 47.841C315.256 47.6078 315.801 47.7892 316.035 48.2297C316.268 48.6703 316.086 49.2145 315.646 49.4477C310.873 51.8836 307.086 53.8272 307.06 53.8531C306.905 53.9309 306.749 53.9568 306.619 53.9568Z" fill="#090F20"/>
<path d="M305.893 59.8653C305.608 59.8653 305.349 59.7358 305.167 59.5025C304.882 59.0879 304.96 58.5178 305.375 58.2327C306.983 57.0666 312.248 54.3715 317.643 51.9874C318.11 51.7801 318.629 51.9874 318.836 52.4538C319.044 52.9203 318.836 53.4386 318.369 53.6459C313.156 55.9523 307.916 58.5955 306.438 59.6839C306.282 59.7876 306.075 59.8653 305.893 59.8653Z" fill="#090F20"/>
<path d="M312.741 65.4364C312.43 65.4364 312.144 65.2809 311.963 64.9959C311.703 64.5813 311.833 64.0111 312.248 63.752C312.3 63.7261 317.124 60.7459 320.73 58.8542C321.171 58.621 321.715 58.8024 321.949 59.2429C322.182 59.6834 322.001 60.2277 321.56 60.4609C318.032 62.3008 313.234 65.255 313.182 65.2809C313.078 65.3846 312.896 65.4364 312.741 65.4364Z" fill="#090F20"/>
<path d="M316.942 72.641C316.657 72.641 316.372 72.5114 316.216 72.2782C315.931 71.8635 316.008 71.2934 316.423 71.0083C316.449 70.9824 319.769 68.5983 322.882 66.6288C323.297 66.3697 323.867 66.4733 324.127 66.9139C324.386 67.3285 324.282 67.8986 323.842 68.1578C320.755 70.1013 317.513 72.4596 317.461 72.4855C317.331 72.5891 317.124 72.641 316.942 72.641Z" fill="#090F20"/>
<path d="M330.326 208.173C329.834 208.173 329.419 207.784 329.419 207.292C329.419 207.24 329.419 207.111 329.393 206.955C328.848 200.451 329.47 198.844 330.586 198.403C332.038 197.833 337.226 197.704 338.263 197.678C338.263 197.678 338.263 197.678 338.289 197.678C338.782 197.678 339.197 198.066 339.197 198.559C339.197 199.051 338.808 199.466 338.315 199.492C336.136 199.544 332.427 199.725 331.364 200.036C331.208 200.295 330.793 201.539 331.234 206.774C331.26 207.085 331.26 207.162 331.26 207.24C331.234 207.758 330.819 208.173 330.326 208.173Z" fill="#1455FE"/>
<path d="M380.853 207.292C380.827 207.292 380.801 207.292 380.775 207.292C380.282 207.24 379.893 206.799 379.945 206.307C380.101 204.493 380.256 201.305 379.997 200.321C379.478 199.88 376.729 199.491 374.005 199.491C373.513 199.491 373.098 199.077 373.098 198.584C373.098 198.092 373.513 197.677 374.005 197.677C377.248 197.677 381.19 198.04 381.709 199.725C382.176 201.228 381.813 205.607 381.735 206.462C381.709 206.955 381.32 207.292 380.853 207.292Z" fill="#1455FE"/>
<path d="M377.533 242.82C376.132 242.82 374.835 242.639 374.394 242.561C373.902 242.483 373.564 242.017 373.642 241.525C373.72 241.032 374.187 240.695 374.68 240.773C377.377 241.188 379.867 240.98 380.127 240.514C380.256 238.518 380.127 234.787 380.127 234.735C380.101 234.243 380.49 233.802 381.009 233.802C381.501 233.802 381.942 234.165 381.942 234.683C381.942 234.839 382.072 238.544 381.942 240.643C381.916 241.162 381.657 241.628 381.216 241.991C380.412 242.639 378.934 242.82 377.533 242.82Z" fill="#1455FE"/>
<path d="M337.486 243.339C336.552 243.339 333.361 243.287 332.272 242.691C331.883 242.483 330.82 241.913 330.82 234.709C330.82 234.217 331.235 233.802 331.727 233.802C332.22 233.802 332.635 234.217 332.635 234.709C332.635 237.3 332.869 240.41 333.232 241.136C333.854 241.369 335.851 241.499 337.486 241.499C337.978 241.499 338.393 241.913 338.393 242.406C338.393 242.898 338.004 243.339 337.486 243.339Z" fill="#1455FE"/>
<path d="M345.474 220.093C343.269 220.093 340.857 220.042 339.638 219.86C339.197 219.782 338.445 219.679 338.263 218.979C337.797 217.243 337.745 211.231 340.416 207.862C342.128 205.711 346.226 205.193 352.633 206.281C352.789 206.307 352.918 206.333 352.97 206.333C353.307 206.359 353.593 206.54 353.748 206.851C353.852 207.058 354.111 207.551 354.085 213.071C354.059 218.616 353.8 219.005 353.67 219.212C353.385 219.653 353.204 219.964 347.238 220.067C346.693 220.093 346.097 220.093 345.474 220.093ZM339.923 218.072C341.895 218.383 350.013 218.357 352.114 218.046C352.296 216.232 352.322 209.935 352.166 208.069C344.826 206.825 342.543 208.121 341.843 209.002C339.768 211.593 339.664 216.31 339.923 218.072ZM352.918 206.359H352.944H352.918Z" fill="#090F20"/>
<path d="M347.834 216.44H346.304C345.396 216.44 344.644 215.688 344.644 214.781V213.693C344.644 212.786 345.396 212.034 346.304 212.034H347.834C348.742 212.034 349.494 212.786 349.494 213.693V214.781C349.494 215.714 348.742 216.44 347.834 216.44Z" fill="#090F20"/>
<path d="M347.835 216.828H346.304C345.163 216.828 344.255 215.921 344.255 214.781V213.692C344.255 212.552 345.163 211.645 346.304 211.645H347.835C348.976 211.645 349.884 212.552 349.884 213.692V214.781C349.884 215.921 348.95 216.828 347.835 216.828ZM346.304 212.449C345.604 212.449 345.034 213.019 345.034 213.718V214.807C345.034 215.506 345.604 216.077 346.304 216.077H347.835C348.535 216.077 349.106 215.506 349.106 214.807V213.718C349.106 213.019 348.535 212.449 347.835 212.449H346.304Z" fill="#090F20"/>
<path d="M347.834 232.921H346.304C345.396 232.921 344.644 232.17 344.644 231.263V230.174C344.644 229.267 345.396 228.516 346.304 228.516H347.834C348.742 228.516 349.494 229.267 349.494 230.174V231.263C349.494 232.17 348.742 232.921 347.834 232.921Z" fill="#090F20"/>
<path d="M347.835 233.31H346.304C345.163 233.31 344.255 232.403 344.255 231.262V230.174C344.255 229.034 345.163 228.127 346.304 228.127H347.835C348.976 228.127 349.884 229.034 349.884 230.174V231.262C349.884 232.403 348.95 233.31 347.835 233.31ZM346.304 228.904C345.604 228.904 345.034 229.474 345.034 230.174V231.262C345.034 231.962 345.604 232.532 346.304 232.532H347.835C348.535 232.532 349.106 231.962 349.106 231.262V230.174C349.106 229.474 348.535 228.904 347.835 228.904H346.304Z" fill="#090F20"/>
<path d="M365.395 215.637H363.864C362.957 215.637 362.204 214.885 362.204 213.978V212.89C362.204 211.983 362.957 211.231 363.864 211.231H365.395C366.302 211.231 367.055 211.983 367.055 212.89V213.978C367.055 214.885 366.302 215.637 365.395 215.637Z" fill="#090F20"/>
<path d="M365.394 216.025H363.864C362.723 216.025 361.815 215.118 361.815 213.978V212.889C361.815 211.749 362.723 210.842 363.864 210.842H365.394C366.536 210.842 367.443 211.749 367.443 212.889V213.978C367.443 215.092 366.51 216.025 365.394 216.025ZM363.864 211.619C363.164 211.619 362.593 212.19 362.593 212.889V213.978C362.593 214.677 363.164 215.247 363.864 215.247H365.394C366.095 215.247 366.665 214.677 366.665 213.978V212.889C366.665 212.19 366.095 211.619 365.394 211.619H363.864Z" fill="#090F20"/>
<path d="M365.395 232.921H363.864C362.957 232.921 362.204 232.17 362.204 231.263V230.174C362.204 229.267 362.957 228.516 363.864 228.516H365.395C366.302 228.516 367.055 229.267 367.055 230.174V231.263C367.055 232.17 366.302 232.921 365.395 232.921Z" fill="#090F20"/>
<path d="M365.394 233.31H363.864C362.723 233.31 361.815 232.403 361.815 231.262V230.174C361.815 229.034 362.723 228.127 363.864 228.127H365.394C366.536 228.127 367.443 229.034 367.443 230.174V231.262C367.443 232.403 366.51 233.31 365.394 233.31ZM363.864 228.904C363.164 228.904 362.593 229.474 362.593 230.174V231.262C362.593 231.962 363.164 232.532 363.864 232.532H365.394C366.095 232.532 366.665 231.962 366.665 231.262V230.174C366.665 229.474 366.095 228.904 365.394 228.904H363.864Z" fill="#090F20"/>
<path d="M364.642 220.43C362.437 220.43 360.025 220.326 358.884 220.067C357.846 219.834 357.639 219.264 357.665 218.849C357.665 218.642 357.691 217.994 357.691 217.165C357.846 206.566 358.08 206.333 358.521 205.944C359.455 205.115 365.472 205.011 368.974 206.747C371.178 207.836 372.138 210.971 372.579 213.433C372.968 215.74 373.046 218.512 372.735 219.238C372.527 219.73 372.294 220.249 366.328 220.378C365.783 220.404 365.213 220.43 364.642 220.43ZM359.455 218.331C361.452 218.72 369.155 218.668 371.049 218.253C371.178 216.491 370.737 209.676 368.144 208.38C365.42 207.032 361.115 207.084 359.844 207.317C359.61 208.924 359.506 215.066 359.481 217.191C359.481 217.657 359.481 218.046 359.455 218.331Z" fill="#090F20"/>
<path d="M350.247 240.851C346.927 240.851 341.117 240.203 339.249 235.901C337.563 232.014 338.419 225.51 338.99 224.654C339.249 224.24 339.534 223.799 344.047 223.67C346.33 223.618 349.027 223.67 350.895 223.825C352.944 223.981 353.567 224.188 353.8 224.784C354.085 225.432 354.008 229.785 353.956 232.325C353.774 239.244 353.437 239.97 353.307 240.203C353.126 240.592 352.814 240.721 352.659 240.747C352.633 240.747 351.673 240.851 350.247 240.851ZM340.494 225.769C340.183 227.038 339.586 232.144 340.909 235.176C342.621 239.115 349.676 239.192 351.751 239.011C352.088 236.834 352.296 227.945 352.14 225.769C350.195 225.432 342.206 225.302 340.494 225.769Z" fill="#090F20"/>
<path d="M358.728 229.422H358.702C358.21 229.397 357.795 228.982 357.82 228.49C357.846 227.634 357.846 226.909 357.846 226.287C357.846 224.551 357.846 223.903 358.313 223.436C358.651 223.099 358.728 223.022 367.521 223.177C368.014 223.177 368.429 223.592 368.403 224.11C368.403 224.602 367.988 224.991 367.495 224.991C367.495 224.991 367.495 224.991 367.469 224.991C364.409 224.939 360.985 224.913 359.662 224.939C359.636 225.302 359.636 225.794 359.636 226.287C359.636 226.909 359.636 227.66 359.61 228.541C359.61 229.034 359.221 229.422 358.728 229.422Z" fill="#090F20"/>
<path d="M366.639 239.892C366.276 239.892 365.939 239.685 365.809 239.348C365.602 238.881 365.835 238.363 366.276 238.156C368.818 237.067 371.982 235.72 371.438 223.747C371.412 223.255 371.801 222.814 372.294 222.788C372.787 222.763 373.227 223.151 373.253 223.644C373.824 235.849 370.608 238.259 367.002 239.814C366.873 239.866 366.769 239.892 366.639 239.892Z" fill="#090F20"/>
<path d="M360.466 240.462C358.858 240.462 358.184 240.306 357.899 239.685C357.717 239.296 357.691 238.648 357.665 235.46C357.665 234.787 357.639 234.035 357.639 233.258C357.639 232.765 358.028 232.351 358.521 232.325C359.014 232.325 359.429 232.714 359.455 233.206C359.455 233.983 359.481 234.735 359.481 235.435C359.507 236.678 359.507 237.948 359.559 238.622C360.207 238.674 361.426 238.648 362.023 238.622C362.36 238.622 362.645 238.596 362.853 238.596C363.345 238.596 363.76 239.011 363.76 239.503C363.76 239.995 363.345 240.41 362.853 240.41C362.671 240.41 362.412 240.41 362.074 240.436C361.452 240.462 360.907 240.462 360.466 240.462Z" fill="#090F20"/>
<path d="M198.952 146.134C198.926 146.134 198.9 146.134 198.848 146.134C198.355 146.082 197.992 145.642 198.044 145.149C199.393 132.218 204.191 112.445 205.229 108.221C203.75 107.703 200.404 106.537 197.084 105.163C188.784 101.717 187.747 100.058 187.85 98.7885C187.928 97.9333 188.032 96.7413 204.269 90.4441C212.05 87.4121 219.909 84.6393 219.987 84.6134C220.454 84.4579 220.973 84.6911 221.154 85.1576C221.31 85.624 221.076 86.1423 220.61 86.3237C206.577 91.2734 191.482 97.2596 189.718 99.0217C189.951 99.4364 191.274 100.81 198.148 103.634C202.35 105.371 206.525 106.744 206.577 106.77C207.018 106.926 207.278 107.392 207.174 107.859C207.122 108.092 201.338 131 199.834 145.357C199.808 145.797 199.419 146.134 198.952 146.134Z" fill="#090F20"/>
<path d="M218.12 117.861C217.627 117.861 217.212 117.447 217.212 116.954C217.212 116.462 217.627 116.047 218.12 116.047C222.556 116.047 225.149 114.078 225.383 110.502C225.409 110.009 225.85 109.621 226.342 109.647C226.835 109.673 227.224 110.113 227.198 110.605C226.887 115.14 223.489 117.861 218.12 117.861Z" fill="#090F20"/>
<path d="M227.924 154.919C227.898 154.919 227.846 154.919 227.821 154.919C227.328 154.867 226.965 154.427 227.016 153.908C227.691 147.689 228.65 140.226 229.87 131.726C231.452 120.582 232.904 111.59 232.904 111.487C232.982 111.046 233.371 110.709 233.812 110.735C236.795 110.787 239.389 110.657 241.516 110.32C245.951 109.621 247.403 108.299 247.87 107.574C248.182 107.081 248.259 106.537 248.078 105.967C247.507 104.075 241.23 102.417 232.826 102.961C232.334 102.987 231.893 102.624 231.867 102.106C231.841 101.613 232.204 101.173 232.723 101.147C240.193 100.68 248.726 101.821 249.842 105.449C250.179 106.537 250.023 107.599 249.427 108.558C248.311 110.32 245.769 111.538 241.827 112.134C239.778 112.445 237.366 112.601 234.59 112.575C234.201 114.985 232.982 122.759 231.685 132.011C230.492 140.485 229.532 147.922 228.858 154.116C228.78 154.582 228.391 154.919 227.924 154.919Z" fill="#090F20"/>
<path d="M234.461 107.599C234.02 107.599 233.631 107.262 233.553 106.822C233.475 106.33 233.838 105.863 234.331 105.811C237.988 105.319 242.086 105.5 242.268 105.526C242.761 105.552 243.15 105.967 243.124 106.485C243.098 106.977 242.657 107.366 242.164 107.34C242.112 107.34 238.066 107.133 234.565 107.625C234.539 107.599 234.513 107.599 234.461 107.599Z" fill="#090F20"/>
<path d="M233.086 87.2046C233.086 87.2046 239.493 84.2504 244.265 89.5628C249.816 95.8082 243.824 102.442 243.694 102.65C240.167 101.95 236.224 101.924 236.224 101.924C236.613 108.247 234.02 109.232 232.904 109.076C231.763 108.921 232.178 106.692 232.178 106.692C216.278 101.198 221.232 87.671 221.232 87.671C218.224 88.9149 212.621 88.2412 212.491 88.293C214.307 79.0157 228.988 80.13 233.086 87.2046Z" fill="#090F20"/>
<path d="M233.112 110.009C232.982 110.009 232.878 110.01 232.748 109.984C232.282 109.906 231.892 109.673 231.633 109.31C231.218 108.74 231.166 107.936 231.192 107.34C226.212 105.474 222.762 102.624 220.973 98.8404C219.131 94.9792 219.494 91.118 219.935 89.0189C217.316 89.5631 214.099 89.3299 212.88 89.2521C212.725 89.2521 212.595 89.2262 212.543 89.2262C212.31 89.2521 212.076 89.1744 211.895 89.0189C211.635 88.8116 211.531 88.4747 211.583 88.1637C212.361 84.3025 215.266 81.6592 219.572 80.9336C224.941 80.0266 230.751 82.2552 233.449 86.1165C235.394 85.4945 240.789 84.3284 244.939 88.993C250.282 95.0051 245.925 101.354 244.446 103.168L244.394 103.22C244.187 103.505 243.824 103.635 243.487 103.583C241.1 103.116 238.507 102.961 237.132 102.883C237.184 105.837 236.561 107.936 235.264 109.128C234.668 109.673 233.864 110.009 233.112 110.009ZM233.086 108.195C233.241 108.195 233.63 108.17 234.071 107.781C234.642 107.263 235.55 105.811 235.316 102.002C235.29 101.743 235.394 101.51 235.576 101.328C235.757 101.147 235.991 101.043 236.25 101.043C236.406 101.043 239.907 101.095 243.331 101.691C244.965 99.5401 247.663 94.746 243.616 90.185C239.363 85.4168 233.552 88.0082 233.501 88.0341C233.086 88.2415 232.567 88.0601 232.333 87.6713C230.232 84.0693 224.786 81.8925 219.909 82.6958C218.016 83.0068 214.825 84.0433 213.658 87.464C215.396 87.5677 218.846 87.6714 220.895 86.8421C221.232 86.7125 221.621 86.7903 221.881 87.0235C222.14 87.2826 222.218 87.6454 222.114 87.9823C222.088 88.0341 220.298 93.1134 222.659 98.063C224.319 101.536 227.639 104.153 232.515 105.837C232.93 105.993 233.189 106.407 233.112 106.874C232.982 107.366 232.982 107.962 233.086 108.195Z" fill="#090F20"/>
<path d="M243.694 130.793C239.7 133.436 234.694 134.447 230.777 131.855C232.385 120.582 233.812 111.642 233.812 111.642C237.002 111.694 239.596 111.538 241.671 111.202C239.285 118.432 239.648 124.755 241.931 125.092C244.446 125.48 245.406 124.651 246.625 123.77C247.844 122.941 248.778 127.398 243.694 130.793Z" fill="#090F20"/>
<path d="M235.966 134.291C233.916 134.291 231.971 133.747 230.285 132.632C230 132.451 229.844 132.088 229.896 131.751C231.478 120.608 232.931 111.616 232.931 111.512C233.009 111.072 233.398 110.735 233.839 110.761C236.821 110.813 239.415 110.683 241.542 110.346C241.853 110.294 242.165 110.424 242.372 110.657C242.58 110.89 242.631 111.227 242.554 111.538C240.634 117.369 240.634 122.241 241.62 123.847C241.776 124.081 241.931 124.236 242.087 124.262C244.058 124.573 244.836 124.029 245.874 123.277L246.133 123.096C246.574 122.785 247.067 122.733 247.534 122.94C248.104 123.2 248.467 123.873 248.545 124.754C248.675 126.491 247.612 129.341 244.24 131.596C241.464 133.384 238.611 134.291 235.966 134.291ZM231.764 131.414C234.954 133.228 239.182 132.736 243.202 130.067C245.874 128.305 246.496 126.387 246.626 125.661C246.678 125.351 246.704 125.091 246.678 124.91C245.562 125.713 244.343 126.439 241.776 126.05C241.283 125.972 240.608 125.687 240.038 124.806C238.689 122.63 238.845 117.628 240.375 112.342C238.663 112.523 236.718 112.627 234.565 112.601C234.202 114.933 233.035 122.422 231.764 131.414Z" fill="#090F20"/>
<path d="M27.0631 64.5299C24.0543 64.5299 20.7343 64.3485 17.2586 64.1412C14.8983 64.0116 12.4342 63.882 10.022 63.8043C9.5292 63.7784 9.14014 63.3637 9.14014 62.8714C9.16607 62.379 9.58107 61.9644 10.0739 61.9903C12.512 62.068 14.9761 62.1976 17.3364 62.3531C27.6077 62.9232 37.3344 63.4674 38.32 58.9065C38.4497 58.3104 38.6053 57.5589 38.7869 56.7037C41.7438 42.71 45.0119 28.0943 46.7757 25.6325C49.6288 21.6158 62.027 24.9069 63.4276 25.2956C63.9205 25.4252 64.2058 25.9175 64.0502 26.4099C63.9205 26.9023 63.4276 27.1873 62.9348 27.0318C58.1104 25.7102 49.8363 24.4145 48.2282 26.695C46.4644 29.1827 42.1588 49.4477 40.5506 57.0925C40.3691 57.9476 40.2134 58.6992 40.0838 59.2952C39.2019 63.5192 34.0403 64.5299 27.0631 64.5299Z" fill="#090F20"/>
<path d="M18.393 69.1198C19.8415 67.6726 19.8415 65.3263 18.393 63.8791C16.9445 62.4319 14.5961 62.4319 13.1476 63.8791C11.6991 65.3263 11.6991 67.6726 13.1476 69.1198C14.5961 70.5669 16.9445 70.5669 18.393 69.1198Z" fill="#090F20"/>
<path d="M15.781 70.6204C13.5244 70.6204 11.6829 68.7805 11.6829 66.5259C11.6829 64.2714 13.5244 62.4315 15.781 62.4315C18.0376 62.4315 19.8792 64.2714 19.8792 66.5259C19.8792 68.7805 18.0376 70.6204 15.781 70.6204ZM15.781 63.183C13.9394 63.183 12.461 64.686 12.461 66.5C12.461 68.3399 13.9654 69.817 15.781 69.817C17.6226 69.817 19.101 68.314 19.101 66.5C19.101 64.686 17.6226 63.183 15.781 63.183Z" fill="#090F20"/>
<path d="M31.9906 70.5682C34.039 70.5682 35.6997 68.9091 35.6997 66.8624C35.6997 64.8158 34.039 63.1567 31.9906 63.1567C29.9421 63.1567 28.2815 64.8158 28.2815 66.8624C28.2815 68.9091 29.9421 70.5682 31.9906 70.5682Z" fill="#090F20"/>
<path d="M31.991 70.9566C29.7344 70.9566 27.8928 69.1166 27.8928 66.8621C27.8928 64.6076 29.7344 62.7676 31.991 62.7676C34.2475 62.7676 36.0891 64.6076 36.0891 66.8621C36.0891 69.1166 34.2475 70.9566 31.991 70.9566ZM31.991 63.5192C30.1494 63.5192 28.671 65.0222 28.671 66.8362C28.671 68.6761 30.1753 70.1532 31.991 70.1532C33.8066 70.1532 35.311 68.6502 35.311 66.8362C35.311 65.0222 33.8066 63.5192 31.991 63.5192Z" fill="#090F20"/>
<path d="M9.32167 53.4644C8.98448 53.4644 8.64729 53.4644 8.33604 53.4644C7.84323 53.4644 7.42822 53.0497 7.42822 52.5574C7.42822 52.065 7.84323 51.6504 8.33604 51.6504C16.6361 51.7022 40.4728 51.1062 40.7062 51.0802C41.1991 51.0802 41.6141 51.469 41.64 51.9613C41.64 52.4537 41.2509 52.8683 40.7581 52.8942C40.5247 52.9202 18.3998 53.4644 9.32167 53.4644Z" fill="#090F20"/>
<path d="M45.0639 34.2617C43.5336 34.2617 7.84334 34.0026 1.02174 33.3547C0.528921 33.3029 0.165799 32.8624 0.191736 32.37C0.243612 31.8776 0.684549 31.5148 1.17736 31.5407C7.89522 32.1886 44.6748 32.4477 45.0639 32.4477C45.5567 32.4477 45.9717 32.8623 45.9717 33.3547C45.9717 33.8471 45.5826 34.2617 45.0639 34.2617Z" fill="#090F20"/>
<path d="M10.152 53.1794C9.89266 53.1794 9.60734 53.0498 9.45171 52.8425C7.40264 50.277 2.42261 39.0301 2.42261 32.6034C2.42261 32.111 2.83761 31.6964 3.33043 31.6964C3.82324 31.6964 4.23824 32.111 4.23824 32.6034C4.23824 38.46 9.06265 49.4218 10.8783 51.7282C11.1895 52.1169 11.1117 52.687 10.7227 52.998C10.567 53.1275 10.3595 53.1794 10.152 53.1794Z" fill="#090F20"/>
<path d="M24.3654 43.4874C18.8666 43.4874 12.486 43.4874 5.69029 43.4874C5.19747 43.4874 4.78247 43.0728 4.78247 42.5804C4.78247 42.088 5.19747 41.6734 5.69029 41.6734C25.9476 41.6993 42.6514 41.6734 42.833 41.6734C43.3258 41.6734 43.7408 42.088 43.7408 42.5804C43.7408 43.0728 43.3258 43.4874 42.833 43.4874C42.7033 43.4874 35.2852 43.4874 24.3654 43.4874Z" fill="#090F20"/>
<path d="M18.0631 53.1792C17.6481 53.1792 17.259 52.8683 17.1812 52.4536C15.9621 45.9751 16.6105 33.5103 16.6365 32.9661C16.6624 32.4737 17.0774 32.085 17.5962 32.1109C18.089 32.1368 18.4781 32.5773 18.4521 33.0697C18.4521 33.1993 17.7777 45.8455 18.9709 52.1167C19.0746 52.6091 18.7374 53.0756 18.2446 53.1792C18.1668 53.1792 18.1149 53.1792 18.0631 53.1792Z" fill="#090F20"/>
<path d="M31.1615 52.8944C30.6946 52.8944 30.2796 52.5316 30.2537 52.0651C30.2537 51.9874 29.6312 43.1765 30.7724 33.1217C30.8243 32.6294 31.2912 32.2665 31.784 32.3184C32.2768 32.3702 32.6399 32.8367 32.5881 33.329C31.4468 43.2024 32.0693 51.8578 32.0693 51.9355C32.0953 52.4279 31.7321 52.8684 31.2393 52.8944C31.2134 52.8944 31.1874 52.8944 31.1615 52.8944Z" fill="#090F20"/>
<path d="M250.646 277.779C250.101 277.779 249.582 277.727 249.115 277.649C248.623 277.571 248.285 277.105 248.363 276.613C248.441 276.12 248.908 275.783 249.401 275.861C252.591 276.353 259.49 275.213 270.099 261.815C290.175 236.471 295.959 222.011 292.146 206.54C288.048 189.903 268.932 178.656 263.174 175.598C260.139 173.992 253.862 170.182 247.196 166.114C239.207 161.268 229.299 155.256 227.872 154.893C227.587 154.919 227.016 155.152 226.394 155.437C223.93 156.5 219.313 158.495 211.039 156.448C203.18 154.53 201.208 150.643 199.912 148.052C199.419 147.067 199.03 146.315 198.485 145.978C196.306 144.657 175.478 142.921 170.524 142.817H170.006C161.861 142.661 154.209 142.039 153.379 138.567C152.939 136.675 151.823 135.017 146.765 135.794C144.716 136.105 143.342 135.872 142.434 135.043C141.396 134.084 141.344 132.555 141.448 131.181C141.5 130.611 141.63 128.849 138.725 128.59L138.569 128.564C135.716 128.331 134.86 127.294 134.704 121.049C134.575 116.307 123.447 105.889 118.104 100.887C116.418 99.3067 115.199 98.1665 114.655 97.5445C113.02 95.6528 104.902 93.5019 100.026 92.854C99.5329 92.7763 99.1698 92.3358 99.2476 91.8434C99.3254 91.351 99.7663 90.9882 100.259 91.066C104.202 91.5843 113.669 93.6574 116.029 96.3784C116.496 96.9226 117.767 98.1147 119.349 99.5918C127.572 107.288 136.39 115.944 136.52 121.023C136.598 123.873 136.831 125.532 137.246 126.232C137.48 126.62 137.713 126.698 138.725 126.776L138.88 126.802C141.811 127.061 143.445 128.745 143.264 131.337C143.16 132.658 143.29 133.384 143.679 133.721C144.12 134.136 145.079 134.213 146.506 134.006C148.348 133.721 153.924 132.892 155.169 138.152C155.247 138.515 155.921 139.707 160.875 140.407C164.092 140.873 167.827 140.951 170.083 140.977H170.602C173.715 141.029 196.514 142.61 199.471 144.398C200.456 144.994 200.975 146.004 201.572 147.196C202.791 149.606 204.477 152.923 211.506 154.634C219.209 156.526 223.281 154.763 225.72 153.701C226.653 153.312 227.328 153.001 227.976 153.027C229.117 153.053 233.76 155.774 248.182 164.507C254.822 168.55 261.099 172.359 264.081 173.94C270.021 177.076 289.682 188.685 293.962 206.048C297.93 222.141 292.068 237.015 271.577 262.878C262.058 274.902 255.133 277.779 250.646 277.779Z" fill="#090F20"/>
<path d="M234.772 258.032C234.383 258.032 234.02 257.773 233.89 257.384C232.1 251.113 232.489 249.662 234.149 246.733C234.798 245.619 237.08 242.898 240.011 239.426C244.94 233.569 252.384 224.758 253.343 221.519C254.744 216.802 252.851 210.065 229.87 192.909C229.481 192.598 229.377 192.054 229.688 191.64C229.999 191.251 230.544 191.147 230.959 191.458C253.499 208.277 256.897 215.844 255.081 222.011C254.018 225.587 247.04 233.906 241.412 240.566C238.663 243.831 236.302 246.63 235.758 247.589C234.331 250.076 234.02 251.035 235.68 256.84C235.81 257.332 235.55 257.825 235.057 257.954C234.928 258.032 234.85 258.032 234.772 258.032Z" fill="#090F20"/>
<path d="M166.374 187.13C166.348 187.13 166.296 187.13 166.27 187.13C161.887 186.586 123.032 181.351 109.856 169.871C95.1493 157.044 80.3129 120.297 80.1832 119.934C78.7307 116.229 78.5492 113.197 79.457 107.496C79.5348 107.003 80.0017 106.666 80.4945 106.744C80.9873 106.822 81.3245 107.288 81.2467 107.781C80.3908 113.171 80.5204 115.866 81.8692 119.287C81.9989 119.649 96.6537 155.955 111.049 168.524C123.81 179.667 162.172 184.798 166.504 185.342C166.997 185.394 167.36 185.861 167.282 186.353C167.23 186.793 166.815 187.13 166.374 187.13Z" fill="#090F20"/>
<path d="M156.57 205.219C156.414 205.219 156.233 205.167 156.103 205.089C155.688 204.83 155.532 204.26 155.792 203.845C157.763 200.632 167.645 184.124 170.083 173.836C170.187 173.344 170.68 173.033 171.173 173.163C171.665 173.266 171.951 173.759 171.847 174.251C169.357 184.824 159.319 201.565 157.348 204.804C157.166 205.063 156.855 205.219 156.57 205.219Z" fill="#090F20"/>
<path d="M243.642 281.925C243.046 281.925 241.801 281.925 235.057 273.814C232.93 271.249 228.676 265.884 228.469 265.081C227.742 262.308 232.645 257.773 234.175 256.452C234.382 256.27 234.642 256.192 234.901 256.244C235.161 256.27 235.394 256.426 235.524 256.633C238.74 261.505 247.585 274.514 249.789 276.146C249.997 276.302 250.127 276.509 250.153 276.768C250.178 277.027 250.101 277.261 249.945 277.442C249.323 278.194 246.106 281.925 243.642 281.925ZM230.206 264.537C230.57 265.185 233.267 268.787 236.432 272.622C241.956 279.282 243.435 280.034 243.668 280.111C244.732 280.059 246.625 278.401 247.974 276.95C244.757 273.633 236.95 262.075 234.59 258.525C232.204 260.727 230.051 263.474 230.206 264.537Z" fill="#090F20"/>
<path d="M212.466 302.449C211.791 302.449 211.246 302.242 210.883 301.827C210.365 301.257 210.261 300.428 210.624 299.314C209.275 300.091 207.875 300.635 206.967 300.298C206.422 300.091 206.085 299.651 205.955 299.029C205.566 296.8 207.771 294.338 210.131 291.747C211.661 290.036 213.244 288.274 213.788 286.875C214.618 284.646 214.826 282.988 214.826 282.158C214.774 282.184 214.722 282.21 214.67 282.21C211.428 283.454 207.823 284.724 205.981 283.791C205.436 283.506 205.073 283.065 204.918 282.495C204.347 280.37 208.212 277.831 216.304 272.7C220.61 269.979 225.512 266.895 228.806 264.122C229.195 263.811 229.766 263.837 230.077 264.226C230.388 264.614 230.362 265.185 229.973 265.496C226.576 268.346 221.622 271.482 217.264 274.229C214.411 276.043 211.713 277.727 209.716 279.178C207.045 281.122 206.707 281.847 206.681 282.029C206.707 282.081 206.733 282.107 206.811 282.158C208.108 282.806 212.569 281.07 214.048 280.5C214.878 280.189 215.111 280.085 215.319 280.085C215.682 280.059 216.045 280.215 216.278 280.526C217.108 281.614 216.46 284.905 215.5 287.497C214.852 289.233 213.14 291.125 211.506 292.939C209.69 294.934 207.667 297.215 207.745 298.588C208.497 298.51 210.676 297.267 212.517 295.789C212.855 295.504 213.373 295.53 213.685 295.815C214.022 296.126 214.074 296.619 213.84 296.981C212.154 299.573 212.232 300.428 212.258 300.584C212.44 300.635 213.244 300.661 214.904 299.832C215.267 299.651 215.734 299.728 215.993 300.039C216.123 300.195 216.356 300.402 216.875 300.428C219.131 300.506 223.619 296.904 225.901 294.623C226.238 294.286 226.757 294.26 227.12 294.546C227.483 294.831 227.561 295.349 227.302 295.738C226.602 296.852 225.642 298.847 225.823 299.651V299.677C226.653 299.391 229.169 297.448 233.268 292.991C237.184 288.715 240.789 284.024 242.89 280.5C243.15 280.059 243.694 279.93 244.135 280.189C244.576 280.448 244.706 280.992 244.447 281.433C242.19 285.216 238.222 290.347 234.046 294.831C226.913 302.501 225.564 301.724 224.993 301.387C224.527 301.102 224.189 300.661 224.06 300.117C223.956 299.677 223.982 299.21 224.06 298.692C221.881 300.428 219.002 302.32 216.797 302.268C216.175 302.242 215.63 302.061 215.163 301.75C214.1 302.216 213.192 302.449 212.466 302.449Z" fill="#090F20"/>
<path d="M213.062 297.422C212.803 297.422 212.543 297.318 212.362 297.111C212.025 296.722 212.076 296.152 212.466 295.841C216.149 292.679 219.936 288.429 220.584 287.211C220.817 286.771 221.362 286.589 221.803 286.849C222.244 287.082 222.426 287.626 222.166 288.067C221.336 289.595 217.342 294.027 213.607 297.214C213.477 297.37 213.27 297.422 213.062 297.422Z" fill="#090F20"/>
<path d="M215.293 301.594C215.007 301.594 214.722 301.464 214.54 301.205C214.255 300.791 214.359 300.221 214.774 299.935C219.572 296.644 224.449 290.503 224.5 290.451C224.812 290.062 225.382 289.984 225.771 290.295C226.16 290.606 226.238 291.176 225.927 291.565C225.72 291.824 220.817 297.992 215.811 301.413C215.656 301.542 215.474 301.594 215.293 301.594Z" fill="#090F20"/>
<path d="M226.498 296.204C226.29 296.204 226.083 296.126 225.901 295.971C225.512 295.634 225.486 295.064 225.823 294.701C226.368 294.053 226.991 293.301 227.276 292.913C227.458 292.68 228.028 291.954 228.728 292.472C229.014 292.68 229.299 293.198 228.91 293.768C228.884 293.82 228.832 293.872 228.78 293.898C228.754 293.923 228.728 293.949 228.703 294.001C228.391 294.39 227.795 295.193 227.198 295.867C227.017 296.1 226.757 296.204 226.498 296.204Z" fill="#090F20"/>
<path d="M123.992 258.55C123.525 258.55 123.136 258.188 123.084 257.721C122.903 255.648 122.021 244.557 121.269 230.744C120.828 222.426 120.672 216.673 122.721 212.449C124.952 207.81 129.698 205.478 138.102 204.908C144.664 204.441 157.218 203.353 171.769 202.083C193.972 200.14 221.595 197.704 237.417 196.771C237.91 196.745 238.351 197.134 238.377 197.626C238.403 198.118 238.014 198.559 237.521 198.585C221.725 199.518 194.127 201.928 171.925 203.897C157.374 205.167 144.82 206.281 138.232 206.722C130.554 207.266 126.3 209.261 124.381 213.252C122.539 217.062 122.695 222.633 123.11 230.641C123.862 244.427 124.744 255.493 124.9 257.566C124.952 258.058 124.563 258.499 124.07 258.55C124.044 258.55 124.018 258.55 123.992 258.55Z" fill="#090F20"/>
<path d="M125.886 295.997C122.047 295.997 119.764 295.064 118.779 293.198C115.329 286.512 115.848 267.802 117.145 261.945C118.519 255.726 123.422 256.555 127.001 257.151C127.286 257.203 127.546 257.255 127.831 257.281C131.359 257.851 147.907 254.948 154.21 253.368C157.893 252.435 161.135 251.787 163.392 253.316C164.948 254.352 165.856 256.27 166.297 259.328C166.971 264.226 167.593 272.129 168.086 282.132C168.32 287.134 165.233 288.17 156.285 289.881C154.132 290.295 151.227 291.047 147.881 291.928C142.304 293.379 135.975 295.012 130.606 295.737C128.791 295.893 127.234 295.997 125.886 295.997ZM118.908 262.308C117.56 268.424 117.404 286.564 120.387 292.343C121.009 293.535 123.24 294.779 130.321 293.846C135.586 293.146 141.863 291.539 147.388 290.088C150.786 289.207 153.717 288.456 155.921 288.015C165.467 286.201 166.4 285.294 166.245 282.158C165.752 272.207 165.155 264.381 164.481 259.509C164.144 257.047 163.443 255.493 162.38 254.767C160.902 253.756 158.515 254.093 154.651 255.078C148.841 256.555 131.566 259.665 127.546 259.043C127.26 258.991 126.975 258.939 126.716 258.913C122.462 258.214 119.842 258.084 118.908 262.308Z" fill="#090F20"/>
<path d="M152.446 330.048C132.63 330.048 128.946 324.321 128.22 319.423C127.572 315.147 126.353 305.196 125.782 295.141C125.756 294.649 126.145 294.209 126.638 294.183C127.131 294.157 127.572 294.545 127.598 295.038C128.168 305.015 129.387 314.888 130.036 319.138C130.399 321.6 131.618 324.684 137.921 326.576C145.78 328.934 159.475 328.752 178.617 325.979C197.837 323.207 222.815 319.216 244.888 315.692C268.154 311.986 288.229 308.772 295.155 308.021C307.994 306.622 315.205 305.041 313.882 288.715C312.585 272.829 307.06 215.74 305.4 203.586C303.844 192.262 299.85 191.225 284.78 192.054C284.287 192.08 283.846 191.691 283.82 191.199C283.794 190.707 284.183 190.266 284.676 190.24C292.665 189.8 297.645 189.903 301.069 191.666C304.492 193.454 306.282 196.822 307.164 203.327C308.85 215.507 314.375 272.648 315.672 288.559C317.098 306.181 308.954 308.358 295.336 309.835C288.463 310.586 268.387 313.8 245.147 317.506C223.1 321.03 198.096 325.021 178.85 327.793C167.827 329.374 159.216 330.048 152.446 330.048Z" fill="#090F20"/>
<path d="M152.212 279.748C148.477 279.748 145.443 276.716 145.443 272.985C145.443 269.253 148.477 266.221 152.212 266.221C155.947 266.221 158.982 269.253 158.982 272.985C158.982 276.716 155.947 279.748 152.212 279.748ZM152.212 268.035C149.489 268.035 147.258 270.264 147.258 272.985C147.258 275.706 149.489 277.934 152.212 277.934C154.936 277.934 157.166 275.706 157.166 272.985C157.166 270.264 154.936 268.035 152.212 268.035Z" fill="#090F20"/>
<path d="M218.12 264.925C214.385 264.925 211.35 261.893 211.35 258.162C211.35 254.43 214.385 251.398 218.12 251.398C221.855 251.398 224.89 254.43 224.89 258.162C224.89 261.893 221.855 264.925 218.12 264.925ZM218.12 253.212C215.396 253.212 213.166 255.441 213.166 258.162C213.166 260.883 215.396 263.111 218.12 263.111C220.843 263.111 223.074 260.883 223.074 258.162C223.074 255.441 220.843 253.212 218.12 253.212Z" fill="#090F20"/>
<path d="M208.445 252.072C208.341 252.072 208.212 252.046 208.108 251.994C207.641 251.813 207.408 251.269 207.615 250.802C208.653 248.237 211.532 246.241 215.319 245.438C218.976 244.66 224.06 244.971 227.38 248.159C227.743 248.496 227.743 249.092 227.406 249.429C227.068 249.791 226.472 249.791 226.135 249.455C223.826 247.226 219.728 246.345 215.708 247.2C212.517 247.874 210.131 249.48 209.301 251.476C209.146 251.865 208.808 252.072 208.445 252.072Z" fill="#090F20"/>
<path d="M205.722 244.505C205.618 244.505 205.514 244.479 205.411 244.453C204.944 244.272 204.71 243.753 204.866 243.287C206.137 239.918 209.69 237.327 214.385 236.342C219.806 235.228 225.149 236.601 228.339 239.918C228.677 240.281 228.677 240.851 228.314 241.188C227.95 241.525 227.38 241.525 227.043 241.162C223.749 237.741 218.535 237.327 214.774 238.104C210.754 238.933 207.615 241.162 206.578 243.883C206.448 244.272 206.111 244.505 205.722 244.505Z" fill="#090F20"/>
<path d="M200.145 238.156C200.016 238.156 199.886 238.13 199.782 238.078C199.315 237.871 199.108 237.327 199.315 236.886C200.923 233.258 205.229 230.433 211.091 229.138C218.794 227.453 226.757 228.956 231.348 232.999C231.737 233.336 231.763 233.906 231.426 234.269C231.089 234.657 230.518 234.683 230.155 234.346C225.979 230.693 218.639 229.319 211.48 230.9C206.267 232.04 202.324 234.554 200.975 237.612C200.82 237.949 200.482 238.156 200.145 238.156Z" fill="#090F20"/>
<path d="M80.1837 108.843C79.9761 108.843 79.7427 108.791 79.5093 108.636C78.0568 107.833 73.4139 101.665 74.3217 98.8662C75.8002 94.2534 89.0284 85.8054 96.0834 84.9761C96.68 84.8984 97.6138 85.1575 99.2997 87.723C100.13 88.9669 101.012 90.5995 101.141 91.5065C101.297 92.4395 100.7 92.8282 100.311 92.9059C98.4956 93.2946 83.8668 105.086 80.9877 108.48C80.8062 108.688 80.5208 108.843 80.1837 108.843ZM96.1613 86.816C89.3656 87.6971 77.2008 95.8083 76.0336 99.4622C75.5667 100.939 78.6533 105.63 80.054 106.848C83.1924 103.583 95.435 93.2946 99.2478 91.4288C98.7809 90.1331 96.9394 87.2307 96.1613 86.816Z" fill="#090F20"/>
<path d="M73.6213 93.1392C73.4657 93.1392 73.3101 93.0873 73.1544 93.0096C70.6385 91.5584 69.1082 88.1636 69.2379 84.3542C69.3157 82.2292 69.8863 80.3893 70.8979 78.9899C67.0072 79.2491 60.86 79.1713 60.004 75.9839C58.8887 71.8376 66.3588 69.7903 73.5954 67.7949C74.0623 67.6654 74.5291 67.5358 74.9701 67.4062C73.3619 61.9642 71.2091 56.0298 70.2494 55.3561C69.9122 55.0969 69.3416 54.786 68.6932 54.3972C65.9438 52.7387 61.3269 49.9918 60.7562 46.3638C60.3931 44.0056 61.0416 42.0361 62.4941 41.0773C63.6353 40.3517 65.0619 40.3776 66.255 41.155C66.8516 41.5437 68.3041 42.373 70.016 43.3577C77.097 47.4263 80.5726 49.5253 81.221 50.5619C82.1289 52.0131 93.9564 82.3847 95.2792 85.8572C95.4608 86.3237 95.2274 86.842 94.7605 87.0234C94.2936 87.2048 93.7749 86.9715 93.5933 86.5051C88.3798 73.0815 80.3651 52.661 79.6907 51.5207C79.0423 50.6397 72.3504 46.7784 69.1341 44.9385C67.3444 43.9019 65.9178 43.0986 65.2694 42.684C64.6728 42.2952 63.9984 42.2693 63.4797 42.6062C62.6497 43.1504 62.2865 44.4461 62.5459 46.0787C62.9869 48.8775 67.1369 51.3653 69.6269 52.8424C70.3013 53.257 70.8979 53.5939 71.3129 53.9049C73.2841 55.3301 76.1373 64.9185 76.9673 67.8209C77.0451 68.0541 76.9932 68.3132 76.8895 68.5205C76.7598 68.7279 76.5782 68.8833 76.3448 68.9611C75.6185 69.1684 74.8663 69.3757 74.0622 69.583C68.9007 71.0083 61.0934 73.1333 61.7419 75.5433C62.2606 77.5128 69.0563 77.5387 73.4657 76.9427C73.9066 76.8909 74.3216 77.15 74.4513 77.5646C74.581 77.9793 74.3735 78.4457 73.9844 78.653C72.2466 79.5082 71.1313 81.685 71.0275 84.4319C70.9238 87.5157 72.1169 90.3404 74.0363 91.4547C74.4773 91.7139 74.6069 92.2581 74.3735 92.6986C74.2438 92.9837 73.9326 93.1392 73.6213 93.1392Z" fill="#090F20"/>
<path d="M75.1773 100.059C75.1254 100.059 75.0735 100.059 75.0217 100.033C73.0504 99.6958 69.2116 97.545 66.0213 94.2538C63.1941 91.3255 59.8222 86.4536 59.9 79.8973C59.9 79.4049 60.315 78.9903 60.8078 78.9903C61.3006 78.9903 61.7156 79.4049 61.7156 79.8973C61.6378 85.8317 64.7244 90.2889 67.3182 92.984C70.4307 96.1974 73.8545 97.9855 75.307 98.2446C75.7998 98.3224 76.137 98.7888 76.0592 99.2812C75.9813 99.7477 75.5923 100.059 75.1773 100.059Z" fill="#090F20"/>
<path d="M68.1482 71.2674C67.811 71.2674 67.4998 71.086 67.3182 70.7492C65.3729 66.7584 64.1538 61.6014 66.4882 59.0359C67.4998 57.9475 69.5229 56.9887 73.5951 58.5694C74.062 58.7508 74.2954 59.2691 74.1139 59.7356C73.9323 60.202 73.4136 60.4353 72.9467 60.2539C71.2348 59.5801 68.9523 59.0359 67.837 60.2539C66.4623 61.7569 66.9032 65.7477 68.9523 69.9458C69.1598 70.3864 68.9782 70.9306 68.5373 71.1638C68.4076 71.2415 68.2779 71.2674 68.1482 71.2674Z" fill="#090F20"/>
<path d="M62.5974 73.6776C62.3121 73.6776 62.0009 73.5221 61.8452 73.263C59.7702 70.1014 58.5252 65.3332 60.3409 62.7418C61.093 61.6533 62.6752 60.539 65.9693 61.3165C66.4621 61.4201 66.7475 61.9125 66.6437 62.4049C66.54 62.8972 66.0471 63.1823 65.5543 63.0786C63.7128 62.6381 62.4677 62.8713 61.8193 63.7783C60.5743 65.5664 61.6118 69.6091 63.3496 72.2523C63.6349 72.6669 63.5053 73.2371 63.0903 73.4962C62.9606 73.6258 62.779 73.6776 62.5974 73.6776Z" fill="#090F20"/>
<path d="M63.7648 81.6333C62.1048 81.6333 60.0298 80.8041 57.7732 79.1715C54.5829 76.8651 53.0266 72.3042 54.4532 69.4018C54.946 68.417 56.5023 66.2661 60.6004 67.4841C61.0932 67.6137 61.3526 68.132 61.2229 68.6243C61.0673 69.1167 60.5745 69.3759 60.0817 69.2463C58.681 68.8316 56.8395 68.6502 56.0613 70.231C55.1276 72.1228 56.1392 75.8026 58.8107 77.7203C61.8195 79.8971 63.8686 80.1044 64.6986 79.612C65.1136 79.3788 65.2952 78.8864 65.2173 78.2126C65.1655 77.7203 65.5286 77.2797 66.0214 77.2279C66.5142 77.1761 66.9552 77.5389 67.007 78.0312C67.1367 79.4306 66.618 80.5708 65.5805 81.1928C65.1136 81.4778 64.4911 81.6333 63.7648 81.6333Z" fill="#090F20"/>
<path d="M11.4745 214.107C5.89786 214.107 4.78254 212.423 3.97847 209.261C2.9669 205.245 2.24065 200.269 0.891891 187.96C0.865953 187.649 0.840017 187.364 0.788142 187.079L0.632514 185.757C0.321262 182.881 0.0618873 180.626 0.010012 178.812C-0.145614 173.551 1.43658 171.763 7.03912 170.882C22.9908 168.369 44.4931 166.451 52.6116 165.725C53.4156 165.648 54.09 165.596 54.6088 165.544C59.1219 165.129 61.6119 166.684 62.9866 170.753C63.5832 172.515 63.9723 174.821 64.2316 177.853L64.2576 178.112C64.3095 178.605 63.9204 179.045 63.4276 179.097C62.9348 179.149 62.4938 178.76 62.442 178.268L62.416 178.009C62.1826 175.132 61.7935 172.955 61.2488 171.349C60.1335 168.083 58.4475 167.047 54.7385 167.358C54.2197 167.41 53.5713 167.462 52.7413 167.539C44.6487 168.265 23.1723 170.157 7.29849 172.67C2.57784 173.422 1.67002 174.432 1.79971 178.76C1.85158 180.496 2.11096 182.751 2.42221 185.576L2.57784 186.897C2.60378 187.182 2.65565 187.493 2.68159 187.778C4.00441 199.984 4.73067 204.908 5.7163 208.821C6.52036 211.956 6.9613 213.693 24.1061 210.894C24.5989 210.816 25.0658 211.153 25.1436 211.645C25.2214 212.138 24.8842 212.604 24.3914 212.682C18.5036 213.641 14.3795 214.107 11.4745 214.107Z" fill="#090F20"/>
<path d="M63.3237 177.906C53.1821 179.279 20.8638 183.633 1.61804 186.354C1.25492 183.166 0.9696 180.704 0.917725 178.761C14.8203 177.18 50.744 172.515 62.1306 171.038C62.7012 172.749 63.0903 174.977 63.3237 177.906Z" fill="#090F20"/>
<path d="M1.61819 186.742C1.54038 186.742 1.43662 186.716 1.38475 186.664C1.30694 186.612 1.25507 186.508 1.22913 186.405L1.15131 185.705C0.840059 182.855 0.580684 180.574 0.528809 178.786C0.528809 178.579 0.684431 178.423 0.865995 178.397C15.3651 176.739 54.4013 171.66 62.0529 170.675C62.2345 170.649 62.4161 170.753 62.4679 170.934C63.0386 172.644 63.4536 174.925 63.687 177.905C63.7129 178.112 63.5573 178.294 63.3498 178.32L63.1164 178.345C52.6376 179.771 20.7342 184.072 1.64412 186.768C1.67006 186.742 1.64413 186.742 1.61819 186.742ZM1.33288 179.123C1.41069 180.833 1.64413 182.958 1.95538 185.627L1.98132 185.938C21.0455 183.269 52.3522 179.019 62.9089 177.594C62.6754 175.028 62.3383 173.033 61.8454 171.478C53.5454 172.541 15.9098 177.438 1.33288 179.123Z" fill="#090F20"/>
<path d="M10.9818 197.367C10.2555 197.367 9.65895 197.315 9.21801 197.237C8.93269 197.185 8.07675 196.978 7.79144 196.226C7.53206 195.501 7.11705 194.05 6.85768 192.754C6.3908 190.422 6.57236 189.644 6.98737 189.204C8.20644 187.908 15.5727 187.079 18.2443 187.312C19.3596 187.416 19.9562 187.649 20.2674 188.141C21.0456 189.307 22.3165 193.92 20.8121 195.475C19.8006 196.46 14.2758 197.367 10.9818 197.367ZM9.4255 195.423C10.878 195.993 18.4778 194.905 19.5153 194.153C19.9562 193.609 19.4893 190.422 18.8149 189.204C18.3221 189.022 16.4546 188.945 13.5237 189.281C10.7224 189.618 8.90675 190.111 8.388 190.37C8.31019 191.147 8.88081 193.816 9.4255 195.423ZM7.63581 189.774L8.28425 190.396L7.63581 189.774Z" fill="#090F20"/>
<path d="M133.304 248.962C132.837 248.962 132.422 248.599 132.396 248.107C132.292 246.371 132.162 244.66 132.033 242.976L131.929 241.654C131.903 241.162 132.266 240.721 132.759 240.695C133.252 240.669 133.693 241.032 133.719 241.525L133.822 242.846C133.952 244.531 134.082 246.241 134.186 248.003C134.211 248.496 133.848 248.936 133.33 248.962C133.356 248.962 133.33 248.962 133.304 248.962ZM132.474 236.031C131.981 236.031 131.592 235.642 131.566 235.15C131.514 234.035 131.488 233.025 131.488 232.092C131.488 230.796 131.54 229.656 131.618 228.567C131.644 228.075 132.085 227.686 132.603 227.738C133.096 227.764 133.485 228.205 133.433 228.723C133.356 229.759 133.304 230.848 133.304 232.092C133.304 232.999 133.33 233.984 133.356 235.098C133.381 235.59 132.992 236.031 132.474 236.031C132.5 236.031 132.474 236.031 132.474 236.031ZM133.926 223.281C133.796 223.281 133.667 223.255 133.563 223.203C133.096 222.996 132.915 222.452 133.122 222.011C133.848 220.404 134.86 219.135 136.105 218.228C136.624 217.839 137.298 217.476 138.076 217.139C138.543 216.932 139.062 217.165 139.269 217.606C139.477 218.072 139.243 218.59 138.802 218.798C138.154 219.083 137.609 219.368 137.168 219.679C136.157 220.43 135.353 221.441 134.756 222.763C134.601 223.074 134.263 223.281 133.926 223.281ZM144.69 217.139C144.249 217.139 143.886 216.828 143.808 216.388C143.731 215.895 144.042 215.429 144.535 215.325C146.428 214.988 148.633 214.677 151.045 214.418C151.538 214.366 151.979 214.729 152.031 215.222C152.083 215.714 151.719 216.154 151.227 216.206C148.866 216.44 146.713 216.75 144.872 217.087C144.794 217.139 144.742 217.139 144.69 217.139ZM157.607 215.766C157.14 215.766 156.725 215.403 156.699 214.911C156.673 214.418 157.063 213.978 157.555 213.952C160.668 213.77 163.158 213.719 164.092 213.719C164.092 213.719 164.092 213.719 164.118 213.719C164.61 213.719 165.025 214.107 165.025 214.6C165.025 215.092 164.636 215.507 164.144 215.533C163.236 215.558 160.772 215.584 157.685 215.766C157.633 215.766 157.607 215.766 157.607 215.766Z" fill="#090F20"/>
<path d="M272.278 301.128C271.811 301.128 271.422 300.791 271.37 300.324C271.318 299.832 271.681 299.365 272.174 299.314C274.353 299.054 276.506 298.795 278.607 298.51C279.1 298.432 279.566 298.795 279.618 299.288C279.696 299.78 279.333 300.246 278.84 300.298C276.739 300.583 274.561 300.842 272.382 301.102C272.356 301.102 272.33 301.128 272.278 301.128ZM285.169 299.417C284.728 299.417 284.339 299.106 284.261 298.64C284.183 298.147 284.521 297.681 285.013 297.603C287.4 297.24 289.552 296.878 291.394 296.515C291.887 296.411 292.354 296.748 292.457 297.24C292.561 297.733 292.224 298.199 291.731 298.303C289.864 298.666 287.711 299.028 285.299 299.391C285.273 299.417 285.221 299.417 285.169 299.417ZM297.904 296.826C297.515 296.826 297.178 296.593 297.048 296.204C296.893 295.737 297.152 295.219 297.619 295.064C297.956 294.96 298.268 294.83 298.527 294.727C300.083 294.079 301.095 293.042 301.717 291.461C301.899 290.995 302.418 290.762 302.884 290.943C303.351 291.125 303.585 291.643 303.403 292.109C302.599 294.182 301.25 295.582 299.227 296.411C298.916 296.541 298.579 296.67 298.19 296.8C298.086 296.8 297.982 296.826 297.904 296.826ZM303.403 286.305C302.91 286.305 302.495 285.916 302.495 285.398C302.469 283.687 302.34 281.588 302.08 279.023C302.028 278.53 302.392 278.09 302.884 278.038C303.377 277.986 303.818 278.349 303.87 278.841C304.129 281.459 304.285 283.609 304.285 285.398C304.311 285.89 303.922 286.305 303.403 286.305ZM302.21 273.399C301.769 273.399 301.38 273.062 301.302 272.622C301.043 270.678 300.758 268.579 300.446 266.35L300.42 266.221C300.343 265.729 300.706 265.262 301.198 265.21C301.691 265.133 302.158 265.495 302.21 265.988L302.236 266.117C302.547 268.346 302.833 270.445 303.092 272.414C303.17 272.907 302.807 273.373 302.314 273.425C302.288 273.399 302.262 273.399 302.21 273.399Z" fill="#090F20"/>
<path d="M158.515 318.983C156.051 318.957 153.846 318.827 151.927 318.594C151.434 318.542 151.071 318.076 151.149 317.583C151.2 317.091 151.667 316.728 152.16 316.806C154.002 317.039 156.129 317.169 158.515 317.194C159.008 317.194 159.423 317.609 159.423 318.101C159.423 318.568 159.008 318.983 158.515 318.983ZM164.973 318.775C164.506 318.775 164.091 318.412 164.065 317.92C164.04 317.428 164.429 316.987 164.921 316.961C166.348 316.883 167.878 316.754 169.486 316.624C169.979 316.573 170.42 316.961 170.472 317.454C170.524 317.946 170.135 318.387 169.642 318.438C168.034 318.594 166.478 318.697 165.025 318.775C165.025 318.775 164.999 318.775 164.973 318.775ZM145.805 316.987C145.676 316.987 145.546 316.961 145.442 316.909C143.056 315.847 141.37 314.344 140.281 312.297C140.047 311.856 140.203 311.312 140.644 311.079C141.085 310.845 141.629 311.001 141.863 311.441C142.771 313.1 144.171 314.344 146.169 315.251C146.635 315.458 146.843 316.002 146.635 316.443C146.48 316.78 146.143 316.987 145.805 316.987ZM139.477 306.544C139.01 306.544 138.621 306.181 138.569 305.714C138.439 304.211 138.387 302.631 138.335 300.946C138.309 300.376 138.309 299.78 138.283 299.184C138.258 298.692 138.647 298.251 139.165 298.251C139.658 298.225 140.099 298.614 140.099 299.132C140.125 299.728 140.125 300.324 140.151 300.894C140.203 302.553 140.255 304.108 140.358 305.559C140.41 306.051 140.021 306.492 139.528 306.544C139.528 306.544 139.503 306.544 139.477 306.544Z" fill="#090F20"/>
<path d="M25.2996 191.251C41.6662 184.876 63.1686 178.708 69.0305 177.102C74.8924 175.469 78.2643 173.448 81.2471 180.833C84.204 188.219 88.5097 200.71 90.1956 204.415C91.8815 208.121 93.3859 211.283 83.8409 214.6C74.2958 217.917 53.4679 224.499 44.8566 228.179C36.2453 231.859 33.3143 233.051 28.6455 222.167C23.9768 211.283 21.9277 205.219 20.1899 199.906C18.4261 194.542 21.7721 192.624 25.2996 191.251Z" fill="#FBD931"/>
<path d="M68.385 200.262C71.4226 199.538 73.298 196.492 72.5738 193.457C71.8496 190.422 68.8001 188.548 65.7625 189.272C62.7249 189.995 60.8495 193.042 61.5737 196.077C62.2979 199.112 65.3474 200.986 68.385 200.262Z" fill="#FFFEF2"/>
<path d="M67.0842 201.332C63.4789 201.332 60.522 198.404 60.522 194.776C60.522 191.174 63.4529 188.219 67.0842 188.219C70.7155 188.219 73.6464 191.148 73.6464 194.776C73.6464 198.404 70.6895 201.332 67.0842 201.332ZM67.0842 190.033C64.4645 190.033 62.3376 192.158 62.3376 194.776C62.3376 197.393 64.4645 199.518 67.0842 199.518C69.7039 199.518 71.8308 197.393 71.8308 194.776C71.8308 192.158 69.7039 190.033 67.0842 190.033Z" fill="#090F20"/>
<path d="M74.9442 199.129C74.8664 199.129 74.7885 199.129 74.7107 199.129C71.1054 198.999 68.2522 195.967 68.3819 192.365C68.5116 188.763 71.5463 185.912 75.1517 186.042C78.757 186.172 81.6101 189.204 81.4805 192.806C81.3767 196.33 78.4458 199.129 74.9442 199.129ZM70.1976 192.391C70.1457 193.661 70.6126 194.853 71.4685 195.786C72.3245 196.719 73.5176 197.237 74.7626 197.289C76.0336 197.341 77.2267 196.874 78.1604 196.019C79.0942 195.164 79.6129 193.972 79.6648 192.728C79.7426 190.111 77.6936 187.908 75.0739 187.83C72.4801 187.726 70.2754 189.8 70.1976 192.391Z" fill="#090F20"/>
<path d="M73.4394 207.395C73.0762 207.395 72.7131 207.162 72.5834 206.773C72.4278 206.307 72.6612 205.789 73.1541 205.607C77.8228 204.001 81.5579 202.757 81.5838 202.757C82.0507 202.601 82.5694 202.86 82.7251 203.327C82.8807 203.793 82.6213 204.312 82.1544 204.467C82.1285 204.467 78.3935 205.711 73.7506 207.318C73.6469 207.369 73.5431 207.395 73.4394 207.395Z" fill="#090F20"/>
<path d="M61.4305 211.645C61.0673 211.645 60.7301 211.438 60.6005 211.075C60.4189 210.609 60.6264 210.09 61.0933 209.883C62.3902 209.339 63.6092 208.847 64.6986 208.38C66.1511 207.784 67.7852 207.136 69.523 206.437C69.9899 206.255 70.5086 206.488 70.6902 206.955C70.8718 207.421 70.6383 207.94 70.1715 208.121C68.4336 208.795 66.8255 209.469 65.373 210.065C64.2836 210.505 63.0645 211.023 61.7676 211.568C61.6639 211.619 61.5342 211.645 61.4305 211.645Z" fill="#090F20"/>
<path d="M49.1101 216.88C48.747 216.88 48.4358 216.673 48.2801 216.336C48.0726 215.869 48.2802 215.351 48.747 215.144C51.2889 214.03 54.168 212.812 57.073 211.594C57.5399 211.386 58.0586 211.619 58.2661 212.086C58.4736 212.552 58.2402 213.071 57.7733 213.278C54.8683 214.496 52.0152 215.74 49.4733 216.828C49.3436 216.854 49.2139 216.88 49.1101 216.88Z" fill="#090F20"/>
<path d="M39.0204 221.441C38.6832 221.441 38.3719 221.26 38.2163 220.949C37.9829 220.508 38.1645 219.964 38.6313 219.731C40.1357 218.979 42.7295 217.787 46.3348 216.206C46.8017 215.999 47.3204 216.206 47.5279 216.673C47.7354 217.139 47.5279 217.658 47.0611 217.865C43.4817 219.42 40.9398 220.612 39.4354 221.337C39.2798 221.415 39.1501 221.441 39.0204 221.441Z" fill="#090F20"/>
</svg>
