<svg width="498" height="382" viewBox="0 0 498 382" fill="none" xmlns="http://www.w3.org/2000/svg">
<path d="M73.9181 364.142C73.9181 364.142 39.4934 378.68 14.3726 327.624C-10.7481 276.569 -5.86355 228.769 52.519 198.764C110.901 168.759 136.836 82.1153 213.827 56.9945C290.817 31.8738 349.2 65.9496 375.135 102.351C401.07 138.87 396.999 162.362 443.17 193.879C489.341 225.513 500.739 257.844 497.482 296.805C494.226 335.649 447.241 363.212 447.241 363.212L73.9181 364.142Z" fill="#FE8514"/>
<path opacity="0.7" d="M73.9181 364.142C73.9181 364.142 39.4934 378.68 14.3726 327.624C-10.7481 276.569 -5.86355 228.769 52.519 198.764C110.901 168.759 136.836 82.1153 213.827 56.9945C290.817 31.8738 349.2 65.9496 375.135 102.351C401.07 138.87 396.999 162.362 443.17 193.879C489.341 225.513 500.739 257.844 497.482 296.805C494.226 335.649 447.241 363.212 447.241 363.212L73.9181 364.142Z" fill="white"/>
<path d="M112.413 4.07808C112.413 4.07808 114.739 1.05428 128.463 1.75208C142.186 2.56618 181.379 7.10187 199.289 5.93887C217.2 4.77588 245.809 -0.922819 250.694 2.10098C255.695 5.12477 248.833 10.4746 248.833 10.4746L117.763 10.1257L112.413 4.07808Z" fill="white" stroke="#263238" stroke-miterlimit="10" stroke-linecap="round" stroke-linejoin="round"/>
<path d="M117.763 10.1257C117.763 10.1257 118.577 3.61291 112.413 4.07811C106.366 4.42701 104.04 11.7539 107.412 19.6623C110.785 27.687 113.925 27.3381 119.275 46.2949C124.625 65.3681 121.136 135.497 121.136 152.942C121.136 170.503 121.485 175.039 121.485 175.039L134.859 173.178C134.859 173.178 132.184 53.9707 128.346 34.8976C124.625 15.9407 117.763 10.1257 117.763 10.1257Z" fill="#263238" stroke="#263238" stroke-miterlimit="10" stroke-linecap="round" stroke-linejoin="round"/>
<path d="M152.072 170.271C152.072 171.783 146.373 339.254 146.373 339.254L152.886 338.091L158.933 172.829L152.072 170.271Z" fill="white" stroke="#263238" stroke-miterlimit="10" stroke-linecap="round" stroke-linejoin="round"/>
<path d="M146.373 339.371L151.955 171.666L147.071 170.968L140.791 336.579L146.373 339.371Z" fill="#263238" stroke="#263238" stroke-miterlimit="10" stroke-linecap="round" stroke-linejoin="round"/>
<path d="M237.319 159.106C237.436 160.618 253.252 326.578 253.252 326.578L248.252 323.903L230.807 162.13L237.319 159.106Z" fill="#263238" stroke="#263238" stroke-miterlimit="10" stroke-linecap="round" stroke-linejoin="round"/>
<path d="M253.252 326.578L237.436 160.501L242.32 159.338L259.067 325.415L253.252 326.578Z" fill="white" stroke="#263238" stroke-width="0.7109" stroke-miterlimit="10" stroke-linecap="round" stroke-linejoin="round"/>
<path d="M180.914 162.944C180.914 163.99 176.843 283.081 176.843 283.081L181.495 282.267L185.799 164.688L180.914 162.944Z" fill="white" stroke="#263238" stroke-width="0.7109" stroke-miterlimit="10" stroke-linecap="round" stroke-linejoin="round"/>
<path d="M176.96 283.081L180.914 163.99L177.425 163.409L173.006 281.221L176.96 283.081Z" fill="#263238" stroke="#263238" stroke-width="0.7109" stroke-miterlimit="10" stroke-linecap="round" stroke-linejoin="round"/>
<path d="M117.763 10.1256C118.112 11.9864 127.998 178.877 127.998 178.877L263.603 172.364L248.717 10.5908L117.763 10.1256Z" fill="white" stroke="#263238" stroke-miterlimit="10" stroke-linecap="round" stroke-linejoin="round"/>
<path d="M161.143 94.792L150.211 94.9083L145.21 31.7575L156.142 31.6412L161.143 94.792Z" fill="#263238"/>
<path d="M177.192 94.443L166.26 94.6756L162.655 50.2491L173.587 50.0165L177.192 94.443Z" fill="#FE8514"/>
<path d="M193.125 94.2104L182.193 94.3267L179.867 64.7866L190.799 64.554L193.125 94.2104Z" fill="#263238"/>
<path d="M209.059 93.8616L198.126 94.0942L193.242 30.9434L204.174 30.7108L209.059 93.8616Z" fill="#FE8514"/>
<path d="M133.696 35.1301L140.442 35.0138" stroke="#263238" stroke-width="0.75" stroke-miterlimit="10" stroke-linecap="round" stroke-linejoin="round"/>
<path d="M134.394 43.7363L141.139 43.62" stroke="#263238" stroke-width="0.75" stroke-miterlimit="10" stroke-linecap="round" stroke-linejoin="round"/>
<path d="M135.092 52.3426L141.837 52.2263" stroke="#263238" stroke-width="0.75" stroke-miterlimit="10" stroke-linecap="round" stroke-linejoin="round"/>
<path d="M135.79 60.8325L142.419 60.7162" stroke="#263238" stroke-width="0.75" stroke-miterlimit="10" stroke-linecap="round" stroke-linejoin="round"/>
<path d="M136.371 69.4387L143.117 69.3224" stroke="#263238" stroke-width="0.75" stroke-miterlimit="10" stroke-linecap="round" stroke-linejoin="round"/>
<path d="M137.069 78.0448L143.814 77.9285" stroke="#263238" stroke-width="0.75" stroke-miterlimit="10" stroke-linecap="round" stroke-linejoin="round"/>
<path d="M137.767 86.6511L144.512 86.4185" stroke="#263238" stroke-width="0.75" stroke-miterlimit="10" stroke-linecap="round" stroke-linejoin="round"/>
<path d="M138.465 95.1409L145.21 95.0247" stroke="#263238" stroke-width="0.75" stroke-miterlimit="10" stroke-linecap="round" stroke-linejoin="round"/>
<path d="M199.638 133.171C199.638 132.822 199.638 132.589 199.638 132.24C199.638 125.728 197.196 119.796 193.242 115.144L173.703 132.24L199.638 133.171Z" fill="#FE8514" stroke="white" stroke-miterlimit="10" stroke-linecap="round" stroke-linejoin="round"/>
<path d="M175.797 106.422C175.099 106.422 174.401 106.306 173.82 106.306C159.515 106.306 147.885 117.936 147.885 132.241C147.885 142.475 153.816 151.314 162.306 155.5L173.82 132.241L175.797 106.422Z" fill="#263238" stroke="white" stroke-miterlimit="10" stroke-linecap="round" stroke-linejoin="round"/>
<path d="M173.703 132.241L162.19 155.501C165.679 157.245 169.517 158.175 173.703 158.175C187.776 158.175 199.173 147.011 199.638 133.171L173.703 132.241Z" fill="#FE8514" stroke="white" stroke-miterlimit="10" stroke-linecap="round" stroke-linejoin="round"/>
<path d="M193.242 115.144C188.939 110.144 182.659 106.887 175.797 106.306L173.82 132.124L193.242 115.144Z" fill="#FE8514" stroke="white" stroke-miterlimit="10" stroke-linecap="round" stroke-linejoin="round"/>
<path d="M338.733 123.285C338.151 120.727 339.663 118.052 342.338 117.703C346.06 117.238 350.595 122.239 352.107 125.262C352.224 125.495 353.736 129.798 353.619 129.798C353.619 129.798 346.99 129.914 344.315 128.751C341.989 127.705 339.431 125.844 338.733 123.285ZM434.331 111.772C433.75 114.33 431.191 116.307 428.982 117.47C426.656 118.517 421.306 118.75 420.026 118.75C419.329 119.564 418.515 120.494 417.7 121.541C416.305 123.402 414.677 125.379 413.165 127.821C412.7 128.403 412.351 129.1 411.885 129.798C412.816 128.868 414.211 127.472 414.328 127.356C417.003 125.262 423.283 122.82 426.423 124.797C428.633 126.309 428.865 129.333 427.237 131.31C425.609 133.403 422.352 133.869 419.794 133.869C417.235 133.752 412.234 131.426 411.188 130.845C410.257 132.357 409.327 133.869 408.513 135.497C407.001 138.404 405.605 141.544 404.559 144.917C404.675 144.917 404.675 144.917 404.791 145.033C405.605 143.987 407.233 142.01 407.35 141.777C409.676 139.451 415.723 136.195 419.096 137.939C421.538 139.218 422.004 142.242 420.608 144.336C419.212 146.545 416.072 147.476 413.514 147.592C410.606 147.825 404.675 145.499 404.442 145.499C403.512 148.639 402.814 152.011 402.233 155.384C401.884 157.826 401.535 160.385 401.302 162.944C401.767 162.246 403.977 159.455 404.21 159.338C406.536 157.012 412.583 153.756 415.956 155.5C418.398 156.78 418.863 159.803 417.468 161.897C416.072 164.107 412.932 165.037 410.374 165.153C407.582 165.386 401.884 163.176 401.418 163.06C401.302 164.223 401.186 165.386 401.07 166.549C400.721 170.27 400.372 174.108 399.907 177.83C399.79 179.109 399.558 180.389 399.325 181.668C400.139 180.621 401.651 178.76 401.767 178.528C404.093 176.202 410.141 172.945 413.514 174.69C415.956 175.969 416.421 178.993 415.026 181.086C413.63 183.296 410.49 184.226 407.931 184.343C405.373 184.575 400.604 182.831 399.209 182.366C398.86 184.459 398.511 186.552 397.929 188.53C397.697 189.344 397.581 190.274 397.232 191.088C396.999 191.902 396.766 192.716 396.534 193.53C395.952 195.159 395.487 196.787 394.906 198.299C394.673 199.113 394.324 199.811 394.092 200.625C394.789 199.462 395.836 197.601 395.952 197.368C397.929 194.693 403.396 190.623 406.885 191.786C409.443 192.6 410.374 195.508 409.327 197.95C408.28 200.392 405.256 201.788 402.814 202.253C400.139 202.834 394.324 201.671 393.626 201.555C392.929 203.416 392.231 205.16 391.533 206.905C389.323 212.138 387.346 216.558 385.951 219.582C385.834 219.698 385.834 219.93 385.718 220.047H396.185L392.58 290.873C392.347 296.223 387.811 300.526 382.462 300.526C377.112 300.526 372.576 296.339 372.344 290.873L368.738 220.047H380.019C380.019 219.582 379.903 219 379.787 218.419C379.438 215.162 378.856 210.51 377.81 204.928C377.577 203.3 377.228 201.671 376.879 199.927C376.181 200.043 370.366 200.741 367.692 199.927C365.249 199.229 362.458 197.601 361.528 195.159C360.597 192.716 361.76 189.925 364.435 189.227C368.04 188.297 373.158 192.716 375.018 195.624C375.135 195.856 376.298 198.066 376.763 199.345C376.53 198.299 376.298 197.252 376.065 196.205C375.716 194.577 375.367 192.949 374.902 191.321C374.67 190.507 374.437 189.693 374.204 188.878C373.972 188.064 373.623 187.25 373.39 186.436C372.925 185.273 372.46 183.994 371.995 182.715C370.366 183.18 365.714 184.343 363.388 183.994C360.946 183.645 357.806 182.482 356.527 180.156C355.247 177.83 356.062 174.922 358.504 173.876C361.993 172.364 367.692 175.969 369.901 178.528C370.018 178.644 370.366 179.226 370.832 179.923C370.366 178.76 369.785 177.597 369.203 176.318C367.575 172.945 365.947 169.573 364.203 166.2C363.854 165.502 363.505 164.804 363.156 164.107C361.877 164.455 356.759 165.851 354.317 165.502C351.875 165.153 348.735 163.99 347.455 161.664C346.176 159.338 346.99 156.431 349.432 155.384C352.921 153.872 358.62 157.477 360.83 160.036C360.946 160.152 361.411 160.85 361.877 161.664C360.946 159.803 360.132 157.943 359.318 156.082C357.922 152.825 356.643 149.453 355.713 146.196C355.247 146.313 349.316 148.057 346.525 147.592C344.083 147.243 340.943 146.08 339.663 143.754C338.384 141.428 339.198 138.521 341.64 137.474C345.129 135.962 350.828 139.567 353.038 142.126C353.154 142.359 354.899 144.801 355.48 145.731V145.615C354.55 142.126 354.084 138.753 353.736 135.497C353.387 132.24 353.387 129.1 353.503 126.309C353.619 123.402 353.852 120.843 354.084 118.517C354.201 117.238 354.317 116.191 354.55 115.028H354.433C354.433 115.028 353.154 110.725 353.038 110.376C352.456 107.12 353.387 100.374 356.643 98.6298C359.085 97.3505 361.76 98.7461 362.807 101.188C363.737 103.631 362.691 106.771 361.411 108.864C360.132 111.074 355.713 114.098 354.666 114.912C354.55 115.958 354.433 117.238 354.317 118.517C354.084 120.843 353.968 123.402 353.968 126.309C353.968 127.123 353.968 127.821 353.968 128.635C354.201 127.356 354.55 125.495 354.666 125.262C355.713 122.122 359.551 116.54 363.272 116.54C365.947 116.54 367.808 118.982 367.575 121.541C367.343 124.216 364.9 126.425 362.807 127.705C360.597 129.1 355.131 129.798 353.968 129.914C353.968 131.659 354.084 133.403 354.317 135.264C354.666 138.521 355.247 141.893 356.178 145.266C356.294 145.266 356.294 145.266 356.41 145.266C356.527 143.987 356.759 141.312 356.759 141.195C357.457 137.939 360.714 132.008 364.435 131.543C367.11 131.194 369.203 133.52 369.203 136.078C369.203 138.753 367.11 141.196 365.133 142.707C362.807 144.452 356.643 145.847 356.41 145.964C357.341 149.104 358.62 152.244 360.132 155.384C361.179 157.71 362.342 159.92 363.505 162.246C363.505 161.315 363.854 157.943 363.854 157.594C364.551 154.337 367.808 148.406 371.529 147.941C374.204 147.592 376.298 149.918 376.298 152.477C376.298 155.151 374.204 157.594 372.227 159.106C370.018 160.85 364.086 162.246 363.505 162.362C364.086 163.409 364.551 164.455 365.133 165.386C366.877 168.759 368.738 172.131 370.366 175.388C370.948 176.551 371.413 177.714 371.995 178.877C372.111 177.597 372.344 175.155 372.344 174.922C373.041 171.666 376.298 165.735 380.019 165.27C382.694 164.921 384.788 167.247 384.788 169.805C384.788 172.48 382.694 174.922 380.717 176.434C378.74 177.946 373.739 179.226 372.344 179.574C373.158 181.552 374.088 183.529 374.786 185.389C375.135 186.204 375.484 187.134 375.716 187.948C375.949 188.762 376.181 189.576 376.414 190.39C376.879 192.135 377.344 193.647 377.693 195.275C377.926 196.089 378.042 196.903 378.275 197.601C378.159 196.205 378.042 194.112 378.042 193.879C378.159 190.507 380.485 184.11 384.09 183.18C386.648 182.482 389.091 184.343 389.556 186.901C389.556 187.25 389.672 187.599 389.672 187.832C391.3 190.39 391.998 193.996 391.998 196.205C391.998 196.438 391.649 198.997 391.417 200.276C391.766 199.229 392.231 198.299 392.58 197.252C393.161 195.74 393.743 194.112 394.324 192.6C394.557 191.786 394.906 190.972 395.138 190.158C395.371 189.344 395.603 188.53 395.836 187.599C396.185 186.32 396.418 185.041 396.65 183.761C395.138 183.296 390.486 181.668 388.742 180.04C386.881 178.411 384.904 175.737 385.137 173.062C385.369 170.503 387.579 168.41 390.254 168.875C393.975 169.573 396.766 175.737 397.115 178.993C397.115 179.109 397.115 179.807 397.115 180.621C397.348 179.342 397.581 178.063 397.813 176.783C398.395 173.062 398.744 169.34 399.209 165.618C399.325 164.804 399.441 164.107 399.558 163.292C398.278 162.827 393.277 161.199 391.417 159.571C389.556 157.943 387.579 155.268 387.811 152.593C388.044 150.034 390.254 147.941 392.929 148.406C396.65 149.104 399.441 155.268 399.79 158.524C399.79 158.64 399.79 159.455 399.79 160.501C400.023 158.408 400.372 156.431 400.721 154.454C401.302 150.965 402.116 147.476 403.163 144.219C402.698 144.103 396.883 142.242 394.789 140.381C392.929 138.753 390.951 136.078 391.184 133.403C391.417 130.845 393.626 128.751 396.301 129.217C400.023 129.914 402.814 136.078 403.163 139.335C403.163 139.567 403.279 142.591 403.279 143.754V143.638C404.442 140.265 405.954 137.125 407.466 134.218C408.978 131.31 410.722 128.751 412.351 126.425C413.979 124.099 415.607 122.006 417.119 120.262C417.933 119.331 418.631 118.401 419.329 117.587H419.212C419.096 117.587 420.492 113.284 420.608 112.935C422.004 109.911 426.423 104.794 430.145 105.143C433.285 106.654 434.913 109.213 434.331 111.772ZM391.3 201.788C390.719 201.439 385.718 198.997 383.857 197.019C381.648 198.299 379.205 199.229 378.74 199.462C379.205 201.439 379.554 203.3 379.903 205.044C381.066 210.626 381.764 215.395 382.229 218.651C382.345 219.349 382.462 219.93 382.462 220.512H382.694C382.927 220.047 383.159 219.465 383.508 218.884C385.02 215.976 387.114 211.673 389.323 206.556C390.021 205.044 390.603 203.532 391.3 201.788ZM410.955 130.147C410.955 130.147 412.118 125.728 412.234 125.495C412.7 122.122 411.653 115.493 408.28 113.865C405.838 112.702 403.163 114.098 402.233 116.54C401.302 118.982 402.465 122.122 403.861 124.216C405.373 126.658 410.955 130.147 410.955 130.147Z" fill="#FE8514"/>
<path opacity="0.3" d="M338.733 123.285C338.151 120.727 339.663 118.052 342.338 117.703C346.06 117.238 350.595 122.239 352.107 125.262C352.224 125.495 353.736 129.798 353.619 129.798C353.619 129.798 346.99 129.914 344.315 128.751C341.989 127.705 339.431 125.844 338.733 123.285ZM434.331 111.772C433.75 114.33 431.191 116.307 428.982 117.47C426.656 118.517 421.306 118.75 420.026 118.75C419.329 119.564 418.515 120.494 417.7 121.541C416.305 123.402 414.677 125.379 413.165 127.821C412.7 128.403 412.351 129.1 411.885 129.798C412.816 128.868 414.211 127.472 414.328 127.356C417.003 125.262 423.283 122.82 426.423 124.797C428.633 126.309 428.865 129.333 427.237 131.31C425.609 133.403 422.352 133.869 419.794 133.869C417.235 133.752 412.234 131.426 411.188 130.845C410.257 132.357 409.327 133.869 408.513 135.497C407.001 138.404 405.605 141.544 404.559 144.917C404.675 144.917 404.675 144.917 404.791 145.033C405.605 143.987 407.233 142.01 407.35 141.777C409.676 139.451 415.723 136.195 419.096 137.939C421.538 139.218 422.004 142.242 420.608 144.336C419.212 146.545 416.072 147.476 413.514 147.592C410.606 147.825 404.675 145.499 404.442 145.499C403.512 148.639 402.814 152.011 402.233 155.384C401.884 157.826 401.535 160.385 401.302 162.944C401.767 162.246 403.977 159.455 404.21 159.338C406.536 157.012 412.583 153.756 415.956 155.5C418.398 156.78 418.863 159.803 417.468 161.897C416.072 164.107 412.932 165.037 410.374 165.153C407.582 165.386 401.884 163.176 401.418 163.06C401.302 164.223 401.186 165.386 401.07 166.549C400.721 170.27 400.372 174.108 399.907 177.83C399.79 179.109 399.558 180.389 399.325 181.668C400.139 180.621 401.651 178.76 401.767 178.528C404.093 176.202 410.141 172.945 413.514 174.69C415.956 175.969 416.421 178.993 415.026 181.086C413.63 183.296 410.49 184.226 407.931 184.343C405.373 184.575 400.604 182.831 399.209 182.366C398.86 184.459 398.511 186.552 397.929 188.53C397.697 189.344 397.581 190.274 397.232 191.088C396.999 191.902 396.766 192.716 396.534 193.53C395.952 195.159 395.487 196.787 394.906 198.299C394.673 199.113 394.324 199.811 394.092 200.625C394.789 199.462 395.836 197.601 395.952 197.368C397.929 194.693 403.396 190.623 406.885 191.786C409.443 192.6 410.374 195.508 409.327 197.95C408.28 200.392 405.256 201.788 402.814 202.253C400.139 202.834 394.324 201.671 393.626 201.555C392.929 203.416 392.231 205.16 391.533 206.905C389.323 212.138 387.346 216.558 385.951 219.582C385.834 219.698 385.834 219.93 385.718 220.047H396.185L392.58 290.873C392.347 296.223 387.811 300.526 382.462 300.526C377.112 300.526 372.576 296.339 372.344 290.873L368.738 220.047H380.019C380.019 219.582 379.903 219 379.787 218.419C379.438 215.162 378.856 210.51 377.81 204.928C377.577 203.3 377.228 201.671 376.879 199.927C376.181 200.043 370.366 200.741 367.692 199.927C365.249 199.229 362.458 197.601 361.528 195.159C360.597 192.716 361.76 189.925 364.435 189.227C368.04 188.297 373.158 192.716 375.018 195.624C375.135 195.856 376.298 198.066 376.763 199.345C376.53 198.299 376.298 197.252 376.065 196.205C375.716 194.577 375.367 192.949 374.902 191.321C374.67 190.507 374.437 189.693 374.204 188.878C373.972 188.064 373.623 187.25 373.39 186.436C372.925 185.273 372.46 183.994 371.995 182.715C370.366 183.18 365.714 184.343 363.388 183.994C360.946 183.645 357.806 182.482 356.527 180.156C355.247 177.83 356.062 174.922 358.504 173.876C361.993 172.364 367.692 175.969 369.901 178.528C370.018 178.644 370.366 179.226 370.832 179.923C370.366 178.76 369.785 177.597 369.203 176.318C367.575 172.945 365.947 169.573 364.203 166.2C363.854 165.502 363.505 164.804 363.156 164.107C361.877 164.455 356.759 165.851 354.317 165.502C351.875 165.153 348.735 163.99 347.455 161.664C346.176 159.338 346.99 156.431 349.432 155.384C352.921 153.872 358.62 157.477 360.83 160.036C360.946 160.152 361.411 160.85 361.877 161.664C360.946 159.803 360.132 157.943 359.318 156.082C357.922 152.825 356.643 149.453 355.713 146.196C355.247 146.313 349.316 148.057 346.525 147.592C344.083 147.243 340.943 146.08 339.663 143.754C338.384 141.428 339.198 138.521 341.64 137.474C345.129 135.962 350.828 139.567 353.038 142.126C353.154 142.359 354.899 144.801 355.48 145.731V145.615C354.55 142.126 354.084 138.753 353.736 135.497C353.387 132.24 353.387 129.1 353.503 126.309C353.619 123.402 353.852 120.843 354.084 118.517C354.201 117.238 354.317 116.191 354.55 115.028H354.433C354.433 115.028 353.154 110.725 353.038 110.376C352.456 107.12 353.387 100.374 356.643 98.6298C359.085 97.3505 361.76 98.7461 362.807 101.188C363.737 103.631 362.691 106.771 361.411 108.864C360.132 111.074 355.713 114.098 354.666 114.912C354.55 115.958 354.433 117.238 354.317 118.517C354.084 120.843 353.968 123.402 353.968 126.309C353.968 127.123 353.968 127.821 353.968 128.635C354.201 127.356 354.55 125.495 354.666 125.262C355.713 122.122 359.551 116.54 363.272 116.54C365.947 116.54 367.808 118.982 367.575 121.541C367.343 124.216 364.9 126.425 362.807 127.705C360.597 129.1 355.131 129.798 353.968 129.914C353.968 131.659 354.084 133.403 354.317 135.264C354.666 138.521 355.247 141.893 356.178 145.266C356.294 145.266 356.294 145.266 356.41 145.266C356.527 143.987 356.759 141.312 356.759 141.195C357.457 137.939 360.714 132.008 364.435 131.543C367.11 131.194 369.203 133.52 369.203 136.078C369.203 138.753 367.11 141.196 365.133 142.707C362.807 144.452 356.643 145.847 356.41 145.964C357.341 149.104 358.62 152.244 360.132 155.384C361.179 157.71 362.342 159.92 363.505 162.246C363.505 161.315 363.854 157.943 363.854 157.594C364.551 154.337 367.808 148.406 371.529 147.941C374.204 147.592 376.298 149.918 376.298 152.477C376.298 155.151 374.204 157.594 372.227 159.106C370.018 160.85 364.086 162.246 363.505 162.362C364.086 163.409 364.551 164.455 365.133 165.386C366.877 168.759 368.738 172.131 370.366 175.388C370.948 176.551 371.413 177.714 371.995 178.877C372.111 177.597 372.344 175.155 372.344 174.922C373.041 171.666 376.298 165.735 380.019 165.27C382.694 164.921 384.788 167.247 384.788 169.805C384.788 172.48 382.694 174.922 380.717 176.434C378.74 177.946 373.739 179.226 372.344 179.574C373.158 181.552 374.088 183.529 374.786 185.389C375.135 186.204 375.484 187.134 375.716 187.948C375.949 188.762 376.181 189.576 376.414 190.39C376.879 192.135 377.344 193.647 377.693 195.275C377.926 196.089 378.042 196.903 378.275 197.601C378.159 196.205 378.042 194.112 378.042 193.879C378.159 190.507 380.485 184.11 384.09 183.18C386.648 182.482 389.091 184.343 389.556 186.901C389.556 187.25 389.672 187.599 389.672 187.832C391.3 190.39 391.998 193.996 391.998 196.205C391.998 196.438 391.649 198.997 391.417 200.276C391.766 199.229 392.231 198.299 392.58 197.252C393.161 195.74 393.743 194.112 394.324 192.6C394.557 191.786 394.906 190.972 395.138 190.158C395.371 189.344 395.603 188.53 395.836 187.599C396.185 186.32 396.418 185.041 396.65 183.761C395.138 183.296 390.486 181.668 388.742 180.04C386.881 178.411 384.904 175.737 385.137 173.062C385.369 170.503 387.579 168.41 390.254 168.875C393.975 169.573 396.766 175.737 397.115 178.993C397.115 179.109 397.115 179.807 397.115 180.621C397.348 179.342 397.581 178.063 397.813 176.783C398.395 173.062 398.744 169.34 399.209 165.618C399.325 164.804 399.441 164.107 399.558 163.292C398.278 162.827 393.277 161.199 391.417 159.571C389.556 157.943 387.579 155.268 387.811 152.593C388.044 150.034 390.254 147.941 392.929 148.406C396.65 149.104 399.441 155.268 399.79 158.524C399.79 158.64 399.79 159.455 399.79 160.501C400.023 158.408 400.372 156.431 400.721 154.454C401.302 150.965 402.116 147.476 403.163 144.219C402.698 144.103 396.883 142.242 394.789 140.381C392.929 138.753 390.951 136.078 391.184 133.403C391.417 130.845 393.626 128.751 396.301 129.217C400.023 129.914 402.814 136.078 403.163 139.335C403.163 139.567 403.279 142.591 403.279 143.754V143.638C404.442 140.265 405.954 137.125 407.466 134.218C408.978 131.31 410.722 128.751 412.351 126.425C413.979 124.099 415.607 122.006 417.119 120.262C417.933 119.331 418.631 118.401 419.329 117.587H419.212C419.096 117.587 420.492 113.284 420.608 112.935C422.004 109.911 426.423 104.794 430.145 105.143C433.285 106.654 434.913 109.213 434.331 111.772ZM391.3 201.788C390.719 201.439 385.718 198.997 383.857 197.019C381.648 198.299 379.205 199.229 378.74 199.462C379.205 201.439 379.554 203.3 379.903 205.044C381.066 210.626 381.764 215.395 382.229 218.651C382.345 219.349 382.462 219.93 382.462 220.512H382.694C382.927 220.047 383.159 219.465 383.508 218.884C385.02 215.976 387.114 211.673 389.323 206.556C390.021 205.044 390.603 203.532 391.3 201.788ZM410.955 130.147C410.955 130.147 412.118 125.728 412.234 125.495C412.7 122.122 411.653 115.493 408.28 113.865C405.838 112.702 403.163 114.098 402.233 116.54C401.302 118.982 402.465 122.122 403.861 124.216C405.373 126.658 410.955 130.147 410.955 130.147Z" fill="white"/>
<path d="M333.267 172.713C333.267 172.713 345.129 164.107 345.827 163.525C346.641 162.944 357.108 167.479 357.69 170.387C358.271 173.294 357.922 173.992 357.108 174.341C356.294 174.69 335.36 180.389 334.779 180.621C334.197 180.854 333.267 172.713 333.267 172.713Z" fill="#FE8514" stroke="#263238" stroke-miterlimit="10" stroke-linecap="round" stroke-linejoin="round"/>
<path d="M250.345 101.886C250.345 101.886 249.415 99.0951 250.461 96.5365C251.624 93.9779 253.369 93.1638 252.555 91.1867C251.741 89.2096 246.856 84.7902 246.391 82.3479C245.926 79.9056 244.414 80.0219 243.6 81.5338C242.786 83.0457 243.134 85.1391 244.53 86.0695C246.042 86.9999 246.507 88.1629 246.507 88.6281C246.507 89.0933 245.344 89.7911 245.344 89.7911C245.344 89.7911 240.46 85.3717 239.297 85.0228C238.134 84.6739 237.785 85.0228 237.785 86.9999C237.785 88.977 237.436 97.2343 238.715 100.142C239.994 103.049 245.693 105.957 245.693 105.957L250.345 101.886Z" fill="white" stroke="#263238" stroke-miterlimit="10" stroke-linecap="round" stroke-linejoin="round"/>
<path d="M245.693 99.5602C246.507 99.2113 246.972 98.2809 246.623 97.4668L221.503 33.2693L220.34 33.6182L243.6 98.6298C243.832 99.5602 244.879 99.9091 245.693 99.5602Z" fill="#263238"/>
<path d="M291.515 99.2114C291.515 99.0951 291.282 98.9788 291.166 99.2114C290.352 100.84 287.445 107.004 284.653 116.075C281.397 126.658 275.233 135.497 275.233 135.497C275.233 135.497 261.859 118.75 258.021 113.167C254.183 107.585 250.345 101.886 250.345 101.886L244.763 105.492C244.763 105.492 249.298 118.401 253.369 126.309C257.439 134.334 266.743 147.592 272.442 152.942C278.141 158.292 282.211 158.873 285.7 156.547C287.212 155.501 292.678 145.964 292.678 145.964C292.678 145.964 295.004 129.566 294.19 117.471C293.608 107.352 291.98 100.956 291.515 99.2114Z" fill="#FE8514" stroke="#263238" stroke-miterlimit="10" stroke-linecap="round" stroke-linejoin="round"/>
<path d="M336.291 204.928C336.291 191.437 335.942 172.713 335.942 172.713C335.942 172.713 322.451 174.69 312.449 174.806C302.564 174.923 291.748 167.014 291.748 167.014C291.748 167.014 290.236 171.55 290.236 184.11C290.236 196.671 291.748 240.865 291.748 240.865C291.748 240.865 293.957 257.263 294.539 266.451C295.12 275.638 303.727 327.275 303.727 327.275C303.727 327.275 297.563 333.439 293.26 337.161C288.957 340.882 283.374 343.325 287.096 345.186C290.817 347.046 299.075 344.837 300.935 344.255C301.866 343.906 304.541 341.464 307.099 340.185C308.146 339.603 309.076 339.487 309.658 339.371C310.588 339.254 311.519 339.022 312.217 338.44L314.194 337.161C314.194 337.161 314.775 344.488 314.775 347.628C314.775 350.652 316.636 358.095 319.078 358.676C321.52 359.258 323.963 359.025 326.405 354.141C328.847 349.256 325.591 328.089 325.591 328.089C325.591 328.089 327.452 317.855 328.382 310.761C329.545 302.271 336.291 214.813 336.291 204.928Z" fill="#263238" stroke="#263238" stroke-miterlimit="10" stroke-linecap="round" stroke-linejoin="round"/>
<path d="M323.265 181.668C323.265 181.668 324.661 186.901 326.987 189.46C329.313 192.019 334.546 191.786 334.546 191.786" stroke="white" stroke-width="0.75" stroke-miterlimit="10" stroke-linecap="round" stroke-linejoin="round"/>
<path d="M304.657 184.227L305.355 197.252L307.913 200.276L308.844 187.134" stroke="white" stroke-width="0.75" stroke-miterlimit="10" stroke-linecap="round" stroke-linejoin="round"/>
<path d="M305.122 327.275C305.122 327.275 308.611 330.415 314.077 331.578" stroke="white" stroke-width="0.75" stroke-miterlimit="10" stroke-linecap="round" stroke-linejoin="round"/>
<path d="M325.707 328.089C325.707 328.089 321.055 335.067 315.705 329.718" stroke="white" stroke-width="0.75" stroke-miterlimit="10" stroke-linecap="round" stroke-linejoin="round"/>
<path d="M303.029 193.879L309.076 202.369L314.426 327.392C314.426 327.392 322.916 309.598 326.056 295.991C329.196 282.384 330.359 263.776 330.359 263.776" stroke="white" stroke-width="0.75" stroke-miterlimit="10" stroke-linecap="round" stroke-linejoin="round"/>
<path d="M309.542 95.3734C309.542 95.3734 293.26 98.1646 291.283 98.7461C289.305 99.4439 290.817 128.17 290.817 128.17C290.817 128.17 290.003 170.154 291.515 174.574C293.027 178.993 301.982 180.389 305.587 181.086C312.217 182.366 318.962 182.133 325.591 180.738C329.429 179.923 334.662 179.458 335.593 174.923C336.523 170.503 337.686 144.336 340.012 135.729C342.338 127.123 350.712 113.284 347.339 107.585C343.966 101.886 328.731 97.6994 322.218 96.8853C315.822 96.0712 309.542 95.3734 309.542 95.3734Z" fill="#FE8514" stroke="#263238" stroke-miterlimit="10" stroke-linecap="round" stroke-linejoin="round"/>
<path d="M306.169 102.817L308.262 113.982L296.865 167.131L303.261 177.946L311.17 168.41L310.239 114.563L315.938 104.794L312.682 98.5137L306.169 102.817Z" fill="#263238"/>
<path d="M311.751 92.8149C311.751 92.8149 308.146 94.5594 305.355 97.8158C302.564 101.072 297.912 109.678 298.377 109.33C298.842 108.981 311.868 101.072 311.868 101.072L311.751 92.8149Z" fill="#FE8514" stroke="#263238" stroke-miterlimit="10" stroke-linecap="round" stroke-linejoin="round"/>
<path d="M322.567 91.1868L312.333 102.352L315.24 112.586L327.335 97.3507L322.567 91.1868Z" fill="#FE8514" stroke="#263238" stroke-miterlimit="10" stroke-linecap="round" stroke-linejoin="round"/>
<path d="M303.727 51.8773C303.727 51.8773 297.098 53.1566 296.283 47.3417C295.469 41.5267 304.541 33.1531 317.566 33.1531C330.592 33.1531 340.826 44.0853 340.361 54.6685C339.896 65.2518 334.313 72.695 333.732 73.7417C333.034 74.6721 327.684 77.6959 325.475 77.9285C323.149 78.2774 321.52 75.021 322.683 70.7179C323.846 66.5311 320.241 65.3681 321.753 61.4139C323.265 57.4597 325.126 57.4597 325.824 56.1804C326.521 54.9011 319.311 52.1099 312.798 52.4588C306.169 52.924 303.727 51.8773 303.727 51.8773Z" fill="#263238" stroke="#263238" stroke-miterlimit="10" stroke-linecap="round" stroke-linejoin="round"/>
<path d="M316.868 46.2949C324.661 46.0623 335.593 47.4579 336.872 56.5293" stroke="white" stroke-miterlimit="10" stroke-linecap="round" stroke-linejoin="round"/>
<path d="M308.96 47.109C308.96 47.109 310.588 46.7601 313.031 46.6438" stroke="white" stroke-miterlimit="10" stroke-linecap="round" stroke-linejoin="round"/>
<path d="M324.777 42.3408C324.777 42.3408 338.617 42.9223 340.361 54.6686" stroke="white" stroke-miterlimit="10" stroke-linecap="round" stroke-linejoin="round"/>
<path d="M310.937 86.4184C310.937 86.4184 310.937 86.651 310.821 86.9999C310.472 88.977 309.425 95.2572 309.193 99.0951C308.844 103.631 312.1 103.514 313.38 102.235C314.659 100.956 321.521 94.0942 322.683 91.1867C323.846 88.2792 326.405 79.4404 326.405 79.4404L310.937 86.4184Z" fill="white" stroke="#263238" stroke-miterlimit="10" stroke-linecap="round" stroke-linejoin="round"/>
<path d="M303.727 51.8773C303.727 51.8773 301.401 64.554 300.587 71.2994C299.772 77.9285 298.958 81.8827 301.75 86.0694C304.541 90.2562 312.333 87.5814 316.287 85.9532C320.241 84.325 328.15 79.0915 328.15 79.0915C328.15 79.0915 333.732 79.4404 335.942 76.6492C338.268 73.858 335.825 70.6016 334.43 70.2527C333.15 69.9038 330.243 71.0668 329.196 72.2298C328.266 73.3928 328.382 74.6721 327.219 74.6721C326.056 74.6721 324.428 75.021 324.777 73.858C325.126 72.695 327.568 68.9734 326.87 66.5311C326.172 64.0888 321.288 62.4606 325.358 60.1346C329.429 57.8086 333.616 58.0412 331.755 54.5522C329.778 51.1795 319.66 47.5742 313.379 48.8535C307.099 50.2491 303.727 51.8773 303.727 51.8773Z" fill="white" stroke="#263238" stroke-miterlimit="10" stroke-linecap="round" stroke-linejoin="round"/>
<path d="M305.82 55.7153C305.82 55.7153 309.658 54.9011 309.425 58.8553C309.309 60.3672 302.564 67.4615 303.61 69.0897C304.541 70.7179 306.169 71.6483 306.169 71.6483" stroke="#263238" stroke-miterlimit="10" stroke-linecap="round" stroke-linejoin="round"/>
<path d="M313.961 59.7857C313.961 59.7857 318.031 56.6456 320.823 61.2976" stroke="#263238" stroke-miterlimit="10" stroke-linecap="round" stroke-linejoin="round"/>
<path d="M304.541 76.3003C304.541 76.3003 305.471 78.7426 309.425 78.3937C313.38 78.0448 314.426 77.2307 314.426 77.2307" stroke="#263238" stroke-miterlimit="10" stroke-linecap="round" stroke-linejoin="round"/>
<path d="M316.287 65.1354C316.054 66.1821 315.357 66.9962 314.891 66.8799C314.31 66.7636 314.077 65.8332 314.31 64.6703C314.543 63.6236 315.24 62.8095 315.706 62.9258C316.171 63.0421 316.52 63.9724 316.287 65.1354Z" fill="#263238"/>
<path d="M306.75 61.5302C306.518 62.5769 305.936 63.2747 305.355 63.1584C304.773 63.0421 304.541 62.1117 304.773 61.065C305.006 60.0183 305.587 59.3205 306.169 59.4368C306.634 59.5531 306.983 60.4835 306.75 61.5302Z" fill="#263238"/>
<path d="M335.36 132.124C335.36 132.124 335.942 127.589 337.919 122.704C340.245 117.238 345.943 106.073 347.339 107.585C348.851 109.097 351.41 113.981 353.038 122.355C354.666 130.845 359.667 156.896 361.877 161.432C363.97 165.967 364.435 167.828 363.156 169.573C363.156 169.573 358.62 176.086 352.573 173.527C346.525 170.968 336.407 146.197 336.407 146.197" fill="#FE8514"/>
<path d="M335.36 132.124C335.36 132.124 335.942 127.589 337.919 122.704C340.245 117.238 345.943 106.073 347.339 107.585C348.851 109.097 351.41 113.981 353.038 122.355C354.666 130.845 359.667 156.896 361.877 161.432C363.97 165.967 364.435 167.828 363.156 169.573C363.156 169.573 358.62 176.086 352.573 173.527C346.525 170.968 336.407 146.197 336.407 146.197" stroke="#263238" stroke-miterlimit="10" stroke-linecap="round" stroke-linejoin="round"/>
<path d="M234.528 82.2316C233.598 84.4413 236.622 86.1858 238.366 86.5347C239.878 86.8836 241.39 84.4413 240.227 83.2783C239.529 82.5805 237.901 81.5338 236.622 81.4175C235.924 81.3012 234.993 81.4175 234.528 81.999C234.528 82.1153 234.528 82.2316 234.528 82.2316Z" fill="white" stroke="#263238" stroke-miterlimit="10" stroke-linecap="round" stroke-linejoin="round"/>
<path d="M240.111 89.0933C240.111 89.0933 236.04 88.1629 234.877 88.6281C233.714 89.0933 233.714 92.0007 234.296 92.8148C234.993 93.6289 240.808 93.1637 241.622 92.5822C242.437 91.8844 242.088 89.6748 240.111 89.0933Z" fill="white" stroke="#263238" stroke-miterlimit="10" stroke-linecap="round" stroke-linejoin="round"/>
<path d="M235.11 93.2801C235.11 93.2801 234.993 96.3038 235.924 97.1179C236.738 97.932 242.786 96.8854 243.251 95.8387C243.716 94.792 242.669 92.2334 242.204 92.3497C241.623 92.466 237.436 93.7453 235.11 93.2801Z" fill="white" stroke="#263238" stroke-miterlimit="10" stroke-linecap="round" stroke-linejoin="round"/>
<path d="M236.273 97.3505C236.273 97.3505 236.273 99.4439 237.087 100.374C237.901 101.305 243.018 99.6765 243.948 98.5135C244.879 97.3505 243.716 96.1875 243.251 96.3038C242.902 96.4201 239.994 97.2342 238.482 97.3505C237.087 97.3505 236.273 97.3505 236.273 97.3505Z" fill="white" stroke="#263238" stroke-miterlimit="10" stroke-linecap="round" stroke-linejoin="round"/>
<path d="M424.795 238.073C440.263 244.703 455.614 251.332 470.966 258.077C473.873 259.356 475.269 262.613 474.106 265.52C471.78 271.451 467.477 281.337 461.08 288.896C451.311 300.759 447.938 311.226 446.775 322.972C445.612 334.835 446.775 356.467 446.775 356.467L387.695 305.062C387.695 305.062 394.557 275.173 405.373 265.985C414.56 258.426 421.073 249.122 424.795 238.073Z" fill="#263238"/>
<path d="M414.677 229.467C414.677 229.467 392.929 230.281 391.068 230.281C389.207 230.281 383.276 259.007 381.299 272.614C379.438 286.105 377.344 296.223 377.344 296.223C377.344 296.223 396.766 308.086 406.303 312.389C415.84 316.808 425.958 321.577 425.958 321.577C425.958 321.577 437.006 289.943 443.635 276.569C450.264 263.194 456.196 262.613 452.241 255.286C448.287 247.843 435.843 238.306 431.075 235.05C426.307 231.793 414.677 229.467 414.677 229.467Z" fill="#FE8514" stroke="#263238" stroke-miterlimit="10" stroke-linecap="round" stroke-linejoin="round"/>
<path d="M406.303 243.888L407.582 253.076L383.625 300.178C383.625 300.178 394.092 308.202 394.324 307.039C394.557 305.876 410.722 254.123 410.722 254.123L418.515 247.843L414.56 238.539C414.56 238.422 409.908 240.167 406.303 243.888Z" fill="#263238"/>
<path d="M409.443 227.723C409.443 227.723 408.862 227.955 406.07 232.258C403.163 236.678 402.233 250.983 402.814 250.401C403.396 249.82 410.257 241.097 412.002 241.679C413.746 242.26 418.515 253.541 418.631 254.472C418.863 255.402 426.423 247.843 428.749 241.33C431.075 234.817 430.028 228.537 427.47 226.676C424.678 224.699 413.746 223.885 409.443 227.723Z" fill="#FE8514" stroke="#263238" stroke-miterlimit="10" stroke-linecap="round" stroke-linejoin="round"/>
<path d="M55.8917 251.913L21.0017 279.36C19.0246 280.872 19.1409 284.012 21.3506 285.291C28.9101 290.059 44.0291 300.643 48.5648 311.575C54.6124 326.461 56.9384 346.814 61.7066 354.024C66.4749 361.235 74.0344 364.142 74.0344 364.142L111.134 317.273C111.134 317.273 104.272 318.785 99.2715 296.34C94.2706 273.894 80.7798 259.821 74.8485 255.402C69.0335 250.983 55.8917 251.913 55.8917 251.913Z" fill="#263238"/>
<path d="M104.04 250.285C104.04 250.285 134.859 265.288 135.441 269.474C136.022 273.661 132.998 283.779 131.021 285.059C129.161 286.338 111.832 279.127 108.924 277.383C106.133 275.755 102.179 255.402 104.04 250.285Z" fill="#FE8514" stroke="#263238" stroke-miterlimit="10" stroke-linecap="round" stroke-linejoin="round"/>
<path d="M83.1058 241.33C83.1058 241.33 86.4785 239.12 93.3402 237.375C96.0151 236.678 101.714 239.701 103.807 245.982C105.552 251.099 107.761 255.867 110.087 260.752C112.064 264.938 115.67 270.405 115.67 275.057C115.553 280.406 112.181 286.454 109.506 291.106L115.553 305.178L77.0582 354.373C77.0582 354.373 66.9401 351.698 65.6608 336.463C64.3815 321.228 66.0097 299.479 66.0097 299.479C66.0097 299.479 55.3102 291.455 53.2168 282.732C51.1234 274.01 58.5666 261.449 66.0097 255.867C73.5692 250.285 83.1058 241.33 83.1058 241.33Z" fill="#FE8514" stroke="#263238" stroke-miterlimit="10" stroke-linecap="round" stroke-linejoin="round"/>
<path d="M87.4089 193.879C87.4089 193.879 89.1534 202.253 92.875 203.067C96.7129 203.881 98.5737 202.718 98.2248 206.672C97.8759 210.627 96.1314 212.953 96.1314 212.953C96.1314 212.953 97.8759 222.838 97.2944 227.257C96.7129 231.677 93.4565 230.63 89.6186 231.212C85.7807 231.793 83.571 231.793 83.571 231.793C83.571 231.793 84.3851 239.818 85.897 243.772C87.4089 247.726 89.1534 249.471 87.1763 250.401C85.3155 251.332 75.3137 246.214 70.6617 239.702C65.8934 233.189 72.4062 226.792 75.1974 221.559C78.1049 216.442 69.1498 210.743 74.267 203.416C79.5005 196.322 87.4089 193.879 87.4089 193.879Z" fill="white" stroke="#263238" stroke-miterlimit="10" stroke-linecap="round" stroke-linejoin="round"/>
<path d="M90.3164 205.277C90.6653 206.44 90.549 207.603 90.2001 207.719C89.8512 207.835 89.1534 206.905 88.8045 205.742C88.4556 204.579 88.5719 203.416 88.9208 203.3C89.386 203.183 89.9675 203.997 90.3164 205.277Z" fill="#263238"/>
<path d="M84.3851 202.834C84.3851 202.834 84.6177 198.997 87.7578 198.997L84.3851 202.834Z" fill="white"/>
<path d="M84.3851 202.834C84.3851 202.834 84.6177 198.997 87.7578 198.997" stroke="#263238" stroke-miterlimit="10" stroke-linecap="round" stroke-linejoin="round"/>
<path d="M451.427 377.866C449.101 309.598 363.737 254.82 258.719 254.82C152.304 254.82 65.8934 311.226 65.8934 380.773" fill="white"/>
<path d="M451.427 377.866C449.101 309.598 363.737 254.82 258.719 254.82C152.304 254.82 65.8934 311.226 65.8934 380.773" stroke="#263238" stroke-miterlimit="10" stroke-linecap="round" stroke-linejoin="round"/>
<path d="M161.608 288.082L135.324 326.228L166.842 332.508L191.265 291.92L161.608 288.082Z" fill="white" stroke="#263238" stroke-miterlimit="10" stroke-linecap="round" stroke-linejoin="round"/>
<path d="M165.33 291.803L144.977 324.135" stroke="#263238" stroke-width="0.5" stroke-miterlimit="10" stroke-linecap="round" stroke-linejoin="round"/>
<path d="M169.749 292.617L149.164 325.065" stroke="#263238" stroke-width="0.5" stroke-miterlimit="10" stroke-linecap="round" stroke-linejoin="round"/>
<path d="M174.169 293.432L153.7 325.88" stroke="#263238" stroke-width="0.5" stroke-miterlimit="10" stroke-linecap="round" stroke-linejoin="round"/>
<path d="M178.472 294.13L158.003 326.461" stroke="#263238" stroke-width="0.5" stroke-miterlimit="10" stroke-linecap="round" stroke-linejoin="round"/>
<path d="M182.891 294.944L162.771 327.275" stroke="#263238" stroke-width="0.5" stroke-miterlimit="10" stroke-linecap="round" stroke-linejoin="round"/>
<path d="M158.817 293.897L185.45 298.316" stroke="#263238" stroke-width="0.5" stroke-miterlimit="10" stroke-linecap="round" stroke-linejoin="round"/>
<path d="M156.84 296.688L183.705 301.224" stroke="#263238" stroke-width="0.5" stroke-miterlimit="10" stroke-linecap="round" stroke-linejoin="round"/>
<path d="M154.979 299.363L182.077 304.131" stroke="#263238" stroke-width="0.5" stroke-miterlimit="10" stroke-linecap="round" stroke-linejoin="round"/>
<path d="M153.467 302.155L180.565 306.923" stroke="#263238" stroke-width="0.5" stroke-miterlimit="10" stroke-linecap="round" stroke-linejoin="round"/>
<path d="M151.258 305.178L178.472 309.714" stroke="#263238" stroke-width="0.5" stroke-miterlimit="10" stroke-linecap="round" stroke-linejoin="round"/>
<path d="M149.048 307.853L176.495 312.505" stroke="#263238" stroke-width="0.5" stroke-miterlimit="10" stroke-linecap="round" stroke-linejoin="round"/>
<path d="M147.536 310.528L174.517 315.296" stroke="#263238" stroke-width="0.5" stroke-miterlimit="10" stroke-linecap="round" stroke-linejoin="round"/>
<path d="M145.675 313.435L172.54 318.087" stroke="#263238" stroke-width="0.5" stroke-miterlimit="10" stroke-linecap="round" stroke-linejoin="round"/>
<path d="M143.582 316.343L170.563 320.878" stroke="#263238" stroke-width="0.5" stroke-miterlimit="10" stroke-linecap="round" stroke-linejoin="round"/>
<path d="M141.488 319.018L168.586 323.67" stroke="#263238" stroke-width="0.5" stroke-miterlimit="10" stroke-linecap="round" stroke-linejoin="round"/>
<path d="M139.395 321.925L166.609 326.461" stroke="#263238" stroke-width="0.5" stroke-miterlimit="10" stroke-linecap="round" stroke-linejoin="round"/>
<path d="M166.842 332.509L186.147 327.508L213.943 279.708L191.265 291.92L166.842 332.509Z" fill="#263238" stroke="#263238" stroke-miterlimit="10" stroke-linecap="round" stroke-linejoin="round"/>
<path d="M293.609 316.343L250.926 318.088L240.692 274.94L283.49 273.196L293.609 316.343Z" fill="white" stroke="#263238" stroke-miterlimit="10" stroke-linecap="round" stroke-linejoin="round"/>
<path d="M315.473 324.484L272.791 326.229L262.556 283.081L305.355 281.337L315.473 324.484Z" fill="#FE8514" stroke="#263238" stroke-miterlimit="10" stroke-linecap="round" stroke-linejoin="round"/>
<path d="M385.369 368.213L326.638 368.561L320.823 336.579L379.554 336.114L385.369 368.213Z" fill="white" stroke="#263238" stroke-miterlimit="10" stroke-linecap="round" stroke-linejoin="round"/>
<path d="M175.332 371.353L114.39 369.841L122.415 339.021L183.24 340.533L175.332 371.353Z" fill="#FE8514" stroke="#263238" stroke-miterlimit="10" stroke-linecap="round" stroke-linejoin="round"/>
<path d="M433.401 267.614L415.258 310.179C415.258 310.179 400.255 313.785 387.114 315.296C373.972 316.808 361.062 317.157 361.062 317.157L361.295 325.182C361.295 325.182 381.88 327.508 398.395 327.624C414.909 327.857 421.422 332.393 425.841 328.206C430.261 324.019 453.87 277.732 456.661 269.125C459.452 260.519 452.242 253.309 447.706 250.052" fill="#FE8514"/>
<path d="M433.401 267.614L415.258 310.179C415.258 310.179 400.255 313.785 387.114 315.296C373.972 316.808 361.062 317.157 361.062 317.157L361.295 325.182C361.295 325.182 381.88 327.508 398.395 327.624C414.909 327.857 421.422 332.393 425.841 328.206C430.261 324.019 453.87 277.732 456.661 269.125C459.452 260.519 452.242 253.309 447.706 250.052" stroke="#263238" stroke-miterlimit="10" stroke-linecap="round" stroke-linejoin="round"/>
<path d="M360.946 317.273C360.946 317.273 348.037 311.342 344.548 309.598C341.175 307.853 328.731 313.784 327.219 314.366C325.707 314.947 322.218 317.041 322.8 318.32C323.381 319.599 328.15 320.181 328.15 320.181C328.15 320.181 323.73 320.762 324.777 322.042C325.707 323.321 340.361 321.111 341.757 321.111C343.036 321.111 346.176 324.484 349.781 325.298C353.387 326.112 361.179 325.065 361.179 325.065L360.946 317.273Z" fill="white" stroke="#263238" stroke-miterlimit="10" stroke-linecap="round" stroke-linejoin="round"/>
<path d="M145.21 308.9C145.908 308.435 147.536 308.086 150.909 308.9C154.281 309.714 159.864 311.226 159.282 311.924C158.701 312.738 157.189 312.738 155.328 312.738C153.467 312.738 150.792 312.971 150.792 312.971C150.792 312.971 141.605 311.343 145.21 308.9Z" fill="white" stroke="#263238" stroke-miterlimit="10" stroke-linecap="round" stroke-linejoin="round"/>
<path d="M55.4265 277.034C55.4265 277.034 57.8688 292.851 62.5208 313.436C67.1727 334.021 72.7551 343.208 75.8952 344.488C78.919 345.767 114.739 333.207 122.531 329.601C130.324 325.996 136.022 326.926 138.581 326.926C141.023 326.926 144.512 321.228 146.954 320.297C149.397 319.367 160.678 322.042 161.376 319.948C162.19 317.855 155.91 313.668 153.932 312.273C152.072 310.993 148.001 307.853 145.21 308.9C142.302 309.83 134.743 320.181 132.65 321.228C130.556 322.391 110.32 323.554 100.318 323.321C90.2001 323.089 89.2697 322.972 89.2697 322.972C89.2697 322.972 81.5939 290.408 81.5939 284.128C81.5939 278.313 79.9657 269.358 73.8018 266.916C69.615 265.288 62.7534 264.939 59.2644 268.195C55.0776 271.917 55.4265 277.034 55.4265 277.034Z" fill="white" stroke="#263238" stroke-miterlimit="10" stroke-linecap="round" stroke-linejoin="round"/>
<path d="M79.6168 339.138C86.4785 335.765 89.1534 322.972 89.1534 322.972C89.1534 322.972 81.4776 290.408 81.4776 284.128C81.4776 278.313 79.8494 269.358 73.6855 266.916C69.4987 265.288 62.6371 264.939 59.1481 268.195C54.9613 272.033 55.3102 277.15 55.3102 277.15C55.3102 277.15 57.7525 292.967 62.4044 313.552C65.6608 328.206 69.4987 337.045 72.5225 341.464C74.7322 341.115 77.1745 340.417 79.6168 339.138Z" fill="#FE8514" stroke="#263238" stroke-miterlimit="10" stroke-linecap="round" stroke-linejoin="round"/>
<path d="M161.376 319.949C161.376 319.949 149.978 315.762 148.234 315.762C146.489 315.762 144.977 316.343 144.977 316.343" fill="white"/>
<path d="M161.376 319.949C161.376 319.949 149.978 315.762 148.234 315.762C146.489 315.762 144.977 316.343 144.977 316.343" stroke="#263238" stroke-miterlimit="10" stroke-linecap="round" stroke-linejoin="round"/>
<path d="M145.326 312.738C145.326 312.738 148.35 311.807 150.676 312.97C153.002 314.133 159.98 317.157 159.98 317.157" fill="white"/>
<path d="M145.326 312.738C145.326 312.738 148.35 311.807 150.676 312.97C153.002 314.133 159.98 317.157 159.98 317.157" stroke="#263238" stroke-miterlimit="10" stroke-linecap="round" stroke-linejoin="round"/>
<path d="M135.673 268.66C135.673 268.66 132.301 267.497 129.161 273.08C126.137 278.546 126.137 283.314 130.44 286.454C134.859 289.478 146.606 292.386 149.513 294.479C152.42 296.572 154.863 299.48 156.375 299.829C157.887 300.178 163.585 301.341 162.073 293.549C160.561 285.756 149.28 277.499 143.582 272.964C137.883 268.428 135.673 268.66 135.673 268.66Z" fill="white" stroke="#263238" stroke-miterlimit="10" stroke-linecap="round" stroke-linejoin="round"/>
<path d="M154.049 290.873C154.049 290.873 153.118 293.548 151.606 295.177C150.095 296.805 148.815 297.619 150.095 299.945C151.374 302.271 152.769 305.178 153.584 307.155C154.398 309.132 155.793 306.69 156.142 304.132C156.491 301.457 154.281 297.851 155.91 297.503C156.375 297.386 157.887 294.595 161.027 295.991C164.167 297.503 169.4 302.736 169.865 298.782C170.331 294.828 167.191 291.571 163.585 289.71C159.98 287.966 155.793 287.384 154.049 290.873Z" fill="white" stroke="#263238" stroke-miterlimit="10" stroke-linecap="round" stroke-linejoin="round"/>
<path d="M171.145 293.897C171.145 293.897 172.773 293.897 174.401 297.038C176.029 300.178 176.843 301.806 175.68 302.271C174.517 302.736 174.169 302.271 173.238 300.41C172.308 298.549 171.377 296.805 171.377 296.805V294.712L171.145 293.897Z" fill="white" stroke="#263238" stroke-miterlimit="10" stroke-linecap="round" stroke-linejoin="round"/>
<path d="M167.191 291.222C167.191 291.222 170.331 291.688 171.494 294.711C172.657 297.619 173.354 301.341 172.308 302.736C171.377 304.248 169.4 303.434 169.051 300.759C168.702 298.084 167.191 291.222 167.191 291.222Z" fill="white" stroke="#263238" stroke-miterlimit="10" stroke-linecap="round" stroke-linejoin="round"/>
<path d="M163.004 289.129C163.004 289.129 164.865 288.78 167.074 291.222C169.4 293.664 169.866 302.271 169.051 302.968C168.237 303.666 166.725 303.899 165.911 301.805C165.214 299.596 163.004 289.129 163.004 289.129Z" fill="white" stroke="#263238" stroke-miterlimit="10" stroke-linecap="round" stroke-linejoin="round"/>
<path d="M157.072 289.362C157.072 289.362 160.213 284.942 162.19 287.268C164.167 289.594 166.144 301.806 165.446 302.62C164.748 303.434 162.771 303.899 161.492 300.992C160.213 298.084 159.05 292.386 159.05 292.386" fill="white"/>
<path d="M157.072 289.362C157.072 289.362 160.213 284.942 162.19 287.268C164.167 289.594 166.144 301.806 165.446 302.62C164.748 303.434 162.771 303.899 161.492 300.992C160.213 298.084 159.05 292.386 159.05 292.386" stroke="#263238" stroke-miterlimit="10" stroke-linecap="round" stroke-linejoin="round"/>
<path d="M85.7807 197.834C82.7569 200.276 79.5005 202.602 78.6864 206.789C77.4071 213.301 83.8036 217.605 79.6168 223.536C75.43 229.467 70.0802 230.979 75.7789 236.91C81.4776 242.842 99.1552 252.146 96.1314 268.195C93.1076 284.244 81.4776 282.616 78.8027 280.988C76.1278 279.243 64.4978 271.8 59.3807 274.475C54.2635 277.15 58.1014 287.036 56.4732 290.292C54.9613 293.548 39.3771 290.292 33.7947 283.198C28.3286 276.103 23.5603 256.914 29.3753 246.447C35.3066 235.98 44.378 232.724 41.5868 221.908C38.6793 211.092 35.6555 197.95 43.6802 185.855C51.7049 173.876 67.289 167.014 79.5005 169.805C85.1992 171.085 91.4794 174.806 93.2239 180.854C94.7358 186.204 92.1772 191.205 88.5719 195.042C87.8741 196.089 86.8274 197.019 85.7807 197.834Z" fill="#263238" stroke="#263238" stroke-miterlimit="10" stroke-linecap="round" stroke-linejoin="round"/>
<path d="M88.6882 187.715C87.6415 190.041 85.897 192.367 83.1058 194.112C75.7789 198.88 71.0107 204.114 73.1041 211.441C75.1974 218.768 75.7789 223.536 66.2424 228.304C56.7058 233.072 61.4741 248.889 71.4759 253.076C81.4776 257.263 95.201 267.265 86.7111 276.22" stroke="white" stroke-miterlimit="10" stroke-linecap="round" stroke-linejoin="round"/>
<path d="M90.549 180.505C90.549 180.505 90.549 182.017 89.9675 184.226" stroke="white" stroke-miterlimit="10" stroke-linecap="round" stroke-linejoin="round"/>
<path d="M43.7965 276.917C44.2617 279.476 45.4247 281.453 46.2388 281.686" stroke="white" stroke-miterlimit="10" stroke-linecap="round" stroke-linejoin="round"/>
<path d="M76.2441 199.462C76.2441 199.462 63.1022 204.695 63.5674 210.51C64.1489 216.325 66.2423 220.512 62.5207 224.699C58.7991 228.886 45.6573 233.072 45.6573 241.562C45.6573 249.936 56.2406 254.704 55.6591 261.101C55.0776 267.381 47.2855 265.288 44.6106 270.056C44.2617 270.637 44.0291 271.219 43.9128 271.8" stroke="white" stroke-miterlimit="10" stroke-linecap="round" stroke-linejoin="round"/>
<path d="M404.442 183.994C404.442 183.994 400.604 189.925 400.604 193.531C400.604 197.136 401.767 198.648 400.953 199.229C400.139 199.811 389.556 199.811 391.184 202.602C392.929 205.509 396.185 206.789 396.185 206.789C396.185 206.789 395.603 221.675 396.185 224.932C396.766 228.188 397.697 227.955 400.372 227.258C403.047 226.443 406.303 226.095 406.303 226.095C406.303 226.095 408.745 239.004 412.234 240.981C415.607 242.842 424.446 233.305 425.144 229.7C425.958 226.095 424.213 219 425.376 216.907C426.539 214.813 431.424 211.208 430.726 206.091C429.912 200.974 425.376 199.462 423.283 197.136C421.189 194.81 423.632 189.925 421.771 187.018C419.91 184.11 406.303 182.947 404.442 183.994Z" fill="white" stroke="#263238" stroke-miterlimit="10" stroke-linecap="round" stroke-linejoin="round"/>
<path d="M422.701 215.976C422.701 215.976 420.026 220.163 417.351 219.814C414.677 219.465 412.932 215.86 412.932 215.86" fill="white"/>
<path d="M422.701 215.976C422.701 215.976 420.026 220.163 417.351 219.814C414.677 219.465 412.932 215.86 412.932 215.86" stroke="#263238" stroke-miterlimit="10" stroke-linecap="round" stroke-linejoin="round"/>
<path d="M415.723 219C415.723 219 410.257 223.187 405.838 224.35L415.723 219Z" fill="white"/>
<path d="M415.723 219C415.723 219 410.257 223.187 405.838 224.35" stroke="#263238" stroke-miterlimit="10" stroke-linecap="round" stroke-linejoin="round"/>
<path d="M396.185 206.789C396.185 206.789 403.977 215.744 401.302 217.605C398.627 219.466 393.859 214.697 393.859 211.092C393.859 207.487 393.743 206.207 396.185 206.789Z" fill="#263238" stroke="#263238" stroke-miterlimit="10" stroke-linecap="round" stroke-linejoin="round"/>
<path d="M404.21 200.16C404.093 201.439 403.744 202.369 403.163 202.369C402.698 202.369 402.349 201.323 402.349 200.043C402.465 198.764 402.814 197.834 403.396 197.834C403.977 197.834 404.326 198.88 404.21 200.16Z" fill="#263238"/>
<path d="M402.233 194.81C402.233 194.81 405.489 193.996 406.303 199.694" stroke="#263238" stroke-miterlimit="10" stroke-linecap="round" stroke-linejoin="round"/>
<path d="M417.351 187.715C417.351 187.715 397.581 186.785 395.022 180.04C392.58 173.411 411.188 162.478 431.54 166.549C451.893 170.503 453.404 199.462 445.845 205.626C438.169 211.673 427.586 217.953 424.678 218.419C421.771 218.768 421.771 217.256 422.585 215.976C423.399 214.697 428.516 205.16 425.027 204.695C421.655 204.346 414.909 208.068 414.211 208.068C413.397 208.068 412.467 206.905 413.281 205.16C414.095 203.416 416.886 202.253 413.862 199.462C410.839 196.554 408.513 195.624 410.025 193.53C411.653 191.553 417.351 187.715 417.351 187.715Z" fill="#263238" stroke="#263238" stroke-miterlimit="10" stroke-linecap="round" stroke-linejoin="round"/>
<path d="M400.255 179.923C400.255 179.923 401.884 180.505 411.304 182.598C420.841 184.692 446.543 185.273 447.589 198.88" stroke="white" stroke-miterlimit="10" stroke-linecap="round" stroke-linejoin="round"/>
<path d="M440.263 204.346C440.379 205.509 440.146 206.788 439.681 207.835" stroke="white" stroke-miterlimit="10" stroke-linecap="round" stroke-linejoin="round"/>
<path d="M413.397 192.6C413.397 192.6 421.306 197.368 430.726 198.415C433.982 198.764 436.308 199.578 437.82 200.625" stroke="white" stroke-miterlimit="10" stroke-linecap="round" stroke-linejoin="round"/>
<path d="M420.259 200.508C420.259 200.508 439.216 205.277 435.029 211.092" stroke="white" stroke-miterlimit="10" stroke-linecap="round" stroke-linejoin="round"/>
<path d="M391.068 230.281C391.068 230.281 385.02 232.724 382.927 238.073C380.833 243.423 358.969 268.195 355.713 274.243C352.456 280.29 351.758 284.012 355.713 286.221C359.667 288.547 362.807 287.152 368.04 283.547C373.274 279.941 382.229 265.171 382.229 265.171L391.068 230.281Z" fill="#FE8514" stroke="#263238" stroke-miterlimit="10" stroke-linecap="round" stroke-linejoin="round"/>
<path d="M359.667 270.754C359.667 270.754 353.736 275.173 351.642 281.802C349.549 288.431 341.524 307.155 341.524 307.155L348.735 312.622C348.735 312.622 364.9 287.268 366.063 283.43C367.226 279.592 366.296 277.732 366.296 277.732" fill="#FE8514"/>
<path d="M359.667 270.754C359.667 270.754 353.736 275.173 351.642 281.802C349.549 288.431 341.524 307.155 341.524 307.155L348.735 312.622C348.735 312.622 364.9 287.268 366.063 283.43C367.226 279.592 366.296 277.732 366.296 277.732" stroke="#263238" stroke-miterlimit="10" stroke-linecap="round" stroke-linejoin="round"/>
<path d="M343.85 305.992C343.85 305.992 346.176 305.178 348.037 306.574C349.898 307.853 354.55 314.25 353.038 314.715C351.526 315.296 349.432 314.482 347.921 312.854C346.409 311.11 344.664 309.947 343.966 309.947C343.152 309.947 342.106 309.947 342.106 309.947L343.85 305.992Z" fill="white" stroke="#263238" stroke-miterlimit="10" stroke-linecap="round" stroke-linejoin="round"/>
<path d="M329.429 311.226C329.429 311.226 326.172 312.971 324.893 314.831C323.614 316.692 321.986 323.205 322.8 323.786C323.614 324.368 324.544 322.507 325.824 319.018C327.103 315.529 329.429 311.226 329.429 311.226Z" fill="white" stroke="#263238" stroke-miterlimit="10" stroke-linecap="round" stroke-linejoin="round"/>
<path d="M343.85 305.993C344.548 306.458 340.245 314.366 338.5 317.623C336.756 320.879 329.196 324.484 327.219 324.717C325.358 324.949 324.777 314.482 330.243 309.83C335.825 305.295 341.989 304.713 343.85 305.993Z" fill="white" stroke="#263238" stroke-miterlimit="10" stroke-linecap="round" stroke-linejoin="round"/>
<path d="M330.127 323.554C330.127 323.554 328.266 321.228 329.894 316.343C331.639 311.342 333.267 307.97 333.267 307.97" stroke="#263238" stroke-miterlimit="10" stroke-linecap="round" stroke-linejoin="round"/>
<path d="M333.616 321.46C333.616 321.46 333.034 319.134 334.43 314.599C335.709 310.063 338.268 305.992 338.268 305.992" stroke="#263238" stroke-miterlimit="10" stroke-linecap="round" stroke-linejoin="round"/>
</svg>
