<svg width="75" height="74" viewBox="0 0 75 74" fill="none" xmlns="http://www.w3.org/2000/svg">
<g clip-path="url(#clip0_91_4156)">
<path d="M34.9191 59.7673C35.8004 62.1403 37.4875 64.1282 39.6857 65.3834C41.884 66.6387 44.4534 67.0815 46.945 66.6344C49.4365 66.1874 51.6918 64.879 53.3165 62.9378C54.9412 60.9967 55.8321 58.5463 55.8334 56.0149V40.0833L37.3334 29.7542" stroke="#1455FE" stroke-width="4" stroke-linecap="round" stroke-linejoin="round"/>
<path d="M16.4099 46.2932C14.7941 48.2428 13.9151 50.6984 13.9267 53.2306C13.9383 55.7627 14.8397 58.2102 16.4732 60.145C18.1067 62.0799 20.3684 63.3788 22.8628 63.8148C25.3572 64.2508 27.9254 63.796 30.1184 62.53L43.5 54.7168V33.3" stroke="#1455FE" stroke-width="4" stroke-linecap="round" stroke-linejoin="round"/>
<path d="M18.8334 23.5259C14.5445 22.7982 10.2401 24.7438 7.93688 28.7336C6.51686 31.1935 6.13198 34.1167 6.86689 36.8603C7.6018 39.6039 9.39631 41.9433 11.8558 43.364L25 51.1155L43.5 40.7925" stroke="#1455FE" stroke-width="4" stroke-linecap="round" stroke-linejoin="round"/>
<path d="M39.7476 14.2327C38.8664 11.8597 37.1792 9.8718 34.981 8.61656C32.7828 7.36131 30.2134 6.91851 27.7218 7.36555C25.2302 7.81258 22.975 9.12102 21.3503 11.0622C19.7255 13.0033 18.8347 15.4537 18.8334 17.9851V33.6083L37.3334 44.2458" stroke="#1455FE" stroke-width="4" stroke-linecap="round" stroke-linejoin="round"/>
<path d="M58.2569 27.7069C59.8727 25.7572 60.7516 23.3016 60.74 20.7694C60.7285 18.2373 59.8271 15.7898 58.1936 13.855C56.56 11.9202 54.2983 10.6212 51.804 10.1852C49.3096 9.74924 46.7414 10.204 44.5484 11.47L31.1667 19.2832V40.7" stroke="#1455FE" stroke-width="4" stroke-linecap="round" stroke-linejoin="round"/>
<path d="M55.8334 50.2645C60.1223 50.9921 64.4266 49.0466 66.7299 45.0567C68.1499 42.5968 68.5348 39.6737 67.7999 36.93C67.065 34.1864 65.2705 31.847 62.811 30.4263L49.528 22.6748L31.1667 33.2198" stroke="#1455FE" stroke-width="4" stroke-linecap="round" stroke-linejoin="round"/>
</g>
<defs>
<clipPath id="clip0_91_4156">
<rect width="74" height="74" fill="white" transform="translate(0.333374)"/>
</clipPath>
</defs>
</svg>
