<svg width="75" height="74" viewBox="0 0 75 74" fill="none" xmlns="http://www.w3.org/2000/svg">
<g clip-path="url(#clip0_91_4138)">
<path d="M40.75 27.75C40.75 26.9323 41.0749 26.148 41.6531 25.5698C42.2314 24.9915 43.0156 24.6667 43.8334 24.6667H62.3334C63.1511 24.6667 63.9354 24.9915 64.5136 25.5698C65.0918 26.148 65.4167 26.9323 65.4167 27.75V58.5834C65.4167 59.4011 65.0918 60.1854 64.5136 60.7636C63.9354 61.3418 63.1511 61.6667 62.3334 61.6667H43.8334C43.0156 61.6667 42.2314 61.3418 41.6531 60.7636C41.0749 60.1854 40.75 59.4011 40.75 58.5834V27.75Z" stroke="#1455FE" stroke-width="4" stroke-linecap="round" stroke-linejoin="round"/>
<path d="M56.1667 24.6666V15.4166C56.1667 14.5989 55.8418 13.8146 55.2636 13.2364C54.6854 12.6582 53.9011 12.3333 53.0834 12.3333H13C12.1823 12.3333 11.398 12.6582 10.8198 13.2364C10.2415 13.8146 9.91669 14.5989 9.91669 15.4166V52.4167C9.91669 53.2344 10.2415 54.0187 10.8198 54.5969C11.398 55.1751 12.1823 55.5 13 55.5H40.75" stroke="#1455FE" stroke-width="4" stroke-linecap="round" stroke-linejoin="round"/>
<path d="M50 27.75H56.1667" stroke="#1455FE" stroke-width="4" stroke-linecap="round" stroke-linejoin="round"/>
</g>
<defs>
<clipPath id="clip0_91_4138">
<rect width="74" height="74" fill="white" transform="translate(0.666687)"/>
</clipPath>
</defs>
</svg>
