<svg width="75" height="74" viewBox="0 0 75 74" fill="none" xmlns="http://www.w3.org/2000/svg">
<g clip-path="url(#clip0_91_4179)">
<path d="M9.91667 36C9.91667 39.6442 10.6344 43.2527 12.029 46.6195C13.4236 49.9862 15.4676 53.0454 18.0445 55.6222C20.6213 58.199 23.6804 60.2431 27.0472 61.6377C30.414 63.0322 34.0225 63.75 37.6667 63.75C41.3109 63.75 44.9194 63.0322 48.2861 61.6377C51.6529 60.2431 54.7121 58.199 57.2889 55.6222C59.8657 53.0454 61.9098 49.9862 63.3043 46.6195C64.6989 43.2527 65.4167 39.6442 65.4167 36C65.4167 32.3558 64.6989 28.7473 63.3043 25.3805C61.9098 22.0137 59.8657 18.9546 57.2889 16.3778C54.7121 13.801 51.6529 11.7569 48.2861 10.3623C44.9194 8.96778 41.3109 8.25 37.6667 8.25C34.0225 8.25 30.414 8.96778 27.0472 10.3623C23.6804 11.7569 20.6213 13.801 18.0445 16.3778C15.4676 18.9546 13.4236 22.0137 12.029 25.3805C10.6344 28.7473 9.91667 32.3558 9.91667 36Z" stroke="#1455FE" stroke-width="4" stroke-linecap="round" stroke-linejoin="round"/>
<path d="M37.6667 35.9999L46.9167 29.8333" stroke="#1455FE" stroke-width="4" stroke-linecap="round" stroke-linejoin="round"/>
<path d="M37.6667 20.5833V35.9999" stroke="#1455FE" stroke-width="4" stroke-linecap="round" stroke-linejoin="round"/>
</g>
<defs>
<clipPath id="clip0_91_4179">
<rect width="74" height="74" fill="white" transform="translate(0.666672)"/>
</clipPath>
</defs>
</svg>
