<svg width="1069" height="1060" viewBox="0 0 1069 1060" fill="none" xmlns="http://www.w3.org/2000/svg">
<g opacity="0.4" filter="url(#filter0_f_2009_895)">
<path d="M523.856 632.534C527.821 643.211 535.412 652.154 545.302 657.802C555.193 663.45 566.753 665.442 577.964 663.431C589.174 661.419 599.321 655.532 606.631 646.799C613.941 638.065 617.949 627.04 617.955 615.651V543.97L534.718 497.496" stroke="#F1C40F" stroke-width="23" stroke-linecap="round" stroke-linejoin="round"/>
<path d="M440.578 571.91C433.308 580.682 429.353 591.73 429.405 603.123C429.457 614.516 433.513 625.528 440.863 634.233C448.212 642.938 458.388 648.783 469.611 650.744C480.834 652.706 492.389 650.66 502.256 644.964L562.464 609.81V513.45" stroke="#E67E22" stroke-width="23" stroke-linecap="round" stroke-linejoin="round"/>
<path d="M451.482 469.474C432.185 466.2 412.818 474.953 402.455 492.905C396.066 503.972 394.335 517.125 397.641 529.469C400.948 541.813 409.022 552.339 420.088 558.731L479.227 593.607L562.464 547.161" stroke="#E74C3C" stroke-width="23" stroke-linecap="round" stroke-linejoin="round"/>
<path d="M545.581 427.661C541.616 416.984 534.025 408.04 524.134 402.392C514.244 396.744 502.684 394.752 491.473 396.763C480.263 398.775 470.116 404.662 462.806 413.396C455.496 422.129 451.488 433.154 451.482 444.544V514.837L534.718 562.698" stroke="#9B59B6" stroke-width="23" stroke-linecap="round" stroke-linejoin="round"/>
<path d="M628.859 488.285C636.129 479.513 640.084 468.464 640.032 457.071C639.979 445.678 635.924 434.666 628.574 425.961C621.225 417.256 611.048 411.412 599.826 409.45C588.603 407.488 577.048 409.535 567.181 415.231L506.973 450.384V546.745" stroke="#2ECC71" stroke-width="23" stroke-linecap="round" stroke-linejoin="round"/>
<path d="M617.955 589.778C637.252 593.052 656.619 584.298 666.982 566.347C673.371 555.279 675.102 542.127 671.796 529.782C668.489 517.438 660.415 506.912 649.349 500.52L589.585 465.644L506.973 513.089" stroke="#3498DB" stroke-width="23" stroke-linecap="round" stroke-linejoin="round"/>
</g>
<g opacity="0.6" filter="url(#filter1_f_2009_895)">
<path d="M523.856 632.534C527.821 643.211 535.412 652.154 545.302 657.802C555.193 663.45 566.753 665.442 577.964 663.431C589.174 661.419 599.321 655.532 606.631 646.799C613.941 638.065 617.949 627.04 617.955 615.651V543.97L534.718 497.496" stroke="#F1C40F" stroke-width="23" stroke-linecap="round" stroke-linejoin="round"/>
<path d="M440.578 571.91C433.308 580.682 429.353 591.73 429.405 603.123C429.457 614.516 433.513 625.528 440.863 634.233C448.212 642.938 458.388 648.783 469.611 650.744C480.834 652.706 492.389 650.66 502.256 644.964L562.464 609.81V513.45" stroke="#E67E22" stroke-width="23" stroke-linecap="round" stroke-linejoin="round"/>
<path d="M451.482 469.474C432.185 466.2 412.818 474.953 402.455 492.905C396.066 503.972 394.335 517.125 397.641 529.469C400.948 541.813 409.022 552.339 420.088 558.731L479.227 593.607L562.464 547.161" stroke="#E74C3C" stroke-width="23" stroke-linecap="round" stroke-linejoin="round"/>
<path d="M545.581 427.661C541.616 416.984 534.025 408.04 524.134 402.392C514.244 396.744 502.684 394.752 491.473 396.763C480.263 398.775 470.116 404.662 462.806 413.396C455.496 422.129 451.488 433.154 451.482 444.544V514.837L534.718 562.698" stroke="#9B59B6" stroke-width="23" stroke-linecap="round" stroke-linejoin="round"/>
<path d="M628.859 488.285C636.129 479.513 640.084 468.464 640.032 457.071C639.979 445.678 635.924 434.666 628.574 425.961C621.225 417.256 611.048 411.412 599.826 409.45C588.603 407.488 577.048 409.535 567.181 415.231L506.973 450.384V546.745" stroke="#2ECC71" stroke-width="23" stroke-linecap="round" stroke-linejoin="round"/>
<path d="M617.955 589.778C637.252 593.052 656.619 584.298 666.982 566.347C673.371 555.279 675.102 542.127 671.796 529.782C668.489 517.438 660.415 506.912 649.349 500.52L589.585 465.644L506.973 513.089" stroke="#3498DB" stroke-width="23" stroke-linecap="round" stroke-linejoin="round"/>
</g>
<path d="M536.238 606.317C539.277 614.499 545.094 621.353 552.674 625.681C560.253 630.009 569.112 631.536 577.703 629.994C586.294 628.453 594.07 623.941 599.672 617.248C605.274 610.555 608.345 602.106 608.35 593.378V538.447L544.563 502.833" stroke="url(#paint0_linear_2009_895)" stroke-width="23" stroke-linecap="round" stroke-linejoin="round"/>
<path d="M472.419 559.857C466.848 566.58 463.818 575.047 463.858 583.777C463.897 592.508 467.005 600.947 472.638 607.618C478.27 614.289 486.068 618.768 494.669 620.271C503.269 621.775 512.124 620.207 519.686 615.841L565.825 588.902V515.058" stroke="url(#paint1_linear_2009_895)" stroke-width="23" stroke-linecap="round" stroke-linejoin="round"/>
<path d="M480.776 481.357C465.988 478.848 451.146 485.556 443.205 499.313C438.309 507.795 436.982 517.874 439.516 527.334C442.05 536.794 448.237 544.86 456.717 549.758L502.038 576.485L565.825 540.892" stroke="url(#paint2_linear_2009_895)" stroke-width="23" stroke-linecap="round" stroke-linejoin="round"/>
<path d="M552.887 449.315C549.848 441.133 544.031 434.279 536.452 429.951C528.872 425.623 520.013 424.096 511.422 425.637C502.832 427.179 495.056 431.69 489.454 438.383C483.852 445.076 480.78 453.525 480.776 462.253V516.121L544.563 552.799" stroke="url(#paint3_linear_2009_895)" stroke-width="23" stroke-linecap="round" stroke-linejoin="round"/>
<path d="M616.706 495.773C622.277 489.051 625.308 480.584 625.268 471.853C625.228 463.123 622.12 454.684 616.488 448.013C610.855 441.342 603.057 436.863 594.457 435.36C585.856 433.856 577.001 435.424 569.44 439.79L523.3 466.729V540.573" stroke="url(#paint4_linear_2009_895)" stroke-width="23" stroke-linecap="round" stroke-linejoin="round"/>
<path d="M608.35 573.551C623.138 576.06 637.979 569.351 645.921 555.595C650.817 547.113 652.144 537.034 649.61 527.574C647.076 518.114 640.888 510.048 632.408 505.15L586.609 478.423L523.3 514.782" stroke="url(#paint5_linear_2009_895)" stroke-width="23" stroke-linecap="round" stroke-linejoin="round"/>
<defs>
<filter id="filter0_f_2009_895" x="340.5" y="340.5" width="388.437" height="379.194" filterUnits="userSpaceOnUse" color-interpolation-filters="sRGB">
<feFlood flood-opacity="0" result="BackgroundImageFix"/>
<feBlend mode="normal" in="SourceGraphic" in2="BackgroundImageFix" result="shape"/>
<feGaussianBlur stdDeviation="22" result="effect1_foregroundBlur_2009_895"/>
</filter>
<filter id="filter1_f_2009_895" x="0.5" y="0.5" width="1068.44" height="1059.19" filterUnits="userSpaceOnUse" color-interpolation-filters="sRGB">
<feFlood flood-opacity="0" result="BackgroundImageFix"/>
<feBlend mode="normal" in="SourceGraphic" in2="BackgroundImageFix" result="shape"/>
<feGaussianBlur stdDeviation="192" result="effect1_foregroundBlur_2009_895"/>
</filter>
<linearGradient id="paint0_linear_2009_895" x1="542.493" y1="496.904" x2="572.294" y2="630.579" gradientUnits="userSpaceOnUse">
<stop stop-color="#F1C40F" stop-opacity="0"/>
<stop offset="1" stop-color="#F1C40F"/>
</linearGradient>
<linearGradient id="paint1_linear_2009_895" x1="569.817" y1="506.517" x2="514.841" y2="620.827" gradientUnits="userSpaceOnUse">
<stop stop-color="#E67E22" stop-opacity="0"/>
<stop offset="1" stop-color="#E67E22"/>
</linearGradient>
<linearGradient id="paint2_linear_2009_895" x1="502.041" y1="480.839" x2="574.876" y2="542.443" gradientUnits="userSpaceOnUse">
<stop stop-color="#E74C3C"/>
<stop offset="1" stop-color="#E74C3C" stop-opacity="0"/>
</linearGradient>
<linearGradient id="paint3_linear_2009_895" x1="516.831" y1="425.052" x2="543.505" y2="552.563" gradientUnits="userSpaceOnUse">
<stop stop-color="#9B59B6"/>
<stop offset="1" stop-color="#9B59B6" stop-opacity="0"/>
</linearGradient>
<linearGradient id="paint4_linear_2009_895" x1="613.838" y1="487.796" x2="574.284" y2="540.573" gradientUnits="userSpaceOnUse">
<stop stop-color="#2ECC71"/>
<stop offset="1" stop-color="#2ECC71" stop-opacity="0"/>
</linearGradient>
<linearGradient id="paint5_linear_2009_895" x1="523.265" y1="514.613" x2="587.084" y2="574.069" gradientUnits="userSpaceOnUse">
<stop stop-color="#3498DB" stop-opacity="0"/>
<stop offset="1" stop-color="#3498DB"/>
</linearGradient>
</defs>
</svg>
