<svg width="42" height="42" viewBox="0 0 42 42" fill="none" xmlns="http://www.w3.org/2000/svg">
<mask id="mask0_91_4711" style="mask-type:luminance" maskUnits="userSpaceOnUse" x="0" y="-1" width="42" height="43">
<path d="M42 -0.000976562H0V41.999H42V-0.000976562Z" fill="white"/>
</mask>
<g mask="url(#mask0_91_4711)">
<path d="M31.92 -0.000976562H10.08C4.51297 -0.000976562 0 4.51199 0 10.079V31.919C0 37.486 4.51297 41.999 10.08 41.999H31.92C37.487 41.999 42 37.486 42 31.919V10.079C42 4.51199 37.487 -0.000976562 31.92 -0.000976562Z" fill="#1455FE"/>
<path d="M8.38989 27.8873V15.1865H18.4619L19.4619 18.6339H12.2001V20.0854H15.9096L16.5816 23.3513H12.2001V27.8873H8.38989Z" fill="white"/>
<path d="M20.5465 27.8873L17.462 15.1865H21.5444L22.8145 20.8112L24.5382 15.1865H28.3484L30.0452 20.8112L31.3422 15.1865H35.4246L32.3401 27.8873H28.0763L26.5979 21.9905L24.8104 27.8873H20.5465Z" fill="white"/>
</g>
</svg>
