<svg width="434" height="267" viewBox="0 0 434 267" fill="none" xmlns="http://www.w3.org/2000/svg">
<path d="M201.703 241.734C193.805 241.934 185.904 241.625 178.046 240.808C109.288 233.809 30.346 189.733 38.3147 114.678C39.3052 105.335 41.6432 95.5111 45.5152 85.2213C67.7464 26.1563 185.039 1.88309 248.022 56.8746C311.006 111.866 367.966 37.7347 405.196 85.2255C461.631 157.216 282.462 239.501 201.703 241.734Z" fill="#1455FE"/>
<path d="M178.046 240.807C109.288 233.807 30.346 189.731 38.3147 114.676C45.3494 118.435 53.805 126.261 55.0201 138.887C56.1259 138.355 57.2853 137.942 58.4787 137.657C63.9751 136.488 72.3299 154.782 71.4086 164.639L71.4779 166.786C71.4779 166.786 73.9354 171.477 76.7246 177.676C78.1328 180.824 79.6249 184.34 80.9219 187.84C82.0363 190.839 82.9639 193.87 83.774 196.684L87.6376 189.318C97.9484 169.322 102.61 168.102 103.642 161.936C103.804 160.956 103.969 156.767 104.125 151.279C104.515 137.554 104.826 115.703 104.826 115.703C104.826 115.703 87.1633 113.686 86.9241 112.502C86.7142 111.44 97.7218 100.771 109.481 92.2563C100.114 88.3108 101.067 79.9685 104.507 76.2266C116.767 62.8812 138.587 90.7305 138.587 90.7305C138.587 90.7305 142.016 86.0736 145.271 88.0442C147.655 89.4902 144.358 98.4452 141.655 103.119C147.842 101.809 154.056 103.213 153.122 108.057C151.964 114.043 137.372 117.501 137.372 117.501C137.372 117.501 135.928 131.417 135.357 147.932C135.21 152.182 135.122 156.604 135.131 161.007C135.131 162.406 135.142 163.794 135.166 165.17C135.183 166.234 155.104 180.249 166.678 210.565L178.046 240.807Z" fill="#F2F7FF"/>
<path d="M57.5507 149.438C57.5507 149.438 47.2777 151.003 45.689 147.925C44.4298 145.484 50.2074 141.108 55.0281 138.89C53.0973 118.976 33.1746 111.001 29.2144 112.115C15.0106 116.103 -2.30134 127.32 0.252746 129.534C2.80683 131.748 24.2217 141.347 24.6666 160.521C25.1115 179.694 18.0075 197.115 20.7819 200.001C22.3014 201.581 29.9322 191.995 40.2031 184.02C43.1412 181.734 45.9303 179.342 48.3417 176.767C52.8517 171.971 56.0858 166.548 56.7364 160.036L57.2338 159.952C56.5076 155.646 57.1981 150.09 57.5507 149.438Z" fill="#FAD932"/>
<path d="M339.119 143.971C323.631 143.761 310.919 147.839 300.713 153.719C300.713 153.719 302.268 146.118 297.528 146.164C297.651 140.055 299.903 28.0782 298.489 12.7705C297.034 -2.96954 281.299 1.63075 236.998 2.11764C192.697 2.60453 174.529 -1.27172 169.446 7.44406C164.363 16.1598 168.696 109.979 168.086 147.921C166.68 235.568 163.049 249.706 179.53 249.54C198.804 249.331 281.391 247.862 281.391 247.862L292.934 248.057C301.295 251.601 312.004 254.078 325.652 254.456C370.725 255.715 397.957 239.118 404.218 213.764C410.478 188.41 386.226 144.596 339.119 143.971Z" fill="#F2F7FF"/>
<path d="M354.006 93.3832C364.413 91.4587 374.153 101.713 370.165 112.955C366.178 124.198 349.376 123.239 344.352 114.871C339.019 106.013 344.096 95.2153 354.006 93.3832Z" fill="#09D17E"/>
<path d="M111.802 108.004C111.491 108.004 111.192 107.881 110.972 107.661C110.752 107.441 110.628 107.142 110.627 106.831V103.83C110.627 103.518 110.751 103.219 110.971 102.999C111.192 102.778 111.491 102.655 111.802 102.655C112.114 102.655 112.413 102.778 112.633 102.999C112.854 103.219 112.977 103.518 112.977 103.83V106.835C112.976 107.146 112.851 107.443 112.631 107.662C112.411 107.881 112.113 108.004 111.802 108.004ZM118.948 108.634C118.637 108.634 118.338 108.51 118.118 108.29C117.898 108.07 117.773 107.772 117.773 107.461V104.449C117.773 104.295 117.803 104.142 117.862 103.999C117.921 103.857 118.008 103.727 118.117 103.618C118.226 103.509 118.356 103.422 118.498 103.363C118.641 103.304 118.794 103.274 118.948 103.274C119.103 103.274 119.255 103.304 119.398 103.363C119.541 103.422 119.67 103.509 119.779 103.618C119.888 103.727 119.975 103.857 120.034 103.999C120.093 104.142 120.123 104.295 120.123 104.449V107.454C120.124 107.609 120.094 107.762 120.035 107.905C119.976 108.048 119.89 108.178 119.781 108.288C119.672 108.398 119.542 108.485 119.399 108.544C119.256 108.603 119.103 108.634 118.948 108.634ZM285.501 182.507C285.347 182.507 285.194 182.477 285.051 182.418C284.909 182.359 284.779 182.273 284.67 182.164C284.561 182.055 284.474 181.926 284.415 181.783C284.356 181.641 284.326 181.488 284.326 181.334V178.31C284.326 177.998 284.449 177.699 284.67 177.479C284.89 177.258 285.189 177.134 285.501 177.134C285.812 177.135 286.111 177.259 286.331 177.479C286.55 177.7 286.674 177.998 286.674 178.31V181.315C286.677 181.471 286.648 181.625 286.59 181.77C286.532 181.914 286.446 182.046 286.337 182.157C286.228 182.268 286.098 182.356 285.954 182.416C285.811 182.476 285.656 182.507 285.501 182.507ZM296.838 186.799C296.526 186.799 296.227 186.675 296.007 186.455C295.786 186.234 295.663 185.935 295.663 185.624V182.62C295.663 182.309 295.786 182.01 296.007 181.789C296.227 181.569 296.526 181.445 296.838 181.445C296.992 181.445 297.145 181.475 297.287 181.535C297.43 181.594 297.559 181.68 297.668 181.789C297.777 181.899 297.863 182.028 297.922 182.171C297.981 182.313 298.011 182.466 298.011 182.62V185.624C298.011 185.778 297.981 185.931 297.922 186.073C297.863 186.216 297.777 186.345 297.668 186.454C297.559 186.564 297.43 186.65 297.287 186.709C297.145 186.768 296.992 186.799 296.838 186.799ZM205.099 168.461L205.269 170.861H202.066L202.238 168.461L200.209 169.86L198.74 167.258L201.141 166.058L198.71 164.857L200.198 162.311L202.228 163.655L202.056 161.254H205.258L205.088 163.655L207.118 162.311L208.605 164.857L206.175 166.058L208.576 167.258L207.107 169.86L205.099 168.461ZM225.819 168.461L225.991 170.861H222.788L222.96 168.461L220.929 169.86L219.46 167.258L221.863 166.058L219.433 164.857L220.918 162.311L222.95 163.655L222.778 161.254H225.98L225.808 163.655L227.84 162.311L229.326 164.857L226.895 166.058L229.298 167.258L227.829 169.86L225.819 168.461ZM247.093 168.461L247.265 170.861H244.063L244.235 168.461L242.203 169.86L240.734 167.258L243.137 166.058L240.707 164.857L242.193 162.311L244.224 163.655L244.052 161.254H247.259L247.087 163.655L249.118 162.311L250.617 164.857L248.186 166.058L250.589 167.258L249.131 169.86L247.093 168.461ZM20.9948 124.905L21.106 124.934C21.2035 124.96 21.2989 124.993 21.3914 125.033C21.5287 125.087 21.6626 125.149 21.7923 125.22C22.1229 125.407 22.4092 125.663 22.6317 125.971C22.8445 126.262 22.9992 126.591 23.0872 126.94C23.1639 127.233 23.1711 127.539 23.1081 127.834C23.0436 128.109 22.9252 128.368 22.7598 128.596C22.5843 128.837 22.3659 129.043 22.1155 129.205L18.1616 131.795C18.1188 131.825 18.0671 131.841 18.0147 131.839C17.9918 131.837 17.9695 131.831 17.9496 131.819C17.9296 131.808 17.9124 131.792 17.8992 131.774L12.9946 125.343C12.9796 125.326 12.9691 125.305 12.9644 125.282C12.9596 125.259 12.9606 125.235 12.9674 125.213C12.9758 125.189 12.9891 125.167 13.0064 125.148C13.0237 125.129 13.0447 125.114 13.0681 125.104L16.9674 122.968C17.2599 122.804 17.5788 122.692 17.9097 122.638C18.2277 122.583 18.5529 122.583 18.8709 122.638C19.1993 122.703 19.5112 122.834 19.788 123.022C20.0961 123.231 20.3623 123.496 20.5729 123.803C20.705 123.985 20.8156 124.181 20.9024 124.388C20.959 124.514 20.9951 124.648 21.0095 124.785L20.9948 124.905ZM16.5876 125.497L17.2172 126.353C17.2242 126.363 17.2334 126.372 17.2441 126.379C17.2549 126.386 17.2669 126.39 17.2794 126.391C17.292 126.393 17.3047 126.392 17.3168 126.388C17.3289 126.384 17.34 126.378 17.3494 126.37L18.0881 125.937C18.241 125.852 18.3541 125.711 18.4029 125.543C18.4267 125.467 18.4322 125.387 18.4191 125.309C18.4059 125.231 18.3745 125.157 18.3274 125.094C18.2778 125.026 18.215 124.97 18.1428 124.928C18.0706 124.886 17.9906 124.86 17.9076 124.85C17.7243 124.822 17.5368 124.857 17.3767 124.951L16.6274 125.371C16.5624 125.423 16.5519 125.45 16.5855 125.497H16.5876ZM20.2812 128.225C20.4302 128.138 20.54 127.998 20.5876 127.832C20.6106 127.759 20.6159 127.682 20.6031 127.606C20.5903 127.531 20.5599 127.459 20.5142 127.398C20.4648 127.331 20.4019 127.276 20.3295 127.236C20.2571 127.196 20.177 127.172 20.0945 127.165C19.9152 127.138 19.7322 127.177 19.5803 127.276L18.5037 127.942C18.4491 127.975 18.4386 128.013 18.4701 128.055L19.085 128.894C19.1165 128.938 19.1584 128.943 19.2109 128.909L20.2812 128.225ZM26.5479 126.296L24.9004 127.375C24.8637 127.4 24.8191 127.412 24.7745 127.408C24.7546 127.405 24.7355 127.398 24.7185 127.387C24.7015 127.377 24.687 127.362 24.6759 127.345L20.4302 121.247C20.4173 121.23 20.4083 121.211 20.404 121.19C20.3996 121.169 20.4 121.148 20.4051 121.127C20.4201 121.085 20.451 121.05 20.4911 121.031L22.3002 120.04C22.3386 120.019 22.3829 120.012 22.4261 120.019C22.448 120.022 22.469 120.031 22.4874 120.043C22.5059 120.055 22.5215 120.071 22.5331 120.09L26.6003 126.086C26.6124 126.103 26.6204 126.122 26.6237 126.142C26.627 126.162 26.6255 126.182 26.6192 126.202C26.6072 126.241 26.5819 126.274 26.5479 126.296ZM31.0327 123.194C31.0429 123.21 31.0498 123.227 31.053 123.245C31.0563 123.263 31.0558 123.281 31.0516 123.299C31.0479 123.316 31.0408 123.333 31.0307 123.347C31.0206 123.362 31.0077 123.374 30.9929 123.383L27.5028 125.671C27.4686 125.695 27.4267 125.705 27.3852 125.7C27.3659 125.697 27.3474 125.69 27.331 125.679C27.3147 125.668 27.301 125.654 27.2908 125.637L23.2865 119.675C23.2743 119.659 23.2659 119.64 23.2619 119.62C23.2579 119.6 23.2584 119.579 23.2634 119.559C23.2698 119.539 23.2802 119.521 23.2939 119.505C23.3076 119.489 23.3244 119.476 23.3432 119.467L25.0347 118.542C25.0708 118.52 25.1135 118.514 25.1543 118.523C25.175 118.527 25.1946 118.535 25.2119 118.547C25.2293 118.559 25.2439 118.574 25.2551 118.592L28.2688 123.194L30.1177 122.027C30.1498 122.006 30.1888 121.998 30.2268 122.004C30.2451 122.009 30.2624 122.017 30.2775 122.028C30.2926 122.039 30.3054 122.053 30.315 122.069L31.0327 123.194ZM34.9992 120.596C35.0174 120.626 35.0242 120.661 35.0181 120.695C35.0149 120.711 35.0084 120.726 34.999 120.739C34.9896 120.753 34.9775 120.764 34.9635 120.772L31.8386 122.821C31.8083 122.843 31.7706 122.852 31.7337 122.846C31.7158 122.842 31.6989 122.834 31.6841 122.823C31.6693 122.813 31.6569 122.799 31.6476 122.783L28.0295 117.058C28.0188 117.042 28.0114 117.024 28.0078 117.005C28.0042 116.987 28.0044 116.967 28.0085 116.949C28.0137 116.93 28.0227 116.913 28.035 116.898C28.0473 116.883 28.0626 116.871 28.0799 116.863L29.5867 116.038C29.6187 116.02 29.6564 116.015 29.6917 116.025C29.7109 116.029 29.729 116.038 29.7449 116.049C29.7607 116.061 29.7741 116.075 29.784 116.092L32.5123 120.512L34.1681 119.463C34.1977 119.445 34.2327 119.438 34.2668 119.444C34.2836 119.449 34.2994 119.457 34.3131 119.467C34.3268 119.478 34.3381 119.492 34.3465 119.507L34.9992 120.596ZM241.96 87.6743C241.96 89.093 241.653 90.2445 241.038 91.1287C240.424 92.013 239.448 92.651 238.111 93.0427V96.7511C238.111 96.8019 238.101 96.8522 238.082 96.8992C238.063 96.9461 238.034 96.9888 237.998 97.0247C237.962 97.0606 237.92 97.0891 237.873 97.1084C237.826 97.1277 237.775 97.1375 237.725 97.1372H232.822C232.72 97.1372 232.621 97.0965 232.549 97.0241C232.477 96.9517 232.436 96.8535 232.436 96.7511V93.4478C231.52 93.4086 230.689 93.3386 229.945 93.2379C229.848 93.2229 229.761 93.1719 229.701 93.0952C229.634 93.0164 229.598 92.9155 229.601 92.8119L229.985 88.8622C229.99 88.8056 230.007 88.7507 230.035 88.7014C230.063 88.6521 230.102 88.6095 230.148 88.5766C230.194 88.5437 230.247 88.5212 230.303 88.5107C230.359 88.5002 230.417 88.502 230.472 88.5159C230.768 88.5851 231.076 88.646 231.393 88.6985C231.71 88.7509 232.123 88.8097 232.629 88.8706C233.096 88.9292 233.566 88.96 234.037 88.9629C234.447 88.9852 234.857 88.9268 235.244 88.7908C235.52 88.7011 235.763 88.5317 235.943 88.3039C236.06 88.1414 236.155 87.9643 236.226 87.7771C236.275 87.6425 236.302 87.5007 236.306 87.3574C236.302 87.2059 236.276 87.0558 236.226 86.9125C236.145 86.6982 236.039 86.4939 235.911 86.3039C235.698 86.0094 235.421 85.7669 235.101 85.5945C234.662 85.3437 234.187 85.1598 233.693 85.0489C233.049 84.8966 232.434 84.643 231.869 84.2975C231.272 83.9341 230.727 83.4914 230.249 82.9817C229.721 82.409 229.311 81.7379 229.042 81.0068C228.734 80.1915 228.577 79.3266 228.581 78.4548C228.581 77.1579 228.912 76.0673 229.573 75.183C230.235 74.2988 231.187 73.6405 232.43 73.2082V69.3991C232.428 69.2933 232.469 69.1914 232.543 69.1158C232.577 69.0766 232.619 69.0454 232.666 69.0244C232.713 69.0033 232.764 68.993 232.816 68.994H237.718C237.825 68.9977 237.925 69.0415 238.001 69.1167C238.076 69.1919 238.12 69.2928 238.123 69.3991V72.7003C239.003 72.7423 239.868 72.8122 240.717 72.9102C240.816 72.9253 240.906 72.9752 240.971 73.0508C241.007 73.0883 241.034 73.1335 241.049 73.183C241.065 73.2325 241.069 73.2849 241.061 73.3362L240.677 77.2859C240.662 77.3952 240.604 77.494 240.516 77.5608C240.474 77.5957 240.425 77.6201 240.372 77.6322C240.319 77.6442 240.264 77.6435 240.212 77.6301C238.994 77.3522 237.752 77.1961 236.503 77.1642C236.1 77.1427 235.697 77.2011 235.317 77.3363C235.037 77.4288 234.791 77.6018 234.608 77.8336C234.489 77.9963 234.39 78.1733 234.314 78.3604C234.263 78.4946 234.236 78.6366 234.234 78.7801C234.238 78.9234 234.265 79.0651 234.314 79.1999C234.397 79.4156 234.506 79.62 234.64 79.8085C234.857 80.1025 235.138 80.3448 235.46 80.5178C235.9 80.7685 236.375 80.9531 236.868 81.0656C237.505 81.234 238.115 81.4896 238.682 81.8253C239.286 82.1829 239.835 82.6261 240.312 83.1412C240.836 83.7157 241.243 84.3873 241.508 85.1181C241.813 85.9356 241.966 86.8019 241.96 87.6743Z" fill="#090F20"/>
<path d="M237.723 97.5117H232.821C232.721 97.5122 232.622 97.493 232.53 97.4551C232.438 97.4173 232.354 97.3615 232.284 97.291C232.213 97.2206 232.157 97.1368 232.12 97.0446C232.082 96.9525 232.062 96.8537 232.063 96.7541V93.8159C231.278 93.774 230.55 93.711 229.897 93.627C229.707 93.6007 229.534 93.5032 229.412 93.3542C229.29 93.2075 229.224 93.0224 229.226 92.8317C229.225 92.8198 229.225 92.8078 229.226 92.796L229.61 88.8442C229.62 88.7353 229.653 88.6298 229.708 88.535C229.762 88.4401 229.837 88.3581 229.926 88.2944C230.014 88.2308 230.116 88.1869 230.223 88.1659C230.331 88.1449 230.441 88.1472 230.548 88.1726C230.839 88.2398 231.144 88.2985 231.452 88.351C231.761 88.4034 232.168 88.4601 232.67 88.521C233.122 88.5773 233.578 88.6067 234.034 88.6091C234.397 88.6312 234.76 88.5812 235.104 88.4622C235.31 88.3985 235.493 88.2768 235.631 88.1117C235.729 87.9771 235.809 87.8304 235.87 87.6752C235.906 87.5812 235.926 87.482 235.931 87.3814C235.927 87.2696 235.906 87.1591 235.868 87.054C235.798 86.8687 235.705 86.6926 235.593 86.5293C235.411 86.2837 235.177 86.0822 234.907 85.9396C234.499 85.7076 234.059 85.5372 233.601 85.4338C232.921 85.2731 232.27 85.0053 231.673 84.6405C231.047 84.2597 230.476 83.7959 229.975 83.2617C229.414 82.6529 228.977 81.9399 228.69 81.163C228.366 80.3014 228.203 79.3871 228.21 78.4662C228.21 77.0937 228.569 75.9185 229.278 74.9719C229.994 74.0481 230.96 73.3489 232.061 72.9572V69.4105C232.059 69.2111 232.134 69.0187 232.271 68.8732C232.34 68.7964 232.424 68.7351 232.519 68.6935C232.613 68.6519 232.715 68.6309 232.818 68.6319H237.721C237.927 68.6346 238.123 68.7175 238.269 68.8629C238.414 69.0084 238.497 69.2048 238.5 69.4105V72.3486C239.259 72.3906 240.019 72.4535 240.762 72.5354C240.95 72.5623 241.122 72.6544 241.249 72.7956C241.321 72.8728 241.375 72.965 241.407 73.0654C241.439 73.1659 241.449 73.2723 241.436 73.377L241.052 77.3183C241.04 77.4228 241.006 77.5237 240.954 77.615C240.902 77.7063 240.831 77.786 240.747 77.8492C240.661 77.9208 240.559 77.9708 240.449 77.9952C240.34 78.0197 240.226 78.0178 240.118 77.9898C238.929 77.7179 237.716 77.5653 236.497 77.5344C236.141 77.5136 235.785 77.5635 235.448 77.6813C235.238 77.7483 235.051 77.8744 234.911 78.0444C234.81 78.1794 234.727 78.3268 234.663 78.483C234.626 78.5787 234.605 78.6803 234.602 78.7831C234.608 78.8879 234.629 78.9911 234.665 79.0895C234.736 79.2743 234.831 79.4492 234.947 79.61C235.135 79.856 235.374 80.0586 235.648 80.2039C236.055 80.436 236.495 80.6064 236.953 80.7097C238.346 81.0771 239.605 81.8351 240.581 82.8944C241.139 83.5041 241.571 84.2171 241.853 84.9931C242.171 85.852 242.33 86.7615 242.323 87.6773C242.323 89.1653 241.99 90.4056 241.335 91.3437C240.705 92.2356 239.753 92.8988 238.472 93.3206V96.7541C238.473 96.8539 238.455 96.9529 238.417 97.0453C238.379 97.1378 238.324 97.2217 238.253 97.2923C238.182 97.3629 238.098 97.4186 238.006 97.4563C237.914 97.494 237.815 97.5128 237.715 97.5117H237.723ZM229.973 92.8358C229.973 92.8418 229.974 92.8477 229.977 92.8531C229.979 92.8585 229.983 92.8633 229.987 92.8673C230.722 92.9723 231.551 93.0394 232.451 93.0772C232.547 93.081 232.638 93.1218 232.704 93.1911C232.771 93.2603 232.808 93.3526 232.808 93.4487V96.752L237.723 96.7646L237.736 93.0436C237.736 92.9631 237.762 92.8847 237.81 92.8204C237.859 92.756 237.927 92.7091 238.004 92.6868C239.251 92.3217 240.168 91.7257 240.733 90.9177C241.297 90.1097 241.587 89.01 241.587 87.6752C241.596 86.8498 241.453 86.0296 241.167 85.2554C240.919 84.5703 240.539 83.9407 240.048 83.4023C239.596 82.91 239.075 82.4859 238.502 82.1431C237.965 81.825 237.386 81.5827 236.783 81.4233C236.255 81.3023 235.748 81.1043 235.278 80.8356C234.908 80.6335 234.587 80.3526 234.338 80.013C234.185 79.7973 234.062 79.5623 233.971 79.3141C233.908 79.1403 233.874 78.9574 233.87 78.7727C233.872 78.5835 233.907 78.3961 233.973 78.2186C234.059 78.0006 234.174 77.7946 234.313 77.6058C234.537 77.3131 234.843 77.0938 235.192 76.9762C235.618 76.822 236.07 76.7549 236.523 76.7789C237.794 76.8097 239.06 76.9679 240.3 77.2511C240.321 77.2343 240.321 77.228 240.321 77.2259L240.705 73.2846C240.699 73.276 240.69 73.2694 240.68 73.2657C239.841 73.1734 238.984 73.1062 238.122 73.0559C238.026 73.0515 237.935 73.0102 237.869 72.9406C237.803 72.8709 237.767 72.7783 237.767 72.6823V69.4L237.74 69.3685H232.831C232.823 69.3777 232.818 69.3897 232.818 69.4021V73.2091C232.818 73.2864 232.794 73.3618 232.749 73.4249C232.705 73.488 232.642 73.5357 232.569 73.5616C231.402 73.9667 230.502 74.5879 229.889 75.4085C229.276 76.2291 228.97 77.2469 228.97 78.4558C228.959 79.2847 229.102 80.1085 229.389 80.886C229.64 81.5712 230.024 82.2002 230.518 82.737C230.973 83.2246 231.492 83.6482 232.061 83.9962C232.592 84.3203 233.17 84.5584 233.776 84.7014C234.307 84.8231 234.817 85.0218 235.291 85.2911C235.663 85.4953 235.982 85.7826 236.225 86.1306C236.37 86.3454 236.489 86.5773 236.577 86.8211C236.641 87.0026 236.675 87.1932 236.678 87.3856C236.674 87.569 236.64 87.7506 236.577 87.9229C236.494 88.1419 236.384 88.3493 236.248 88.5399C236.027 88.8325 235.724 89.052 235.377 89.1695C234.944 89.3234 234.484 89.3904 234.025 89.3667C233.544 89.364 233.063 89.3325 232.586 89.2723C232.063 89.2093 231.654 89.1527 231.326 89.0981C230.999 89.0435 230.697 88.9806 230.386 88.9113H230.355L229.973 92.8358ZM359.398 111.04C359.194 111.722 358.784 112.325 358.225 112.767C357.715 113.136 357.054 113.3 356.241 113.258L355.528 115.3C355.519 115.329 355.504 115.355 355.484 115.378C355.464 115.4 355.44 115.418 355.412 115.43C355.385 115.442 355.356 115.447 355.326 115.447C355.297 115.447 355.268 115.442 355.24 115.43L352.539 114.486C352.511 114.477 352.484 114.462 352.462 114.442C352.439 114.422 352.421 114.398 352.409 114.37C352.398 114.343 352.392 114.314 352.392 114.284C352.392 114.255 352.398 114.225 352.409 114.198L353.039 112.379C352.542 112.179 352.098 111.981 351.706 111.787C351.681 111.774 351.658 111.757 351.64 111.735C351.621 111.713 351.608 111.688 351.599 111.661C351.578 111.605 351.578 111.543 351.599 111.487L352.573 109.388C352.586 109.358 352.606 109.331 352.631 109.309C352.656 109.287 352.686 109.271 352.718 109.262C352.75 109.253 352.783 109.251 352.816 109.256C352.849 109.261 352.881 109.273 352.909 109.292C353.057 109.387 353.214 109.479 353.381 109.569C353.545 109.661 353.761 109.778 354.027 109.902C354.273 110.025 354.527 110.133 354.787 110.223C355.008 110.315 355.245 110.362 355.484 110.362C355.653 110.366 355.82 110.32 355.962 110.228C356.059 110.162 356.146 110.082 356.22 109.992C356.274 109.93 356.317 109.859 356.346 109.783C356.374 109.699 356.387 109.611 356.386 109.522C356.384 109.389 356.365 109.257 356.332 109.128C356.271 108.924 356.165 108.737 356.021 108.58C355.824 108.355 355.594 108.161 355.339 108.005C355.013 107.798 354.723 107.54 354.479 107.241C354.222 106.921 354.01 106.568 353.849 106.192C353.668 105.775 353.572 105.326 353.566 104.872C353.553 104.361 353.635 103.852 353.807 103.371C354.012 102.719 354.426 102.152 354.986 101.759C355.568 101.386 356.249 101.198 356.94 101.22L357.675 99.1214C357.695 99.0636 357.736 99.0156 357.79 98.9871C357.816 98.9722 357.846 98.9632 357.876 98.9607C357.906 98.9582 357.936 98.9622 357.964 98.9724L360.667 99.9189C360.697 99.9287 360.723 99.9444 360.746 99.965C360.769 99.9856 360.787 100.011 360.8 100.038C360.814 100.066 360.823 100.096 360.825 100.127C360.827 100.158 360.823 100.19 360.812 100.219L360.183 102.039C360.657 102.232 361.12 102.436 361.572 102.651C361.623 102.679 361.662 102.724 361.683 102.777C361.697 102.804 361.704 102.834 361.704 102.864C361.704 102.895 361.697 102.924 361.683 102.951L360.709 105.05C360.695 105.078 360.675 105.104 360.651 105.124C360.627 105.145 360.599 105.16 360.569 105.17C360.539 105.181 360.507 105.185 360.475 105.181C360.444 105.178 360.413 105.168 360.386 105.151C359.77 104.762 359.116 104.436 358.434 104.179C358.217 104.089 357.984 104.044 357.748 104.045C357.576 104.042 357.407 104.09 357.261 104.181C357.164 104.249 357.075 104.328 356.997 104.416C356.943 104.478 356.9 104.549 356.871 104.626C356.846 104.707 356.833 104.791 356.833 104.876C356.836 105.011 356.857 105.145 356.894 105.275C356.96 105.478 357.068 105.664 357.211 105.822C357.404 106.046 357.63 106.239 357.88 106.395C358.542 106.843 359.062 107.471 359.379 108.204C359.557 108.621 359.651 109.069 359.656 109.522C359.664 110.04 359.577 110.554 359.398 111.04Z" fill="#090F20"/>
<path d="M355.318 115.824C355.246 115.826 355.175 115.814 355.108 115.791L352.405 114.844C352.33 114.819 352.262 114.78 352.203 114.728C352.144 114.676 352.097 114.613 352.063 114.542C351.994 114.398 351.985 114.233 352.038 114.082L352.558 112.599C352.182 112.441 351.836 112.284 351.525 112.129C351.392 112.059 351.288 111.943 351.236 111.801C351.186 111.662 351.186 111.51 351.236 111.371L351.25 111.337L352.224 109.239C352.26 109.16 352.313 109.091 352.378 109.034C352.443 108.978 352.519 108.936 352.602 108.911C352.684 108.888 352.771 108.882 352.855 108.894C352.94 108.906 353.021 108.936 353.093 108.983C353.24 109.075 353.391 109.163 353.551 109.251C353.71 109.339 353.914 109.444 354.18 109.574C354.413 109.691 354.653 109.793 354.898 109.881C355.076 109.955 355.266 109.994 355.458 109.996C355.553 110.002 355.648 109.98 355.731 109.935C355.799 109.888 355.861 109.832 355.916 109.77C355.943 109.738 355.965 109.703 355.981 109.665C355.995 109.618 356.002 109.569 356.002 109.52C355.997 109.417 355.982 109.315 355.956 109.216C355.907 109.069 355.828 108.936 355.723 108.823C355.552 108.629 355.354 108.461 355.135 108.324C354.778 108.095 354.459 107.812 354.191 107.484C353.911 107.143 353.678 106.765 353.498 106.361C353.297 105.897 353.189 105.398 353.181 104.892C353.167 104.336 353.257 103.781 353.446 103.257C353.676 102.529 354.141 101.896 354.768 101.459C355.331 101.092 355.985 100.886 356.657 100.865L357.305 99.0098C357.356 98.8631 357.46 98.741 357.597 98.6677C357.669 98.629 357.748 98.6057 357.83 98.5992C357.912 98.5927 357.994 98.6032 358.071 98.6299L360.772 99.5764C360.924 99.6306 361.049 99.7426 361.118 99.8879C361.188 100.033 361.198 100.2 361.146 100.353L360.627 101.839C360.995 101.992 361.358 102.156 361.71 102.324C361.843 102.391 361.947 102.503 362.004 102.64C362.037 102.717 362.054 102.801 362.051 102.884C362.049 102.968 362.029 103.05 361.991 103.125L361.022 105.224C360.986 105.298 360.935 105.364 360.873 105.418C360.811 105.472 360.739 105.513 360.661 105.539C360.58 105.568 360.493 105.578 360.407 105.569C360.321 105.56 360.239 105.532 360.166 105.486C359.573 105.114 358.946 104.802 358.292 104.554C358.118 104.483 357.932 104.445 357.744 104.443C357.646 104.439 357.55 104.462 357.465 104.51C357.393 104.557 357.328 104.613 357.272 104.676C357.244 104.707 357.223 104.744 357.209 104.783C357.196 104.826 357.19 104.871 357.192 104.915C357.196 105.017 357.213 105.118 357.242 105.216C357.292 105.365 357.374 105.502 357.481 105.616C357.651 105.811 357.848 105.979 358.067 106.116C358.416 106.351 358.73 106.633 359.001 106.955C359.288 107.297 359.525 107.678 359.704 108.087C359.901 108.548 360.005 109.043 360.012 109.545C360.024 110.099 359.933 110.65 359.746 111.172C359.516 111.926 359.059 112.591 358.438 113.077C357.869 113.467 357.189 113.666 356.499 113.644L355.87 115.432C355.829 115.549 355.754 115.651 355.653 115.722C355.552 115.794 355.431 115.833 355.307 115.833L355.318 115.824ZM352.799 114.189L355.221 115.029L355.886 113.125C355.913 113.049 355.963 112.983 356.03 112.938C356.097 112.893 356.177 112.871 356.258 112.876C356.982 112.913 357.567 112.771 358.002 112.456C358.501 112.06 358.868 111.52 359.051 110.909C359.208 110.473 359.285 110.013 359.278 109.549C359.273 109.144 359.189 108.743 359.03 108.37C358.881 108.027 358.683 107.708 358.443 107.421C358.217 107.154 357.956 106.918 357.666 106.722C357.386 106.546 357.133 106.329 356.917 106.078C356.737 105.878 356.603 105.641 356.527 105.383C356.481 105.222 356.457 105.056 356.453 104.888C356.452 104.763 356.472 104.639 356.512 104.521C356.555 104.399 356.62 104.286 356.703 104.187C356.801 104.073 356.913 103.972 357.037 103.887C357.241 103.749 357.482 103.676 357.729 103.677C358.017 103.673 358.302 103.726 358.569 103.835C359.221 104.079 359.849 104.386 360.443 104.75L361.282 102.924C360.885 102.737 360.466 102.554 360.044 102.384C359.955 102.349 359.884 102.28 359.845 102.193C359.805 102.106 359.802 102.006 359.834 101.916L360.426 100.225L357.991 99.3728L357.303 101.344C357.277 101.417 357.23 101.48 357.167 101.525C357.103 101.569 357.028 101.593 356.951 101.593C356.336 101.573 355.73 101.738 355.211 102.068C354.717 102.414 354.352 102.916 354.176 103.493C354.023 103.931 353.952 104.394 353.966 104.859C353.971 105.265 354.056 105.665 354.216 106.038C354.368 106.381 354.565 106.702 354.804 106.991C355.023 107.26 355.284 107.492 355.576 107.679C355.859 107.856 356.114 108.075 356.331 108.328C356.513 108.527 356.646 108.767 356.72 109.027C356.761 109.187 356.783 109.351 356.785 109.516C356.785 109.644 356.763 109.772 356.722 109.893C356.68 110.01 356.618 110.119 356.539 110.215C356.443 110.331 356.331 110.434 356.208 110.521C356.005 110.659 355.766 110.732 355.521 110.731C355.233 110.733 354.948 110.679 354.682 110.569C354.413 110.473 354.149 110.362 353.893 110.236C353.614 110.097 353.395 109.986 353.23 109.893C353.108 109.826 352.988 109.757 352.873 109.684L352.033 111.512C352.382 111.682 352.78 111.856 353.215 112.03C353.304 112.066 353.375 112.135 353.414 112.223C353.454 112.31 353.457 112.41 353.425 112.5L352.799 114.189ZM87.63 190.191C87.4821 190.19 87.3368 190.152 87.2079 190.079C87.0789 190.007 86.9707 189.902 86.8933 189.776C86.816 189.65 86.7721 189.506 86.7659 189.358C86.7596 189.211 86.7913 189.064 86.8577 188.932C92.2912 178.398 96.1905 173.009 98.7719 169.441C101.059 166.281 102.319 164.539 102.776 161.804C103.213 159.193 103.721 131.478 103.939 116.49C102.47 116.313 99.1413 115.906 95.8316 115.421C93.2335 115.039 91.1495 114.685 89.6385 114.372C87.0172 113.82 86.2176 113.442 86.0707 112.693C85.97 112.187 86.0854 111.598 88.5115 109.046C90.0456 107.43 92.2282 105.339 94.6564 103.169C100.646 97.7947 107.372 92.5165 113.114 88.6885C113.209 88.6251 113.316 88.5811 113.428 88.559C113.541 88.5369 113.656 88.5371 113.768 88.5596C113.88 88.5821 113.987 88.6265 114.082 88.6902C114.177 88.7539 114.259 88.8357 114.322 88.9309C114.385 89.0261 114.429 89.1329 114.452 89.2451C114.474 89.3574 114.473 89.4728 114.451 89.585C114.428 89.6972 114.384 89.8038 114.32 89.8988C114.257 89.9938 114.175 90.0753 114.08 90.1387C102.153 98.0885 90.1086 109.425 88.0561 112.2C90.1904 112.909 97.9051 114.064 104.927 114.865C105.142 114.89 105.34 114.993 105.482 115.155C105.625 115.317 105.703 115.527 105.7 115.742C105.674 117.493 105.07 158.658 104.501 162.106C103.977 165.254 102.552 167.215 100.191 170.478C97.6386 174.002 93.7854 179.328 88.4128 189.744C88.3359 189.883 88.2222 189.998 88.0841 190.077C87.9461 190.156 87.789 190.195 87.63 190.191ZM166.679 211.442C166.502 211.442 166.33 211.388 166.185 211.288C166.039 211.188 165.928 211.046 165.864 210.882C156.542 186.461 141.986 172.914 136.508 167.817C134.682 166.119 134.304 165.766 134.294 165.196C133.929 142.673 136.479 117.669 136.504 117.419C136.523 117.24 136.597 117.07 136.716 116.934C136.835 116.799 136.993 116.703 137.169 116.662C141.077 115.732 151.407 112.347 152.265 107.893C152.51 106.617 152.179 105.637 151.251 104.897C148.766 102.915 142.697 103.09 137.721 105.285C137.511 105.37 137.276 105.37 137.066 105.285C136.856 105.2 136.688 105.037 136.596 104.83C136.505 104.622 136.498 104.388 136.576 104.175C136.655 103.963 136.814 103.789 137.018 103.692C142.619 101.222 149.348 101.153 152.338 103.535C153.78 104.685 154.347 106.305 153.977 108.223C153.44 111.008 150.471 113.566 145.163 115.829C142.895 116.78 140.563 117.573 138.185 118.202C137.79 122.137 135.711 144.522 136.028 164.94C136.279 165.229 136.966 165.869 137.69 166.541C143.249 171.716 158.019 185.462 167.491 210.26C167.532 210.367 167.551 210.481 167.548 210.595C167.545 210.709 167.519 210.822 167.472 210.926C167.425 211.031 167.358 211.125 167.275 211.203C167.192 211.281 167.094 211.343 166.987 211.383C166.889 211.422 166.784 211.442 166.679 211.442Z" fill="#090F20"/>
<path d="M138.59 111.558C138.402 111.558 138.218 111.498 138.068 111.386C137.917 111.273 137.806 111.115 137.753 110.935C137.699 110.755 137.705 110.562 137.77 110.386C137.835 110.21 137.955 110.059 138.113 109.956C140.336 108.506 144.027 107.423 145.375 107.585C145.604 107.613 145.813 107.731 145.955 107.912C146.098 108.094 146.162 108.325 146.134 108.555C146.106 108.784 145.989 108.993 145.807 109.135C145.625 109.278 145.394 109.342 145.165 109.314C144.464 109.23 141.146 110.057 139.064 111.413C138.923 111.506 138.758 111.557 138.59 111.558ZM104.505 76.2266C99.4891 81.6832 99.7599 96.9069 129.572 94.0422C129.572 94.0422 126.392 105.95 139.24 105.95C141.209 105.95 148.527 90.0149 145.27 88.0442C142.012 86.0736 138.587 90.7305 138.587 90.7305C138.587 90.7305 116.77 62.8812 104.505 76.2266Z" fill="#090F20"/>
<path d="M139.239 106.821C135.073 106.821 132.037 105.619 130.215 103.253C128.076 100.471 128.232 96.865 128.498 95.0203C109.866 96.5523 104.044 90.7495 102.24 87.0999C100.091 82.7829 101.579 78.1323 103.87 75.6412C106.372 72.9129 109.434 71.6138 112.974 71.7523C123.705 72.1721 135.655 85.7945 138.612 89.3686C139.911 87.9709 142.788 85.5238 145.728 87.3014C147.185 88.1828 147.365 90.4977 146.282 94.3802C145.473 97.1591 144.388 99.8503 143.044 102.414C140.717 106.821 139.68 106.821 139.239 106.821ZM129.571 93.1735C129.704 93.1738 129.835 93.2047 129.955 93.2639C130.074 93.323 130.179 93.4088 130.26 93.5147C130.341 93.6205 130.397 93.7436 130.423 93.8743C130.449 94.0051 130.444 94.1401 130.41 94.269C130.4 94.3151 129.187 99.0581 131.6 102.194C133.069 104.093 135.602 105.065 139.143 105.081C140.513 104.286 144.964 95.3792 145.212 90.6131C145.262 89.6519 145.115 88.9719 144.82 88.7914C142.284 87.2594 139.317 91.2091 139.287 91.249C139.208 91.3564 139.104 91.4441 138.985 91.5051C138.866 91.5662 138.734 91.599 138.6 91.601C138.466 91.603 138.334 91.5742 138.213 91.5168C138.092 91.4594 137.985 91.375 137.902 91.27C137.766 91.0958 124.183 73.9349 112.897 73.4921C109.847 73.3746 107.312 74.4596 105.144 76.8185C103.243 78.8857 102.009 82.7431 103.788 86.3255C105.215 89.1902 109.53 93.5323 122.561 93.5344C124.641 93.5344 126.939 93.4232 129.487 93.1777L129.571 93.1735ZM115.478 118.727C115.256 118.726 115.043 118.641 114.882 118.489C114.72 118.337 114.623 118.129 114.61 117.907C114.597 117.686 114.669 117.468 114.811 117.298C114.953 117.128 115.155 117.018 115.375 116.991C120.729 116.345 121.147 112.294 121.147 111.067C121.141 110.949 121.159 110.831 121.2 110.721C121.241 110.61 121.304 110.509 121.386 110.423C121.467 110.338 121.565 110.27 121.673 110.223C121.782 110.177 121.898 110.153 122.016 110.153C122.134 110.153 122.251 110.177 122.36 110.223C122.468 110.27 122.566 110.338 122.647 110.423C122.729 110.509 122.792 110.61 122.833 110.721C122.874 110.831 122.892 110.949 122.886 111.067C122.886 114.192 120.974 118.07 115.583 118.721C115.548 118.725 115.513 118.727 115.478 118.727ZM113.226 154.805C109.509 154.805 106.72 153.783 103.646 152.02C103.547 151.963 103.46 151.888 103.39 151.797C103.32 151.707 103.269 151.604 103.239 151.494C103.209 151.383 103.201 151.268 103.216 151.155C103.23 151.042 103.267 150.932 103.324 150.833C103.38 150.734 103.456 150.647 103.546 150.578C103.637 150.508 103.74 150.456 103.85 150.427C103.96 150.397 104.075 150.389 104.189 150.403C104.302 150.418 104.411 150.454 104.51 150.511C111.117 154.289 116.46 154.339 135.082 147.118C135.189 147.07 135.306 147.045 135.423 147.044C135.541 147.043 135.657 147.065 135.766 147.11C135.875 147.155 135.973 147.222 136.056 147.306C136.138 147.39 136.202 147.49 136.245 147.6C136.287 147.709 136.307 147.827 136.303 147.944C136.299 148.062 136.271 148.177 136.222 148.284C136.172 148.39 136.101 148.486 136.013 148.564C135.925 148.643 135.823 148.702 135.711 148.74C124.716 152.998 118.158 154.805 113.226 154.805ZM112.12 168.302C108.85 168.302 106.131 167.819 104.282 166.87C104.076 166.765 103.92 166.583 103.849 166.363C103.778 166.143 103.798 165.904 103.903 165.698C104.008 165.493 104.191 165.337 104.41 165.266C104.63 165.195 104.869 165.214 105.075 165.319C107.694 166.663 112.664 166.931 118.37 166.037C124.408 165.089 130.362 162.99 134.675 160.262C134.771 160.191 134.881 160.14 134.997 160.114C135.114 160.087 135.235 160.085 135.352 160.107C135.47 160.129 135.582 160.175 135.681 160.243C135.78 160.31 135.864 160.397 135.928 160.498C135.991 160.599 136.034 160.712 136.052 160.831C136.07 160.949 136.064 161.069 136.033 161.185C136.003 161.301 135.949 161.409 135.875 161.503C135.8 161.597 135.708 161.674 135.602 161.731C131.084 164.572 124.899 166.768 118.639 167.746C116.483 168.097 114.304 168.283 112.12 168.302Z" fill="#090F20"/>
<path d="M113.572 168.264C113.347 168.264 113.131 168.176 112.969 168.02C112.807 167.863 112.712 167.65 112.703 167.425C112.596 164.375 112.449 160.952 112.284 157.521C112.272 157.404 112.284 157.285 112.32 157.173C112.356 157.06 112.414 156.956 112.491 156.867C112.568 156.778 112.662 156.705 112.768 156.653C112.874 156.601 112.99 156.572 113.107 156.566C113.225 156.56 113.343 156.578 113.453 156.619C113.564 156.66 113.665 156.723 113.751 156.805C113.836 156.886 113.904 156.984 113.951 157.092C113.997 157.2 114.021 157.317 114.021 157.435C114.193 160.873 114.34 164.306 114.441 167.364C114.449 167.595 114.365 167.819 114.208 167.988C114.05 168.157 113.832 168.256 113.602 168.264H113.572ZM119.341 165.076C119.121 165.076 118.909 164.992 118.748 164.841C118.587 164.69 118.49 164.484 118.475 164.264C118.475 164.224 118.208 160.277 117.95 156.908C117.941 156.683 118.019 156.463 118.169 156.294C118.319 156.125 118.528 156.021 118.753 156.004C118.978 155.986 119.201 156.057 119.375 156.201C119.549 156.344 119.66 156.55 119.686 156.774C119.946 160.159 120.208 164.119 120.212 164.149C120.22 164.263 120.205 164.377 120.169 164.485C120.132 164.594 120.075 164.694 119.999 164.78C119.924 164.865 119.833 164.936 119.73 164.986C119.628 165.037 119.516 165.067 119.402 165.074L119.341 165.076ZM126.563 161.878C126.443 161.878 126.324 161.853 126.214 161.805C126.104 161.757 126.005 161.687 125.924 161.599C125.842 161.511 125.779 161.407 125.74 161.293C125.7 161.18 125.685 161.06 125.694 160.94C125.682 160.398 125.44 156.323 125.121 151.378C125.112 151.151 125.192 150.929 125.344 150.76C125.496 150.591 125.708 150.488 125.935 150.474C126.162 150.459 126.385 150.533 126.558 150.681C126.731 150.829 126.839 151.039 126.859 151.265C127.014 153.678 127.167 156.134 127.279 158.006C127.331 158.904 127.373 159.643 127.4 160.157C127.453 161.162 127.482 161.714 126.731 161.861C126.676 161.873 126.619 161.879 126.563 161.878ZM131.373 160.911C131.259 160.909 131.146 160.886 131.04 160.841C130.935 160.796 130.84 160.731 130.76 160.649C130.68 160.568 130.616 160.471 130.574 160.365C130.531 160.259 130.509 160.146 130.511 160.031C130.511 159.995 130.544 156.442 130.511 153.106C130.509 152.875 130.599 152.653 130.76 152.488C130.922 152.323 131.142 152.229 131.373 152.226C131.603 152.226 131.823 152.317 131.986 152.478C132.149 152.64 132.242 152.859 132.244 153.089C132.278 156.447 132.244 160.014 132.244 160.054C132.24 160.283 132.147 160.5 131.984 160.661C131.821 160.821 131.602 160.911 131.373 160.911ZM71.4876 167.658C71.4505 167.66 71.4134 167.66 71.3763 167.658C71.2628 167.643 71.1533 167.607 71.0539 167.55C70.9546 167.494 70.8674 167.418 70.7974 167.327C70.7274 167.237 70.6759 167.133 70.646 167.023C70.616 166.913 70.6082 166.797 70.6229 166.684C71.9514 156.308 66.5116 144.176 62.0184 140.043C60.7445 138.87 59.5524 138.327 58.6605 138.518C54.8367 139.332 47.9468 143.554 46.5847 146.44C46.3749 146.902 46.3224 147.269 46.4588 147.529C47.3528 149.267 53.4054 149.192 57.4139 148.579C57.5724 148.555 57.7343 148.576 57.8819 148.638C58.0295 148.7 58.1571 148.802 58.2508 148.932C58.3444 149.062 58.4004 149.215 58.4127 149.375C58.425 149.535 58.3931 149.695 58.3205 149.838C57.9008 150.856 56.8514 160.81 59.5797 163.597C59.7414 163.762 59.8309 163.984 59.8285 164.215C59.8262 164.446 59.7321 164.667 59.5671 164.829C59.4021 164.99 59.1796 165.08 58.9485 165.078C58.7175 165.075 58.4969 164.981 58.3352 164.816C55.5167 161.937 55.8168 153.888 56.396 150.468C53.248 150.833 46.4168 151.259 44.9016 148.321C44.6288 147.792 44.4252 146.906 45.0023 145.687C46.7337 142.037 54.3939 137.638 58.289 136.809C59.7707 136.495 61.4643 137.168 63.1894 138.757C68.583 143.724 73.666 156.503 72.3354 166.898C72.3092 167.105 72.209 167.297 72.0533 167.436C71.8975 167.576 71.6967 167.654 71.4876 167.658Z" fill="#090F20"/>
<path d="M97.4135 234.536C97.2159 234.536 97.0242 234.469 96.8699 234.345C95.4806 233.235 93.8017 229.361 94.3326 225.82C94.5824 224.156 93.9318 223.703 93.0314 223.077C91.6442 222.112 90.513 220.995 91.9527 217.977C93.724 214.257 91.1678 212.345 88.1415 210.842C86.6494 210.095 85.747 207.037 84.0072 200.741C82.9431 196.894 81.7385 192.531 80.1162 188.149C77.1109 180.044 73.0122 171.702 71.4088 168.529C68.6855 172.457 64.8426 175.475 60.3803 177.19C55.9731 178.858 51.356 179.003 48.0107 177.578C47.8075 177.482 47.6494 177.31 47.5696 177.1C47.4898 176.89 47.4944 176.657 47.5826 176.45C47.6708 176.243 47.8356 176.078 48.0425 175.99C48.2495 175.902 48.4825 175.897 48.6928 175.977C54.7979 178.575 65.3584 175.257 70.7541 166.342C70.8353 166.211 70.9492 166.103 71.0846 166.03C71.22 165.956 71.3723 165.919 71.5264 165.922C71.6809 165.927 71.8312 165.973 71.9621 166.055C72.093 166.138 72.1998 166.253 72.2714 166.39C72.326 166.497 77.9147 177.207 81.749 187.543C83.3964 191.99 84.6661 196.582 85.6861 200.271C86.7963 204.29 88.0534 208.846 88.9202 209.279C90.7397 210.187 96.2655 212.955 93.5246 218.723C92.6054 220.655 93.021 220.945 94.0262 221.644C94.9979 222.32 96.4649 223.34 96.0535 226.076C95.6149 229.014 97.0567 232.261 97.9591 232.981C98.1001 233.094 98.2025 233.248 98.2522 233.421C98.3019 233.595 98.2964 233.78 98.2365 233.95C98.1766 234.12 98.0651 234.268 97.9177 234.372C97.7703 234.476 97.5941 234.532 97.4135 234.532V234.536Z" fill="#090F20"/>
<path d="M53.6736 214.271C53.4517 214.271 53.2383 214.186 53.0769 214.034C52.9154 213.882 52.8181 213.674 52.8047 213.453C52.8047 213.377 52.3535 205.925 51.4196 200.319C50.8089 196.653 51.7889 193.48 54.3304 190.892C54.4375 189.843 54.3199 184.9 52.7963 177.868C52.7517 177.644 52.7969 177.411 52.9221 177.22C53.0473 177.029 53.2426 176.895 53.4658 176.846C53.689 176.798 53.9223 176.839 54.1154 176.961C54.3086 177.083 54.4461 177.276 54.4983 177.498C55.2063 180.709 55.6971 183.964 55.9674 187.24C56.2717 191.163 55.9548 191.647 55.852 191.792C55.7677 191.909 55.6721 192.017 55.5666 192.115C53.4364 194.285 52.6179 196.942 53.1321 200.038C54.0786 205.736 54.5319 213.278 54.5361 213.354C54.5429 213.468 54.5272 213.582 54.4899 213.69C54.4525 213.798 54.3943 213.897 54.3184 213.983C54.2426 214.068 54.1507 214.138 54.048 214.188C53.9453 214.237 53.8337 214.266 53.7197 214.273L53.6736 214.271Z" fill="#090F20"/>
<path d="M57.3416 192.859C56.3754 192.87 55.4304 192.576 54.6406 192.019C54.5413 191.957 54.4556 191.875 54.3888 191.779C54.3219 191.682 54.2752 191.574 54.2514 191.459C54.2276 191.344 54.2272 191.225 54.2504 191.11C54.2735 190.995 54.3196 190.886 54.3859 190.79C54.4522 190.693 54.5374 190.611 54.6363 190.548C54.7353 190.485 54.8459 190.442 54.9616 190.423C55.0773 190.404 55.1957 190.408 55.3096 190.436C55.4236 190.463 55.5308 190.514 55.6248 190.584C58.6889 192.683 65.7656 188.015 76.0932 177.077C76.2561 176.93 76.4685 176.849 76.688 176.852C76.9075 176.855 77.1178 176.941 77.2769 177.092C77.4361 177.243 77.5323 177.449 77.5463 177.668C77.5602 177.887 77.491 178.103 77.3524 178.273C66.2903 190 60.5924 192.859 57.3416 192.859Z" fill="#090F20"/>
<path d="M70.6349 184.63C70.4482 184.632 70.2659 184.574 70.1148 184.464C69.9636 184.354 69.8517 184.199 69.7955 184.021C69.7829 183.981 68.5467 180.08 67.6968 177.44C67.631 177.222 67.6532 176.987 67.7587 176.785C67.8641 176.583 68.0444 176.431 68.2609 176.36C68.4774 176.29 68.7129 176.307 68.9169 176.408C69.121 176.509 69.2774 176.686 69.3526 176.9C70.2131 179.547 71.4513 183.457 71.4639 183.494C71.5337 183.715 71.5132 183.953 71.407 184.158C71.3007 184.363 71.1174 184.518 70.8973 184.588C70.8124 184.615 70.724 184.629 70.6349 184.63ZM66.7041 188.051C66.5126 188.05 66.3265 187.987 66.1748 187.87C66.023 187.753 65.914 187.589 65.8646 187.404C65.8479 187.345 64.2634 181.459 62.9265 178.317C62.8461 178.106 62.8507 177.872 62.9392 177.665C63.0277 177.457 63.1933 177.292 63.4011 177.204C63.6089 177.117 63.8427 177.113 64.0533 177.194C64.2638 177.275 64.4347 177.435 64.5299 177.639C65.9045 180.892 67.468 186.707 67.5373 186.953C67.5671 187.064 67.5749 187.179 67.5601 187.292C67.5454 187.406 67.5084 187.515 67.4513 187.615C67.3942 187.714 67.3181 187.801 67.2273 187.871C67.1365 187.94 67.0329 187.992 66.9224 188.021C66.851 188.04 66.7778 188.049 66.7041 188.051ZM60.5004 188.051C60.3112 188.051 60.127 187.99 59.9756 187.876C59.8241 187.762 59.7137 187.603 59.661 187.421C59.6106 187.241 58.4018 182.926 57.8981 179.801C57.8709 179.577 57.9315 179.352 58.067 179.172C58.2026 178.992 58.4026 178.871 58.6251 178.836C58.8476 178.8 59.0752 178.852 59.2601 178.981C59.4451 179.109 59.573 179.305 59.6169 179.526C60.0996 182.552 61.3252 186.905 61.3357 186.949C61.3671 187.059 61.3764 187.174 61.3632 187.287C61.3499 187.401 61.3144 187.511 61.2587 187.611C61.2029 187.711 61.128 187.798 61.0382 187.869C60.9484 187.94 60.8456 187.992 60.7355 188.023C60.6588 188.043 60.5797 188.053 60.5004 188.051ZM179.26 250.413C175.308 250.413 172.683 249.544 170.773 247.607C165.119 241.877 165.478 226.62 166.439 185.887C166.697 174.932 166.991 162.518 167.226 147.901C167.436 135.286 167.086 116.53 166.721 96.6724C165.967 55.5489 165.186 13.0256 168.702 7.00032C172.599 0.318151 182.842 0.52802 205.281 0.987629C213.806 1.16182 224.419 1.38008 236.997 1.24157C246.046 1.14293 253.83 0.874301 260.695 0.637151C287.178 -0.275771 298.141 -0.653532 299.373 12.6856C300.815 28.2934 298.513 141.37 298.414 146.176C298.41 146.403 298.316 146.62 298.154 146.779C297.991 146.939 297.773 147.028 297.545 147.028H297.527C297.412 147.026 297.299 147.001 297.195 146.955C297.09 146.909 296.995 146.843 296.916 146.761C296.837 146.678 296.775 146.581 296.733 146.475C296.692 146.368 296.672 146.254 296.674 146.14C296.698 144.965 299.071 28.3543 297.64 12.8451C296.559 1.14293 286.811 1.47872 260.756 2.37695C253.88 2.6141 246.086 2.88273 237.016 2.98346C224.409 3.11988 213.783 2.90371 205.246 2.72743C184.167 2.2972 173.587 2.08104 170.198 7.87757C168.781 10.3078 167.986 20.8893 167.839 39.3451C167.707 55.9476 168.087 76.6342 168.454 96.6388C168.817 116.511 169.161 135.282 168.958 147.926C168.723 162.543 168.431 174.963 168.173 185.912C167.249 224.991 166.867 241.166 172.005 246.371C173.623 248.01 175.869 248.679 179.52 248.656C198.572 248.459 280.552 246.996 281.379 246.977H281.394C281.618 246.986 281.829 247.081 281.985 247.241C282.14 247.402 282.228 247.616 282.23 247.84C282.232 248.064 282.148 248.28 281.995 248.443C281.842 248.606 281.632 248.704 281.409 248.717C280.584 248.732 198.595 250.186 179.539 250.396L179.26 250.413Z" fill="#090F20"/>
<path d="M205.406 226.63C193.97 226.63 184.165 226.42 180.503 225.79C172.333 224.395 173.248 207.83 174.515 184.902C175.055 175.143 175.665 164.083 175.583 153.09C175.529 145.701 175.374 135.871 175.195 125.465C174.337 73.177 173.9 29.4407 177.294 23.8708C181.124 17.5622 193.554 17.9651 212.369 18.5717C218.508 18.771 225.463 18.9914 232.86 18.9914C239.962 18.9914 246.943 18.6661 253.692 18.3513C264.21 17.8623 273.293 17.4405 280.135 18.3513C285.126 19.0187 291.804 20.6598 292.202 27.151C292.981 39.8816 292.215 148.016 292.202 149.105C292.201 149.335 292.108 149.555 291.945 149.717C291.782 149.879 291.561 149.969 291.332 149.969C291.217 149.969 291.104 149.945 290.999 149.901C290.894 149.856 290.798 149.791 290.718 149.71C290.638 149.628 290.575 149.532 290.532 149.426C290.489 149.32 290.468 149.207 290.469 149.092C290.469 148.003 291.241 39.9298 290.469 27.256C289.925 18.408 273.978 19.1509 253.788 20.0911C247.018 20.4059 240.017 20.7312 232.875 20.7312C225.448 20.7312 218.478 20.5066 212.327 20.3115C194.78 19.7448 182.106 19.3356 178.797 24.7753C175.376 30.3746 176.322 87.5844 176.937 125.442C177.116 136.305 177.269 145.686 177.323 153.084C177.405 164.131 176.794 175.221 176.253 185.003C175.128 205.36 174.154 222.947 180.797 224.08C191.34 225.881 256.54 224.08 257.188 224.067C257.413 224.07 257.628 224.16 257.788 224.318C257.949 224.476 258.041 224.689 258.048 224.914C258.054 225.139 257.973 225.357 257.822 225.524C257.671 225.69 257.461 225.792 257.237 225.807C255.474 225.857 227.425 226.628 205.406 226.63Z" fill="#090F20"/>
<path d="M218.116 72.1575C217.968 72.1571 217.822 72.119 217.693 72.0468C217.563 71.9745 217.455 71.8705 217.376 71.7445C217.298 71.6185 217.254 71.4748 217.246 71.3267C217.239 71.1787 217.27 71.0312 217.335 70.8983C219.386 66.7199 221.862 63.8342 227.869 62.3525C233.459 60.9758 242.194 60.7386 258.024 61.534C258.142 61.5344 258.259 61.5587 258.367 61.6055C258.475 61.6522 258.573 61.7204 258.654 61.8059C258.735 61.8915 258.798 61.9926 258.839 62.1032C258.879 62.2137 258.897 62.3314 258.891 62.4491C258.886 62.5668 258.856 62.6821 258.804 62.7879C258.752 62.8938 258.679 62.988 258.59 63.0649C258.501 63.1418 258.397 63.1998 258.284 63.2354C258.172 63.2709 258.054 63.2833 257.936 63.2717C242.291 62.4868 233.699 62.7093 228.286 64.044C222.914 65.3683 220.775 67.8405 218.899 71.6664C218.828 71.8136 218.717 71.9378 218.578 72.0247C218.44 72.1115 218.28 72.1576 218.116 72.1575Z" fill="#090F20"/>
<path d="M255.917 57.6238C255.917 62.8138 255.795 68.7467 257.459 68.3459C259.123 67.945 267.079 63.2692 267.14 61.9575C267.201 60.6459 255.919 54.8304 255.917 57.6238Z" fill="#090F20"/>
<path d="M257.308 69.2371C256.978 69.237 256.658 69.1236 256.401 68.916C255.098 67.8876 255.037 64.3283 255.048 58.6094V57.6251C255.041 57.3481 255.11 57.0744 255.247 56.8339C255.385 56.5934 255.586 56.3952 255.828 56.261C257.839 55.1424 263.604 58.1834 265.465 59.3376C267.619 60.6724 268.04 61.3671 268.011 62.0009C267.99 62.4416 267.946 63.3587 263.365 66.2318C261.32 67.5141 258.706 68.9433 257.662 69.193C257.546 69.2218 257.427 69.2366 257.308 69.2371ZM256.789 57.7573V58.6178C256.789 61.5874 256.775 66.4857 257.409 67.4616C259.163 66.9117 265.109 63.2957 266.166 61.9925C265.64 61.4678 263.984 60.3618 261.688 59.2768C258.876 57.9441 257.281 57.6797 256.789 57.7531V57.7573ZM225.928 105.651C221.763 105.651 216.797 105.498 210.818 105.198C210.7 105.198 210.583 105.174 210.475 105.127C210.367 105.081 210.269 105.013 210.188 104.927C210.106 104.842 210.043 104.741 210.002 104.63C209.961 104.519 209.943 104.402 209.949 104.284C209.955 104.166 209.984 104.051 210.036 103.945C210.088 103.839 210.161 103.744 210.25 103.667C210.339 103.59 210.443 103.532 210.556 103.497C210.668 103.461 210.787 103.449 210.904 103.46C226.552 104.245 235.142 104.023 240.556 102.688C245.929 101.364 248.065 98.8913 249.942 95.0654C250.043 94.8581 250.223 94.6997 250.442 94.6251C250.661 94.5505 250.9 94.5659 251.107 94.6677C251.315 94.7696 251.473 94.9496 251.548 95.1683C251.622 95.3869 251.607 95.6262 251.505 95.8335C249.455 100.012 246.978 102.898 240.972 104.379C237.496 105.236 232.797 105.651 225.928 105.651Z" fill="#090F20"/>
<path d="M212.927 109.113C212.927 103.923 213.05 97.9904 211.384 98.3912C209.718 98.7921 201.764 103.468 201.703 104.78C201.642 106.091 212.924 111.907 212.927 109.113Z" fill="#090F20"/>
<path d="M211.871 110.719C209.353 110.719 204.946 108.379 203.376 107.399C201.222 106.064 200.801 105.37 200.832 104.736C200.853 104.295 200.895 103.378 205.479 100.505C207.521 99.2225 210.136 97.7933 211.181 97.5436C211.398 97.489 211.624 97.4857 211.843 97.5338C212.061 97.5818 212.266 97.68 212.44 97.8206C213.743 98.849 213.804 102.408 213.794 108.129V109.111C213.801 109.389 213.731 109.663 213.593 109.903C213.455 110.144 213.254 110.342 213.011 110.476C212.657 110.652 212.265 110.735 211.871 110.719ZM202.677 104.748C203.204 105.273 204.859 106.379 207.155 107.464C209.968 108.792 211.563 109.057 212.054 108.983V108.125C212.054 105.153 212.066 100.255 211.424 99.2792C209.691 99.8291 203.737 103.445 202.677 104.748ZM26.6235 140.224C26.4319 140.224 26.2458 140.161 26.0938 140.044C25.9418 139.928 25.8325 139.764 25.7828 139.579C25.7331 139.394 25.7457 139.198 25.8188 139.021C25.8918 138.844 26.0213 138.696 26.187 138.6C26.2877 138.541 36.3949 132.656 40.2795 128.241C40.4339 128.074 40.6472 127.975 40.8739 127.963C41.1007 127.952 41.323 128.029 41.4935 128.179C41.664 128.329 41.7692 128.54 41.7867 128.766C41.8041 128.992 41.7325 129.217 41.587 129.391C37.5135 134.027 27.4839 139.859 27.06 140.113C26.9268 140.188 26.7762 140.226 26.6235 140.224ZM32.143 146.43C31.9707 146.429 31.8025 146.377 31.6596 146.281C31.5168 146.185 31.4058 146.048 31.3407 145.888C31.2755 145.729 31.2591 145.554 31.2936 145.385C31.3281 145.216 31.4119 145.061 31.5344 144.94C35.1273 141.349 41.3666 137.064 41.6311 136.883C41.7253 136.819 41.8314 136.773 41.9431 136.75C42.0549 136.726 42.1702 136.725 42.2824 136.746C42.3947 136.767 42.5017 136.81 42.5973 136.873C42.693 136.935 42.7754 137.016 42.8399 137.11C42.9044 137.204 42.9497 137.31 42.9732 137.422C42.9967 137.534 42.998 137.649 42.9769 137.761C42.9559 137.873 42.9129 137.98 42.8505 138.076C42.7881 138.172 42.7075 138.254 42.6133 138.319C42.5503 138.363 36.2438 142.694 32.7642 146.172C32.6831 146.254 32.5863 146.319 32.4797 146.364C32.373 146.408 32.2585 146.431 32.143 146.43ZM35.994 154.791C35.8034 154.791 35.6179 154.729 35.466 154.614C35.3142 154.499 35.2043 154.337 35.1533 154.153C35.1023 153.969 35.113 153.774 35.1838 153.597C35.2545 153.42 35.3814 153.271 35.5449 153.173C38.9028 151.165 41.3729 147.475 41.3981 147.44C41.4582 147.337 41.5384 147.249 41.6339 147.179C41.7294 147.109 41.8382 147.059 41.9536 147.032C42.0691 147.006 42.1887 147.003 42.3052 147.024C42.4217 147.045 42.5327 147.09 42.6313 147.156C42.7299 147.221 42.8141 147.306 42.8788 147.406C42.9434 147.505 42.9871 147.616 43.0072 147.733C43.0273 147.85 43.0234 147.969 42.9957 148.085C42.9681 148.2 42.9172 148.308 42.8462 148.403C42.7371 148.566 40.1326 152.451 36.4369 154.667C36.3032 154.748 36.1502 154.791 35.994 154.791ZM196.035 181.184C195.806 181.184 195.615 181.184 195.468 181.184C193.533 181.127 192.037 178.437 191.017 173.184C189.873 167.276 189.14 155.035 192.639 153.509C196.03 152.04 212.95 151.96 229.313 151.893C235.767 151.866 241.861 151.84 246.875 151.731C249.742 151.668 252.401 151.584 254.745 151.521C266.816 151.144 272.875 150.955 275.986 154.281C278.607 157.083 278.661 162.09 277.847 170.351C277.837 170.465 277.804 170.577 277.751 170.679C277.697 170.781 277.624 170.871 277.536 170.944C277.447 171.018 277.345 171.073 277.235 171.107C277.125 171.14 277.009 171.152 276.895 171.141C276.78 171.13 276.669 171.096 276.567 171.041C276.466 170.987 276.376 170.913 276.304 170.824C276.231 170.734 276.177 170.632 276.144 170.521C276.112 170.411 276.101 170.295 276.114 170.181C276.861 162.611 276.871 157.775 274.714 155.469C272.143 152.72 265.983 152.911 254.799 153.261C252.451 153.335 249.788 153.417 246.913 153.471C241.876 153.58 235.79 153.608 229.319 153.633C213.888 153.696 196.398 153.769 193.334 155.102C192.899 155.293 192.026 156.844 191.844 161.358C191.717 165.209 192.014 169.063 192.727 172.85C193.659 177.654 194.905 179.423 195.516 179.44C196.954 179.482 202.895 179.295 210.417 179.062C224.828 178.613 246.608 177.935 255.37 178.296C255.597 178.312 255.808 178.415 255.96 178.584C256.111 178.753 256.191 178.974 256.181 179.201C256.172 179.428 256.075 179.642 255.91 179.798C255.745 179.954 255.526 180.039 255.299 180.036C246.6 179.677 224.868 180.353 210.471 180.802C203.409 181.02 198.108 181.184 196.035 181.184Z" fill="#090F20"/>
<path d="M214.02 180.692C213.791 180.692 213.572 180.601 213.409 180.44C213.246 180.279 213.153 180.061 213.149 179.832C213.149 179.647 212.927 161.223 212.635 152.908C212.635 152.682 212.723 152.465 212.879 152.303C213.036 152.14 213.25 152.045 213.476 152.037C213.701 152.029 213.921 152.109 214.089 152.26C214.257 152.412 214.359 152.622 214.375 152.847C214.669 161.183 214.889 179.626 214.891 179.811C214.893 179.925 214.871 180.039 214.829 180.145C214.786 180.251 214.723 180.348 214.644 180.43C214.564 180.512 214.468 180.577 214.363 180.622C214.258 180.667 214.145 180.691 214.031 180.692H214.02ZM235.49 180.105C235.261 180.104 235.041 180.014 234.879 179.853C234.716 179.692 234.624 179.473 234.621 179.244C234.621 179.062 234.396 160.929 234.102 152.765C234.094 152.534 234.178 152.309 234.335 152.14C234.493 151.971 234.711 151.871 234.942 151.863C235.173 151.854 235.398 151.938 235.567 152.096C235.736 152.253 235.836 152.471 235.844 152.702C236.138 160.887 236.359 179.041 236.361 179.223C236.362 179.337 236.341 179.451 236.299 179.557C236.257 179.663 236.194 179.76 236.114 179.842C236.035 179.924 235.939 179.989 235.834 180.034C235.729 180.079 235.617 180.103 235.502 180.105H235.49ZM256.957 172.927C256.729 172.927 256.51 172.838 256.347 172.678C256.184 172.518 256.09 172.301 256.086 172.073L255.719 152.36C255.715 152.129 255.802 151.906 255.963 151.74C256.123 151.574 256.342 151.477 256.573 151.472H256.59C256.818 151.473 257.036 151.563 257.199 151.722C257.362 151.882 257.456 152.099 257.461 152.327L257.826 172.039C257.828 172.154 257.808 172.268 257.767 172.374C257.725 172.481 257.663 172.578 257.583 172.661C257.504 172.743 257.409 172.809 257.304 172.855C257.199 172.901 257.086 172.925 256.972 172.927H256.957Z" fill="#090F20"/>
<path d="M268.913 188.778C268.852 188.778 268.791 188.771 268.731 188.759C261.104 187.126 257.127 185.248 255.427 182.476C254.294 180.629 254.168 178.413 254.989 175.29C256.097 171.118 258.298 165.779 262.489 164.045C265.008 162.996 267.883 163.401 271.031 165.231C274.462 167.225 278 169.894 279.803 171.317C279.979 171.461 280.092 171.669 280.116 171.895C280.141 172.122 280.076 172.348 279.936 172.528C279.796 172.707 279.591 172.824 279.365 172.854C279.139 172.883 278.911 172.824 278.729 172.687C276.962 171.3 273.497 168.685 270.156 166.746C267.503 165.202 265.148 164.838 263.154 165.661C259.622 167.13 257.679 171.957 256.672 175.735C255.975 178.358 256.042 180.157 256.911 181.565C258.317 183.859 262.076 185.552 269.096 187.055C269.304 187.102 269.489 187.223 269.613 187.397C269.738 187.571 269.795 187.784 269.772 187.997C269.749 188.209 269.649 188.406 269.491 188.55C269.333 188.694 269.127 188.774 268.913 188.776V188.778Z" fill="#090F20"/>
<path d="M330.474 255.399C328.882 255.399 327.269 255.377 325.635 255.332C305.886 254.782 290.167 249.875 278.885 240.74C268.053 231.963 265.061 222.104 264.404 219.289C264.357 219.066 264.399 218.834 264.521 218.642C264.643 218.45 264.836 218.313 265.058 218.261C265.279 218.209 265.513 218.246 265.707 218.364C265.902 218.482 266.043 218.672 266.1 218.893C266.729 221.571 269.581 230.96 279.982 239.386C290.952 248.274 306.329 253.053 325.685 253.59C347.117 254.188 365.583 250.637 379.084 243.328C391.886 236.402 400.28 226.106 403.38 213.562C406.494 200.947 401.779 184.084 391.363 170.602C384.058 161.144 367.554 145.219 339.106 144.841C319.975 144.583 303.064 150.805 288.868 163.326C278.402 172.56 271.525 183.618 268.817 190.286C268.732 190.501 268.565 190.673 268.352 190.765C268.139 190.857 267.899 190.86 267.684 190.775C267.469 190.689 267.297 190.522 267.205 190.309C267.113 190.097 267.11 189.857 267.195 189.641C269.976 182.798 277.015 171.461 287.708 162.031C294.08 156.368 301.364 151.821 309.25 148.583C318.512 144.805 328.558 142.973 339.121 143.11C368.292 143.498 385.233 159.84 392.731 169.553C403.458 183.44 408.297 200.884 405.059 213.996C401.842 227.029 393.143 237.711 379.902 244.874C366.979 251.859 350.365 255.399 330.474 255.399Z" fill="#090F20"/>
<path d="M347.214 151.238C339.665 150.582 332.068 150.719 324.548 151.647C324.006 151.716 323.469 151.789 322.945 151.871C319.035 146.155 319.761 138.152 325.478 133.128C326.236 132.463 327.063 131.881 327.946 131.392C335.973 126.968 347.272 131.097 349.375 141.657C350.116 145.313 349.151 148.597 347.214 151.238Z" fill="#09D17E"/>
<path d="M417.689 204.771C416.465 204.756 415.261 204.45 414.178 203.879C413.283 203.432 412.468 202.842 411.762 202.133C409.267 202.872 406.484 202.522 404.402 201.055C404.305 200.991 404.221 200.907 404.156 200.81C404.091 200.713 404.047 200.604 404.025 200.489C404.003 200.375 404.005 200.257 404.029 200.143C404.054 200.028 404.102 199.92 404.169 199.825C404.236 199.73 404.322 199.649 404.421 199.587C404.52 199.525 404.631 199.484 404.746 199.466C404.862 199.448 404.979 199.454 405.093 199.482C405.206 199.51 405.312 199.561 405.405 199.632C406.875 200.668 408.795 200.998 410.606 200.635C409.557 198.864 409.217 196.702 409.706 194.364C410.358 191.237 412.298 188.794 414.216 188.683C414.954 188.641 416.302 188.908 417.061 191.185C418.346 195.04 417.385 198.626 414.486 200.78C414.181 201.007 413.861 201.213 413.527 201.397C413.971 201.759 414.454 202.071 414.967 202.326C417.16 203.439 419.294 203.22 421.313 201.678C422.596 200.7 423.697 199.254 424.533 197.69C422.136 195.812 421.496 191.814 422.558 189.569C423.188 188.234 424.375 187.642 425.733 187.982C426.81 188.251 427.553 189.138 427.832 190.477C428.178 192.156 427.796 194.54 426.841 196.887C428.38 197.18 430.359 196.291 432.562 194.282C432.734 194.135 432.957 194.06 433.183 194.074C433.408 194.088 433.62 194.189 433.773 194.357C433.925 194.524 434.007 194.744 434 194.97C433.993 195.196 433.898 195.411 433.735 195.569C430.279 198.717 427.74 198.981 426.088 198.507C425.15 200.276 423.886 201.915 422.373 203.071C420.86 204.228 419.303 204.771 417.689 204.771ZM414.348 190.419H414.312C413.462 190.467 411.947 192.127 411.406 194.719C411.175 195.827 410.95 198.077 412.3 200.068C412.703 199.877 413.087 199.646 413.445 199.38C415.741 197.674 416.457 194.885 415.406 191.732C415.244 191.239 414.889 190.419 414.348 190.419ZM424.992 189.625C424.694 189.625 424.388 189.77 424.132 190.309C423.433 191.793 423.867 194.61 425.295 196.045C426.069 194.098 426.398 192.152 426.134 190.83C425.996 190.16 425.714 189.781 425.32 189.671C425.213 189.642 425.103 189.626 424.992 189.625ZM310.428 266.703C308.69 266.703 307.196 266.602 306.189 266.395C301.06 265.345 298.585 260.785 297.374 250.151C297.356 250.035 297.362 249.917 297.391 249.803C297.42 249.689 297.471 249.583 297.543 249.49C297.614 249.396 297.703 249.318 297.805 249.26C297.907 249.203 298.02 249.166 298.136 249.153C298.253 249.139 298.371 249.15 298.483 249.183C298.596 249.217 298.7 249.272 298.79 249.347C298.881 249.422 298.955 249.514 299.009 249.618C299.063 249.723 299.095 249.837 299.104 249.954C300.394 261.177 303.013 263.96 306.552 264.691C308.701 265.131 313.574 265.026 317.885 264.445C323.551 263.681 325.899 262.455 326.092 261.82C326.951 259.003 326.082 254.713 326.074 254.669C326.045 254.555 326.039 254.437 326.057 254.321C326.076 254.204 326.117 254.093 326.18 253.993C326.242 253.894 326.324 253.808 326.421 253.741C326.517 253.673 326.626 253.627 326.741 253.603C326.857 253.579 326.975 253.579 327.091 253.602C327.206 253.625 327.315 253.672 327.412 253.738C327.509 253.805 327.591 253.891 327.654 253.99C327.717 254.09 327.759 254.201 327.778 254.317C327.818 254.51 328.745 259.081 327.759 262.325C327.222 264.088 323.981 265.381 318.118 266.172C315.568 266.514 313 266.692 310.428 266.703ZM378.215 258.325C373.195 258.325 369.401 255.286 367.147 249.377C367.063 249.161 367.069 248.921 367.162 248.709C367.256 248.498 367.429 248.332 367.645 248.249C367.861 248.165 368.101 248.171 368.312 248.264C368.524 248.358 368.69 248.531 368.773 248.747C371.229 255.167 375.489 257.652 381.464 256.138C385.542 255.104 387.905 253.643 389.128 251.402C390.704 248.514 390.452 244.069 388.358 237.813C388.291 237.595 388.311 237.36 388.415 237.158C388.519 236.956 388.698 236.802 388.914 236.73C389.13 236.658 389.365 236.673 389.57 236.772C389.775 236.871 389.933 237.047 390.01 237.261C392.297 244.094 392.503 248.854 390.656 252.237C389.187 254.938 386.478 256.663 381.892 257.828C380.692 258.145 379.457 258.312 378.215 258.325ZM322.51 186.439C322.302 186.438 322.102 186.363 321.945 186.227C321.787 186.091 321.684 185.904 321.653 185.698C321.622 185.493 321.666 185.283 321.776 185.107C321.886 184.931 322.056 184.8 322.254 184.737C327.41 183.157 330.825 183.252 330.968 183.256C331.085 183.255 331.201 183.278 331.309 183.324C331.417 183.369 331.514 183.436 331.596 183.52C331.677 183.604 331.741 183.703 331.784 183.812C331.826 183.922 331.846 184.038 331.842 184.155C331.838 184.272 331.811 184.387 331.761 184.493C331.712 184.6 331.642 184.695 331.555 184.773C331.468 184.852 331.366 184.912 331.256 184.95C331.145 184.988 331.028 185.004 330.911 184.996C330.88 184.996 327.618 184.914 322.764 186.402C322.682 186.428 322.596 186.44 322.51 186.439ZM293.02 159.692C292.972 159.692 292.924 159.688 292.877 159.679C292.764 159.661 292.656 159.621 292.559 159.56C292.462 159.5 292.377 159.422 292.311 159.329C292.244 159.236 292.196 159.131 292.17 159.02C292.144 158.908 292.14 158.793 292.159 158.68C292.923 154.013 292.831 152.302 292.831 152.286C292.82 152.169 292.832 152.052 292.867 151.94C292.903 151.829 292.96 151.726 293.036 151.637C293.112 151.548 293.205 151.476 293.31 151.424C293.414 151.371 293.528 151.341 293.645 151.334C293.762 151.327 293.879 151.343 293.989 151.383C294.099 151.422 294.2 151.482 294.286 151.562C294.373 151.641 294.442 151.736 294.49 151.842C294.539 151.949 294.565 152.064 294.568 152.181C294.568 152.256 294.673 154.103 293.878 158.962C293.844 159.165 293.739 159.35 293.582 159.483C293.425 159.617 293.226 159.691 293.02 159.692Z" fill="#090F20"/>
<path d="M285.055 166.559C284.845 166.558 284.643 166.481 284.485 166.344C284.327 166.206 284.224 166.017 284.194 165.809C282.96 157.123 289.51 146.42 296.709 145.362C298.279 145.131 299.532 145.494 300.43 146.445C302.562 148.701 301.689 153.37 301.574 153.893C301.526 154.118 301.391 154.314 301.198 154.44C301.006 154.566 300.772 154.611 300.547 154.564C300.321 154.518 300.124 154.385 299.996 154.193C299.869 154.002 299.823 153.768 299.867 153.543C300.109 152.363 300.449 148.997 299.164 147.641C298.671 147.121 297.951 146.94 296.963 147.083C290.707 148.004 284.824 157.849 285.917 165.566C285.934 165.679 285.928 165.794 285.899 165.905C285.871 166.016 285.821 166.12 285.752 166.211C285.684 166.303 285.598 166.38 285.499 166.438C285.401 166.496 285.292 166.534 285.179 166.55C285.138 166.556 285.096 166.559 285.055 166.559ZM322.508 193.058C322.282 193.058 322.065 192.97 321.903 192.813C321.741 192.656 321.647 192.442 321.639 192.217C321.631 191.991 321.712 191.772 321.863 191.604C322.014 191.437 322.224 191.334 322.449 191.319C326.646 191.027 337.559 189.287 337.637 184.83C337.681 182.639 335.977 180.374 333.192 178.922C329.882 177.199 324.308 176.429 319.492 179.938C319.4 180.005 319.295 180.053 319.184 180.08C319.073 180.107 318.958 180.111 318.845 180.094C318.732 180.076 318.624 180.036 318.526 179.977C318.429 179.917 318.344 179.839 318.277 179.747C318.21 179.654 318.161 179.55 318.134 179.439C318.108 179.328 318.103 179.212 318.121 179.099C318.138 178.987 318.178 178.878 318.238 178.781C318.297 178.683 318.376 178.599 318.468 178.531C323.924 174.544 330.246 175.423 333.998 177.379C337.375 179.138 339.438 181.996 339.381 184.863C339.32 187.885 336.397 190.183 330.688 191.696C328.026 192.378 325.312 192.833 322.573 193.056L322.508 193.058ZM358.874 154.928C358.703 154.928 358.537 154.878 358.395 154.785C356.899 153.801 354.021 152.991 350.076 152.443C349.134 152.311 348.143 152.195 347.138 152.101C344.651 151.866 341.967 151.731 339.163 151.702C338.059 151.692 336.93 151.702 335.805 151.717C332.078 151.775 328.356 152.036 324.657 152.497C324.111 152.567 323.58 152.642 323.074 152.72C321.186 153.007 319.477 153.349 317.996 153.715C317.775 153.761 317.545 153.72 317.353 153.6C317.162 153.481 317.025 153.291 316.971 153.072C316.916 152.853 316.949 152.622 317.062 152.427C317.175 152.231 317.359 152.087 317.576 152.025C319.11 151.639 320.873 151.295 322.823 150.997C323.343 150.919 323.889 150.842 324.447 150.772C328.207 150.299 331.99 150.03 335.78 149.969C336.915 149.945 338.061 149.941 339.184 149.952C342.038 149.983 344.77 150.12 347.304 150.359C348.34 150.455 349.356 150.569 350.324 150.709C354.584 151.301 357.625 152.178 359.36 153.322C359.518 153.425 359.638 153.575 359.702 153.751C359.767 153.928 359.773 154.12 359.719 154.3C359.665 154.48 359.554 154.637 359.403 154.749C359.253 154.86 359.07 154.92 358.882 154.919L358.874 154.928ZM271.053 220.666C267.21 220.666 263.057 219.6 259.065 217.504C253.749 214.71 250.781 209.218 251.51 203.508C252.37 196.74 257.988 191.503 266.536 189.497C271.542 188.324 276.419 189.692 280.272 193.35C284.644 197.501 286.803 203.869 285.775 209.573C285.433 211.605 284.606 213.525 283.364 215.169C282.122 216.813 280.501 218.133 278.639 219.017C276.268 220.136 273.674 220.7 271.053 220.666ZM266.933 191.193C259.122 193.025 254.001 197.711 253.237 203.728C252.607 208.708 255.208 213.512 259.875 215.963C266.23 219.3 272.962 219.858 277.884 217.455C281.254 215.808 283.391 212.975 284.06 209.271C284.99 204.129 283.032 198.379 279.074 194.62C275.661 191.379 271.348 190.164 266.933 191.201V191.193Z" fill="#090F20"/>
<path d="M272.192 214.663C271.745 214.662 271.303 214.573 270.891 214.4C269.002 213.632 268.288 211.492 268.962 208.675C269.829 205.055 272.704 201.311 275.837 201.563C276.972 201.655 277.822 202.339 278.227 203.489C279.149 206.096 277.638 210.959 275.176 213.303C274.234 214.197 273.207 214.663 272.192 214.663ZM275.535 203.292C273.524 203.292 271.325 206.287 270.655 209.082C270.485 209.796 270.043 212.174 271.549 212.789C272.311 213.101 273.128 212.849 273.976 212.041C275.911 210.199 277.277 206.025 276.586 204.066C276.362 203.437 276.011 203.321 275.696 203.296L275.535 203.292ZM261.354 208.977C260.992 208.976 260.635 208.898 260.305 208.749C258.777 208.069 258.242 206.207 258.876 203.769C259.593 201.002 261.629 198.18 263.994 198.385C264.905 198.467 265.585 199.04 265.908 200.001C266.639 202.169 265.377 206.316 263.455 208.067C262.788 208.669 262.068 208.977 261.354 208.977ZM263.749 200.117C262.622 200.117 261.123 202.022 260.557 204.205C260.261 205.342 260.202 206.799 261.008 207.158C261.165 207.227 261.583 207.414 262.267 206.78C263.772 205.41 264.714 201.953 264.244 200.555C264.105 200.136 263.929 200.136 263.824 200.121C263.799 200.118 263.774 200.117 263.749 200.117ZM339.576 146.221C339.477 145.722 339.289 145.245 339.022 144.813C338.785 144.426 338.475 144.09 338.109 143.822C337.774 143.584 337.408 143.396 337.02 143.262C336.657 143.135 336.278 143.059 335.895 143.037C335.598 143.033 335.305 142.983 335.024 142.888C334.819 142.827 334.631 142.722 334.472 142.58C334.372 142.489 334.286 142.384 334.216 142.269C334.172 142.197 334.14 142.12 334.119 142.038C334.106 141.954 334.106 141.868 334.119 141.784C334.142 141.668 334.178 141.555 334.228 141.448C334.304 141.294 334.424 141.166 334.573 141.081C334.775 140.959 335 140.878 335.234 140.844C335.951 140.716 336.679 140.66 337.408 140.676C337.439 140.677 337.471 140.67 337.499 140.657C337.528 140.644 337.554 140.625 337.574 140.601C337.615 140.552 337.637 140.489 337.635 140.424L337.391 138.116C337.388 138.086 337.379 138.057 337.364 138.031C337.35 138.005 337.329 137.982 337.305 137.965C337.259 137.931 337.203 137.913 337.146 137.914C336.646 137.958 336.145 138.021 335.637 138.101L335.25 136.212C335.236 136.152 335.199 136.099 335.147 136.065C335.095 136.031 335.033 136.017 334.971 136.028L332.168 136.603C332.138 136.608 332.11 136.62 332.085 136.637C332.061 136.655 332.04 136.677 332.025 136.703C331.993 136.755 331.982 136.818 331.995 136.878L332.44 139.058C331.834 139.394 331.345 139.907 331.036 140.527C330.759 141.151 330.695 141.849 330.854 142.512C330.952 143.014 331.142 143.493 331.414 143.925C331.653 144.312 331.966 144.648 332.335 144.913C332.669 145.15 333.032 145.339 333.416 145.478C333.78 145.606 334.16 145.676 334.545 145.688C334.842 145.693 335.135 145.743 335.416 145.837C335.62 145.896 335.806 146.002 335.962 146.145C336.057 146.24 336.142 146.345 336.214 146.458C336.306 146.604 336.342 146.779 336.314 146.949C336.294 147.064 336.26 147.176 336.214 147.283C336.139 147.435 336.02 147.561 335.872 147.644C335.666 147.768 335.438 147.849 335.2 147.883C334.931 147.937 334.659 147.974 334.386 147.996C334.09 148.021 333.846 148.036 333.658 148.04C333.469 148.045 333.288 148.04 333.108 148.04C333.075 148.038 333.042 148.043 333.011 148.055C332.98 148.067 332.953 148.087 332.931 148.112C332.909 148.136 332.892 148.165 332.882 148.197C332.871 148.228 332.867 148.261 332.871 148.294L333.114 150.603C333.126 150.662 333.159 150.715 333.206 150.752C333.249 150.788 333.304 150.807 333.36 150.804C333.796 150.771 334.281 150.714 334.81 150.63L334.852 150.84C335.983 150.817 337.112 150.813 338.231 150.823L338.008 149.734C338.643 149.438 339.156 148.931 339.458 148.299C339.708 147.634 339.749 146.909 339.576 146.221Z" fill="#090F20"/>
<path d="M334.847 151.222C334.786 151.221 334.727 151.206 334.673 151.178C334.619 151.149 334.573 151.108 334.539 151.058C334.119 151.117 333.737 151.161 333.384 151.186C333.232 151.196 333.082 151.147 332.965 151.05C332.856 150.959 332.782 150.834 332.755 150.695C332.754 150.681 332.754 150.667 332.755 150.653L332.511 148.344C332.502 148.258 332.512 148.17 332.54 148.088C332.568 148.005 332.613 147.929 332.673 147.866C332.731 147.803 332.803 147.753 332.883 147.72C332.963 147.687 333.049 147.673 333.135 147.677C333.298 147.677 333.475 147.677 333.655 147.677C333.836 147.677 334.098 147.656 334.367 147.633C334.626 147.612 334.884 147.577 335.139 147.526C335.331 147.499 335.515 147.435 335.683 147.337C335.829 147.243 335.873 147.171 335.892 147.142C335.925 147.065 335.95 146.985 335.966 146.903C335.973 146.862 335.973 146.82 335.966 146.779C335.954 146.734 335.936 146.692 335.911 146.653C335.855 146.565 335.788 146.485 335.714 146.412C335.597 146.314 335.46 146.242 335.313 146.202C335.067 146.121 334.81 146.078 334.551 146.074C334.128 146.059 333.71 145.979 333.311 145.837C332.896 145.688 332.502 145.483 332.142 145.228C331.732 144.934 331.385 144.562 331.12 144.132C330.823 143.663 330.616 143.142 330.509 142.596C330.334 141.853 330.408 141.073 330.719 140.376C331.017 139.769 331.475 139.256 332.043 138.892L331.624 136.968C331.591 136.816 331.618 136.658 331.699 136.527C331.74 136.458 331.795 136.397 331.86 136.35C331.925 136.303 331.999 136.269 332.077 136.252L334.889 135.677C334.969 135.661 335.052 135.661 335.132 135.678C335.212 135.694 335.288 135.727 335.355 135.773C335.422 135.817 335.479 135.874 335.523 135.94C335.567 136.006 335.597 136.081 335.611 136.16L335.924 137.696C336.344 137.637 336.721 137.591 337.105 137.557C337.249 137.548 337.391 137.588 337.508 137.671C337.577 137.719 337.635 137.781 337.678 137.853C337.721 137.926 337.747 138.007 337.756 138.09L337.999 140.386C338.011 140.552 337.959 140.716 337.853 140.844C337.797 140.913 337.726 140.968 337.645 141.004C337.564 141.041 337.475 141.058 337.387 141.054C336.683 141.04 335.981 141.095 335.288 141.217C335.101 141.244 334.922 141.307 334.759 141.402C334.671 141.445 334.597 141.514 334.549 141.599C334.511 141.677 334.483 141.76 334.465 141.845C334.458 141.889 334.458 141.933 334.465 141.977C334.478 142.016 334.495 142.053 334.516 142.088C334.571 142.173 334.636 142.251 334.711 142.319C334.833 142.423 334.976 142.499 335.131 142.544C335.376 142.625 335.632 142.668 335.89 142.672C336.311 142.694 336.727 142.776 337.124 142.915C337.546 143.059 337.944 143.264 338.306 143.524C338.712 143.818 339.056 144.19 339.32 144.617C339.611 145.088 339.816 145.608 339.924 146.151C340.114 146.917 340.063 147.723 339.779 148.46C339.491 149.088 339.01 149.607 338.407 149.942L338.574 150.764C338.586 150.819 338.585 150.875 338.572 150.93C338.558 150.984 338.533 151.034 338.497 151.077C338.461 151.119 338.416 151.153 338.366 151.177C338.315 151.2 338.261 151.213 338.205 151.213C337.097 151.203 335.964 151.213 334.847 151.23V151.222ZM334.807 150.267C334.876 150.268 334.944 150.288 335.002 150.325C335.06 150.362 335.107 150.415 335.137 150.477C336.016 150.462 336.898 150.458 337.769 150.462L337.636 149.832C337.621 149.753 337.632 149.671 337.666 149.598C337.701 149.525 337.758 149.465 337.829 149.427C338.459 149.092 338.898 148.67 339.11 148.168C339.332 147.573 339.366 146.924 339.208 146.309C339.119 145.853 338.949 145.418 338.707 145.022C338.495 144.678 338.218 144.378 337.892 144.139C337.588 143.921 337.253 143.749 336.9 143.627C336.57 143.509 336.225 143.439 335.876 143.417C335.543 143.41 335.213 143.353 334.898 143.247C334.641 143.167 334.406 143.031 334.207 142.85C334.084 142.735 333.978 142.604 333.89 142.46C333.829 142.357 333.784 142.246 333.756 142.13C333.732 141.999 333.732 141.865 333.756 141.734C333.782 141.588 333.827 141.447 333.89 141.314C333.993 141.092 334.162 140.907 334.373 140.783C334.617 140.634 334.889 140.534 335.173 140.491C335.858 140.368 336.554 140.31 337.25 140.317L337.04 138.317C336.621 138.357 336.176 138.414 335.701 138.489C335.607 138.503 335.511 138.48 335.433 138.425C335.355 138.371 335.301 138.289 335.282 138.195L334.923 136.439L332.404 136.955L332.824 139.001C332.84 139.077 332.831 139.156 332.8 139.227C332.769 139.298 332.716 139.358 332.65 139.398C332.108 139.695 331.669 140.149 331.391 140.701C331.149 141.253 331.094 141.868 331.235 142.453C331.324 142.909 331.497 143.344 331.745 143.736C331.957 144.083 332.236 144.385 332.566 144.623C332.872 144.839 333.205 145.013 333.557 145.14C333.883 145.258 334.226 145.323 334.572 145.335C334.908 145.342 335.24 145.399 335.559 145.505C335.816 145.583 336.051 145.721 336.245 145.906C336.361 146.021 336.464 146.149 336.551 146.288C336.619 146.4 336.668 146.524 336.694 146.653C336.716 146.775 336.716 146.9 336.694 147.022C336.671 147.167 336.63 147.308 336.572 147.442C336.467 147.665 336.296 147.851 336.083 147.975C335.837 148.126 335.562 148.225 335.275 148.267C334.998 148.322 334.718 148.362 334.436 148.384C334.153 148.41 333.901 148.424 333.691 148.43C333.567 148.43 333.437 148.43 333.271 148.43L333.481 150.435C333.863 150.401 334.297 150.347 334.763 150.273L334.807 150.267Z" fill="#090F20"/>
</svg>
