<svg width="169" height="50" viewBox="0 0 169 50" fill="none" xmlns="http://www.w3.org/2000/svg">
<g clip-path="url(#clip0_213_1354)">
<path d="M38 0H12C5.37258 0 0 5.37258 0 12V38C0 44.6274 5.37258 50 12 50H38C44.6274 50 50 44.6274 50 38V12C50 5.37258 44.6274 0 38 0Z" fill="#1455FE"/>
<path d="M9.98804 33.2V18.08H21.788L24.788 22.184H14.524V23.912H18.94L19.74 27.8H14.524V33.2H9.98804Z" fill="white"/>
<path d="M24.4601 33.2L20.7881 18.08H25.6481L27.1601 24.776L29.2121 18.08H33.7481L35.7681 24.776L37.3121 18.08H42.1721L38.5001 33.2H33.4241L31.6641 26.18L29.5361 33.2H24.4601Z" fill="white"/>
</g>
<path d="M74.5 32V18H83.8V20.4H77.1V23.8H83.3V26.2H77.1V32H74.5ZM86.0992 32V18H88.5992V32H86.0992ZM93.2922 26H98.4922C98.3722 25.32 98.0922 24.7667 97.6522 24.34C97.2255 23.9133 96.6722 23.7 95.9922 23.7C95.2722 23.7 94.6789 23.9133 94.2122 24.34C93.7589 24.7533 93.4522 25.3067 93.2922 26ZM98.0922 29H100.692C100.626 29.2533 100.492 29.54 100.292 29.86C100.106 30.1667 99.8322 30.5133 99.4722 30.9C99.1255 31.2733 98.6455 31.5867 98.0322 31.84C97.4189 32.08 96.7389 32.2 95.9922 32.2C94.4855 32.2 93.2389 31.7067 92.2522 30.72C91.2789 29.72 90.7922 28.4467 90.7922 26.9C90.7922 25.3533 91.2789 24.0867 92.2522 23.1C93.2389 22.1 94.4855 21.6 95.9922 21.6C97.3922 21.6 98.5722 22.0933 99.5322 23.08C100.506 24.0533 100.992 25.26 100.992 26.7C100.992 26.82 100.972 27.06 100.932 27.42L100.892 27.7H93.2922C93.3989 28.42 93.6989 29 94.1922 29.44C94.6855 29.88 95.2855 30.1 95.9922 30.1C96.5255 30.1 96.9789 29.9867 97.3522 29.76C97.7255 29.52 97.9722 29.2667 98.0922 29ZM101.298 32L104.698 26.8L101.398 21.8H104.198L106.298 25H106.698L108.798 21.8H111.598L108.298 26.8L111.698 32H108.898L106.698 28.6H106.298L104.098 32H101.298ZM112.794 36V33.7H114.794C115.194 33.7 115.447 33.5333 115.554 33.2L115.734 32.7L111.594 21.8H114.194L116.794 28.7H117.194L119.594 21.8H122.194L117.894 34C117.64 34.7333 117.3 35.2467 116.874 35.54C116.46 35.8467 115.8 36 114.894 36H112.794ZM124.899 32L122.299 21.8H124.899L126.599 28.5H126.999L128.699 21.8H131.499L133.199 28.5H133.599L135.299 21.8H137.899L135.299 32H131.999L130.299 25.4H129.899L128.199 32H124.899ZM141.885 29.06C142.405 29.62 143.045 29.9 143.805 29.9C144.565 29.9 145.205 29.62 145.725 29.06C146.245 28.5 146.505 27.78 146.505 26.9C146.505 26.02 146.245 25.3 145.725 24.74C145.205 24.18 144.565 23.9 143.805 23.9C143.045 23.9 142.405 24.18 141.885 24.74C141.365 25.3 141.105 26.02 141.105 26.9C141.105 27.78 141.365 28.5 141.885 29.06ZM140.065 23.1C141.051 22.1 142.298 21.6 143.805 21.6C145.311 21.6 146.551 22.1 147.525 23.1C148.511 24.0867 149.005 25.3533 149.005 26.9C149.005 28.4467 148.511 29.72 147.525 30.72C146.551 31.7067 145.311 32.2 143.805 32.2C142.298 32.2 141.051 31.7067 140.065 30.72C139.091 29.72 138.605 28.4467 138.605 26.9C138.605 25.3533 139.091 24.0867 140.065 23.1ZM151.097 32V21.8H153.197L153.397 22.7H153.497C153.617 22.54 153.764 22.3933 153.937 22.26C154.35 21.9533 154.804 21.8 155.297 21.8H157.297V24.2H155.497C154.23 24.2 153.597 24.8333 153.597 26.1V32H151.097ZM158.892 32V18H161.392V26.4L165.192 21.8H168.092L163.892 26.8L168.292 32H165.392L161.392 27.2V32H158.892Z" fill="#090F20"/>
<defs>
<clipPath id="clip0_213_1354">
<rect width="50" height="50" fill="white"/>
</clipPath>
</defs>
</svg>
