<svg width="169" height="51" viewBox="0 0 169 51" fill="none" xmlns="http://www.w3.org/2000/svg">
<g clip-path="url(#clip0_91_3397)">
<path d="M38 0.977783H12C5.37258 0.977783 0 6.35037 0 12.9778V38.9778C0 45.6052 5.37258 50.9778 12 50.9778H38C44.6274 50.9778 50 45.6052 50 38.9778V12.9778C50 6.35037 44.6274 0.977783 38 0.977783Z" fill="white" fill-opacity="0.15"/>
<path d="M9.98798 34.1778V19.0578H21.788L24.788 23.1618H14.524V24.8898H18.94L19.74 28.7778H14.524V34.1778H9.98798Z" fill="white"/>
<path d="M24.46 34.1778L20.788 19.0578H25.648L27.16 25.7538L29.212 19.0578H33.748L35.768 25.7538L37.312 19.0578H42.172L38.5 34.1778H33.424L31.664 27.1578L29.536 34.1778H24.46Z" fill="white"/>
</g>
<path d="M74.5 32.9778V18.9778H83.8V21.3778H77.1V24.7778H83.3V27.1778H77.1V32.9778H74.5ZM86.0992 32.9778V18.9778H88.5992V32.9778H86.0992ZM93.2922 26.9778H98.4922C98.3722 26.2978 98.0922 25.7444 97.6522 25.3178C97.2255 24.8911 96.6722 24.6778 95.9922 24.6778C95.2722 24.6778 94.6789 24.8911 94.2122 25.3178C93.7589 25.7311 93.4522 26.2844 93.2922 26.9778ZM98.0922 29.9778H100.692C100.626 30.2311 100.492 30.5178 100.292 30.8378C100.106 31.1444 99.8322 31.4911 99.4722 31.8778C99.1255 32.2511 98.6455 32.5644 98.0322 32.8178C97.4189 33.0578 96.7389 33.1778 95.9922 33.1778C94.4855 33.1778 93.2389 32.6844 92.2522 31.6978C91.2789 30.6978 90.7922 29.4244 90.7922 27.8778C90.7922 26.3311 91.2789 25.0644 92.2522 24.0778C93.2389 23.0778 94.4855 22.5778 95.9922 22.5778C97.3922 22.5778 98.5722 23.0711 99.5322 24.0578C100.506 25.0311 100.992 26.2378 100.992 27.6778C100.992 27.7978 100.972 28.0378 100.932 28.3978L100.892 28.6778H93.2922C93.3989 29.3978 93.6989 29.9778 94.1922 30.4178C94.6855 30.8578 95.2855 31.0778 95.9922 31.0778C96.5255 31.0778 96.9789 30.9644 97.3522 30.7378C97.7255 30.4978 97.9722 30.2444 98.0922 29.9778ZM101.298 32.9778L104.698 27.7778L101.398 22.7778H104.198L106.298 25.9778H106.698L108.798 22.7778H111.598L108.298 27.7778L111.698 32.9778H108.898L106.698 29.5778H106.298L104.098 32.9778H101.298ZM112.794 36.9778V34.6778H114.794C115.194 34.6778 115.447 34.5111 115.554 34.1778L115.734 33.6778L111.594 22.7778H114.194L116.794 29.6778H117.194L119.594 22.7778H122.194L117.894 34.9778C117.64 35.7111 117.3 36.2244 116.874 36.5178C116.46 36.8244 115.8 36.9778 114.894 36.9778H112.794ZM124.899 32.9778L122.299 22.7778H124.899L126.599 29.4778H126.999L128.699 22.7778H131.499L133.199 29.4778H133.599L135.299 22.7778H137.899L135.299 32.9778H131.999L130.299 26.3778H129.899L128.199 32.9778H124.899ZM141.885 30.0378C142.405 30.5978 143.045 30.8778 143.805 30.8778C144.565 30.8778 145.205 30.5978 145.725 30.0378C146.245 29.4778 146.505 28.7578 146.505 27.8778C146.505 26.9978 146.245 26.2778 145.725 25.7178C145.205 25.1578 144.565 24.8778 143.805 24.8778C143.045 24.8778 142.405 25.1578 141.885 25.7178C141.365 26.2778 141.105 26.9978 141.105 27.8778C141.105 28.7578 141.365 29.4778 141.885 30.0378ZM140.065 24.0778C141.051 23.0778 142.298 22.5778 143.805 22.5778C145.311 22.5778 146.551 23.0778 147.525 24.0778C148.511 25.0644 149.005 26.3311 149.005 27.8778C149.005 29.4244 148.511 30.6978 147.525 31.6978C146.551 32.6844 145.311 33.1778 143.805 33.1778C142.298 33.1778 141.051 32.6844 140.065 31.6978C139.091 30.6978 138.605 29.4244 138.605 27.8778C138.605 26.3311 139.091 25.0644 140.065 24.0778ZM151.097 32.9778V22.7778H153.197L153.397 23.6778H153.497C153.617 23.5178 153.764 23.3711 153.937 23.2378C154.35 22.9311 154.804 22.7778 155.297 22.7778H157.297V25.1778H155.497C154.23 25.1778 153.597 25.8111 153.597 27.0778V32.9778H151.097ZM158.892 32.9778V18.9778H161.392V27.3778L165.192 22.7778H168.092L163.892 27.7778L168.292 32.9778H165.392L161.392 28.1778V32.9778H158.892Z" fill="white"/>
<defs>
<clipPath id="clip0_91_3397">
<rect width="50" height="50" fill="white" transform="translate(0 0.977783)"/>
</clipPath>
</defs>
</svg>
