<svg width="435" height="347" viewBox="0 0 435 347" fill="none" xmlns="http://www.w3.org/2000/svg">
<path d="M384.905 296.793C384.905 296.793 384.993 301.347 382.445 307.903C378.924 316.989 370.343 329.924 349.479 339.921C321.405 353.372 264.523 344.481 250.583 328.121C246.473 323.298 243.326 318.568 241.134 313.405C238.24 306.604 237.001 299.057 237.396 289.578C237.714 281.851 239.12 272.841 241.594 261.907C241.864 260.715 242.153 259.543 242.466 258.392C251.148 226.16 275.45 209.497 301.614 206.237C307.616 205.489 315.097 205.906 323.11 207.618C341.821 211.617 363.418 222.69 375.799 242.518C382.048 252.521 385.947 264.755 385.947 279.431C393.937 286.674 411.49 289.705 414.355 289.445C417.221 289.185 413.569 298.961 384.905 296.793Z" fill="#FAD932"/>
<mask id="mask0_84_1776" style="mask-type:alpha" maskUnits="userSpaceOnUse" x="237" y="167" width="199" height="180">
<path d="M384.905 296.793C384.905 296.793 384.993 301.347 382.445 307.902C378.924 316.988 370.343 329.924 349.479 339.921C321.405 353.372 264.523 344.481 250.583 328.121C246.473 323.298 243.326 318.568 241.134 313.405C238.24 306.603 237.001 299.057 237.396 289.578C237.714 281.85 239.12 272.841 241.594 261.907C241.864 260.715 242.153 259.543 242.466 258.391C251.148 226.16 264.63 195.479 290.794 192.219C296.796 191.471 333.491 166.009 341.504 167.721C360.215 171.72 422.388 198.428 434.768 218.256C439.027 225.074 383.225 257.189 384.811 266.145C385.552 270.33 385.947 274.757 385.947 279.43C393.937 286.674 411.49 289.705 414.355 289.445C417.221 289.184 413.569 298.961 384.905 296.793Z" fill="#FADB4A"/>
</mask>
<g mask="url(#mask0_84_1776)">
<path d="M343.156 206.19C335.797 205.124 328.227 205.327 321.479 208.468C321.521 208.54 321.559 208.615 321.605 208.684C319.875 209.399 317.863 210.232 315.728 211.135C305.913 215.289 293.45 220.875 293.329 222.516C293.014 226.77 312.551 231.373 313.02 231.811C313.386 232.15 312.629 260.384 312.283 272.786C311.948 272.862 311.608 272.989 311.268 273.175C307.659 275.161 308.953 278.543 311.49 279.086C305.527 284.61 282.435 309.353 267.209 330.003L259.227 342.047L246.4 371.76C269.945 378.969 345.38 383.039 365.294 372.683C385.815 362.016 424.825 360.551 378.328 309.467L357.972 287.641L358.228 280.746C358.824 280.905 359.514 280.909 360.259 280.694C364.99 279.329 362.591 274.036 358.756 275.247C358.641 275.283 358.534 275.322 358.429 275.358L359.602 243.827C362.266 245.1 366.269 245.373 369.53 244.32C372.202 243.46 374.382 241.706 374.919 238.885C375.858 233.97 368.847 230.034 361.808 231.719C363.526 229.578 364.618 226.505 364.526 223.152C364.557 223.209 364.59 223.264 364.622 223.319C364.151 212.784 352.488 207.688 343.156 206.19Z" fill="#F2F7FF"/>
<path d="M378.548 310.589C378.284 310.597 378.018 310.496 377.824 310.288L357.301 288.275C357.13 288.091 357.039 287.847 357.049 287.597L358.677 243.789C358.689 243.472 358.86 243.181 359.133 243.017C359.406 242.853 359.743 242.836 360.031 242.974C363.066 244.425 367.63 244.374 370.647 242.853C372.529 241.905 373.658 240.511 374.001 238.708C374.354 236.855 373.286 235.469 372.327 234.633C370.14 232.725 365.642 231.386 360.935 232.951C360.439 233.117 359.904 232.848 359.738 232.354C359.572 231.86 359.84 231.325 360.336 231.16C365.049 229.593 370.368 230.418 373.572 233.212C375.454 234.853 376.267 236.93 375.86 239.061C375.408 241.435 373.901 243.329 371.502 244.538C368.366 246.118 363.965 246.347 360.518 245.199L358.954 287.277L379.209 309.003C379.565 309.385 379.543 309.982 379.161 310.337C378.987 310.498 378.768 310.582 378.548 310.589Z" fill="#090F20"/>
<path d="M369.151 239.15C368.949 239.157 368.745 239.1 368.57 238.974C368.142 238.726 364.9 237.491 361.866 238.769C361.383 238.973 360.83 238.747 360.626 238.267C360.422 237.787 360.647 237.233 361.129 237.03C364.97 235.411 369.015 236.928 369.702 237.463C370.115 237.783 370.188 238.376 369.867 238.788C369.687 239.018 369.422 239.142 369.151 239.15ZM368.539 238.951C368.545 238.956 368.552 238.962 368.56 238.968C368.553 238.963 368.546 238.957 368.539 238.951Z" fill="#090F20"/>
<path d="M329.53 336.994C326.012 337.108 323.013 336.061 320.782 333.923C317.347 330.632 316.49 325.555 316.833 321.902C316.882 321.383 317.345 321.001 317.864 321.051C318.384 321.1 318.767 321.56 318.718 322.079C318.416 325.294 319.144 329.736 322.093 332.562C324.285 334.662 327.289 335.475 331.025 334.976C331.544 334.911 332.02 335.27 332.089 335.787C332.159 336.303 331.796 336.778 331.277 336.847C330.682 336.927 330.099 336.975 329.53 336.994Z" fill="#090F20"/>
<path d="M283.444 350.015C283.297 350.02 283.147 349.99 283.006 349.923C282.534 349.698 282.335 349.135 282.56 348.665C286.788 339.837 287.222 338.666 287.72 334.747C287.981 332.698 288.021 330.492 288.063 328.157C288.195 320.808 288.345 312.479 295.478 305.056C295.84 304.68 296.439 304.666 296.816 305.027C297.194 305.388 297.207 305.985 296.845 306.361C290.224 313.252 290.081 321.189 289.955 328.192C289.912 330.58 289.871 332.835 289.598 334.986C289.051 339.283 288.419 340.812 284.268 349.479C284.11 349.808 283.786 350.004 283.444 350.015Z" fill="#090F20"/>
<path d="M267.246 330.95C267.041 330.957 266.833 330.897 266.655 330.767C266.233 330.458 266.143 329.867 266.452 329.448C281.733 308.723 305.562 283.16 311.178 278.097C311.677 261.213 312.309 236.345 312.143 232.498C311.71 232.36 311.016 232.156 310.337 231.956C299.38 228.734 292.134 225.885 292.386 222.458C292.452 221.559 292.552 220.199 310.054 212.558C318.461 208.887 326.953 205.504 327.038 205.47C327.523 205.277 328.074 205.513 328.268 205.997C328.462 206.481 328.225 207.03 327.74 207.223C312.298 213.368 295.72 220.772 294.279 222.698C294.343 223.115 295.002 224.442 300.241 226.595C303.881 228.09 308.257 229.377 310.872 230.146C313.151 230.817 313.41 230.898 313.663 231.134C314.058 231.503 314.129 231.569 314.018 239.319C313.963 243.214 313.851 248.613 313.685 255.364C313.404 266.856 313.061 278.445 313.058 278.56C313.051 278.823 312.933 279.071 312.734 279.244C307.795 283.532 283.486 309.532 267.978 330.566C267.799 330.808 267.526 330.941 267.246 330.95Z" fill="#090F20"/>
<path d="M322.961 301.086C322.434 301.104 321.882 300.965 321.313 300.671C317.378 298.636 313.148 289.385 311.528 283.774C311.384 283.272 311.674 282.75 312.176 282.606C312.679 282.463 313.204 282.751 313.348 283.252C315.138 289.452 319.297 297.502 322.184 298.994C322.558 299.188 322.871 299.243 323.112 299.16C324.065 298.83 326.016 297.757 328.485 296.399C334.201 293.254 343.767 287.992 354.35 284.641C354.848 284.483 355.381 284.758 355.539 285.255C355.697 285.752 355.422 286.282 354.924 286.44C344.519 289.735 335.055 294.941 329.4 298.052C326.752 299.508 324.839 300.56 323.733 300.944C323.483 301.03 323.225 301.078 322.961 301.086Z" fill="#090F20"/>
<path d="M342.829 277.967C346.656 277.368 348.154 282.953 343.456 283.567C339.521 284.082 337.987 278.726 342.829 277.967Z" fill="#F2F7FF"/>
<path d="M343.089 284.542C340.76 284.618 339.145 282.993 338.892 281.248C338.637 279.486 339.709 277.5 342.682 277.035C344.201 276.798 345.587 277.311 346.49 278.445C347.343 279.516 347.57 280.929 347.082 282.132C346.776 282.886 345.914 284.197 343.579 284.502C343.413 284.524 343.249 284.537 343.089 284.542ZM342.976 278.899C341.461 279.136 340.614 279.933 340.766 280.978C340.903 281.925 341.853 282.825 343.333 282.631C344.357 282.497 345.065 282.068 345.327 281.424C345.556 280.858 345.431 280.15 345.007 279.618C344.733 279.274 344.103 278.724 342.976 278.899Z" fill="#090F20"/>
<path d="M335.286 279.562C339.113 278.962 340.61 284.547 335.913 285.161C331.978 285.676 330.444 280.32 335.286 279.562Z" fill="#F2F7FF"/>
<path d="M335.546 286.137C333.218 286.213 331.603 284.588 331.35 282.842C331.095 281.081 332.167 279.095 335.139 278.629C336.659 278.392 338.045 278.906 338.947 280.04C339.801 281.112 340.028 282.524 339.54 283.727C339.234 284.481 338.372 285.792 336.037 286.097C335.87 286.119 335.706 286.132 335.546 286.137ZM335.434 280.494C333.919 280.731 333.072 281.528 333.223 282.573C333.36 283.519 334.308 284.42 335.79 284.226C336.815 284.092 337.523 283.663 337.785 283.019C338.014 282.454 337.889 281.745 337.465 281.213C337.191 280.869 336.56 280.318 335.434 280.494Z" fill="#090F20"/>
<path d="M327.577 279.378C331.335 278.707 332.839 285.165 328.225 285.848C324.36 286.42 322.822 280.227 327.577 279.378Z" fill="#F2F7FF"/>
<path d="M327.852 286.828C325.563 286.903 324.035 285.122 323.731 283.271C323.41 281.323 324.425 278.983 327.411 278.45C328.788 278.205 330.093 278.684 330.991 279.768C332.01 280.995 332.319 282.795 331.761 284.246C331.227 285.636 330.021 286.537 328.365 286.782C328.19 286.808 328.019 286.823 327.852 286.828ZM328.052 280.275C327.954 280.278 327.852 280.288 327.745 280.308C325.894 280.638 325.423 281.898 325.599 282.967C325.784 284.09 326.694 285.119 328.086 284.915C329.051 284.772 329.711 284.307 329.994 283.57C330.31 282.748 330.12 281.679 329.533 280.971C329.248 280.627 328.77 280.252 328.052 280.275Z" fill="#090F20"/>
<path d="M321.221 277.671C324.932 279.562 322.384 285.71 317.912 283.275C314.166 281.235 316.525 275.277 321.221 277.671Z" fill="#F2F7FF"/>
<path d="M320.034 284.782C319.311 284.805 318.445 284.64 317.459 284.103C314.971 282.749 314.651 280.091 315.611 278.278C316.551 276.504 318.784 275.368 321.653 276.831C323.048 277.542 323.886 278.822 323.95 280.344C324.016 281.9 323.237 283.414 321.967 284.202C321.556 284.457 320.897 284.754 320.034 284.782ZM319.059 278.058C318.193 278.086 317.599 278.568 317.285 279.16C316.747 280.175 316.943 281.672 318.366 282.447C319.358 282.987 320.257 283.039 320.967 282.599C321.657 282.171 322.095 281.297 322.058 280.422C322.038 279.939 321.846 279.049 320.791 278.511C320.128 278.172 319.549 278.042 319.059 278.058Z" fill="#090F20"/>
<path d="M311.267 273.18C314.967 271.144 318.593 276.331 314.004 278.706C310.161 280.694 306.583 275.756 311.267 273.18Z" fill="#F2F7FF"/>
<path d="M312.36 280.106C310.676 280.16 309.216 279.248 308.532 277.975C307.63 276.296 307.984 273.907 310.808 272.354C312.246 271.564 313.829 271.575 315.151 272.386C316.404 273.154 317.151 274.494 317.1 275.883C317.069 276.753 316.681 278.384 314.441 279.544C313.735 279.909 313.03 280.084 312.36 280.106ZM312.912 273.66C312.561 273.671 312.161 273.766 311.724 274.007C310.211 274.839 309.628 276.018 310.201 277.084C310.716 278.042 312.071 278.644 313.568 277.868C314.597 277.336 315.18 276.606 315.208 275.814C315.234 275.114 314.822 274.4 314.16 273.993C313.899 273.833 313.466 273.642 312.912 273.66Z" fill="#090F20"/>
<path d="M351.13 276.245C355.462 275.569 357.157 281.868 351.839 282.561C347.385 283.142 345.648 277.101 351.13 276.245Z" fill="#F2F7FF"/>
<path d="M351.42 283.541C348.852 283.625 347.073 281.842 346.796 279.926C346.517 277.999 347.704 275.825 350.983 275.313C352.655 275.053 354.188 275.617 355.181 276.865C356.114 278.037 356.363 279.582 355.829 280.895C355.493 281.723 354.544 283.16 351.962 283.497C351.778 283.521 351.597 283.536 351.42 283.541ZM351.277 277.177C349.488 277.457 348.489 278.407 348.669 279.657C348.832 280.783 349.953 281.857 351.716 281.626C352.923 281.468 353.761 280.957 354.074 280.186C354.348 279.512 354.2 278.669 353.698 278.037C353.371 277.626 352.62 276.968 351.277 277.177Z" fill="#090F20"/>
<path d="M358.767 275.242C362.602 274.032 365.001 279.323 360.274 280.689C356.314 281.834 353.913 276.774 358.767 275.242Z" fill="#F2F7FF"/>
<path d="M359.292 281.797C357.279 281.862 355.722 280.614 355.26 279.097C354.743 277.399 355.539 275.271 358.481 274.342C359.992 273.864 361.539 274.177 362.619 275.177C363.608 276.093 364.041 277.431 363.746 278.669C363.555 279.47 362.884 280.917 360.537 281.595C360.108 281.719 359.691 281.784 359.292 281.797ZM359.801 276.01C359.558 276.018 359.307 276.061 359.052 276.141C357.525 276.623 356.766 277.546 357.071 278.549C357.354 279.477 358.481 280.224 360.01 279.782C361.066 279.477 361.738 278.927 361.904 278.232C362.041 277.655 361.822 277.014 361.331 276.56C360.92 276.179 360.384 275.991 359.801 276.01Z" fill="#090F20"/>
<path d="M259.305 342.778C259.156 342.782 259.005 342.752 258.862 342.684C258.391 342.456 258.194 341.892 258.422 341.423C259.917 338.341 266.009 330.018 266.268 329.666C266.576 329.244 267.169 329.153 267.59 329.461C268.013 329.768 268.105 330.359 267.796 330.779C267.734 330.865 261.546 339.316 260.126 342.245C259.968 342.572 259.645 342.766 259.305 342.778Z" fill="#090F20"/>
<path d="M370.038 198.64C370.038 198.64 372.429 191.472 377.458 191.535C389.73 191.689 385.415 206.181 385.415 206.181C391.267 203.688 394.584 209.497 392.14 213.685C389.696 217.874 385.494 216.791 385.494 216.791C388.743 219.17 383.061 226.805 377.273 227.083C371.484 227.36 371.205 224.389 371.205 224.389C368.735 226.411 365.851 225.556 364.551 223.159C364.774 231.281 358.057 237.73 352.342 233.399C346.125 228.687 347.439 216.578 347.439 216.578C345.704 217.537 344.419 215.643 346.22 213.953C340.778 217.877 334.819 214.367 338.364 209.239C334.809 212.696 323.2 213.117 321.197 207.853C320.091 204.946 323.117 203.331 323.117 203.331C323.117 203.331 317.593 200.35 319.208 195.494C320.823 190.638 332.997 190.47 340.168 198.608C340.168 198.608 340.697 195.43 345.165 196.36C349.634 197.29 350.27 205.044 350.27 205.044C350.27 205.044 354.005 202.963 357.863 206.505C357.863 206.505 355.671 201.776 359.677 198.103C364.108 194.04 370.038 198.64 370.038 198.64Z" fill="#090F20"/>
<path d="M370.038 198.64C370.038 198.64 372.429 191.472 377.458 191.535C389.73 191.689 385.415 206.181 385.415 206.181C391.267 203.688 394.584 209.497 392.14 213.685C389.696 217.874 385.494 216.791 385.494 216.791C388.743 219.17 383.061 226.805 377.273 227.083C371.484 227.36 371.205 224.389 371.205 224.389C368.735 226.411 365.851 225.556 364.551 223.159C364.774 231.281 358.057 237.73 352.342 233.399C346.125 228.687 347.439 216.578 347.439 216.578C345.704 217.537 344.419 215.643 346.22 213.953C340.778 217.877 334.819 214.367 338.364 209.239C334.809 212.696 323.2 213.117 321.197 207.853C320.091 204.946 323.117 203.331 323.117 203.331C323.117 203.331 317.593 200.35 319.208 195.494C320.823 190.638 332.997 190.47 340.168 198.608C340.168 198.608 340.697 195.43 345.165 196.36C349.634 197.29 350.27 205.044 350.27 205.044C350.27 205.044 354.005 202.963 357.863 206.505C357.863 206.505 355.671 201.776 359.677 198.103C364.108 194.04 370.038 198.64 370.038 198.64Z" stroke="#090F20" stroke-width="1.39293" stroke-linecap="round" stroke-linejoin="round"/>
<path d="M329.072 239.037C329.072 239.037 332.379 241.705 336.537 239.88C340.695 238.054 340.665 233.197 340.665 233.197" stroke="#090F20" stroke-width="1.21881" stroke-linecap="round" stroke-linejoin="round"/>
<path d="M327.779 233.202C327.779 233.202 328.6 230.319 331.479 229.8C334.643 229.231 336.36 230.534 336.36 230.534" stroke="#090F20" stroke-width="1.21881" stroke-linecap="round" stroke-linejoin="round"/>
<path d="M324.033 236.512C324.033 236.512 327.189 237.034 333.099 234.485C339.009 231.936 340.15 229.421 340.15 229.421" stroke="#090F20" stroke-width="1.21881" stroke-linecap="round" stroke-linejoin="round"/>
</g>
<mask id="mask1_84_1776" style="mask-type:alpha" maskUnits="userSpaceOnUse" x="137" y="169" width="279" height="178">
<path d="M384.904 296.793C384.904 296.793 384.993 301.348 382.445 307.903C378.923 316.989 370.343 329.924 349.478 339.922C321.405 353.372 264.522 344.482 250.582 328.121C246.472 323.298 243.325 318.568 241.133 313.405C238.239 306.604 161.801 301.214 162.196 291.735C162.514 284.007 134.706 249.119 137.179 238.185C137.449 236.993 137.739 235.821 138.051 234.669C133.428 184.758 216.836 131.615 301.614 206.237C306.147 210.227 315.097 205.906 323.109 207.618C341.821 211.618 363.418 222.69 375.798 242.518C382.047 252.521 385.947 264.755 385.947 279.431C393.936 286.674 411.489 289.706 414.355 289.445C417.221 289.185 413.569 298.961 384.904 296.793Z" fill="#FADB4A"/>
</mask>
<g mask="url(#mask1_84_1776)">
<path d="M268.303 309.413L269.26 324.29C268.2 363.493 238.84 356.422 234.674 352.12C230.268 347.565 237.801 311.922 238.104 299.872C239.123 292.097 239.655 278.931 239.655 278.931C237.384 279.075 234.873 277.896 232.847 276.325C230.834 274.761 229.294 272.802 228.959 271.381L228.959 271.378C225.997 271.6 221.862 270.983 219.644 270.227C216.463 269.142 214.293 265.424 218.325 261.414L229.954 251.733C229.828 251.542 229.739 251.334 229.691 251.099C229.196 248.626 232.15 246.164 235.899 244.876C236.933 244.522 238.029 244.256 239.127 244.105L244.857 239.337C260.144 248.118 265.387 267.228 268.297 309.414L268.303 309.413Z" fill="#F2F7FF"/>
<path d="M228.836 272.349C225.525 272.558 221.251 271.785 219.335 271.133C217.286 270.435 215.743 268.842 215.308 266.973C214.972 265.534 215.106 263.288 217.647 260.756C218.016 260.388 218.616 260.389 218.986 260.758C219.355 261.127 219.355 261.725 218.985 262.093C217.46 263.612 216.827 265.152 217.152 266.547C217.44 267.785 218.511 268.858 219.945 269.346C223.413 270.527 229.876 270.981 231.309 269.838C232.815 268.638 231.309 266.225 231.293 266.2C231.014 265.76 231.145 265.177 231.586 264.898C232.028 264.619 232.613 264.751 232.892 265.192C233.739 266.524 234.744 269.518 232.492 271.313C231.702 271.943 230.372 272.252 228.836 272.349Z" fill="#090F20"/>
<path d="M243.414 244.53L245.976 235.456C236.652 235.292 222.132 224.786 216.845 220.853C211.557 216.919 203.798 210.125 189.689 211.191C189.689 211.191 181.441 228.189 183.823 242.269C183.823 242.269 191.542 243.64 199.043 247.883C211.87 255.138 219.182 270.558 237.326 266.271L240.808 253.096" fill="#09D17E"/>
<path d="M218.598 242.142C218.317 243 217.902 243.636 217.355 244.049C216.807 244.463 216.089 244.656 215.2 244.628L214.467 246.871C214.446 246.936 214.405 246.984 214.345 247.014C214.285 247.044 214.223 247.049 214.157 247.027L211.183 246.058C211.117 246.036 211.069 245.995 211.039 245.936C211.008 245.876 211.004 245.814 211.025 245.749L211.678 243.751C211.129 243.545 210.639 243.34 210.207 243.136C210.152 243.109 210.112 243.064 210.087 243.002C210.062 242.939 210.06 242.875 210.082 242.81L211.097 240.497C211.129 240.426 211.18 240.379 211.251 240.357C211.322 240.335 211.391 240.344 211.46 240.385C211.627 240.484 211.801 240.582 211.983 240.677C212.165 240.773 212.404 240.889 212.699 241.026C212.994 241.163 213.272 241.274 213.535 241.36C213.819 241.461 214.074 241.506 214.301 241.494C214.527 241.482 214.7 241.43 214.82 241.338C214.941 241.247 215.033 241.159 215.097 241.075C215.16 240.992 215.204 240.914 215.228 240.84C215.255 240.759 215.268 240.663 215.267 240.555C215.267 240.446 215.243 240.303 215.197 240.125C215.15 239.947 215.033 239.751 214.845 239.536C214.657 239.32 214.408 239.118 214.099 238.926C213.743 238.711 213.424 238.44 213.142 238.112C212.859 237.785 212.617 237.412 212.418 236.995C212.22 236.577 212.106 236.1 212.078 235.562C212.05 235.024 212.126 234.477 212.308 233.921C212.565 233.137 212.981 232.543 213.558 232.139C214.134 231.735 214.842 231.524 215.681 231.509L216.435 229.205C216.456 229.14 216.497 229.09 216.558 229.056C216.619 229.021 216.682 229.015 216.748 229.036L219.723 230.006C219.788 230.027 219.838 230.071 219.871 230.136C219.904 230.201 219.91 230.266 219.888 230.331L219.235 232.329C219.76 232.527 220.271 232.739 220.769 232.964C220.823 232.991 220.865 233.036 220.894 233.1C220.923 233.164 220.923 233.227 220.893 233.29L219.878 235.603C219.849 235.666 219.798 235.711 219.726 235.737C219.654 235.763 219.588 235.757 219.528 235.719C218.759 235.27 218.04 234.932 217.371 234.704C217.095 234.605 216.843 234.562 216.617 234.574C216.391 234.586 216.215 234.639 216.089 234.734C215.963 234.828 215.869 234.915 215.807 234.994C215.744 235.073 215.7 235.154 215.674 235.236C215.649 235.309 215.637 235.4 215.638 235.509C215.639 235.618 215.665 235.761 215.715 235.941C215.765 236.12 215.884 236.317 216.072 236.532C216.26 236.747 216.509 236.95 216.818 237.141C217.163 237.362 217.48 237.635 217.768 237.959C218.056 238.284 218.299 238.657 218.497 239.079C218.695 239.5 218.806 239.978 218.832 240.51C218.857 241.043 218.779 241.587 218.598 242.142Z" fill="#090F20"/>
<path d="M214.276 247.443C214.194 247.449 214.112 247.438 214.03 247.411L211.056 246.441C210.888 246.387 210.757 246.275 210.676 246.119C210.597 245.963 210.584 245.791 210.639 245.623L211.173 243.989C210.759 243.826 210.376 243.663 210.032 243.5C209.88 243.425 209.771 243.305 209.71 243.151C209.65 243 209.645 242.838 209.696 242.683C209.7 242.671 209.704 242.659 209.709 242.647L210.724 240.334C210.806 240.154 210.949 240.027 211.129 239.97C211.308 239.914 211.499 239.937 211.666 240.036C211.828 240.132 211.996 240.227 212.171 240.318C212.348 240.411 212.583 240.525 212.869 240.658C213.148 240.788 213.414 240.894 213.66 240.974C213.903 241.061 214.107 241.098 214.278 241.089C214.467 241.076 214.549 241.034 214.574 241.015C214.687 240.929 214.745 240.866 214.773 240.829C214.822 240.765 214.837 240.728 214.841 240.715C214.851 240.686 214.861 240.637 214.861 240.556C214.861 240.514 214.853 240.415 214.803 240.225C214.783 240.146 214.72 240.008 214.539 239.801C214.379 239.617 214.159 239.438 213.885 239.269C213.498 239.035 213.143 238.733 212.834 238.375C212.528 238.021 212.264 237.615 212.051 237.167C211.83 236.703 211.703 236.17 211.672 235.581C211.641 234.997 211.725 234.395 211.922 233.795C212.205 232.929 212.676 232.26 213.323 231.807C213.895 231.405 214.587 231.174 215.382 231.116L216.048 229.078C216.102 228.916 216.209 228.786 216.359 228.702C216.517 228.612 216.7 228.594 216.874 228.651L219.848 229.62C220.017 229.676 220.149 229.79 220.231 229.951C220.314 230.113 220.328 230.287 220.274 230.455L219.739 232.089C220.143 232.248 220.544 232.418 220.935 232.595C221.087 232.67 221.196 232.785 221.263 232.932C221.341 233.104 221.339 233.291 221.26 233.46L220.249 235.765C220.169 235.934 220.038 236.053 219.865 236.115C219.674 236.185 219.478 236.166 219.311 236.06C218.579 235.633 217.879 235.303 217.239 235.086C217.009 235.004 216.809 234.968 216.639 234.977C216.492 234.989 216.391 235.013 216.333 235.056C216.204 235.152 216.148 235.214 216.126 235.242C216.093 235.284 216.07 235.324 216.058 235.361C216.053 235.375 216.043 235.418 216.043 235.506C216.044 235.546 216.052 235.642 216.105 235.831C216.128 235.914 216.194 236.056 216.377 236.265C216.538 236.449 216.758 236.628 217.031 236.797C217.411 237.04 217.76 237.34 218.071 237.691C218.384 238.042 218.65 238.451 218.864 238.907C219.083 239.374 219.208 239.907 219.236 240.49C219.264 241.071 219.178 241.668 218.983 242.267C218.677 243.201 218.211 243.909 217.599 244.371C217.044 244.79 216.335 245.011 215.493 245.033L214.851 246.996C214.797 247.163 214.686 247.294 214.529 247.374C214.447 247.415 214.362 247.438 214.276 247.443ZM211.46 245.722L214.13 246.593L214.814 244.502C214.87 244.331 215.031 244.217 215.212 244.223C216.001 244.247 216.639 244.08 217.109 243.726C217.587 243.365 217.958 242.79 218.211 242.016C218.376 241.51 218.449 241.01 218.426 240.528C218.403 240.051 218.304 239.62 218.13 239.249C217.949 238.864 217.725 238.52 217.464 238.227C217.202 237.931 216.911 237.681 216.599 237.481C216.263 237.273 215.98 237.041 215.766 236.797C215.536 236.534 215.391 236.289 215.324 236.049C215.263 235.831 215.233 235.656 215.232 235.51C215.231 235.356 215.249 235.225 215.287 235.109C215.329 234.982 215.395 234.86 215.487 234.744C215.57 234.636 215.688 234.527 215.845 234.409C216.034 234.267 216.293 234.186 216.595 234.169C216.874 234.154 217.181 234.206 217.507 234.323C218.146 234.54 218.844 234.862 219.577 235.28L220.459 233.268C220.019 233.072 219.556 232.881 219.091 232.706C218.889 232.63 218.782 232.408 218.849 232.202L219.457 230.344L216.774 229.469L216.066 231.634C216.012 231.797 215.866 231.909 215.689 231.912C214.938 231.928 214.296 232.113 213.79 232.468C213.283 232.824 212.924 233.34 212.693 234.046C212.527 234.552 212.457 235.055 212.482 235.54C212.508 236.022 212.609 236.453 212.784 236.821C212.966 237.203 213.19 237.548 213.448 237.847C213.702 238.141 213.991 238.387 214.309 238.579C214.655 238.794 214.937 239.025 215.15 239.269C215.382 239.535 215.526 239.781 215.589 240.023C215.644 240.236 215.671 240.408 215.672 240.552C215.673 240.704 215.653 240.844 215.613 240.966C215.575 241.081 215.512 241.197 215.42 241.319C215.333 241.432 215.218 241.543 215.066 241.659C214.88 241.801 214.642 241.875 214.321 241.897C214.043 241.912 213.732 241.859 213.398 241.739C213.132 241.653 212.836 241.535 212.527 241.392C212.229 241.254 211.983 241.133 211.794 241.034C211.658 240.963 211.526 240.89 211.398 240.817L210.514 242.832C210.899 243.009 211.339 243.191 211.82 243.372C212.023 243.448 212.131 243.67 212.063 243.876L211.46 245.722ZM211.306 245.672L211.307 245.672C211.307 245.672 211.307 245.672 211.306 245.672ZM219.725 235.366C219.727 235.367 219.73 235.368 219.732 235.37C219.73 235.368 219.727 235.367 219.725 235.366ZM220.521 233.127C220.521 233.128 220.52 233.13 220.519 233.132L220.521 233.127Z" fill="#090F20"/>
<path d="M249.951 270.582C242.872 268.357 239.591 261.868 241.502 253.191C241.502 253.191 230.41 254.655 229.701 251.107C228.771 246.449 240.062 241.832 245.864 245.029" fill="#F2F7FF"/>
<path d="M250.011 271.525C249.898 271.532 249.782 271.519 249.667 271.483C242.439 269.21 238.935 262.679 240.329 254.274C236.953 254.598 229.493 254.893 228.773 251.291C228.411 249.478 229.403 247.612 231.566 246.035C235.308 243.306 242.014 241.83 246.321 244.203C246.778 244.455 246.945 245.029 246.692 245.485C246.44 245.941 245.864 246.107 245.407 245.855C241.921 243.934 235.903 245.211 232.683 247.559C231.795 248.207 230.346 249.505 230.629 250.923C230.978 252.669 237.096 252.82 241.377 252.256C241.684 252.217 241.989 252.327 242.198 252.554C242.407 252.78 242.492 253.094 242.426 253.395C240.642 261.496 243.561 267.585 250.235 269.683C250.733 269.839 251.011 270.369 250.854 270.867C250.733 271.249 250.39 271.501 250.011 271.525Z" fill="#090F20"/>
<path d="M269.272 325.415L269.26 325.416C268.739 325.443 268.294 325.043 268.267 324.522C265.635 274.15 261.566 250.014 244.412 240.154C243.959 239.894 243.803 239.317 244.064 238.866C244.324 238.414 244.902 238.259 245.354 238.519C254.102 243.547 259.635 251.871 263.297 265.511C266.631 277.931 268.618 294.999 270.155 324.425C270.182 324.942 269.787 325.383 269.272 325.415Z" fill="#090F20"/>
<path d="M237.942 302.382C237.874 302.387 237.804 302.384 237.734 302.373C237.218 302.291 236.865 301.808 236.946 301.293C237.919 295.099 238.509 283.312 238.667 279.867C233.966 279.469 228.769 274.711 228.038 271.603C227.919 271.096 228.235 270.588 228.744 270.47C229.251 270.352 229.761 270.666 229.88 271.174C230.418 273.463 235.467 278.257 239.594 277.997C239.862 277.98 240.123 278.077 240.315 278.264C240.507 278.451 240.61 278.71 240.599 278.977C240.574 279.596 239.974 294.21 238.815 301.588C238.745 302.032 238.375 302.355 237.942 302.382Z" fill="#090F20"/>
</g>
<mask id="mask2_84_1776" style="mask-type:luminance" maskUnits="userSpaceOnUse" x="317" y="210" width="13" height="12">
<path d="M321.259 210.966L329.273 215.98L325.672 221.691L317.659 216.678L321.259 210.966Z" fill="white"/>
</mask>
<g mask="url(#mask2_84_1776)">
<path d="M324.27 215.02L322.806 217.406" stroke="#090F20" stroke-width="1.39293" stroke-linecap="round" stroke-linejoin="round"/>
</g>
<mask id="mask3_84_1776" style="mask-type:luminance" maskUnits="userSpaceOnUse" x="325" y="213" width="13" height="12">
<path d="M337.167 219.002L329.154 213.989L325.553 219.701L333.567 224.714L337.167 219.002Z" fill="white"/>
</mask>
<g mask="url(#mask3_84_1776)">
<path d="M332.195 218.062L330.674 220.413" stroke="#090F20" stroke-width="1.39293" stroke-linecap="round" stroke-linejoin="round"/>
</g>
<path d="M431.287 155.523C430.193 157.518 406.159 143.728 401.155 139.734C401.155 139.734 382.471 145.22 363.265 147.872C360.013 148.322 356.747 148.69 353.555 148.933C346.701 149.465 340.188 149.434 334.88 148.444C329.242 147.393 324.328 146.066 320.031 144.283C307.548 139.103 300.28 130.071 295.656 112.748C295.548 112.343 295.44 111.933 295.335 111.52C294.125 106.759 292.895 102.058 291.801 97.3051C287.339 77.8794 285.175 57.5674 295.999 28.5576C301.623 13.485 330.781 7.18727 356.363 3.01511C381.946 -1.16003 392.415 -1.61264 407.889 12.9022C423.365 27.42 424.246 31.9542 426.129 53.1858C427.757 71.5501 427.293 96.767 425.726 109.408C425.481 111.381 425.209 113.048 424.913 114.333C422.729 123.858 417.903 124.586 418.085 125.582C418.267 126.581 432.38 153.524 431.287 155.523Z" fill="#1455FE"/>
<mask id="mask4_84_1776" style="mask-type:alpha" maskUnits="userSpaceOnUse" x="255" y="0" width="177" height="156">
<path d="M431.286 155.523C430.193 157.518 406.159 143.728 401.154 139.734C401.154 139.734 382.471 145.22 363.265 147.872C360.013 148.322 356.747 148.69 353.554 148.933C346.7 149.465 340.188 149.434 334.879 148.444C329.241 147.393 324.328 146.066 320.03 144.283C314.421 141.955 309.865 138.85 306.128 134.564C301.549 129.312 262.495 113.121 259.949 103.583C259.841 103.178 259.733 102.767 259.628 102.354C258.418 97.5932 257.188 92.8922 256.095 88.1396C251.632 68.7139 285.174 57.5674 295.999 28.5576C301.623 13.485 330.781 7.18727 356.363 3.01511C381.945 -1.16003 392.414 -1.61264 407.888 12.9022C423.365 27.42 424.245 31.9542 426.128 53.1858C427.756 71.5501 427.293 96.767 425.725 109.408C425.481 111.381 425.208 113.048 424.913 114.333C422.729 123.858 417.903 124.586 418.085 125.582C418.267 126.581 432.38 153.524 431.286 155.523Z" fill="#FADB4A"/>
</mask>
<g mask="url(#mask4_84_1776)">
<path d="M344.869 105.949C352.367 117.48 359.686 142.687 361.098 156.222L361.085 157.47C364.63 190.036 340.693 179.551 343.526 179.169C346.359 178.787 325.71 187.193 327.616 152.46C327.719 150.287 328.041 143.466 327.974 142.619C327.891 141.613 326.077 139.943 324.389 138.923C322.708 137.9 322.823 127.889 324.517 127.222C324.517 127.222 323.291 125.309 321.914 125.229C320.546 125.149 313.847 124.243 308.591 120.549C307.124 120.873 305.414 120.953 303.588 120.665C303.372 120.631 303.154 120.592 302.933 120.548C294.867 118.924 295.862 113.417 300.707 112.133C296.329 110.47 296.742 106.908 299.902 105.181C300.188 105.025 300.499 104.884 300.83 104.761L300.502 104.168L304.339 87.7003C308.477 85.6243 309.204 83.7977 320.804 86.8888C331.082 89.6289 340.136 102.459 342.064 105.347C342.63 104.207 343.431 103.737 344.869 105.949Z" fill="#F2F7FF"/>
<path d="M341.815 105.939C341.515 105.936 341.222 105.791 341.041 105.526C338.649 102.011 330.102 90.3477 320.557 87.8017C310.84 85.2098 309.121 86.1619 306.273 87.7388C305.804 87.9982 305.319 88.2667 304.763 88.546C304.295 88.7804 303.727 88.5931 303.492 88.1277C303.256 87.6622 303.444 87.0948 303.911 86.8604C304.433 86.5983 304.901 86.3393 305.353 86.0891C308.794 84.1838 311.055 83.314 321.046 85.9787C331.224 88.693 340.123 100.815 342.608 104.466C342.901 104.897 342.788 105.484 342.356 105.777C342.19 105.889 342.001 105.941 341.815 105.939Z" fill="#090F20"/>
<path d="M324.509 128.167C324.201 128.163 323.9 128.01 323.721 127.731C323.328 127.124 322.462 126.207 321.856 126.172C321.779 126.167 314.006 125.601 307.871 121.199C307.447 120.894 307.35 120.304 307.656 119.882C307.962 119.459 308.553 119.363 308.977 119.667C313.761 123.1 320.117 124.18 321.966 124.288C323.776 124.393 325.164 126.477 325.316 126.714C325.598 127.153 325.469 127.737 325.029 128.018C324.868 128.12 324.687 128.168 324.509 128.167Z" fill="#090F20"/>
<path d="M303.764 111.904C320.072 113.4 313.032 122.585 302.932 120.548C293.368 118.62 296.538 111.241 303.764 111.904Z" fill="#F2F7FF"/>
<path d="M305.687 121.788C304.756 121.778 303.772 121.68 302.744 121.472C297.317 120.378 295.732 117.62 296.058 115.404C296.427 112.904 299.439 110.559 303.851 110.964C311.13 111.631 313.474 113.717 314.158 115.349C314.654 116.532 314.422 117.797 313.505 118.911C312.22 120.471 309.376 121.828 305.687 121.788ZM302.966 112.806C300.103 112.775 298.149 114.202 297.932 115.678C297.68 117.388 299.717 118.937 303.12 119.623C307.259 120.458 310.74 119.294 312.042 117.713C312.506 117.15 312.63 116.599 312.411 116.076C312.162 115.483 310.797 113.496 303.678 112.843C303.435 112.821 303.197 112.808 302.966 112.806Z" fill="#090F20"/>
<path d="M304.161 104.209C321.169 104.33 314.699 114.073 304.067 112.893C293.999 111.775 296.625 104.156 304.161 104.209Z" fill="#F2F7FF"/>
<path d="M305.71 113.938C305.145 113.932 304.562 113.897 303.961 113.831C298.282 113.2 296.4 110.59 296.532 108.358C296.68 105.864 299.406 103.232 304.167 103.266C304.223 103.266 304.279 103.267 304.334 103.267C310.268 103.331 314.025 104.551 315.205 106.799C315.786 107.906 315.669 109.152 314.877 110.306C313.584 112.191 310.248 113.987 305.71 113.938ZM304.153 105.153C300.737 105.129 298.518 106.855 298.423 108.469C298.321 110.188 300.577 111.556 304.171 111.955C308.566 112.443 312.161 110.921 313.314 109.241C313.703 108.674 313.775 108.147 313.527 107.674C313.226 107.1 311.673 105.233 304.318 105.154C304.263 105.154 304.209 105.153 304.153 105.153Z" fill="#090F20"/>
<path d="M312.563 99.9488C311.954 107.453 305.115 113.468 297.288 113.384C289.461 113.301 283.61 107.149 284.219 99.6447C284.828 92.1404 291.667 86.1251 299.494 86.2091C307.321 86.2931 313.172 92.4445 312.563 99.9488Z" fill="#09D17E"/>
<path d="M303.123 100.917C303.402 101.747 303.447 102.481 303.26 103.118C303.073 103.756 302.626 104.321 301.918 104.812L302.646 106.981C302.667 107.044 302.663 107.104 302.634 107.162C302.605 107.22 302.559 107.26 302.496 107.281L299.618 108.241C299.554 108.262 299.494 108.258 299.436 108.229C299.377 108.201 299.338 108.155 299.316 108.091L298.668 106.159C298.121 106.316 297.62 106.439 297.165 106.529C297.107 106.539 297.05 106.528 296.995 106.493C296.939 106.459 296.901 106.411 296.88 106.347L296.33 103.961C296.314 103.887 296.327 103.821 296.369 103.763C296.412 103.706 296.471 103.672 296.547 103.664C296.735 103.646 296.927 103.621 297.124 103.591C297.321 103.56 297.574 103.513 297.884 103.449C298.193 103.386 298.474 103.312 298.728 103.227C299.008 103.142 299.233 103.03 299.402 102.89C299.571 102.75 299.676 102.61 299.717 102.469C299.757 102.328 299.778 102.207 299.78 102.105C299.781 102.004 299.769 101.917 299.745 101.846C299.719 101.768 299.674 101.686 299.611 101.601C299.547 101.517 299.446 101.419 299.307 101.308C299.168 101.196 298.963 101.11 298.692 101.051C298.421 100.992 298.109 100.978 297.758 101.007C297.356 101.045 296.95 101.017 296.541 100.926C296.13 100.834 295.727 100.683 295.331 100.473C294.934 100.262 294.569 99.9557 294.235 99.5531C293.901 99.1502 293.644 98.6805 293.464 98.1432C293.21 97.3845 293.19 96.6817 293.404 96.0346C293.619 95.3877 294.048 94.8162 294.693 94.32L293.945 92.0919C293.924 92.0286 293.927 91.966 293.955 91.9041C293.982 91.8421 294.028 91.8005 294.091 91.7794L296.969 90.8195C297.032 90.7983 297.096 90.8033 297.16 90.835C297.223 90.8664 297.266 90.914 297.287 90.9771L297.935 92.9089C298.458 92.7606 298.979 92.6311 299.497 92.5197C299.555 92.5092 299.614 92.5201 299.673 92.5528C299.733 92.5858 299.769 92.6353 299.782 92.7009L300.333 95.0874C300.346 95.1536 300.332 95.2173 300.291 95.2792C300.25 95.3413 300.196 95.3749 300.127 95.3801C299.268 95.4736 298.512 95.6248 297.859 95.8335C297.587 95.9158 297.366 96.0266 297.197 96.1664C297.028 96.3064 296.922 96.4492 296.879 96.5957C296.835 96.7418 296.812 96.8637 296.81 96.9613C296.807 97.0589 296.819 97.1471 296.845 97.2259C296.869 97.297 296.913 97.3746 296.977 97.4589C297.04 97.5431 297.143 97.6405 297.286 97.7509C297.429 97.8614 297.636 97.9464 297.907 98.0051C298.178 98.0643 298.489 98.079 298.841 98.0496C299.237 98.0226 299.642 98.0525 300.055 98.1389C300.467 98.2253 300.872 98.3758 301.271 98.5898C301.669 98.8043 302.032 99.1115 302.36 99.5113C302.688 99.9114 302.943 100.38 303.123 100.917Z" fill="#090F20"/>
<path d="M299.531 108.659C299.436 108.658 299.343 108.636 299.254 108.591C299.099 108.514 298.987 108.386 298.931 108.22L298.405 106.652C297.992 106.763 297.603 106.854 297.244 106.926C297.079 106.955 296.922 106.925 296.781 106.838C296.645 106.754 296.546 106.629 296.495 106.476C296.491 106.464 296.487 106.451 296.484 106.438L295.934 104.052C295.893 103.861 295.931 103.677 296.04 103.527C296.149 103.376 296.314 103.283 296.504 103.262C296.687 103.244 296.872 103.221 297.061 103.191C297.249 103.162 297.498 103.116 297.801 103.053C298.093 102.993 298.361 102.923 298.599 102.844C298.837 102.771 299.015 102.684 299.142 102.579C299.284 102.462 299.318 102.385 299.326 102.357C299.364 102.226 299.373 102.145 299.373 102.1C299.374 102.025 299.364 101.988 299.36 101.976C299.351 101.949 299.331 101.906 299.285 101.845C299.261 101.813 299.199 101.741 299.051 101.622C298.99 101.573 298.863 101.503 298.605 101.447C298.374 101.396 298.1 101.384 297.791 101.41C297.353 101.451 296.901 101.421 296.451 101.32C296.008 101.221 295.567 101.056 295.139 100.83C294.698 100.596 294.288 100.253 293.921 99.8109C293.558 99.3716 293.274 98.8536 293.079 98.2716C292.797 97.432 292.777 96.6368 293.018 95.9079C293.232 95.2656 293.635 94.6868 294.219 94.1838L293.56 92.2203C293.506 92.0612 293.514 91.8952 293.583 91.7401C293.657 91.5751 293.791 91.4533 293.962 91.3961L296.84 90.4362C297.007 90.3806 297.18 90.3935 297.341 90.4737C297.5 90.5525 297.614 90.6823 297.671 90.8484L298.197 92.4175C298.602 92.3091 299.009 92.211 299.411 92.1245C299.574 92.0952 299.728 92.1217 299.869 92.199C300.032 92.2902 300.142 92.4394 300.18 92.6196L300.727 94.9971C300.764 95.1792 300.729 95.3501 300.629 95.5016C300.52 95.6684 300.352 95.7687 300.157 95.7836C299.342 95.8725 298.606 96.0191 297.982 96.2186C297.757 96.2871 297.582 96.3734 297.456 96.4775C297.318 96.5922 297.278 96.6729 297.267 96.7108C297.223 96.8567 297.216 96.9367 297.215 96.9712C297.213 97.0219 297.218 97.0637 297.229 97.0973C297.234 97.1116 297.25 97.1498 297.3 97.2153C297.324 97.2474 297.385 97.3162 297.534 97.4316C297.599 97.4819 297.731 97.5534 297.993 97.6101C298.224 97.6606 298.497 97.6724 298.807 97.6469C299.244 97.6168 299.69 97.6496 300.137 97.7434C300.586 97.8372 301.031 98.0024 301.463 98.2343C301.906 98.473 302.313 98.8163 302.673 99.2553C303.032 99.6926 303.312 100.208 303.507 100.789C303.811 101.695 303.859 102.517 303.649 103.232C303.46 103.878 303.039 104.459 302.396 104.962L303.03 106.853C303.086 107.018 303.074 107.187 302.997 107.342C302.918 107.499 302.789 107.61 302.623 107.665L299.746 108.625C299.675 108.649 299.602 108.66 299.531 108.659ZM298.672 105.755C298.841 105.757 298.996 105.864 299.052 106.031L299.648 107.805L302.208 106.951L301.533 104.94C301.475 104.77 301.538 104.583 301.686 104.48C302.312 104.045 302.711 103.549 302.87 103.005C303.033 102.451 302.988 101.792 302.738 101.046C302.574 100.558 302.341 100.128 302.045 99.7672C301.752 99.4106 301.426 99.134 301.077 98.9459C300.715 98.7511 300.343 98.6126 299.97 98.5348C299.597 98.4566 299.226 98.4292 298.868 98.4534C298.484 98.4851 298.129 98.4678 297.82 98.4003C297.486 98.328 297.23 98.2201 297.037 98.0706C296.863 97.9366 296.737 97.8156 296.651 97.7014C296.561 97.5829 296.499 97.4687 296.46 97.354C296.419 97.2314 296.4 97.0951 296.404 96.9504C296.407 96.8175 296.435 96.6636 296.489 96.4814C296.556 96.2572 296.706 96.047 296.937 95.8556C297.147 95.6818 297.417 95.5445 297.741 95.4466C298.362 95.2478 299.088 95.0971 299.896 94.9998L299.423 92.9496C298.972 93.0499 298.506 93.1676 298.045 93.2982C297.837 93.3572 297.618 93.2422 297.55 93.0373L296.95 91.2521L294.378 92.1102L295.077 94.1916C295.132 94.3548 295.077 94.5348 294.94 94.6401C294.364 95.0836 293.977 95.5958 293.789 96.1618C293.601 96.7289 293.62 97.3349 293.848 98.0151C294.012 98.5024 294.247 98.9333 294.547 99.2959C294.846 99.6558 295.173 99.9316 295.52 100.116C295.884 100.308 296.256 100.448 296.629 100.531C296.995 100.614 297.362 100.638 297.719 100.605C298.114 100.572 298.468 100.589 298.778 100.656C299.114 100.73 299.371 100.84 299.561 100.993C299.728 101.128 299.85 101.247 299.934 101.359C300.024 101.478 300.09 101.599 300.13 101.719C300.168 101.832 300.186 101.961 300.185 102.11C300.183 102.251 300.157 102.405 300.106 102.581C300.042 102.801 299.892 103.01 299.66 103.201C299.45 103.375 299.176 103.514 298.845 103.614C298.588 103.7 298.288 103.779 297.965 103.845C297.644 103.911 297.39 103.959 297.186 103.99C297.044 104.013 296.903 104.032 296.765 104.048L297.239 106.101C297.638 106.017 298.082 105.906 298.556 105.771C298.594 105.76 298.633 105.755 298.672 105.755ZM299.387 92.7918C299.387 92.7934 299.387 92.7953 299.388 92.7969L299.387 92.7918Z" fill="#090F20"/>
<path d="M315.575 90.6964C307.439 94.7232 302.782 98.7148 304.596 101.351C306.735 104.46 317.213 99.9168 317.213 99.9168C317.213 99.9168 317.248 111.718 326.342 114.523" fill="#F2F7FF"/>
<path d="M326.331 115.466C326.242 115.465 326.151 115.451 326.061 115.424C318.23 113.009 316.659 104.635 316.345 101.294C313.13 102.555 305.916 104.938 303.815 101.885C303.28 101.107 303.128 100.193 303.376 99.2431C304.258 95.8615 310.268 92.2692 315.154 89.8512C315.621 89.6193 316.19 89.8098 316.423 90.2765C316.655 90.7433 316.464 91.3095 315.995 91.5412C307.027 95.98 305.464 98.7382 305.208 99.7181C305.098 100.141 305.152 100.49 305.377 100.817C306.532 102.497 312.897 100.757 316.835 99.0513C317.127 98.9243 317.464 98.9532 317.73 99.1267C317.997 99.3005 318.158 99.5964 318.159 99.9137C318.16 100.024 318.31 111.058 326.621 113.621C327.121 113.775 327.4 114.303 327.245 114.801C327.118 115.209 326.739 115.47 326.331 115.466Z" fill="#090F20"/>
<path d="M361.079 158.072C360.604 158.067 360.198 157.708 360.148 157.226C358.684 143.178 351.188 117.402 344.076 106.464C343.591 105.72 343.282 105.459 343.148 105.372C342.862 105.691 342.507 106.795 342.33 107.347L342.277 107.512C340.388 113.375 335.624 123.831 324.93 128.075C324.631 128.423 324.115 130.259 324.134 133.377C324.151 136.385 324.664 137.886 324.904 138.127C326.341 139.004 328.785 140.909 328.917 142.545C328.999 143.57 328.496 150.647 328.394 152.056C328.357 152.575 327.905 152.968 327.382 152.929C326.861 152.892 326.468 152.44 326.506 151.921C326.737 148.715 327.084 143.376 327.029 142.695C326.985 142.244 325.714 140.83 323.9 139.728C321.723 138.406 322.325 131.111 322.331 131.038C322.648 127.357 323.534 126.597 324.172 126.345C334.185 122.402 338.684 112.492 340.474 106.936L340.527 106.773C340.998 105.306 341.531 103.644 342.893 103.462C344.12 103.299 345.062 104.512 345.665 105.438C353.654 117.724 360.694 144.201 362.032 157.031C362.085 157.549 361.708 158.013 361.188 158.067C361.151 158.071 361.115 158.072 361.079 158.072Z" fill="#090F20"/>
</g>
<mask id="mask5_84_1776" style="mask-type:alpha" maskUnits="userSpaceOnUse" x="288" y="0" width="144" height="156">
<path d="M431.287 155.523C430.193 157.518 406.159 143.728 401.155 139.734C401.155 139.734 382.471 145.22 363.265 147.872C360.013 148.322 356.747 148.69 353.555 148.933C346.701 149.465 340.188 149.434 334.88 148.444C329.242 147.393 324.328 146.066 320.031 144.283C307.548 139.103 300.28 130.071 295.656 112.748C295.548 112.343 295.44 111.933 295.335 111.52C294.125 106.759 292.895 102.058 291.801 97.3051C287.339 77.8794 285.175 57.5674 295.999 28.5576C301.623 13.485 330.781 7.18727 356.363 3.01511C381.946 -1.16003 392.415 -1.61264 407.889 12.9022C423.365 27.42 424.246 31.9542 426.129 53.1858C427.757 71.5501 427.293 96.767 425.726 109.408C425.481 111.381 425.209 113.048 424.913 114.333C422.729 123.858 417.903 124.586 418.085 125.582C418.267 126.581 432.38 153.524 431.287 155.523Z" fill="#1455FE"/>
</mask>
<g mask="url(#mask5_84_1776)">
<path d="M448.046 172.237L354.437 178.112C354.437 178.112 357.245 161.967 361.047 147.232L361.07 146.351C362.033 135.326 368.733 115.989 368.733 115.989C368.733 115.989 364.336 109.853 363.68 104.407C363.369 101.826 363.723 100.629 365.335 99.7219C363.728 93.4306 358.904 81.7808 358.904 81.7808C358.497 81.3843 357.715 78.2635 355.569 75.7759C353.893 73.8318 351.383 72.2745 347.57 72.7062C337.942 73.3471 336.803 73.0574 336.809 71.5568C336.818 69.8988 343.838 49.5402 349.787 40.0193C349.787 40.0193 349.797 40.007 349.814 39.9792C349.826 39.958 349.845 39.9243 349.871 39.8841C349.932 39.7914 350.018 39.6528 350.139 39.473C350.181 39.3968 350.238 39.316 350.295 39.2263C350.329 39.1766 350.363 39.1243 350.4 39.0713C352.299 36.2052 358.28 27.7816 363.6 26.7623C374.786 24.6247 384.268 34.6635 386.965 37.8596C386.965 37.8596 391.862 28.7861 397.428 33.2041C403.929 38.3639 392.963 48.3347 392.963 48.3347C392.963 48.3347 397.275 59.0813 404.811 74.0023C405.757 75.8804 406.701 77.7589 407.62 79.6003C412.593 89.5697 416.949 98.5887 418.429 101.67C418.422 103.658 438.989 136.573 438.85 137.885C437.821 147.603 458.553 132.484 458.553 132.484L448.046 172.237Z" fill="#F2F7FF"/>
<path d="M359.219 72.8294C359.206 72.831 359.192 72.8323 359.179 72.8334C340.894 74.232 337.821 74.4287 336.47 73.1746C335.854 72.6025 335.858 71.8397 335.859 71.5889C335.869 69.5322 345.665 40.971 352.335 35.3357C352.733 34.9992 353.331 35.0483 353.669 35.4462C354.007 35.8442 353.958 36.4396 353.559 36.7764C347.633 41.7829 337.867 69.5419 337.751 71.6098C337.751 71.7609 337.77 71.8099 337.771 71.8117C338.498 72.5222 345.792 71.9644 359.032 70.9514C359.553 70.9116 360.008 71.3005 360.049 71.8201C360.088 72.3265 359.72 72.77 359.219 72.8294Z" fill="#090F20"/>
<path d="M349.799 40.0559C353.492 43.8244 359.985 43.2536 365.488 37.8449C370.99 32.4363 374.708 46.9734 380.997 44.0169C387.287 41.0601 387.76 38.8503 387.76 38.8503C387.76 38.8503 376.889 24.2576 363.615 26.7944C357.189 28.0224 349.799 40.0559 349.799 40.0559Z" fill="#090F20"/>
<path d="M379.834 45.3312C376.907 45.6788 374.51 43.0894 372.526 40.9469C371.005 39.3037 369.432 37.6048 368.045 37.5714C367.432 37.5572 366.814 37.8662 366.152 38.5173C362.904 41.7099 359.162 43.449 355.614 43.4143C353.073 43.3893 350.828 42.4559 349.122 40.7149C348.819 40.4055 348.765 39.9302 348.991 39.5613C349.302 39.0557 356.677 27.158 363.435 25.8668C377.139 23.2477 388.06 37.6718 388.519 38.2871C388.681 38.505 388.741 38.7821 388.685 39.0478C388.589 39.493 387.791 41.8666 381.401 44.8703C380.863 45.1233 380.341 45.2711 379.834 45.3312ZM367.572 35.7077C367.743 35.6873 367.915 35.6794 368.088 35.6836C370.278 35.7361 372.045 37.6454 373.917 39.6667C376.501 42.4585 378.362 44.2108 380.593 43.1618C384.753 41.2065 386.184 39.6384 386.643 38.9632C384.696 36.5735 375.016 25.5731 363.793 27.7218C358.676 28.6996 352.642 37.4254 351.022 39.8992C352.289 40.9489 353.868 41.5084 355.631 41.5258C358.671 41.5553 361.935 40.0093 364.822 37.1715C365.697 36.3117 366.62 35.8207 367.572 35.7077Z" fill="#090F20"/>
<path d="M390.782 43.7104C390.674 43.7232 390.562 43.7177 390.45 43.691C389.942 43.5699 389.627 43.0607 389.748 42.5537C390.605 38.9585 393.541 36.2108 393.666 36.0958C394.048 35.7411 394.647 35.7644 395.003 36.1469C395.359 36.5293 395.337 37.1264 394.954 37.4807C394.928 37.5043 392.311 39.964 391.589 42.9926C391.495 43.3881 391.164 43.6651 390.782 43.7104Z" fill="#090F20"/>
<path d="M365.43 100.681C364.966 100.736 364.521 100.44 364.402 99.9754C362.832 93.8202 358.068 82.2786 358.02 82.1629C357.821 81.681 358.051 81.1294 358.534 80.9312C359.016 80.7328 359.569 80.9625 359.768 81.4445C359.966 81.9225 364.632 93.2273 366.235 99.5122C366.364 100.017 366.058 100.531 365.552 100.658C365.512 100.669 365.471 100.676 365.43 100.681Z" fill="#090F20"/>
<path d="M380.336 115.749C379.385 115.862 378.446 115.935 377.52 115.967C376.997 115.985 376.558 115.576 376.54 115.055C376.522 114.534 376.93 114.098 377.453 114.079C386.626 113.767 397.257 109.171 405.197 102.087C405.586 101.739 406.185 101.773 406.534 102.162C406.882 102.551 406.849 103.148 406.459 103.496C399.001 110.15 389.229 114.693 380.336 115.749Z" fill="#090F20"/>
<path d="M418.553 101.726C418.171 101.771 417.783 101.579 417.598 101.217C417.534 101.094 411.182 88.691 403.983 74.4307C396.521 59.6484 392.154 48.8031 392.11 48.6953C391.964 48.3304 392.06 47.913 392.351 47.6483C392.414 47.5902 398.72 41.7906 398.56 37.1652C398.516 35.8768 397.959 34.8266 396.86 33.9538C395.78 33.0966 394.706 32.7916 393.576 33.021C390.379 33.6712 387.852 38.2756 387.827 38.322C387.579 38.78 387.005 38.9508 386.546 38.7033C386.087 38.4557 385.914 37.8842 386.162 37.4258C386.281 37.2047 389.127 32.0029 393.192 31.173C394.884 30.8264 396.512 31.2667 398.037 32.4775C399.575 33.699 400.387 35.2557 400.45 37.1047C400.611 41.8122 395.7 47.0233 394.107 48.585C395.114 51.029 399.234 60.8282 405.672 73.5833C412.869 87.8385 419.218 100.236 419.282 100.36C419.519 100.824 419.335 101.392 418.87 101.629C418.768 101.681 418.66 101.713 418.553 101.726Z" fill="#090F20"/>
<path d="M360.687 148.294C360.623 148.302 360.558 148.304 360.491 148.298C359.97 148.252 359.585 147.794 359.63 147.275C360.526 137.04 366.573 119.278 367.664 116.134C366.656 114.642 363.31 109.385 362.724 104.522C362.101 99.3395 364.199 98.7471 370.427 96.9885C371.664 96.6391 373.066 96.2434 374.688 95.7494C386.318 92.2082 400.79 85.6447 406.907 78.9639C407.26 78.5788 407.858 78.5528 408.244 78.9044C408.631 79.2561 408.658 79.8531 408.306 80.2377C401.512 87.6572 386.249 94.2034 375.243 97.5547C373.602 98.0545 372.19 98.4529 370.945 98.8047C364.65 100.582 364.182 100.8 364.604 104.299C365.221 109.433 369.444 115.386 369.486 115.446C369.665 115.696 369.711 116.018 369.609 116.308C369.538 116.51 362.459 136.661 361.516 147.44C361.476 147.893 361.122 148.243 360.687 148.294Z" fill="#090F20"/>
<path d="M359.021 82.8825C358.707 82.9197 358.38 82.8201 358.136 82.5828C357.848 82.302 357.674 81.8842 357.358 81.1256C356.851 79.9105 356.086 78.0739 354.736 76.5088C352.885 74.363 350.577 73.4794 347.678 73.8076C347.085 73.8748 346.548 73.4495 346.48 72.8576C346.412 72.2676 346.835 71.7347 347.426 71.6646L347.432 71.6639C351.045 71.2549 354.054 72.4117 356.375 75.1029C357.951 76.9293 358.83 79.039 359.355 80.2994C359.482 80.6046 359.639 80.9796 359.712 81.1096C360.074 81.5295 360.06 82.1625 359.666 82.5656C359.486 82.7485 359.258 82.8544 359.021 82.8825Z" fill="#090F20"/>
<path d="M348.75 71.4716C345.673 74.0149 344.975 79.1947 346.543 80.0743C348.111 80.9541 349.636 79.1463 349.636 79.1463C349.636 79.1463 349.084 82.9699 352.53 83.5706C355.976 84.1712 357.871 80.3003 357.871 80.3003C357.871 80.3003 359.264 84.0332 363.305 82.4684C366.259 81.3237 366.754 77.9557 366.754 77.9557C366.754 77.9557 368.794 79.9571 372.27 78.4787C375.747 77 375.206 69.8982 366.675 68.429C359.841 67.2524 350.802 69.7757 348.75 71.4716Z" fill="#090F20"/>
<path d="M348.75 71.4716C345.673 74.0149 344.975 79.1947 346.543 80.0743C348.111 80.9541 349.636 79.1463 349.636 79.1463C349.636 79.1463 349.084 82.9699 352.53 83.5706C355.976 84.1712 357.871 80.3003 357.871 80.3003C357.871 80.3003 359.264 84.0332 363.305 82.4684C366.259 81.3237 366.754 77.9557 366.754 77.9557C366.754 77.9557 368.794 79.9571 372.27 78.4787C375.747 77 375.206 69.8982 366.675 68.429C359.841 67.2524 350.802 69.7757 348.75 71.4716Z" stroke="#090F20" stroke-width="1.39293" stroke-linecap="round" stroke-linejoin="round"/>
</g>
<path d="M430.852 156.651C426.397 156.652 405.693 144.304 400.955 140.773C397.938 141.633 380.778 146.406 363.393 148.807C362.871 148.878 362.397 148.518 362.325 148.002C362.253 147.486 362.615 147.009 363.133 146.938C382.051 144.325 400.699 138.884 400.885 138.829C401.182 138.742 401.503 138.805 401.744 138.998C406.911 143.117 426.462 154.026 430.358 154.742C429.745 151.503 422.991 137.827 420.007 131.784C417.592 126.894 417.219 126.105 417.154 125.75C417.001 124.91 417.651 124.41 418.338 123.88C419.684 122.845 422.484 120.69 423.99 114.121C424.314 112.71 424.616 110.793 424.888 108.425C424.948 107.907 425.417 107.535 425.937 107.595C426.456 107.654 426.829 108.122 426.77 108.639C426.49 111.077 426.175 113.063 425.836 114.542C424.178 121.77 421.016 124.204 419.496 125.374C419.376 125.466 419.241 125.571 419.132 125.659C419.508 126.5 420.58 128.672 421.705 130.95C431.489 150.76 432.824 154.68 432.117 155.972C432.011 156.166 431.748 156.509 431.186 156.622C431.088 156.641 430.976 156.651 430.852 156.651Z" fill="#1455FE"/>
<mask id="mask6_84_1776" style="mask-type:luminance" maskUnits="userSpaceOnUse" x="360" y="49" width="11" height="8">
<path d="M370.024 49.7812L360.574 49.2609L360.195 55.9937L369.645 56.5139L370.024 49.7812Z" fill="white"/>
</mask>
<g mask="url(#mask6_84_1776)">
<path d="M365.211 51.3569L365.022 54.1475" stroke="#090F20" stroke-width="1.39293" stroke-linecap="round" stroke-linejoin="round"/>
</g>
<mask id="mask7_84_1776" style="mask-type:luminance" maskUnits="userSpaceOnUse" x="351" y="49" width="11" height="9">
<path d="M351.692 49.7595L361.143 50.281L360.765 57.0128L351.314 56.4913L351.692 49.7595Z" fill="white"/>
</mask>
<g mask="url(#mask7_84_1776)">
<path d="M356.297 51.8527L356.174 54.6471" stroke="#090F20" stroke-width="1.39293" stroke-linecap="round" stroke-linejoin="round"/>
</g>
<path d="M148.881 180.759C145.547 192.209 139.855 202.404 131.158 210.126C114.676 224.763 87.4035 230.526 44.9471 219.161C26.9682 235.969 22.793 233.594 24.9773 229.934C27.7949 225.21 32.1318 213.041 32.1318 213.041C31.7342 212.886 28.9621 210.2 25.1989 205.41C15.7351 193.372 0 168.056 0 136.352C0 92.043 29.1552 69.0423 59.6227 62.2604C101.681 52.9027 136.458 74.6693 146.262 108.429C149.838 120.736 152.204 134.257 152.619 147.603C152.974 159.084 151.886 170.431 148.881 180.759Z" fill="#5DE2F7"/>
<mask id="mask8_84_1776" style="mask-type:alpha" maskUnits="userSpaceOnUse" x="0" y="60" width="182" height="173">
<path d="M177.825 180.759C176.768 184.388 146.531 187.89 144.98 191.228C141.637 198.422 137.098 204.851 131.158 210.126C114.676 224.763 87.4035 230.526 44.9471 219.161C26.9682 235.969 22.793 233.594 24.9773 229.934C27.7949 225.21 32.1318 213.041 32.1318 213.041C31.7342 212.886 28.9621 210.2 25.1989 205.41C15.7351 193.372 0 168.056 0 136.352C0 92.043 29.1552 69.0423 59.6227 62.2604C101.681 52.9027 136.458 74.6693 146.262 108.429C147.687 113.332 148.92 118.428 149.913 123.629C151.414 131.482 181.043 136.339 181.292 144.368C181.647 155.849 180.83 170.431 177.825 180.759Z" fill="#FADB4A"/>
</mask>
<g mask="url(#mask8_84_1776)">
<path d="M151.088 174.787C154.444 177.55 152.8 180.507 148.277 181.72C146.754 182.129 144.905 182.338 142.811 182.278C142.467 182.267 142.137 182.248 141.82 182.223C137.185 190.551 130.196 189.458 129.165 190.691C128.795 191.131 128.383 192.71 128.001 194.597C127.262 198.214 126.633 202.963 126.633 202.963C128.835 203.833 132.24 208.672 132.059 225.613C123.567 233.257 105.945 241.327 89.87 234.416C88.0752 228.856 92.0909 214.652 92.0909 214.652C94.347 203.547 95.7866 200.332 99.2839 199.048C100.015 198.784 100.646 197.974 101.211 196.798C102.175 194.794 102.955 191.737 103.705 188.508C104.626 184.529 105.504 180.291 106.643 177.453C111.162 166.176 118.154 146.309 138.167 151.002C140.409 148.887 143.408 147.595 146.754 147.574C148.52 147.562 150.221 147.907 151.797 148.539C156.801 150.55 160.493 155.486 160.764 161.283C161.075 167.824 156.929 173.32 151.088 174.787Z" fill="#F2F7FF"/>
<path d="M92.1016 215.602C92.0375 215.602 91.972 215.596 91.9065 215.583C91.394 215.479 91.0629 214.981 91.1667 214.471C93.3417 203.75 94.846 199.675 98.9592 198.165C101.597 197.196 104.05 185.319 105.228 179.611C105.402 178.767 105.566 177.975 105.719 177.256C107.535 168.731 112.56 157.75 121.22 152.498C126.602 149.234 132.768 148.521 139.549 150.379C140.053 150.517 140.349 151.036 140.211 151.539C140.072 152.041 139.551 152.336 139.047 152.198C132.79 150.484 127.123 151.127 122.204 154.11C114.059 159.05 109.305 169.508 107.571 177.648C107.419 178.363 107.256 179.151 107.083 179.991C104.98 190.174 102.966 198.704 99.6138 199.935C96.5527 201.06 95.1976 204.125 93.0223 214.845C92.9322 215.29 92.5403 215.599 92.1016 215.602Z" fill="#090F20"/>
<path d="M141.036 177.083C137.445 177.106 134.643 175.865 133.593 173.927C133.182 173.168 132.157 170.49 136.246 167.931C136.689 167.654 137.274 167.787 137.552 168.229C137.83 168.67 137.696 169.253 137.254 169.53C136.38 170.076 134.436 171.512 135.259 173.031C136.409 175.153 141.824 176.374 148.032 173.54C148.506 173.323 149.069 173.532 149.286 174.005C149.504 174.479 149.295 175.039 148.82 175.256C146.069 176.512 143.384 177.068 141.036 177.083Z" fill="#090F20"/>
<path d="M143.631 183.232C143.351 183.234 143.069 183.231 142.783 183.222C138.644 183.103 135.859 181.694 135.333 179.452C134.949 177.813 135.941 176.142 137.924 175.092C138.385 174.847 138.958 175.022 139.204 175.482C139.449 175.942 139.274 176.514 138.812 176.758C137.624 177.388 136.997 178.256 137.177 179.022C137.43 180.1 139.278 181.234 142.838 181.336C148.124 181.49 151.191 179.805 151.809 178.175C152.334 176.793 151.144 175.427 150.054 174.523C149.652 174.19 149.597 173.595 149.931 173.194C150.266 172.794 150.863 172.739 151.265 173.072C154.246 175.543 153.996 177.748 153.581 178.842C152.567 181.515 148.706 183.199 143.631 183.232Z" fill="#090F20"/>
<path d="M130.843 213.749C130.32 213.752 129.893 213.332 129.89 212.811C129.863 208.711 128.213 204.604 126.286 203.843C125.883 203.684 125.64 203.272 125.696 202.843C126.145 199.454 127.311 191.429 128.436 190.086C128.92 189.51 129.762 189.317 130.929 189.05C133.505 188.462 137.816 187.476 140.994 181.765C141.248 181.309 141.824 181.144 142.282 181.397C142.739 181.65 142.904 182.224 142.65 182.68C139.062 189.128 134.046 190.274 131.352 190.89C130.78 191.02 130.071 191.182 129.878 191.312C129.333 192.115 128.332 197.557 127.662 202.434C130.311 204.092 131.757 208.841 131.783 212.799C131.787 213.32 131.366 213.745 130.843 213.749Z" fill="#090F20"/>
<path d="M127.707 195.554C124.693 195.573 111.078 193.977 103.664 189.588C103.214 189.322 103.066 188.743 103.333 188.294C103.601 187.846 104.181 187.699 104.631 187.965C112.254 192.478 126.663 193.795 127.901 193.66C128.42 193.607 128.887 193.981 128.942 194.5C128.997 195.018 128.62 195.482 128.1 195.537C128.001 195.547 127.869 195.553 127.707 195.554Z" fill="#090F20"/>
<path d="M126.643 203.909C126.62 203.909 126.598 203.909 126.576 203.908C110.419 202.894 102.924 198.973 101.012 197.796C100.567 197.522 100.43 196.94 100.704 196.497C100.979 196.054 101.563 195.916 102.007 196.19C103.301 196.987 110.572 201.013 126.695 202.024C127.217 202.057 127.613 202.505 127.58 203.025C127.549 203.523 127.136 203.906 126.643 203.909Z" fill="#090F20"/>
<path d="M134.048 161.458C134.406 169.077 140.678 175.215 148.057 175.167C155.435 175.119 161.126 168.903 160.768 161.284C160.41 153.665 154.138 147.527 146.759 147.575C139.38 147.623 133.689 153.838 134.048 161.458Z" fill="#09D17E"/>
<path d="M153.673 162.789C153.946 163.558 154 164.24 153.837 164.837C153.673 165.435 153.265 165.968 152.614 166.436L153.327 168.445C153.348 168.503 153.345 168.56 153.319 168.614C153.293 168.669 153.251 168.707 153.192 168.727L150.527 169.668C150.468 169.688 150.412 169.686 150.357 169.66C150.302 169.634 150.265 169.592 150.244 169.533L149.608 167.744C149.101 167.898 148.637 168.021 148.215 168.112C148.161 168.123 148.108 168.113 148.055 168.082C148.003 168.051 147.966 168.006 147.946 167.948L147.395 165.734C147.379 165.665 147.39 165.603 147.428 165.549C147.467 165.494 147.521 165.462 147.593 165.454C147.767 165.433 147.946 165.407 148.129 165.376C148.312 165.344 148.547 165.296 148.834 165.232C149.121 165.168 149.382 165.094 149.617 165.012C149.876 164.928 150.083 164.82 150.239 164.687C150.394 164.554 150.489 164.422 150.525 164.289C150.561 164.158 150.578 164.044 150.578 163.949C150.577 163.855 150.565 163.775 150.542 163.709C150.516 163.636 150.473 163.56 150.412 163.483C150.352 163.406 150.256 163.316 150.124 163.214C149.993 163.112 149.801 163.036 149.548 162.985C149.294 162.935 149.004 162.926 148.677 162.959C148.303 163.001 147.925 162.982 147.542 162.903C147.158 162.824 146.78 162.69 146.407 162.5C146.034 162.311 145.689 162.031 145.372 161.661C145.054 161.292 144.808 160.858 144.631 160.36C144.381 159.658 144.351 159.004 144.541 158.397C144.73 157.791 145.121 157.252 145.713 156.78L144.98 154.716C144.96 154.658 144.961 154.599 144.986 154.541C145.011 154.483 145.053 154.444 145.111 154.423L147.776 153.482C147.835 153.461 147.894 153.465 147.954 153.494C148.014 153.522 148.054 153.565 148.075 153.624L148.71 155.413C149.195 155.267 149.678 155.138 150.159 155.026C150.213 155.015 150.268 155.024 150.324 155.054C150.38 155.084 150.414 155.129 150.428 155.19L150.979 157.404C150.992 157.465 150.981 157.525 150.943 157.583C150.906 157.642 150.856 157.674 150.792 157.68C149.993 157.781 149.292 157.933 148.687 158.138C148.435 158.219 148.231 158.326 148.076 158.459C147.921 158.592 147.824 158.727 147.786 158.864C147.748 159.001 147.728 159.115 147.728 159.206C147.727 159.297 147.74 159.379 147.765 159.452C147.789 159.517 147.831 159.589 147.892 159.667C147.952 159.744 148.05 159.833 148.185 159.934C148.32 160.034 148.514 160.11 148.767 160.16C149.021 160.211 149.311 160.22 149.638 160.187C150.006 160.156 150.384 160.177 150.77 160.25C151.155 160.325 151.535 160.458 151.909 160.651C152.284 160.845 152.627 161.125 152.94 161.492C153.252 161.86 153.496 162.292 153.673 162.789Z" fill="#090F20"/>
<path d="M150.453 170.085C150.361 170.086 150.27 170.065 150.183 170.024C150.029 169.951 149.918 169.827 149.861 169.667L149.354 168.24C148.98 168.346 148.627 168.436 148.3 168.506C148.14 168.538 147.986 168.511 147.848 168.428C147.714 168.349 147.615 168.23 147.563 168.082C147.558 168.07 147.554 168.057 147.551 168.044L147 165.83C146.957 165.646 146.991 165.466 147.095 165.317C147.199 165.168 147.358 165.074 147.542 165.051C147.712 165.032 147.884 165.007 148.059 164.976C148.237 164.946 148.465 164.899 148.744 164.837C149.015 164.776 149.262 164.706 149.48 164.629C149.698 164.559 149.86 164.476 149.974 164.379C150.102 164.269 150.128 164.201 150.133 164.183C150.165 164.063 150.172 163.991 150.172 163.951C150.171 163.883 150.162 163.851 150.159 163.843C150.151 163.821 150.134 163.784 150.091 163.73C150.069 163.702 150.011 163.638 149.874 163.532C149.82 163.489 149.704 163.428 149.467 163.381C149.255 163.339 149.003 163.332 148.717 163.361C148.306 163.406 147.882 163.385 147.459 163.298C147.042 163.212 146.625 163.065 146.222 162.859C145.803 162.647 145.413 162.332 145.063 161.923C144.714 161.517 144.44 161.036 144.247 160.494C143.969 159.711 143.937 158.965 144.153 158.276C144.34 157.675 144.705 157.129 145.237 156.651L144.597 154.85C144.542 154.695 144.547 154.533 144.612 154.382C144.681 154.22 144.81 154.099 144.976 154.041L147.641 153.1C147.801 153.043 147.97 153.053 148.128 153.128C148.286 153.203 148.4 153.328 148.456 153.488L148.964 154.916C149.331 154.812 149.7 154.716 150.066 154.631C150.225 154.599 150.375 154.623 150.513 154.696C150.675 154.782 150.784 154.925 150.823 155.101L151.372 157.306C151.411 157.484 151.38 157.65 151.285 157.799C151.181 157.963 151.019 158.064 150.829 158.082C150.074 158.177 149.393 158.325 148.817 158.521C148.611 158.587 148.453 158.668 148.34 158.765C148.219 158.869 148.185 158.939 148.176 158.971C148.139 159.106 148.133 159.177 148.133 159.208C148.133 159.251 148.138 159.287 148.148 159.316C148.151 159.325 148.164 159.358 148.211 159.417C148.232 159.445 148.289 159.506 148.427 159.609C148.486 159.653 148.607 159.715 148.846 159.763C149.059 159.806 149.311 159.812 149.596 159.784C150.006 159.748 150.425 159.772 150.846 159.853C151.268 159.934 151.688 160.081 152.095 160.291C152.515 160.508 152.904 160.824 153.248 161.23C153.591 161.633 153.862 162.112 154.055 162.654C154.355 163.497 154.413 164.268 154.228 164.943C154.061 165.549 153.68 166.098 153.094 166.577L153.709 168.309C153.766 168.469 153.758 168.634 153.685 168.787C153.611 168.941 153.488 169.051 153.327 169.108L150.662 170.048C150.593 170.072 150.523 170.085 150.453 170.085ZM149.606 167.338C149.774 167.337 149.931 167.442 149.99 167.608L150.565 169.224L152.883 168.406L152.231 166.57C152.171 166.401 152.23 166.213 152.376 166.108C152.947 165.697 153.307 165.233 153.445 164.73C153.585 164.217 153.533 163.609 153.29 162.924C153.13 162.475 152.908 162.081 152.629 161.752C152.353 161.427 152.048 161.177 151.722 161.009C151.385 160.835 151.038 160.713 150.692 160.647C150.345 160.581 150.002 160.56 149.671 160.589C149.313 160.625 148.979 160.615 148.687 160.556C148.371 160.493 148.127 160.395 147.941 160.257C147.775 160.133 147.654 160.021 147.571 159.914C147.482 159.802 147.421 159.694 147.382 159.586C147.341 159.468 147.32 159.338 147.322 159.201C147.323 159.075 147.346 158.929 147.394 158.755C147.454 158.54 147.594 158.337 147.81 158.152C148.006 157.984 148.259 157.85 148.562 157.753C149.131 157.56 149.796 157.409 150.536 157.305L150.077 155.459C149.667 155.558 149.245 155.673 148.827 155.799C148.619 155.861 148.4 155.751 148.327 155.547L147.749 153.92L145.419 154.742L146.095 156.644C146.153 156.806 146.101 156.986 145.966 157.094C145.441 157.513 145.091 157.992 144.927 158.517C144.763 159.042 144.791 159.601 145.013 160.225C145.172 160.673 145.396 161.067 145.679 161.398C145.96 161.725 146.267 161.975 146.591 162.139C146.929 162.311 147.277 162.435 147.623 162.506C147.962 162.576 148.301 162.592 148.632 162.556C149.001 162.519 149.335 162.53 149.627 162.588C149.946 162.652 150.19 162.752 150.373 162.894C150.532 163.018 150.649 163.129 150.731 163.233C150.819 163.346 150.884 163.46 150.924 163.573C150.962 163.682 150.982 163.808 150.983 163.947C150.984 164.079 150.962 164.225 150.916 164.393C150.859 164.605 150.72 164.807 150.503 164.993C150.307 165.16 150.051 165.296 149.741 165.395C149.503 165.479 149.224 165.558 148.922 165.626C148.624 165.692 148.387 165.741 148.197 165.773C148.075 165.794 147.955 165.813 147.836 165.829L148.296 167.678C148.659 167.595 149.061 167.486 149.489 167.356C149.528 167.345 149.567 167.339 149.606 167.338ZM150.034 155.286C150.034 155.288 150.034 155.29 150.035 155.292L150.034 155.286Z" fill="#090F20"/>
<path d="M128.152 155.44C138.087 156.852 143.733 159.4 143.306 162.134C142.88 164.868 137.777 166.156 129.027 164.737C129.027 164.737 131.947 180.826 121.507 181.403" fill="#F2F7FF"/>
<path d="M121.512 182.345C121.01 182.349 120.589 181.959 120.561 181.454C120.532 180.934 120.932 180.489 121.453 180.46C123.507 180.346 125.066 179.584 126.22 178.13C129.652 173.8 128.111 164.991 128.095 164.903C128.041 164.601 128.136 164.292 128.352 164.074C128.567 163.856 128.875 163.755 129.178 163.804C135.037 164.755 139.676 164.498 141.585 163.117C142.047 162.784 142.304 162.414 142.37 161.988C142.416 161.697 142.32 161.398 142.078 161.073C140.673 159.182 135.417 157.425 128.017 156.373C127.5 156.3 127.14 155.822 127.214 155.306C127.287 154.79 127.766 154.43 128.284 154.505C132.99 155.174 141.238 156.771 143.6 159.95C144.143 160.681 144.365 161.486 144.241 162.278C144.097 163.2 143.564 164.018 142.697 164.645C140.475 166.251 136.044 166.674 130.142 165.857C130.469 168.662 130.843 175.337 127.708 179.296C126.219 181.175 124.15 182.201 121.558 182.344C121.543 182.345 121.527 182.345 121.512 182.345Z" fill="#090F20"/>
</g>
<mask id="mask9_84_1776" style="mask-type:alpha" maskUnits="userSpaceOnUse" x="0" y="60" width="153" height="173">
<path d="M148.881 180.759C145.547 192.209 139.855 202.404 131.158 210.126C114.676 224.763 87.4035 230.526 44.9471 219.161C26.9682 235.969 22.793 233.594 24.9773 229.934C27.7949 225.21 32.1318 213.041 32.1318 213.041C31.7342 212.886 28.9621 210.2 25.1989 205.41C15.7351 193.372 0 168.056 0 136.352C0 92.043 29.1552 69.0423 59.6227 62.2604C101.681 52.9027 136.458 74.6693 146.262 108.429C149.838 120.736 152.204 134.257 152.619 147.603C152.974 159.084 151.886 170.431 148.881 180.759Z" fill="#FADB4A"/>
</mask>
<g mask="url(#mask9_84_1776)">
<path d="M92.8382 145.155C91.097 146.673 73.6312 144.472 73.6312 144.472L78.7 192.092C78.7 192.092 84.4604 200.474 89.1601 209.544C89.1601 209.544 91.9835 214.868 94.5732 220.113C106.781 247.707 119.267 245.962 98.2409 243.632C83.0645 262.963 17.0222 264.241 18.6165 260.292C20.6756 255.196 6.56687 240.992 6.56687 240.992C6.56687 240.992 25.9717 216.027 21.5229 211.857C33.0267 173.113 26.193 143.954 26.193 143.954C8.78136 147.254 6.39995 130.915 17.6979 130.909C12.1873 125.48 15.3526 113.004 28.0299 115.865C28.0299 115.865 21.3638 104.585 32.1748 99.3896C41.2628 95.0195 44.9549 102.456 52.3103 102.924C69.6316 104.034 60.8401 96.4864 62.6745 96.5392C74.3861 96.9095 72.8413 106.188 64.9136 111.907C64.7343 112.038 64.5462 112.165 64.3604 112.289C77.611 123.579 94.4762 143.729 92.8382 145.155Z" fill="#F2F7FF"/>
<path d="M24.6007 139.512C24.4197 139.54 24.2289 139.515 24.0511 139.431C24.0032 139.408 19.2128 137.153 16.1456 137.485C15.6261 137.542 15.1582 137.167 15.1007 136.649C15.0433 136.13 15.4185 135.663 15.9373 135.607C19.541 135.217 24.6476 137.624 24.8633 137.726C25.3353 137.951 25.5359 138.515 25.3121 138.985C25.1721 139.278 24.9003 139.466 24.6007 139.512Z" fill="#090F20"/>
<path d="M62.7357 96.5561C74.4555 96.9224 72.9109 106.21 64.9803 111.93C56.8975 117.761 41.8914 117.638 41.8914 117.638C41.8914 117.638 42.6356 123.852 36.8957 129.602C31.1557 135.351 20.2482 133.43 17.7305 130.949C12.2166 125.515 15.3828 113.03 28.068 115.894C28.068 115.894 21.3972 104.604 32.2168 99.4046C41.3114 95.0338 45.0058 102.475 52.3668 102.946C69.6982 104.055 60.9025 96.4988 62.7357 96.5561Z" fill="#090F20"/>
<path d="M29.5533 134.07C24.28 134.875 18.8651 133.393 17.0654 131.62C13.952 128.551 13.2619 123.456 15.4245 119.506C17.4447 115.816 21.4762 114.068 26.4153 114.651C25.5437 112.568 24.4504 108.896 25.5434 105.292C26.4219 102.395 28.5282 100.128 31.8044 98.5533C37.8899 95.6289 41.7787 97.6494 45.54 99.6033C47.7529 100.753 49.8434 101.839 52.4246 102.004C59.7487 102.472 61.7003 101.325 62.2118 100.599C62.6691 99.9503 62.3403 99.0535 61.8983 98.0337C61.5867 97.3154 61.318 96.6948 61.7172 96.1079C61.8231 95.9525 62.1361 95.5929 62.7626 95.6124C69.4526 95.8216 71.3633 98.8095 71.9069 100.572C73.0425 104.255 70.4817 109.127 65.5344 112.696C58.4137 117.832 46.4029 118.491 42.8695 118.572C42.8385 120.679 42.2141 125.612 37.5658 130.268C35.3687 132.469 32.4827 133.622 29.5533 134.07ZM22.8452 116.546C20.2714 116.939 18.2671 118.256 17.0861 120.413C15.348 123.588 15.9104 127.829 18.3945 130.277C20.6713 132.521 31.0293 134.137 36.2241 128.934C41.5789 123.57 40.958 117.806 40.9509 117.748C40.9188 117.479 41.0036 117.209 41.1846 117.007C41.3654 116.806 41.6245 116.691 41.8967 116.693C42.0436 116.694 56.6898 116.743 64.4237 111.165C68.6477 108.118 70.9808 103.989 70.0976 101.125C69.4763 99.1102 67.2395 97.8626 63.7537 97.5612C64.2086 98.6364 64.774 100.25 63.7608 101.688C62.4108 103.603 58.7717 104.303 52.3069 103.889C49.3265 103.698 46.9581 102.468 44.6681 101.278C41.0147 99.3803 37.8594 97.7413 32.6276 100.255C29.8479 101.591 28.0743 103.471 27.355 105.841C25.9705 110.407 28.8531 115.365 28.8824 115.415C29.0744 115.739 29.0546 116.146 28.8325 116.45C28.6105 116.755 28.2283 116.897 27.8601 116.815C26.0294 116.401 24.3411 116.317 22.8452 116.546Z" fill="#090F20"/>
<path d="M93.4702 219.55C93.0358 219.616 92.5996 219.371 92.4408 218.943C88.24 207.619 78.0737 192.738 77.9714 192.589C77.8828 192.46 77.8278 192.311 77.8111 192.155L72.7474 144.555C72.717 144.269 72.8191 143.984 73.025 143.783C73.2305 143.581 73.5175 143.485 73.8038 143.521C81.2772 144.461 89.9524 145.068 91.9705 144.527C91.4819 143.141 88.4713 138.609 81.5229 130.729C74.5952 122.873 67.0557 115.487 61.3539 110.974C60.9448 110.65 60.8756 110.056 61.1995 109.648C61.5231 109.24 62.1176 109.172 62.5269 109.496C68.3243 114.086 75.9698 121.573 82.9783 129.526C85.5309 132.423 93.8646 142.083 93.9316 144.785C93.9462 145.368 93.6669 145.7 93.4992 145.847C93.0491 146.239 92.1128 147.056 82.557 146.306C79.4254 146.06 76.3678 145.723 74.752 145.535L79.6656 191.723C80.8994 193.549 90.1986 207.468 94.2129 218.29C94.3943 218.779 94.1445 219.321 93.6554 219.502C93.5941 219.525 93.5321 219.54 93.4702 219.55Z" fill="#090F20"/>
<path d="M60.177 189.958C47.8446 191.843 35.5007 190.793 29.6976 186.739C29.269 186.439 29.1641 185.849 29.4632 185.422C29.7625 184.994 30.3526 184.89 30.7815 185.189C34.3329 187.671 41.0436 189.052 49.193 188.978C57.547 188.902 66.5662 187.27 73.9379 184.5C74.4276 184.317 74.9734 184.563 75.1582 185.052C75.343 185.541 75.0963 186.086 74.6072 186.27C70.0825 187.97 65.1304 189.2 60.177 189.958Z" fill="#090F20"/>
<path d="M46.5329 206.41C43.1056 206.933 38.8627 203.05 31.8895 196.349C31.5127 195.987 31.5005 195.389 31.8629 195.013C32.2249 194.637 32.8241 194.626 33.2015 194.989C39.6466 201.182 44.0585 205.196 46.5088 204.483C48.4565 203.924 54.1343 197.28 56.8631 194.087C58.071 192.674 58.9437 191.653 59.415 191.191C62.2066 188.452 65.4985 190.568 68.6398 193.261C69.8501 194.299 73.5344 197.46 75.5838 196.672C76.9633 196.143 77.536 193.81 77.7732 191.946C77.8393 191.429 78.3123 191.063 78.8319 191.13C79.3503 191.196 79.7175 191.67 79.6516 192.188C79.2056 195.691 78.0976 197.735 76.2644 198.437C73.5121 199.493 70.0852 196.991 67.4074 194.695C63.0449 190.954 61.7229 191.579 60.7428 192.54C60.3308 192.944 59.3917 194.043 58.3041 195.315C53.6798 200.726 49.3381 205.638 47.0352 206.3C46.8696 206.347 46.7021 206.384 46.5329 206.41Z" fill="#090F20"/>
<path d="M63.9917 203.746C63.8752 203.764 63.7594 203.772 63.6434 203.768C61.3879 203.705 58.7437 201.208 55.784 196.347C55.5121 195.901 55.6541 195.32 56.1008 195.049C56.5479 194.779 57.1298 194.922 57.401 195.368C61.0425 201.349 63.1376 201.865 63.6931 201.88C64.719 201.909 67.6241 197.506 68.54 194.887C68.7118 194.395 69.2516 194.136 69.7449 194.308C70.2386 194.48 70.4994 195.019 70.3272 195.511C69.977 196.513 66.9068 203.301 63.9917 203.746Z" fill="#090F20"/>
<path d="M73.7701 223.246C73.2745 223.321 72.8014 222.996 72.7003 222.5C69.7051 207.822 65.6068 202.757 65.1882 202.276C65.1562 202.254 65.1247 202.231 65.095 202.205C64.7022 201.861 64.662 201.265 65.0053 200.873C65.2417 200.603 65.6197 200.49 65.967 200.582C66.8958 200.829 68.6369 204.036 69.4277 205.697C70.8422 208.668 72.8799 213.93 74.5525 222.126C74.6568 222.637 74.3263 223.135 73.8148 223.238C73.8 223.241 73.785 223.243 73.7701 223.246Z" fill="#090F20"/>
<path d="M21.4994 213.301C21.3649 213.321 21.2233 213.313 21.0843 213.271C20.5845 213.121 20.3004 212.594 20.4501 212.096C30.8389 177.482 26.4303 150.211 25.4358 145.07L25.3953 145.076C19.0964 146.039 13.8673 144.506 11.2848 140.897C9.61745 138.567 9.37682 135.727 10.6572 133.487C12.0936 130.973 15.0942 129.724 18.8893 130.058C19.4093 130.104 19.7937 130.562 19.7487 131.081C19.7034 131.6 19.2458 131.984 18.7261 131.938C15.697 131.67 13.354 132.577 12.2986 134.424C11.3881 136.017 11.5884 138.078 12.8214 139.801C15.0927 142.975 20.0168 144.193 25.9986 143.058C26.4998 142.959 26.9812 143.278 27.0966 143.771C27.1677 144.075 28.8412 151.358 29.0977 163.54C29.334 174.76 28.3397 192.386 22.2609 212.64C22.1528 213 21.8484 213.247 21.4994 213.301Z" fill="#090F20"/>
<path d="M59.6237 224.552C59.5741 224.56 59.5227 224.563 59.4708 224.563C58.9487 224.558 58.5288 224.132 58.5328 223.61C58.5378 222.937 58.6801 207.06 60.5202 201.558C60.6854 201.063 61.2211 200.797 61.716 200.963C62.2114 201.129 62.4789 201.664 62.3137 202.158C60.5672 207.38 60.4243 223.466 60.4231 223.628C60.4196 224.097 60.0737 224.483 59.6237 224.552Z" fill="#090F20"/>
</g>
<path d="M25.7205 233.512C25.1165 233.512 24.6033 233.364 24.2014 233.042C23.2776 232.303 23.2633 230.96 24.1635 229.452C26.5369 225.474 30.0794 215.918 31.0094 213.363C29.6144 212.144 26.9551 209.175 24.454 205.993C24.1316 205.583 24.2038 204.99 24.6155 204.669C25.0272 204.348 25.622 204.42 25.9447 204.83C29.6669 209.564 32.1338 211.908 32.5531 212.198C32.9781 212.408 33.1853 212.905 33.0238 213.358C32.8453 213.858 28.6238 225.668 25.7908 230.416C25.3902 231.087 25.3778 231.473 25.4005 231.576C25.6534 231.659 29.3785 232.421 44.2994 218.472C44.5382 218.248 44.8766 218.164 45.1926 218.249C50.6732 219.716 56.0351 220.928 61.1303 221.853C61.6448 221.946 61.9859 222.438 61.8923 222.95C61.7987 223.463 61.3053 223.803 60.7913 223.709C55.8033 222.804 50.5637 221.626 45.2102 220.207C39.4193 225.59 30.1443 233.511 25.7205 233.512ZM32.4787 212.165C32.4979 212.172 32.5166 212.18 32.5347 212.189C32.5131 212.178 32.4941 212.171 32.4787 212.165Z" fill="#5DE2F7"/>
<path d="M67.4165 143.418C67.6807 145.123 65.3803 150.605 61.4272 154.959C59.3281 157.272 56.8178 158.77 54.1004 158.185C47.5675 156.801 44.7406 149.229 45.5077 148.634C45.6844 148.675 51.7131 151.962 57.0898 150.637C63.5006 149.311 67.8793 143.109 67.4165 143.418Z" fill="#090F20"/>
<path d="M67.4165 143.418C67.6807 145.123 65.3803 150.605 61.4272 154.959C59.3281 157.272 56.8178 158.77 54.1004 158.185C47.5675 156.801 44.7406 149.229 45.5077 148.634C45.6844 148.675 51.7131 151.962 57.0898 150.637C63.5006 149.311 67.8793 143.109 67.4165 143.418Z" stroke="#090F20" stroke-width="1.21881" stroke-linecap="round" stroke-linejoin="round"/>
<mask id="mask10_84_1776" style="mask-type:alpha" maskUnits="userSpaceOnUse" x="45" y="143" width="23" height="16">
<path d="M67.4155 143.417C67.6797 145.122 65.3793 150.604 61.4261 154.959C59.327 157.271 56.8168 158.769 54.0994 158.184C47.5665 156.8 44.7395 149.228 45.5067 148.633C45.6833 148.674 51.712 151.961 57.0887 150.636C63.4996 149.31 67.8783 143.108 67.4155 143.417Z" fill="#3F474E"/>
</mask>
<g mask="url(#mask10_84_1776)">
<path d="M61.2171 156.719C59.1177 159.032 56.6076 160.531 53.89 159.946C50.6473 159.248 48.4265 157.361 47.0327 155.316C51.8151 153.002 58.1222 152.068 61.2171 156.719Z" fill="#F2F7FF"/>
<path d="M61.2171 156.719C59.1177 159.032 56.6076 160.531 53.89 159.946C50.6473 159.248 48.4265 157.361 47.0327 155.316C51.8151 153.002 58.1222 152.068 61.2171 156.719Z" stroke="#090F20" stroke-width="1.21881" stroke-linecap="round" stroke-linejoin="round"/>
</g>
<mask id="mask11_84_1776" style="mask-type:luminance" maskUnits="userSpaceOnUse" x="57" y="127" width="12" height="10">
<path d="M67.1208 127.586L57.9307 129.82L59.5438 136.374L68.7339 134.141L67.1208 127.586Z" fill="white"/>
</mask>
<g mask="url(#mask11_84_1776)">
<path d="M62.982 130.486L63.6161 133.211" stroke="#090F20" stroke-width="1.39293" stroke-linecap="round" stroke-linejoin="round"/>
</g>
<mask id="mask12_84_1776" style="mask-type:luminance" maskUnits="userSpaceOnUse" x="46" y="130" width="11" height="10">
<path d="M46.1067 132.702L55.2968 130.468L56.9099 137.022L47.7198 139.256L46.1067 132.702Z" fill="white"/>
</mask>
<g mask="url(#mask12_84_1776)">
<path d="M51.1255 133.376L51.825 136.085" stroke="#090F20" stroke-width="1.39293" stroke-linecap="round" stroke-linejoin="round"/>
</g>
<path d="M226.388 165.043C224.126 165.258 221.528 165.124 219.831 164.39C218.248 163.706 217.781 162.682 217.668 161.943C217.49 160.784 217.329 159.182 217.159 157.487C216.775 153.655 216.296 148.888 215.375 146.76C214.804 145.443 213.897 144.863 212.749 144.129C211.41 143.273 209.743 142.207 208.3 139.605C204.896 133.466 204.473 126.574 207.168 121.17C209.557 116.381 214.173 113.276 220.166 112.427C225.242 111.706 229.463 112.787 232.713 115.634C237.86 120.144 238.942 127.809 238.915 130.139C238.851 135.785 236.449 139.397 234.694 142.035C233.661 143.589 232.845 144.816 232.844 145.9C232.844 146.416 232.832 151.069 232.509 155.509C232.025 162.158 231.222 163.52 230.576 163.963C229.846 164.463 228.229 164.868 226.388 165.043ZM220.331 113.575C214.728 114.368 210.423 117.249 208.209 121.688C205.683 126.75 206.097 133.239 209.317 139.044C210.617 141.39 212.082 142.327 213.375 143.153C214.586 143.927 215.73 144.659 216.441 146.301C217.435 148.594 217.903 153.258 218.316 157.372C218.484 159.053 218.644 160.64 218.816 161.769C218.916 162.423 219.413 162.946 220.292 163.327C223.238 164.601 228.795 163.777 229.917 163.007C230.072 162.901 230.869 162.036 231.35 155.424C231.67 151.025 231.682 146.41 231.682 145.898C231.682 144.465 232.584 143.109 233.726 141.393C235.493 138.736 237.693 135.429 237.753 130.124C237.778 127.933 236.766 120.727 231.947 116.505C228.964 113.891 225.055 112.906 220.331 113.575Z" fill="#090F20"/>
<path d="M225.28 154.757C222.428 155.028 219.587 154.673 217.05 153.675C216.751 153.557 216.604 153.22 216.721 152.921C216.839 152.623 217.176 152.477 217.475 152.594C221.862 154.321 227.237 153.983 231.854 151.69C232.142 151.547 232.491 151.664 232.635 151.951C232.778 152.238 232.661 152.587 232.374 152.729C230.122 153.848 227.697 154.527 225.28 154.757Z" fill="#090F20"/>
<path d="M219.261 161.135C218.859 161.173 218.465 161.199 218.082 161.211C217.761 161.221 217.492 160.969 217.482 160.649C217.471 160.329 217.725 160.06 218.044 160.051C223.196 159.89 230.526 156.995 231.437 156.135C231.669 155.915 232.038 155.925 232.259 156.158C232.479 156.391 232.47 156.758 232.237 156.978C231.179 157.977 224.572 160.631 219.261 161.135Z" fill="#090F20"/>
<path d="M222.232 154.8C222.211 154.802 222.188 154.803 222.166 154.803C221.845 154.797 221.59 154.533 221.595 154.213L221.608 153.417C221.727 146.169 221.809 141.143 220.989 138.034C219.551 138.376 218.152 138.509 216.955 138.336C215.017 138.056 214.528 137.097 214.409 136.551C214.205 135.614 214.776 134.532 215.83 133.86C216.842 133.213 218.434 132.906 219.866 133.982C220.697 134.606 221.305 135.48 221.745 136.628C222.639 136.354 223.537 136.004 224.39 135.604C224.332 135.1 224.274 134.617 224.215 134.162C223.915 131.825 224.577 129.889 226.032 128.852C227.075 128.109 228.408 127.951 229.427 128.45C230.286 128.871 230.801 129.694 230.839 130.707C230.88 131.76 230.224 132.925 228.943 134.075C228.079 134.85 226.925 135.616 225.635 136.284C226.291 142.284 226.874 150.736 226.988 153.801C227 154.121 226.746 154.387 226.429 154.401C226.108 154.413 225.839 154.162 225.827 153.842C225.715 150.861 225.159 142.757 224.524 136.819C223.737 137.171 222.918 137.481 222.098 137.732C222.973 141.054 222.889 146.166 222.77 153.437L222.756 154.233C222.752 154.531 222.523 154.773 222.232 154.8ZM217.59 134.441C217.054 134.492 216.634 134.723 216.457 134.836C215.83 135.237 215.446 135.855 215.544 136.306C215.638 136.736 216.212 137.057 217.121 137.188C218.141 137.336 219.358 137.223 220.626 136.929C220.266 136.046 219.791 135.376 219.168 134.908C218.609 134.488 218.056 134.397 217.59 134.441ZM227.928 129.327C227.514 129.367 227.087 129.525 226.708 129.795C225.612 130.577 225.124 132.115 225.368 134.015C225.41 134.345 225.452 134.689 225.495 135.045C226.53 134.479 227.456 133.849 228.165 133.212C229.167 132.313 229.705 131.438 229.678 130.75C229.65 130.004 229.248 129.654 228.915 129.491C228.621 129.347 228.279 129.294 227.928 129.327Z" fill="#090F20"/>
<path d="M206.951 103.42C208.269 105.183 209.706 107.154 209.706 107.154" stroke="#090F20" stroke-width="0.748562" stroke-linecap="round" stroke-linejoin="round"/>
<path d="M193.406 123.169C194.833 123.759 196.819 124.6 196.819 124.6" stroke="#090F20" stroke-width="0.748562" stroke-linecap="round" stroke-linejoin="round"/>
<path d="M232.565 101.649C231.949 103.061 231.073 105.026 231.073 105.026" stroke="#090F20" stroke-width="0.748562" stroke-linecap="round" stroke-linejoin="round"/>
<path d="M250.363 126.525C249.13 127.124 247.377 127.99 247.377 127.99" stroke="#090F20" stroke-width="0.748562" stroke-linecap="round" stroke-linejoin="round"/>
<path d="M219.357 97.7794C219.476 99.5532 219.658 102.056 219.658 102.056" stroke="#090F20" stroke-width="0.748562" stroke-linecap="round" stroke-linejoin="round"/>
</svg>
