<svg width="325" height="237" viewBox="0 0 325 237" fill="none" xmlns="http://www.w3.org/2000/svg">
<path d="M155.3 30.5815C161.975 24.9516 161.975 15.8238 155.3 10.1939C148.624 4.56403 137.8 4.56404 131.125 10.1939C124.449 15.8238 124.449 24.9516 131.125 30.5815C137.8 36.2114 148.624 36.2114 155.3 30.5815Z" fill="#09D17E"/>
<path d="M270.091 133.423C268.375 140.492 265.317 147.264 261.159 153.591C233.35 195.95 157.14 218.845 118.507 184.094C112.963 179.103 108.189 173.926 104.141 168.62C90.8962 151.216 85.594 132.477 87.2441 114.721C88.5861 100.286 94.5263 86.519 104.515 74.6631C108.475 69.9504 113.095 65.5346 118.331 61.5084C190.273 5.95819 283.226 79.0232 270.091 133.423Z" fill="#1455FE"/>
<path d="M261.159 153.592C233.35 195.95 157.14 218.846 118.507 184.094C112.963 179.103 108.188 173.927 104.14 168.62C104.052 167.507 103.986 166.357 103.92 165.169C103.216 154.018 103.172 148.192 117.473 147.358C120.971 147.153 126.449 146.764 133.071 146.281C134.259 144.649 138.219 139.083 141.387 133.331C138.241 132.997 105.02 129.286 93.932 121.122C91.688 119.471 89.4219 117.245 87.2438 114.703C78.0916 104.09 70.0833 88.0409 68.9613 85.6104C67.7733 83.0499 67.6633 81.0275 68.3453 77.2426C67.8393 77.7435 63.3291 72.7525 63.9891 70.9899C65.0892 68.1141 75.8255 62.0841 81.8097 61.4904C82.8657 61.379 85.8578 65.7763 85.1758 65.8876C88.9159 66.2958 96.3741 67.8172 98.0682 69.4685C98.8162 70.1921 101.478 72.1959 104.492 74.6636C109.376 78.6341 115.163 83.8106 115.251 86.705C115.405 91.3991 116.241 91.3435 117.957 91.4734C119.695 91.6032 121.125 92.3083 120.971 94.0152C120.817 95.7408 121.125 97.0766 124.601 96.6128C128.077 96.1675 130.409 96.6684 131.091 99.099C131.773 101.511 141.277 101.585 144.886 101.641C148.494 101.697 166.842 102.903 168.998 103.997C170.296 93.57 175.246 77.057 175.246 77.057C175.246 77.057 160.154 72.8268 160.374 70.7858C160.506 69.6355 172.584 65.6835 180.461 63.2344C180.571 63.1973 185.323 63.6797 187.875 62.7891C187.875 62.7891 183.673 72.4742 197.159 76.4076C197.159 76.4076 197.335 78.3001 198.303 78.4115C198.963 78.4857 199.953 78.0404 200.393 76.2778C200.591 75.48 200.679 74.4038 200.591 72.9937C200.591 72.9937 200.679 72.9937 200.855 72.9937H200.877C203.099 73.0123 205.189 73.1978 206.927 73.5132C209.347 73.9585 211.041 74.7007 211.393 75.684C211.943 77.1869 210.601 78.9495 205.211 79.636C203.187 84.8125 203.495 89.3397 205.431 89.5809C207.565 89.8592 208.379 89.2655 209.413 88.6346C210.447 88.0038 211.261 91.2136 206.927 93.6442C203.539 95.5367 199.293 96.2603 195.971 94.4049C195.135 99.433 194.233 105.092 193.551 110.25C195.091 110.268 217.708 122.421 223.824 125.149C227.784 126.93 235.704 131.012 241.71 136.856C254.779 136.244 258.585 137.079 259.993 145.669C260.323 147.302 260.719 150.085 261.159 153.592Z" fill="#F2F7FF"/>
<path d="M179.097 72.3622C178.635 72.1952 178.437 71.7314 178.635 71.3603L179.581 69.5791C179.779 69.1895 180.329 69.0225 180.769 69.1895C181.231 69.3565 181.429 69.8203 181.231 70.1914L180.285 71.9726C180.109 72.3622 179.559 72.5477 179.097 72.3622Z" fill="#090F20"/>
<path d="M184.641 74.4774C184.179 74.3104 183.981 73.8466 184.179 73.4755L185.125 71.6943C185.323 71.3047 185.873 71.1377 186.313 71.3047C186.775 71.4717 186.973 71.9355 186.775 72.3066L185.829 74.0878C185.631 74.4774 185.103 74.6444 184.641 74.4774Z" fill="#090F20"/>
<path d="M146.272 24.308C145.92 25.0687 145.414 25.6253 144.798 25.9778C144.182 26.3304 143.39 26.4602 142.444 26.386L141.498 28.3898C141.476 28.4455 141.432 28.4826 141.366 28.5197C141.3 28.5383 141.234 28.5383 141.168 28.5197L138.044 27.4621C137.978 27.4436 137.934 27.4065 137.89 27.3508C137.868 27.2952 137.868 27.2395 137.89 27.1838L138.726 25.4027C138.154 25.18 137.626 24.9759 137.186 24.7533C137.12 24.7347 137.098 24.6791 137.076 24.6234C137.054 24.5677 137.054 24.5121 137.076 24.4564L138.33 22.4155C138.374 22.3598 138.418 22.3227 138.506 22.3042C138.594 22.2856 138.66 22.3042 138.726 22.3413C138.902 22.434 139.078 22.5454 139.276 22.6381C139.474 22.7309 139.716 22.8608 140.024 22.9907C140.332 23.1391 140.618 23.2504 140.904 23.3432C141.212 23.4545 141.476 23.5102 141.718 23.5102C141.96 23.5102 142.158 23.4731 142.29 23.3988C142.422 23.3246 142.532 23.2504 142.598 23.1762C142.664 23.102 142.73 23.0278 142.752 22.9721C142.796 22.8979 142.796 22.8051 142.818 22.7124C142.818 22.6196 142.818 22.4897 142.774 22.3227C142.73 22.1557 142.62 21.9702 142.444 21.7661C142.246 21.562 142.004 21.3579 141.674 21.1724C141.3 20.9497 140.992 20.69 140.706 20.3746C140.42 20.0592 140.2 19.7066 140.002 19.317C139.826 18.9274 139.738 18.4821 139.738 17.9997C139.738 17.5173 139.87 17.0163 140.09 16.5154C140.42 15.8103 140.904 15.2908 141.564 14.9568C142.202 14.6229 142.994 14.4744 143.896 14.5116L144.864 12.4521C144.886 12.3964 144.93 12.3593 145.018 12.3222C145.084 12.3037 145.15 12.2851 145.216 12.3222L148.34 13.3798C148.406 13.3983 148.45 13.454 148.494 13.5097C148.516 13.5653 148.516 13.6395 148.494 13.6952L147.658 15.4764C148.208 15.6805 148.736 15.9031 149.264 16.1443C149.33 16.1628 149.352 16.2185 149.396 16.2742C149.418 16.3298 149.418 16.3855 149.374 16.4412L148.12 18.4821C148.076 18.5377 148.032 18.5748 147.944 18.5934C147.856 18.612 147.79 18.612 147.724 18.5748C146.932 18.1296 146.184 17.777 145.48 17.5358C145.194 17.4245 144.93 17.3688 144.688 17.3688C144.446 17.3688 144.248 17.406 144.116 17.4802C143.984 17.5544 143.874 17.6286 143.786 17.7028C143.72 17.777 143.654 17.8512 143.632 17.9069C143.61 17.9811 143.588 18.0553 143.566 18.1481C143.566 18.2409 143.566 18.3708 143.61 18.5377C143.654 18.7047 143.764 18.8903 143.962 19.0944C144.16 19.2985 144.402 19.5025 144.732 19.6881C145.084 19.9107 145.414 20.1705 145.7 20.4859C145.986 20.8013 146.228 21.1538 146.404 21.5435C146.58 21.9331 146.668 22.3784 146.668 22.8608C146.624 23.3246 146.492 23.807 146.272 24.308Z" fill="#090F20"/>
<path d="M141.256 28.7975C141.19 28.7975 141.102 28.7789 141.036 28.7604L137.911 27.7028C137.757 27.6472 137.647 27.5544 137.581 27.4431C137.515 27.3132 137.515 27.1833 137.581 27.0534L138.307 25.5135C137.845 25.3279 137.405 25.1424 137.031 24.9754C136.899 24.9197 136.811 24.8084 136.767 24.6971C136.723 24.5858 136.723 24.4559 136.789 24.326C136.789 24.326 136.789 24.3075 136.811 24.3075L138.065 22.2665C138.153 22.1367 138.285 22.0439 138.461 22.0068C138.637 21.9697 138.791 22.0068 138.945 22.081C139.121 22.1738 139.297 22.2851 139.473 22.3779C139.649 22.4706 139.891 22.582 140.199 22.7304C140.486 22.8603 140.771 22.9716 141.036 23.0644C141.3 23.1571 141.542 23.2128 141.74 23.2128C141.96 23.2128 142.07 23.1757 142.114 23.1386C142.224 23.0829 142.312 23.0087 142.356 22.9716C142.422 22.9159 142.444 22.8603 142.466 22.8417C142.488 22.8046 142.51 22.7489 142.51 22.6747C142.51 22.6191 142.51 22.5263 142.466 22.3408C142.444 22.2665 142.378 22.1181 142.18 21.8955C142.004 21.7099 141.784 21.5244 141.498 21.3574C141.102 21.1348 140.75 20.8379 140.441 20.5039C140.133 20.17 139.891 19.7989 139.693 19.3721C139.495 18.9454 139.385 18.463 139.407 17.9435C139.407 17.424 139.539 16.8859 139.803 16.3664C140.155 15.6057 140.706 15.0491 141.41 14.678C142.048 14.344 142.818 14.1771 143.698 14.1771L144.578 12.3031C144.644 12.1732 144.732 12.0805 144.886 12.0248C145.04 11.9692 145.194 11.9506 145.348 12.0063L148.472 13.0638C148.626 13.1195 148.736 13.2123 148.802 13.3421C148.868 13.472 148.868 13.6019 148.802 13.7318L148.076 15.2717C148.538 15.4573 148.978 15.6428 149.418 15.8284C149.55 15.884 149.638 15.9953 149.704 16.1067C149.77 16.2365 149.748 16.385 149.66 16.5148L148.406 18.5558C148.318 18.6856 148.186 18.7599 148.032 18.8155C147.856 18.8526 147.68 18.8341 147.526 18.7413C146.756 18.3146 146.03 17.962 145.348 17.7208C145.084 17.6281 144.864 17.5724 144.666 17.5724C144.49 17.5724 144.358 17.591 144.27 17.6466C144.116 17.7208 144.05 17.7765 144.006 17.8136C143.962 17.8507 143.918 17.9064 143.896 17.9435C143.874 17.962 143.874 18.0177 143.852 18.1105C143.852 18.1661 143.852 18.2589 143.896 18.4259C143.918 18.5558 144.028 18.7042 144.182 18.8712C144.358 19.0567 144.578 19.2423 144.864 19.4092C145.238 19.6504 145.59 19.9288 145.898 20.2627C146.206 20.5967 146.448 20.9678 146.646 21.3945C146.844 21.8212 146.932 22.3036 146.932 22.8232C146.932 23.3427 146.8 23.8622 146.536 24.4002C146.14 25.2166 145.612 25.8103 144.952 26.2C144.336 26.5525 143.544 26.7009 142.62 26.6638L141.762 28.4821C141.696 28.612 141.586 28.7047 141.454 28.7604C141.41 28.7789 141.322 28.7975 141.256 28.7975ZM138.197 27.2019L141.212 28.2223L142.136 26.2742C142.18 26.1628 142.334 26.0886 142.466 26.1072C143.346 26.1814 144.072 26.0515 144.622 25.7547C145.172 25.4392 145.634 24.9197 145.964 24.2147C146.184 23.7508 146.294 23.287 146.316 22.8417C146.316 22.3964 146.25 21.9882 146.074 21.6172C145.898 21.2461 145.678 20.9121 145.414 20.6338C145.15 20.3369 144.842 20.0957 144.512 19.8916C144.182 19.6876 143.896 19.4649 143.676 19.2423C143.456 19.0011 143.324 18.7784 143.28 18.5743C143.236 18.3888 143.214 18.2218 143.214 18.1105C143.214 17.9806 143.258 17.8693 143.302 17.7765C143.346 17.6652 143.434 17.5724 143.522 17.4796C143.61 17.3869 143.742 17.3127 143.918 17.2199C144.116 17.1086 144.38 17.0529 144.688 17.0529C144.974 17.0529 145.282 17.1086 145.612 17.2385C146.316 17.4797 147.064 17.8322 147.856 18.2775L149.044 16.3293C148.56 16.1067 148.032 15.9026 147.504 15.6985C147.35 15.6428 147.262 15.4758 147.328 15.346L148.142 13.6019L145.106 12.5814L144.16 14.6038C144.116 14.7151 143.984 14.7893 143.83 14.7708C142.994 14.7337 142.268 14.8821 141.696 15.179C141.102 15.4758 140.661 15.9582 140.353 16.5891C140.133 17.0529 140.023 17.5168 140.023 17.962C140.023 18.4073 140.089 18.8155 140.265 19.1866C140.441 19.5577 140.661 19.8916 140.926 20.1885C141.19 20.4854 141.498 20.7266 141.828 20.9307C142.18 21.1348 142.466 21.3574 142.664 21.58C142.884 21.8212 143.016 22.0439 143.06 22.248C143.104 22.4335 143.126 22.582 143.104 22.7118C143.104 22.8417 143.06 22.953 143.016 23.0644C142.972 23.1571 142.906 23.2499 142.796 23.3427C142.708 23.4354 142.576 23.5282 142.422 23.621C142.224 23.7323 141.96 23.788 141.674 23.788C141.388 23.788 141.08 23.7137 140.728 23.6024C140.442 23.5096 140.133 23.3798 139.825 23.2313C139.517 23.0829 139.253 22.9716 139.055 22.8603C138.879 22.7675 138.703 22.6747 138.549 22.582L137.361 24.5301C137.779 24.7342 138.285 24.9383 138.835 25.1424C138.989 25.198 139.077 25.365 139.011 25.4949L138.197 27.2019Z" fill="#090F20"/>
<path d="M278.628 64.0867C278.892 64.4393 279.002 64.7732 278.98 65.0886C278.958 65.4041 278.782 65.7195 278.474 66.0163L279.156 66.944C279.178 66.9626 279.178 66.9997 279.178 67.0368C279.178 67.0739 279.156 67.0925 279.112 67.111L277.66 67.8717C277.638 67.8903 277.594 67.8903 277.55 67.8903C277.506 67.8903 277.484 67.8717 277.462 67.8346L276.868 67.0182C276.582 67.1481 276.34 67.2594 276.098 67.3522C276.076 67.3708 276.032 67.3708 276.01 67.3522C275.966 67.3337 275.944 67.3151 275.922 67.2966L275.328 66.2575C275.306 66.2204 275.306 66.2019 275.328 66.1648C275.35 66.1277 275.372 66.1091 275.416 66.1091C275.526 66.072 275.614 66.0534 275.724 66.0163C275.834 65.9792 275.966 65.9236 276.12 65.8679C276.274 65.8122 276.428 65.738 276.56 65.6824C276.692 65.6081 276.802 65.5339 276.89 65.4597C276.956 65.3855 277 65.2927 277 65.2371C277 65.1629 277 65.1072 276.978 65.0701C276.956 65.0144 276.956 64.9773 276.934 64.9588C276.912 64.9217 276.868 64.8846 276.824 64.866C276.78 64.8289 276.714 64.7918 276.626 64.7547C276.538 64.7176 276.406 64.699 276.252 64.699C276.098 64.699 275.922 64.7361 275.746 64.7732C275.526 64.8289 275.306 64.866 275.064 64.866C274.822 64.866 274.58 64.8474 274.338 64.7918C274.096 64.7361 273.854 64.6433 273.634 64.4764C273.392 64.3279 273.194 64.1424 273.04 63.9012C272.798 63.5858 272.71 63.2518 272.732 62.9364C272.776 62.621 272.93 62.3056 273.216 62.0087L272.534 61.0625C272.512 61.0439 272.512 61.0068 272.512 60.9697C272.512 60.9326 272.534 60.914 272.578 60.8955L274.03 60.1348C274.052 60.1162 274.096 60.1162 274.14 60.1162C274.184 60.1162 274.206 60.1348 274.228 60.1719L274.822 60.9882C275.086 60.8584 275.35 60.747 275.614 60.6357C275.636 60.6172 275.68 60.6172 275.724 60.6357C275.768 60.6357 275.79 60.6543 275.812 60.6914L276.406 61.7304C276.428 61.7675 276.428 61.7861 276.406 61.8232C276.384 61.8603 276.362 61.8788 276.34 61.8788C275.878 62.0087 275.482 62.1571 275.152 62.3241C275.02 62.3983 274.91 62.4726 274.844 62.5468C274.778 62.621 274.734 62.7138 274.734 62.788C274.734 62.8622 274.734 62.9178 274.734 62.9549C274.756 62.9921 274.756 63.0477 274.778 63.0663C274.8 63.1034 274.844 63.1219 274.888 63.159C274.932 63.1962 274.998 63.2333 275.086 63.2518C275.174 63.2889 275.306 63.3075 275.46 63.3075C275.614 63.3075 275.79 63.2704 275.966 63.2333C276.186 63.1776 276.406 63.1405 276.648 63.1405C276.89 63.1405 277.132 63.159 277.374 63.2147C277.616 63.2704 277.858 63.3817 278.078 63.5301C278.276 63.6786 278.474 63.8641 278.628 64.0867Z" fill="white"/>
<path d="M277.594 68.1316C277.55 68.1316 277.528 68.1316 277.484 68.113C277.374 68.0945 277.264 68.0203 277.198 67.9275L276.758 67.3338C276.582 67.408 276.406 67.4822 276.23 67.5564C276.12 67.5935 276.01 67.5935 275.9 67.575C275.79 67.5379 275.702 67.4822 275.636 67.408C275.636 67.408 275.636 67.3894 275.614 67.3894L275.02 66.3504C274.954 66.2391 274.954 66.1278 274.998 66.035C275.042 65.9237 275.152 65.8495 275.284 65.8123C275.372 65.7938 275.482 65.7567 275.57 65.7196C275.68 65.6825 275.79 65.6454 275.944 65.5711C276.098 65.5155 276.23 65.4598 276.34 65.3856C276.45 65.3299 276.538 65.2743 276.582 65.2186C276.626 65.163 276.626 65.1444 276.626 65.1444C276.626 65.0888 276.626 65.0516 276.626 65.0516C276.626 65.0331 276.604 65.0145 276.604 65.0145C276.604 65.0145 276.604 64.996 276.56 64.9774C276.56 64.9774 276.516 64.9403 276.428 64.9032C276.406 64.9032 276.362 64.8847 276.208 64.8847C276.076 64.8847 275.944 64.9032 275.79 64.9589C275.548 65.0331 275.284 65.0702 275.02 65.0702C274.756 65.0702 274.492 65.0331 274.206 64.9774C273.92 64.9218 273.634 64.7919 273.37 64.6249C273.106 64.4579 272.886 64.2353 272.688 63.9755C272.424 63.6044 272.292 63.2148 272.336 62.8437C272.38 62.5283 272.512 62.2129 272.754 61.916L272.182 61.1368C272.116 61.044 272.094 60.9512 272.116 60.8585C272.138 60.7471 272.226 60.6544 272.336 60.5987L273.788 59.838C273.898 59.7823 274.03 59.7638 274.14 59.7823C274.272 59.8009 274.36 59.8751 274.426 59.9493L274.866 60.5431C275.042 60.4688 275.218 60.3946 275.416 60.3204C275.526 60.2833 275.636 60.2833 275.746 60.3019C275.878 60.339 275.988 60.4132 276.032 60.506L276.626 61.545C276.692 61.6377 276.692 61.7491 276.648 61.8604C276.604 61.9717 276.494 62.0645 276.362 62.1016C275.944 62.2315 275.57 62.3799 275.262 62.5283C275.152 62.584 275.086 62.6211 275.042 62.6767C274.998 62.7139 274.998 62.751 274.998 62.751C274.998 62.8252 274.998 62.8437 274.998 62.8623C274.998 62.8808 274.998 62.8808 275.02 62.8994C275.02 62.8994 275.02 62.918 275.042 62.918C275.042 62.918 275.086 62.9365 275.174 62.9736C275.196 62.9736 275.262 62.9922 275.394 62.9922C275.526 62.9922 275.658 62.9736 275.812 62.918C276.054 62.8623 276.318 62.8252 276.582 62.8066C276.846 62.8066 277.132 62.8252 277.396 62.8994C277.682 62.9736 277.968 63.0849 278.232 63.2519C278.496 63.4189 278.716 63.6416 278.914 63.9013C279.2 64.3095 279.332 64.6991 279.31 65.0702C279.288 65.3856 279.134 65.701 278.87 65.9979L279.42 66.7586C279.486 66.8514 279.508 66.9441 279.486 67.0555C279.464 67.1668 279.376 67.241 279.288 67.2967L277.836 68.0574C277.748 68.113 277.682 68.1316 277.594 68.1316ZM276.868 66.7029C276.978 66.7029 277.088 66.7586 277.154 66.8328L277.66 67.5193L278.782 66.9441L278.21 66.1649C278.144 66.0536 278.144 65.9237 278.254 65.8309C278.518 65.5711 278.672 65.3299 278.694 65.0702C278.716 64.8104 278.606 64.5321 278.386 64.2353C278.232 64.0312 278.078 63.8642 277.88 63.7343C277.682 63.6044 277.484 63.5117 277.286 63.4746C277.066 63.4189 276.868 63.4003 276.67 63.4003C276.472 63.4003 276.274 63.4375 276.076 63.4746C275.856 63.5302 275.658 63.5673 275.46 63.5673C275.262 63.5673 275.086 63.5488 274.954 63.4931C274.844 63.4375 274.734 63.4004 274.668 63.3447C274.602 63.289 274.536 63.2334 274.492 63.1777C274.448 63.122 274.404 63.0478 274.404 62.9736C274.382 62.8994 274.382 62.8252 274.382 62.7324C274.382 62.6025 274.448 62.4727 274.558 62.3428C274.668 62.2315 274.8 62.1387 274.976 62.0459C275.262 61.8975 275.614 61.7676 276.01 61.6377L275.592 60.9141C275.394 60.9883 275.174 61.0811 274.976 61.1739C274.822 61.2481 274.624 61.211 274.536 61.0811L274.03 60.3946L272.908 60.9698L273.502 61.7862C273.568 61.8789 273.568 62.0088 273.48 62.1016C273.238 62.3613 273.106 62.6211 273.062 62.8808C273.04 63.1406 273.106 63.4003 273.326 63.6787C273.48 63.8827 273.656 64.0497 273.854 64.1796C274.052 64.3095 274.25 64.4023 274.448 64.4394C274.668 64.495 274.866 64.5136 275.086 64.5136C275.284 64.5136 275.482 64.495 275.658 64.4394C275.878 64.3837 276.076 64.3466 276.274 64.3466C276.472 64.3466 276.648 64.3651 276.78 64.4208C276.89 64.4765 276.978 64.5136 277.044 64.5692C277.11 64.6249 277.176 64.6806 277.22 64.7362C277.264 64.7919 277.286 64.8661 277.308 64.9403C277.33 65.0145 277.33 65.0887 277.33 65.1815C277.33 65.3114 277.264 65.4413 277.154 65.5711C277.044 65.6825 276.912 65.7752 276.736 65.868C276.604 65.9422 276.45 65.9979 276.274 66.0721C276.098 66.1278 275.966 66.1834 275.856 66.2205C275.812 66.2391 275.768 66.2391 275.746 66.2576L276.164 66.9998C276.34 66.9256 276.538 66.8328 276.736 66.74C276.758 66.7215 276.824 66.7029 276.868 66.7029ZM276.186 61.5821C276.186 61.6006 276.186 61.6006 276.186 61.5821C276.186 61.6006 276.186 61.6006 276.186 61.5821Z" fill="white"/>
<path d="M275.504 73.383C272.138 73.383 267.869 71.4534 264.745 63.3454C262.149 56.5732 252.865 42.3796 240.809 41.656C240.479 41.6374 240.193 41.4333 240.105 41.155C240.017 40.8767 240.171 40.5984 240.457 40.45C241.227 40.0418 259.245 30.6535 263.909 29.6145C266.417 29.0579 269.189 29.9299 271.962 32.1378C274.536 34.1973 276.978 37.3329 279.046 41.2107C281.488 45.812 284.238 50.5618 287.78 54.087C292.202 58.4657 296.646 59.7459 301.42 58.0019C301.684 57.9091 302.014 57.9462 302.234 58.1132C302.454 58.2802 302.542 58.5399 302.454 58.7811C300.1 65.4976 281.004 72.7893 276.626 73.3274C276.23 73.3645 275.878 73.383 275.504 73.383ZM243.075 40.6355C249.147 41.7487 254.097 45.7935 257.287 49.1888C261.797 53.9572 264.833 59.4305 266.197 62.9372C268.705 69.4682 272.138 72.5295 276.362 72.0286C280.014 71.5833 296.25 65.3863 300.254 59.7088C288.572 62.4363 280.96 48.057 277.616 41.7487C273.7 34.3457 268.353 29.9856 264.305 30.8947C260.697 31.6925 247.871 38.1678 243.075 40.6355Z" fill="white"/>
<path d="M260.367 38.6315C260.081 38.6315 259.817 38.5017 259.685 38.279C259.487 37.9636 259.641 37.574 260.015 37.407C260.037 37.3884 263.249 35.9783 267.319 34.2528C267.693 34.0858 268.155 34.2157 268.354 34.5311C268.552 34.8466 268.398 35.2362 268.023 35.4032C263.975 37.1472 260.763 38.5388 260.741 38.5573C260.609 38.613 260.477 38.6315 260.367 38.6315Z" fill="white"/>
<path d="M259.751 42.862C259.509 42.862 259.289 42.7692 259.135 42.6022C258.893 42.3054 258.959 41.8972 259.311 41.6931C260.675 40.8582 265.142 38.9286 269.718 37.2216C270.114 37.0732 270.554 37.2216 270.73 37.5556C270.906 37.8895 270.73 38.2606 270.334 38.409C265.912 40.0603 261.467 41.9528 260.213 42.7321C260.081 42.8063 259.905 42.862 259.751 42.862Z" fill="white"/>
<path d="M265.56 46.8503C265.296 46.8503 265.054 46.739 264.9 46.5349C264.68 46.238 264.79 45.8298 265.142 45.6443C265.186 45.6257 269.278 43.492 272.336 42.1376C272.71 41.9706 273.172 42.1005 273.37 42.4159C273.568 42.7313 273.414 43.121 273.04 43.2879C270.048 44.6053 265.978 46.7204 265.934 46.739C265.846 46.8132 265.692 46.8503 265.56 46.8503Z" fill="white"/>
<path d="M269.123 52.0083C268.881 52.0083 268.639 51.9155 268.507 51.7485C268.265 51.4517 268.331 51.0435 268.683 50.8394C268.705 50.8208 271.522 49.1139 274.162 47.7038C274.514 47.5182 274.998 47.5925 275.218 47.9079C275.438 48.2047 275.35 48.6129 274.976 48.7984C272.358 50.19 269.608 51.8784 269.564 51.8969C269.454 51.9712 269.277 52.0083 269.123 52.0083Z" fill="white"/>
<path d="M280.476 149.046C280.058 149.046 279.706 148.767 279.706 148.415C279.706 148.378 279.706 148.285 279.684 148.174C279.222 143.517 279.75 142.366 280.696 142.051C281.928 141.643 286.328 141.55 287.208 141.531C287.208 141.531 287.208 141.531 287.23 141.531C287.648 141.531 288 141.81 288 142.162C288 142.515 287.67 142.811 287.252 142.83C285.404 142.867 282.258 142.997 281.356 143.22C281.224 143.405 280.872 144.296 281.246 148.044C281.268 148.266 281.268 148.322 281.268 148.378C281.246 148.749 280.894 149.046 280.476 149.046Z" fill="#1455FE"/>
<path d="M323.333 148.415C323.311 148.415 323.289 148.415 323.267 148.415C322.849 148.378 322.519 148.062 322.563 147.71C322.695 146.411 322.827 144.129 322.607 143.424C322.167 143.108 319.835 142.83 317.525 142.83C317.107 142.83 316.755 142.533 316.755 142.181C316.755 141.828 317.107 141.531 317.525 141.531C320.275 141.531 323.619 141.791 324.059 142.997C324.455 144.073 324.147 147.209 324.081 147.821C324.059 148.174 323.729 148.415 323.333 148.415Z" fill="#1455FE"/>
<path d="M320.517 173.852C319.329 173.852 318.229 173.722 317.855 173.667C317.437 173.611 317.151 173.277 317.217 172.925C317.283 172.572 317.679 172.331 318.097 172.386C320.385 172.683 322.497 172.535 322.717 172.201C322.827 170.772 322.717 168.101 322.717 168.063C322.695 167.711 323.025 167.396 323.465 167.396C323.883 167.396 324.257 167.655 324.257 168.026C324.257 168.138 324.367 170.791 324.257 172.294C324.235 172.665 324.015 172.999 323.641 173.259C322.959 173.722 321.705 173.852 320.517 173.852Z" fill="#1455FE"/>
<path d="M286.548 174.223C285.756 174.223 283.05 174.186 282.126 173.759C281.796 173.611 280.894 173.203 280.894 168.045C280.894 167.692 281.246 167.396 281.664 167.396C282.082 167.396 282.434 167.692 282.434 168.045C282.434 169.9 282.632 172.127 282.94 172.646C283.468 172.813 285.162 172.906 286.548 172.906C286.966 172.906 287.318 173.203 287.318 173.555C287.318 173.908 286.988 174.223 286.548 174.223Z" fill="#1455FE"/>
<path d="M293.325 157.58C291.454 157.58 289.408 157.543 288.374 157.413C288 157.358 287.362 157.283 287.208 156.782C286.812 155.539 286.768 151.235 289.034 148.823C290.486 147.283 293.963 146.912 299.397 147.691C299.529 147.71 299.639 147.728 299.683 147.728C299.969 147.747 300.211 147.877 300.343 148.099C300.431 148.248 300.651 148.6 300.629 152.552C300.607 156.523 300.387 156.801 300.277 156.949C300.035 157.265 299.881 157.488 294.821 157.562C294.359 157.58 293.853 157.58 293.325 157.58ZM288.616 156.133C290.288 156.356 297.175 156.337 298.957 156.115C299.111 154.816 299.133 150.307 299.001 148.971C292.774 148.081 290.838 149.008 290.244 149.639C288.484 151.495 288.396 154.871 288.616 156.133ZM299.639 147.747H299.661H299.639Z" fill="white"/>
<path d="M295.327 154.964H294.028C293.258 154.964 292.62 154.426 292.62 153.776V152.997C292.62 152.348 293.258 151.81 294.028 151.81H295.327C296.097 151.81 296.735 152.348 296.735 152.997V153.776C296.735 154.444 296.097 154.964 295.327 154.964Z" fill="white"/>
<path d="M295.327 155.242H294.029C293.061 155.242 292.291 154.593 292.291 153.776V152.997C292.291 152.181 293.061 151.531 294.029 151.531H295.327C296.295 151.531 297.065 152.181 297.065 152.997V153.776C297.065 154.593 296.273 155.242 295.327 155.242ZM294.029 152.106C293.435 152.106 292.951 152.515 292.951 153.016V153.795C292.951 154.296 293.435 154.704 294.029 154.704H295.327C295.921 154.704 296.405 154.296 296.405 153.795V153.016C296.405 152.515 295.921 152.106 295.327 152.106H294.029Z" fill="white"/>
<path d="M295.327 166.765H294.028C293.258 166.765 292.62 166.226 292.62 165.577V164.798C292.62 164.148 293.258 163.61 294.028 163.61H295.327C296.097 163.61 296.735 164.148 296.735 164.798V165.577C296.735 166.226 296.097 166.765 295.327 166.765Z" fill="white"/>
<path d="M295.327 167.043H294.029C293.061 167.043 292.291 166.393 292.291 165.577V164.798C292.291 163.981 293.061 163.332 294.029 163.332H295.327C296.295 163.332 297.065 163.981 297.065 164.798V165.577C297.065 166.393 296.273 167.043 295.327 167.043ZM294.029 163.889C293.435 163.889 292.951 164.297 292.951 164.798V165.577C292.951 166.078 293.435 166.486 294.029 166.486H295.327C295.921 166.486 296.405 166.078 296.405 165.577V164.798C296.405 164.297 295.921 163.889 295.327 163.889H294.029Z" fill="white"/>
<path d="M310.221 154.39H308.923C308.153 154.39 307.515 153.852 307.515 153.203V152.424C307.515 151.774 308.153 151.236 308.923 151.236H310.221C310.991 151.236 311.629 151.774 311.629 152.424V153.203C311.629 153.852 310.991 154.39 310.221 154.39Z" fill="white"/>
<path d="M310.221 154.668H308.923C307.955 154.668 307.185 154.018 307.185 153.202V152.423C307.185 151.606 307.955 150.957 308.923 150.957H310.221C311.189 150.957 311.959 151.606 311.959 152.423V153.202C311.959 154 311.167 154.668 310.221 154.668ZM308.923 151.514C308.329 151.514 307.845 151.922 307.845 152.423V153.202C307.845 153.703 308.329 154.111 308.923 154.111H310.221C310.815 154.111 311.299 153.703 311.299 153.202V152.423C311.299 151.922 310.815 151.514 310.221 151.514H308.923Z" fill="white"/>
<path d="M310.221 166.765H308.923C308.153 166.765 307.515 166.226 307.515 165.577V164.798C307.515 164.148 308.153 163.61 308.923 163.61H310.221C310.991 163.61 311.629 164.148 311.629 164.798V165.577C311.629 166.226 310.991 166.765 310.221 166.765Z" fill="white"/>
<path d="M310.221 167.043H308.923C307.955 167.043 307.185 166.393 307.185 165.577V164.798C307.185 163.981 307.955 163.332 308.923 163.332H310.221C311.189 163.332 311.959 163.981 311.959 164.798V165.577C311.959 166.393 311.167 167.043 310.221 167.043ZM308.923 163.889C308.329 163.889 307.845 164.297 307.845 164.798V165.577C307.845 166.078 308.329 166.486 308.923 166.486H310.221C310.815 166.486 311.299 166.078 311.299 165.577V164.798C311.299 164.297 310.815 163.889 310.221 163.889H308.923Z" fill="white"/>
<path d="M309.583 157.821C307.713 157.821 305.667 157.747 304.699 157.561C303.819 157.394 303.643 156.986 303.665 156.689C303.665 156.541 303.687 156.077 303.687 155.483C303.819 147.895 304.017 147.728 304.391 147.449C305.183 146.856 310.287 146.782 313.257 148.025C315.127 148.804 315.941 151.049 316.315 152.812C316.645 154.463 316.711 156.448 316.447 156.968C316.271 157.32 316.073 157.691 311.013 157.784C310.551 157.802 310.067 157.821 309.583 157.821ZM305.183 156.318C306.877 156.597 313.411 156.559 315.017 156.263C315.127 155.001 314.753 150.121 312.553 149.194C310.243 148.229 306.591 148.266 305.513 148.433C305.315 149.583 305.227 153.98 305.205 155.502C305.205 155.836 305.205 156.114 305.183 156.318Z" fill="white"/>
<path d="M297.373 172.442C294.556 172.442 289.628 171.978 288.044 168.898C286.614 166.115 287.34 161.458 287.824 160.846C288.044 160.549 288.286 160.234 292.114 160.141C294.05 160.104 296.339 160.141 297.923 160.252C299.661 160.364 300.189 160.512 300.387 160.939C300.629 161.403 300.563 164.52 300.519 166.338C300.365 171.292 300.079 171.811 299.969 171.978C299.815 172.257 299.551 172.349 299.419 172.368C299.397 172.368 298.583 172.442 297.373 172.442ZM289.1 161.644C288.836 162.553 288.33 166.208 289.452 168.379C290.904 171.199 296.889 171.255 298.649 171.125C298.935 169.566 299.111 163.202 298.979 161.644C297.329 161.403 290.552 161.31 289.1 161.644Z" fill="white"/>
<path d="M304.567 164.259H304.545C304.127 164.24 303.775 163.943 303.797 163.591C303.819 162.979 303.819 162.459 303.819 162.014C303.819 160.771 303.819 160.307 304.215 159.973C304.501 159.732 304.567 159.676 312.025 159.787C312.443 159.787 312.795 160.084 312.773 160.455C312.773 160.808 312.421 161.086 312.003 161.086C312.003 161.086 312.003 161.086 311.981 161.086C309.385 161.049 306.481 161.031 305.359 161.049C305.337 161.309 305.337 161.661 305.337 162.014C305.337 162.459 305.337 162.997 305.315 163.628C305.315 163.981 304.985 164.259 304.567 164.259Z" fill="white"/>
<path d="M311.277 171.756C310.969 171.756 310.683 171.608 310.573 171.367C310.397 171.033 310.595 170.662 310.969 170.513C313.125 169.734 315.809 168.769 315.347 160.197C315.325 159.845 315.655 159.529 316.073 159.511C316.491 159.492 316.865 159.77 316.887 160.123C317.371 168.862 314.643 170.587 311.585 171.701C311.475 171.738 311.387 171.756 311.277 171.756Z" fill="white"/>
<path d="M306.041 172.164C304.677 172.164 304.105 172.052 303.863 171.607C303.709 171.329 303.687 170.865 303.665 168.583C303.665 168.101 303.643 167.562 303.643 167.006C303.643 166.653 303.973 166.356 304.391 166.338C304.809 166.338 305.161 166.616 305.183 166.969C305.183 167.525 305.205 168.063 305.205 168.564C305.227 169.455 305.227 170.364 305.271 170.846C305.821 170.884 306.855 170.865 307.361 170.846C307.647 170.846 307.889 170.828 308.065 170.828C308.483 170.828 308.835 171.125 308.835 171.477C308.835 171.83 308.483 172.127 308.065 172.127C307.911 172.127 307.691 172.127 307.405 172.145C306.877 172.164 306.415 172.164 306.041 172.164Z" fill="white"/>
<path d="M169.042 104.627C169.02 104.627 168.998 104.627 168.954 104.627C168.536 104.59 168.228 104.275 168.272 103.922C169.416 94.6637 173.486 80.5071 174.366 77.4828C173.112 77.1117 170.274 76.2768 167.458 75.2934C160.418 72.8258 159.538 71.6383 159.626 70.7292C159.692 70.1169 159.78 69.2634 173.552 64.7549C180.153 62.5841 186.819 60.5988 186.885 60.5802C187.281 60.4689 187.721 60.6359 187.875 60.9699C188.007 61.3038 187.809 61.6749 187.413 61.8048C175.51 65.3486 162.706 69.6345 161.21 70.8962C161.408 71.193 162.53 72.1764 168.36 74.1988C171.924 75.4419 175.466 76.4252 175.51 76.4438C175.885 76.5551 176.104 76.8891 176.016 77.223C175.972 77.39 171.066 93.7916 169.79 104.07C169.768 104.386 169.438 104.627 169.042 104.627Z" fill="#090F20"/>
<path d="M185.301 84.3844C184.883 84.3844 184.531 84.0875 184.531 83.735C184.531 83.3825 184.883 83.0856 185.301 83.0856C189.063 83.0856 191.263 81.6755 191.461 79.1151C191.483 78.7626 191.857 78.4843 192.275 78.5028C192.693 78.5214 193.023 78.8368 193.001 79.1893C192.737 82.4362 189.855 84.3844 185.301 84.3844Z" fill="#090F20"/>
<path d="M193.617 110.918C193.595 110.918 193.551 110.918 193.529 110.918C193.111 110.881 192.803 110.565 192.847 110.194C193.419 105.741 194.233 100.398 195.267 94.3121C196.609 86.3339 197.841 79.8958 197.841 79.8215C197.907 79.5061 198.237 79.2649 198.611 79.2835C201.141 79.3206 203.341 79.2278 205.145 78.9866C208.908 78.4857 210.14 77.5394 210.536 77.0199C210.8 76.6674 210.866 76.2778 210.712 75.8696C210.228 74.5151 204.903 73.3277 197.775 73.7173C197.357 73.7359 196.983 73.4761 196.961 73.105C196.939 72.7525 197.247 72.4371 197.687 72.4186C204.023 72.0846 211.262 72.901 212.208 75.4985C212.494 76.2778 212.362 77.0385 211.856 77.725C210.91 78.9866 208.754 79.8586 205.409 80.2854C203.671 80.508 201.625 80.6194 199.271 80.6008C198.941 82.3263 197.907 87.8925 196.807 94.5162C195.795 100.583 194.981 105.908 194.409 110.343C194.343 110.677 194.013 110.918 193.617 110.918Z" fill="#090F20"/>
<path d="M199.161 77.0375C198.787 77.0375 198.457 76.7963 198.391 76.4809C198.325 76.1284 198.633 75.7944 199.051 75.7573C202.153 75.4048 205.63 75.5347 205.784 75.5532C206.202 75.5718 206.532 75.8687 206.51 76.2397C206.488 76.5923 206.114 76.8706 205.696 76.852C205.652 76.852 202.219 76.7036 199.249 77.0561C199.227 77.0375 199.205 77.0375 199.161 77.0375Z" fill="#090F20"/>
<path d="M197.995 62.4352C197.995 62.4352 203.429 60.3201 207.478 64.1237C212.186 68.5951 207.104 73.3449 206.994 73.4933C204.001 72.9924 200.657 72.9738 200.657 72.9738C200.987 77.501 198.787 78.206 197.841 78.0947C196.873 77.9834 197.225 76.3877 197.225 76.3877C183.739 72.4543 187.941 62.7692 187.941 62.7692C185.389 63.6598 180.637 63.1774 180.527 63.2145C182.067 56.5722 194.519 57.37 197.995 62.4352Z" fill="#090F20"/>
<path d="M198.017 78.7625C197.907 78.7625 197.819 78.7625 197.709 78.744C197.313 78.6883 196.983 78.5213 196.763 78.2616C196.411 77.8534 196.367 77.2782 196.389 76.8515C192.165 75.5156 189.239 73.4747 187.721 70.7658C186.159 68.0013 186.467 65.2368 186.841 63.7339C184.619 64.1235 181.891 63.9565 180.857 63.9009C180.725 63.9009 180.615 63.8823 180.571 63.8823C180.373 63.9009 180.175 63.8452 180.021 63.7339C179.801 63.5855 179.713 63.3443 179.757 63.1216C180.417 60.3571 182.881 58.4646 186.533 57.9451C191.087 57.2957 196.015 58.8913 198.303 61.6559C199.953 61.2106 204.529 60.3757 208.05 63.7153C212.582 68.0198 208.886 72.5655 207.632 73.8643L207.587 73.9014C207.411 74.1055 207.103 74.1983 206.817 74.1612C204.793 73.8272 202.593 73.7159 201.427 73.6602C201.471 75.7753 200.943 77.2782 199.843 78.1317C199.337 78.5213 198.655 78.7625 198.017 78.7625ZM197.995 77.4637C198.127 77.4637 198.457 77.4452 198.831 77.1669C199.315 76.7958 200.085 75.7568 199.887 73.0294C199.865 72.8438 199.953 72.6768 200.107 72.547C200.261 72.4171 200.459 72.3429 200.679 72.3429C200.811 72.3429 203.781 72.38 206.685 72.8067C208.072 71.2668 210.36 67.8343 206.927 64.5688C203.319 61.1549 198.391 63.0103 198.347 63.0289C197.995 63.1773 197.555 63.0474 197.357 62.7691C195.575 60.1901 190.955 58.6316 186.819 59.2068C185.213 59.4294 182.507 60.1716 181.517 62.6207C182.991 62.6949 185.917 62.7691 187.655 62.1754C187.941 62.0826 188.271 62.1383 188.491 62.3052C188.711 62.4908 188.777 62.7505 188.689 62.9917C188.667 63.0288 187.149 66.6654 189.151 70.2092C190.559 72.6954 193.375 74.5693 197.511 75.7753C197.863 75.8867 198.083 76.1835 198.017 76.5175C197.907 76.87 197.907 77.2968 197.995 77.4637Z" fill="#090F20"/>
<path d="M206.994 93.6439C203.605 95.5364 199.359 96.26 196.037 94.4046C197.401 86.3337 198.611 79.9326 198.611 79.9326C201.317 79.9697 203.517 79.8584 205.277 79.6172C203.253 84.7937 203.561 89.3208 205.497 89.562C207.632 89.8404 208.446 89.2466 209.48 88.6158C210.514 88.0221 211.306 91.2133 206.994 93.6439Z" fill="#090F20"/>
<path d="M200.438 96.148C198.7 96.148 197.05 95.7583 195.619 94.9605C195.377 94.8306 195.245 94.5709 195.289 94.3297C196.631 86.3515 197.864 79.9134 197.864 79.8391C197.93 79.5237 198.26 79.2825 198.634 79.3011C201.164 79.3382 203.364 79.2454 205.168 79.0042C205.432 78.9671 205.696 79.0599 205.872 79.2269C206.048 79.3938 206.092 79.6351 206.026 79.8577C204.398 84.0323 204.398 87.5204 205.234 88.6708C205.366 88.8378 205.498 88.9491 205.63 88.9676C207.302 89.1903 207.962 88.8006 208.842 88.2626L209.062 88.1327C209.436 87.9101 209.854 87.873 210.25 88.0214C210.734 88.2069 211.042 88.6893 211.108 89.3202C211.218 90.5633 210.316 92.6042 207.456 94.2184C205.102 95.4986 202.682 96.148 200.438 96.148ZM196.873 94.0885C199.58 95.3873 203.166 95.0347 206.576 93.1237C208.842 91.862 209.37 90.4891 209.48 89.9695C209.524 89.7469 209.546 89.5614 209.524 89.4315C208.578 90.0066 207.544 90.5262 205.366 90.2479C204.948 90.1922 204.376 89.9881 203.892 89.3573C202.748 87.7987 202.88 84.2178 204.178 80.4329C202.726 80.5627 201.076 80.637 199.25 80.6184C198.942 82.2882 197.952 87.6503 196.873 94.0885Z" fill="#090F20"/>
<path d="M23.2441 46.2014C20.692 46.2014 17.876 46.0715 14.9279 45.9231C12.9258 45.8303 10.8358 45.7376 8.78969 45.6819C8.37168 45.6634 8.04167 45.3665 8.04167 45.014C8.06367 44.6614 8.41568 44.3646 8.83369 44.3831C10.9018 44.4388 12.9918 44.5316 14.9939 44.6429C23.7061 45.0511 31.9564 45.4407 32.7924 42.1752C32.9024 41.7485 33.0344 41.2104 33.1884 40.5982C35.6965 30.5791 38.4686 20.1147 39.9646 18.3521C42.3847 15.4763 52.901 17.8326 54.089 18.1109C54.507 18.2037 54.7491 18.5562 54.617 18.9087C54.507 19.2612 54.089 19.4653 53.671 19.354C49.5789 18.4078 42.5607 17.4801 41.1967 19.1128C39.7006 20.894 36.0485 35.4031 34.6845 40.8765C34.5304 41.4887 34.3984 42.0268 34.2884 42.4535C33.5404 45.4778 29.1623 46.2014 23.2441 46.2014Z" fill="white"/>
<path d="M15.89 49.4874C17.1186 48.4513 17.1186 46.7714 15.89 45.7352C14.6614 44.6991 12.6694 44.6991 11.4408 45.7353C10.2122 46.7714 10.2122 48.4513 11.4408 49.4874C12.6694 50.5235 14.6614 50.5235 15.89 49.4874Z" fill="white"/>
<path d="M13.6745 50.5622C11.7605 50.5622 10.1984 49.2449 10.1984 47.6307C10.1984 46.0165 11.7605 44.6992 13.6745 44.6992C15.5886 44.6992 17.1506 46.0165 17.1506 47.6307C17.1506 49.2449 15.5886 50.5622 13.6745 50.5622ZM13.6745 45.2373C12.1125 45.2373 10.8584 46.3134 10.8584 47.6122C10.8584 48.9295 12.1345 49.9871 13.6745 49.9871C15.2366 49.9871 16.4906 48.9109 16.4906 47.6122C16.4906 46.3134 15.2366 45.2373 13.6745 45.2373Z" fill="white"/>
<path d="M27.4239 50.5242C29.1615 50.5242 30.57 49.3363 30.57 47.871C30.57 46.4056 29.1615 45.2178 27.4239 45.2178C25.6864 45.2178 24.2778 46.4056 24.2778 47.871C24.2778 49.3363 25.6864 50.5242 27.4239 50.5242Z" fill="white"/>
<path d="M27.4242 50.8025C25.5101 50.8025 23.9481 49.4851 23.9481 47.871C23.9481 46.2568 25.5101 44.9395 27.4242 44.9395C29.3382 44.9395 30.9003 46.2568 30.9003 47.871C30.9003 49.4851 29.3382 50.8025 27.4242 50.8025ZM27.4242 45.4775C25.8621 45.4775 24.6081 46.5536 24.6081 47.8524C24.6081 49.1697 25.8841 50.2273 27.4242 50.2273C28.9642 50.2273 30.2402 49.1512 30.2402 47.8524C30.2402 46.5536 28.9642 45.4775 27.4242 45.4775Z" fill="white"/>
<path d="M8.19569 38.2792C7.90968 38.2792 7.62368 38.2792 7.35967 38.2792C6.94166 38.2792 6.58965 37.9824 6.58965 37.6298C6.58965 37.2773 6.94166 36.9805 7.35967 36.9805C14.3999 37.0176 34.6185 36.5908 34.8165 36.5723C35.2345 36.5723 35.5865 36.8506 35.6085 37.2031C35.6085 37.5556 35.2785 37.8525 34.8605 37.871C34.6625 37.8896 15.8959 38.2792 8.19569 38.2792Z" fill="white"/>
<path d="M38.5126 24.5311C37.2145 24.5311 6.94163 24.3456 1.15546 23.8817C0.737445 23.8446 0.42944 23.5292 0.451441 23.1767C0.495442 22.8242 0.869451 22.5644 1.28746 22.583C6.98563 23.0468 38.1825 23.2324 38.5126 23.2324C38.9306 23.2324 39.2826 23.5292 39.2826 23.8817C39.2826 24.2343 38.9526 24.5311 38.5126 24.5311Z" fill="white"/>
<path d="M8.90015 38.0745C8.68014 38.0745 8.43813 37.9817 8.30613 37.8333C6.56807 35.9965 2.34395 27.9441 2.34395 23.3427C2.34395 22.9902 2.69596 22.6934 3.11397 22.6934C3.53198 22.6934 3.88399 22.9902 3.88399 23.3427C3.88399 27.5359 7.97612 35.3842 9.51616 37.0355C9.78017 37.3138 9.71417 37.722 9.38416 37.9446C9.25215 38.0374 9.07615 38.0745 8.90015 38.0745Z" fill="white"/>
<path d="M20.9561 31.1347C16.292 31.1347 10.8798 31.1347 5.11568 31.1347C4.69767 31.1347 4.34566 30.8378 4.34566 30.4853C4.34566 30.1328 4.69767 29.8359 5.11568 29.8359C22.2982 29.8545 36.4666 29.8359 36.6206 29.8359C37.0386 29.8359 37.3906 30.1328 37.3906 30.4853C37.3906 30.8378 37.0386 31.1347 36.6206 31.1347C36.5106 31.1347 30.2184 31.1347 20.9561 31.1347Z" fill="white"/>
<path d="M15.6101 38.0744C15.258 38.0744 14.928 37.8518 14.862 37.5549C13.828 32.9164 14.378 23.992 14.4 23.6024C14.422 23.2499 14.774 22.9716 15.214 22.9901C15.6321 23.0087 15.9621 23.3241 15.9401 23.6766C15.9401 23.7694 15.368 32.8237 16.3801 37.3137C16.4681 37.6662 16.1821 38.0002 15.7641 38.0744C15.6981 38.0744 15.6541 38.0744 15.6101 38.0744Z" fill="white"/>
<path d="M26.7204 37.87C26.3244 37.87 25.9723 37.6103 25.9503 37.2763C25.9503 37.2207 25.4223 30.9124 26.3904 23.7135C26.4344 23.3609 26.8304 23.1012 27.2484 23.1383C27.6664 23.1754 27.9744 23.5094 27.9304 23.8619C26.9624 30.9309 27.4904 37.1279 27.4904 37.1836C27.5124 37.5361 27.2044 37.8515 26.7864 37.87C26.7644 37.87 26.7424 37.87 26.7204 37.87Z" fill="white"/>
<path d="M212.89 198.881C212.428 198.881 211.988 198.844 211.592 198.789C211.174 198.733 210.888 198.399 210.954 198.046C211.02 197.694 211.416 197.453 211.834 197.508C214.54 197.861 220.392 197.044 229.39 187.452C246.419 169.306 251.325 158.953 248.091 147.877C244.615 135.965 228.4 127.913 223.516 125.724C220.942 124.573 215.618 121.846 209.964 118.933C203.187 115.463 194.783 111.159 193.573 110.899C193.331 110.918 192.847 111.085 192.319 111.289C190.229 112.049 186.313 113.478 179.295 112.012C172.628 110.639 170.956 107.856 169.856 106.001C169.438 105.296 169.108 104.758 168.646 104.516C166.798 103.57 149.132 102.327 144.93 102.253H144.49C137.581 102.142 131.091 101.696 130.387 99.2101C130.013 97.8556 129.067 96.6682 124.777 97.2248C123.039 97.4475 121.873 97.2805 121.103 96.6868C120.223 96.0003 120.179 94.9056 120.267 93.9222C120.311 93.514 120.421 92.2524 117.957 92.0668L117.825 92.0483C115.405 91.8813 114.679 91.1392 114.547 86.6677C114.437 83.2723 104.998 75.8137 100.466 72.2328C99.0363 71.101 98.0023 70.2846 97.5403 69.8393C96.1542 68.4849 89.268 66.9449 85.1319 66.4811C84.7139 66.4254 84.4059 66.11 84.4719 65.7575C84.5379 65.405 84.9119 65.1452 85.3299 65.2009C88.674 65.572 96.7042 67.0563 98.7063 69.0044C99.1023 69.3941 100.18 70.2475 101.522 71.3051C108.497 76.8156 115.977 83.0126 116.087 86.6491C116.153 88.69 116.351 89.8775 116.703 90.3785C116.901 90.6568 117.099 90.7124 117.957 90.7681L118.089 90.7866C120.575 90.9722 121.961 92.1782 121.807 94.0336C121.719 94.9798 121.829 95.4993 122.159 95.7405C122.533 96.0374 123.347 96.093 124.557 95.9446C126.119 95.7405 130.849 95.1468 131.905 98.9132C131.971 99.173 132.543 100.026 136.745 100.527C139.474 100.861 142.642 100.917 144.556 100.936H144.996C147.636 100.973 166.974 102.104 169.482 103.385C170.318 103.811 170.758 104.535 171.264 105.389C172.298 107.114 173.729 109.489 179.691 110.713C186.225 112.068 189.679 110.806 191.747 110.046C192.539 109.767 193.111 109.545 193.661 109.563C194.629 109.582 198.567 111.53 210.8 117.782C216.432 120.677 221.756 123.404 224.286 124.536C229.324 126.781 246.001 135.093 249.631 147.524C252.997 159.046 248.025 169.696 230.644 188.213C222.57 196.822 216.696 198.881 212.89 198.881Z" fill="#090F20"/>
<path d="M199.426 184.743C199.095 184.743 198.787 184.557 198.677 184.279C197.159 179.789 197.489 178.75 198.897 176.653C199.448 175.855 201.384 173.907 203.87 171.421C208.05 167.228 214.364 160.92 215.178 158.6C216.366 155.224 214.76 150.4 195.267 138.117C194.937 137.894 194.849 137.505 195.113 137.208C195.377 136.929 195.839 136.855 196.191 137.078C215.31 149.119 218.192 154.537 216.652 158.953C215.75 161.513 209.832 167.469 205.058 172.237C202.726 174.575 200.724 176.579 200.262 177.266C199.052 179.047 198.787 179.733 200.196 183.889C200.306 184.242 200.086 184.594 199.668 184.687C199.558 184.743 199.492 184.743 199.426 184.743Z" fill="#090F20"/>
<path d="M141.41 133.98C141.388 133.98 141.344 133.98 141.322 133.98C137.603 133.59 104.647 129.842 93.4702 121.623C80.9958 112.439 68.4114 86.1296 68.3014 85.8699C67.0694 83.2167 66.9154 81.0459 67.6854 76.964C67.7514 76.6115 68.1474 76.3703 68.5654 76.426C68.9835 76.4816 69.2695 76.8156 69.2035 77.1681C68.4774 81.0273 68.5874 82.9569 69.7315 85.406C69.8415 85.6658 82.2718 111.66 94.4822 120.658C105.307 128.636 137.845 132.31 141.52 132.7C141.938 132.737 142.246 133.071 142.18 133.423C142.136 133.739 141.784 133.98 141.41 133.98Z" fill="#090F20"/>
<path d="M133.093 146.93C132.961 146.93 132.807 146.893 132.697 146.837C132.345 146.652 132.213 146.244 132.433 145.947C134.105 143.646 142.488 131.827 144.556 124.461C144.644 124.109 145.062 123.886 145.48 123.979C145.898 124.053 146.14 124.406 146.052 124.758C143.94 132.328 135.425 144.314 133.753 146.633C133.599 146.819 133.335 146.93 133.093 146.93Z" fill="#090F20"/>
<path d="M206.949 201.849C206.443 201.849 205.387 201.849 199.667 196.042C197.863 194.205 194.255 190.364 194.079 189.789C193.463 187.804 197.621 184.557 198.919 183.611C199.095 183.481 199.315 183.425 199.535 183.462C199.755 183.481 199.953 183.592 200.063 183.741C202.791 187.229 210.294 196.543 212.164 197.712C212.34 197.823 212.45 197.972 212.472 198.157C212.494 198.343 212.428 198.51 212.296 198.64C211.768 199.178 209.04 201.849 206.949 201.849ZM195.553 189.4C195.861 189.864 198.149 192.443 200.833 195.188C205.519 199.957 206.773 200.495 206.971 200.551C207.874 200.513 209.48 199.326 210.624 198.287C207.896 195.912 201.273 187.637 199.271 185.095C197.247 186.672 195.421 188.639 195.553 189.4Z" fill="#090F20"/>
<path d="M180.505 216.545C179.933 216.545 179.471 216.396 179.163 216.099C178.723 215.691 178.635 215.097 178.943 214.3C177.799 214.856 176.611 215.246 175.841 215.005C175.379 214.856 175.093 214.541 174.983 214.096C174.652 212.5 176.523 210.737 178.525 208.882C179.823 207.657 181.165 206.396 181.627 205.394C182.331 203.798 182.507 202.611 182.507 202.017C182.463 202.036 182.419 202.054 182.375 202.054C179.625 202.945 176.567 203.854 175.004 203.186C174.542 202.982 174.234 202.666 174.102 202.258C173.618 200.737 176.897 198.919 183.761 195.245C187.413 193.297 191.571 191.089 194.365 189.104C194.695 188.881 195.179 188.899 195.443 189.178C195.707 189.456 195.685 189.864 195.355 190.087C192.473 192.128 188.271 194.373 184.575 196.34C182.155 197.638 179.867 198.844 178.173 199.883C175.907 201.275 175.621 201.794 175.599 201.924C175.621 201.961 175.643 201.98 175.709 202.017C176.809 202.481 180.593 201.238 181.847 200.83C182.551 200.607 182.749 200.533 182.925 200.533C183.233 200.514 183.541 200.625 183.739 200.848C184.443 201.627 183.893 203.984 183.079 205.839C182.529 207.082 181.077 208.437 179.691 209.735C178.151 211.164 176.435 212.797 176.501 213.78C177.139 213.724 178.987 212.834 180.549 211.776C180.835 211.572 181.275 211.591 181.539 211.795C181.825 212.018 181.869 212.37 181.671 212.63C180.241 214.485 180.307 215.097 180.329 215.209C180.483 215.246 181.165 215.264 182.573 214.671C182.881 214.541 183.277 214.597 183.497 214.819C183.607 214.93 183.805 215.079 184.245 215.097C186.159 215.153 189.965 212.574 191.901 210.941C192.187 210.7 192.627 210.682 192.935 210.886C193.243 211.09 193.309 211.461 193.089 211.739C192.495 212.537 191.681 213.966 191.835 214.541V214.559C192.539 214.355 194.673 212.964 198.149 209.773C201.471 206.711 204.529 203.353 206.311 200.83C206.531 200.514 206.993 200.421 207.367 200.607C207.741 200.792 207.851 201.182 207.631 201.498C205.717 204.206 202.351 207.88 198.809 211.09C192.759 216.582 191.615 216.025 191.131 215.784C190.735 215.58 190.449 215.264 190.339 214.875C190.251 214.559 190.273 214.225 190.339 213.854C188.491 215.097 186.049 216.452 184.179 216.415C183.651 216.396 183.189 216.266 182.793 216.044C181.891 216.378 181.121 216.545 180.505 216.545Z" fill="#090F20"/>
<path d="M181.011 212.945C180.791 212.945 180.571 212.87 180.417 212.722C180.131 212.444 180.175 212.035 180.505 211.813C183.629 209.549 186.841 206.506 187.391 205.634C187.589 205.319 188.051 205.189 188.425 205.375C188.799 205.542 188.953 205.931 188.733 206.247C188.029 207.341 184.641 210.514 181.473 212.796C181.363 212.907 181.187 212.945 181.011 212.945Z" fill="#090F20"/>
<path d="M182.903 215.932C182.661 215.932 182.419 215.839 182.265 215.654C182.023 215.357 182.111 214.949 182.463 214.744C186.533 212.388 190.669 207.991 190.713 207.954C190.977 207.675 191.461 207.62 191.791 207.842C192.121 208.065 192.187 208.473 191.923 208.752C191.747 208.937 187.589 213.353 183.343 215.802C183.211 215.895 183.057 215.932 182.903 215.932Z" fill="#090F20"/>
<path d="M192.407 212.072C192.231 212.072 192.055 212.016 191.901 211.905C191.571 211.664 191.549 211.256 191.835 210.996C192.297 210.532 192.825 209.994 193.067 209.716C193.221 209.549 193.705 209.029 194.299 209.4C194.541 209.549 194.783 209.92 194.453 210.328C194.431 210.365 194.387 210.402 194.343 210.421C194.321 210.439 194.299 210.458 194.277 210.495C194.013 210.773 193.507 211.348 193.001 211.831C192.847 211.998 192.627 212.072 192.407 212.072Z" fill="#090F20"/>
<path d="M105.461 185.114C105.064 185.114 104.734 184.854 104.69 184.52C104.536 183.036 103.788 175.095 103.15 165.206C102.776 159.25 102.644 155.131 104.382 152.107C106.275 148.786 110.301 147.116 117.429 146.708C122.995 146.374 133.643 145.594 145.986 144.685C164.818 143.294 188.249 141.55 201.669 140.882C202.087 140.863 202.461 141.141 202.483 141.494C202.505 141.847 202.175 142.162 201.757 142.181C188.359 142.848 164.95 144.574 146.118 145.984C133.775 146.893 123.127 147.691 117.539 148.006C111.027 148.396 107.419 149.825 105.791 152.682C104.228 155.409 104.36 159.398 104.712 165.132C105.351 175.002 106.099 182.925 106.231 184.409C106.275 184.762 105.945 185.077 105.527 185.114C105.505 185.114 105.483 185.114 105.461 185.114Z" fill="#090F20"/>
<path d="M107.067 211.924C103.811 211.924 101.875 211.256 101.039 209.921C98.1125 205.134 98.5525 191.738 99.6525 187.545C100.819 183.092 104.977 183.685 108.013 184.112C108.255 184.149 108.475 184.186 108.717 184.205C111.709 184.613 125.745 182.535 131.091 181.403C134.216 180.735 136.966 180.272 138.88 181.366C140.2 182.108 140.97 183.481 141.344 185.671C141.916 189.177 142.444 194.836 142.862 201.998C143.06 205.579 140.442 206.321 132.851 207.546C131.025 207.843 128.561 208.381 125.723 209.011C120.993 210.051 115.625 211.219 111.071 211.739C109.531 211.85 108.211 211.924 107.067 211.924ZM101.149 187.804C100.005 192.183 99.8725 205.171 102.403 209.308C102.931 210.162 104.823 211.052 110.829 210.384C115.295 209.883 120.619 208.733 125.305 207.694C128.187 207.063 130.673 206.525 132.543 206.21C140.64 204.911 141.432 204.262 141.3 202.017C140.882 194.892 140.376 189.289 139.804 185.801C139.518 184.038 138.924 182.925 138.022 182.405C136.768 181.682 134.744 181.923 131.465 182.628C126.537 183.685 111.885 185.912 108.475 185.467C108.233 185.43 107.991 185.392 107.771 185.374C104.163 184.873 101.941 184.78 101.149 187.804Z" fill="#090F20"/>
<path d="M129.595 236.304C112.787 236.304 109.663 232.204 109.047 228.697C108.497 225.636 107.463 218.511 106.979 211.312C106.957 210.959 107.287 210.644 107.705 210.626C108.123 210.607 108.497 210.885 108.519 211.238C109.003 218.381 110.037 225.45 110.587 228.493C110.895 230.256 111.929 232.463 117.275 233.818C123.941 235.506 135.557 235.376 151.794 233.391C168.096 231.406 189.283 228.549 208.006 226.025C227.74 223.372 244.769 221.071 250.643 220.533C261.533 219.531 267.649 218.4 266.527 206.711C265.427 195.337 260.741 154.463 259.333 145.761C258.013 137.653 254.625 136.911 241.843 137.505C241.425 137.523 241.051 137.245 241.029 136.893C241.007 136.54 241.337 136.225 241.755 136.206C248.531 135.891 252.755 135.965 255.659 137.227C258.563 138.507 260.081 140.919 260.829 145.576C262.259 154.296 266.945 195.207 268.045 206.599C269.255 219.216 262.347 220.774 250.797 221.832C244.967 222.37 227.938 224.671 208.226 227.324C189.525 229.847 168.316 232.705 151.992 234.69C142.642 235.822 135.337 236.304 129.595 236.304Z" fill="#090F20"/>
<path d="M129.397 200.291C126.229 200.291 123.655 198.12 123.655 195.448C123.655 192.776 126.229 190.605 129.397 190.605C132.565 190.605 135.139 192.776 135.139 195.448C135.139 198.12 132.565 200.291 129.397 200.291ZM129.397 191.904C127.087 191.904 125.195 193.5 125.195 195.448C125.195 197.396 127.087 198.992 129.397 198.992C131.707 198.992 133.599 197.396 133.599 195.448C133.599 193.5 131.707 191.904 129.397 191.904Z" fill="#090F20"/>
<path d="M185.301 189.678C182.133 189.678 179.559 187.507 179.559 184.836C179.559 182.164 182.133 179.993 185.301 179.993C188.469 179.993 191.043 182.164 191.043 184.836C191.043 187.507 188.469 189.678 185.301 189.678ZM185.301 181.292C182.991 181.292 181.099 182.888 181.099 184.836C181.099 186.784 182.991 188.379 185.301 188.379C187.611 188.379 189.503 186.784 189.503 184.836C189.503 182.888 187.611 181.292 185.301 181.292Z" fill="#090F20"/>
<path d="M177.095 180.476C177.007 180.476 176.897 180.457 176.809 180.42C176.413 180.29 176.215 179.901 176.391 179.567C177.271 177.73 179.713 176.301 182.925 175.726C186.027 175.17 190.339 175.392 193.155 177.674C193.463 177.916 193.463 178.342 193.177 178.583C192.891 178.843 192.385 178.843 192.099 178.602C190.141 177.006 186.665 176.376 183.255 176.988C180.549 177.47 178.525 178.621 177.821 180.049C177.689 180.327 177.403 180.476 177.095 180.476Z" fill="#090F20"/>
<path d="M174.785 175.058C174.697 175.058 174.609 175.04 174.521 175.021C174.125 174.891 173.927 174.52 174.059 174.186C175.137 171.774 178.151 169.919 182.133 169.214C186.731 168.416 191.263 169.399 193.969 171.774C194.255 172.034 194.255 172.442 193.947 172.684C193.639 172.925 193.155 172.925 192.869 172.665C190.075 170.216 185.653 169.919 182.463 170.476C179.053 171.069 176.391 172.665 175.511 174.613C175.401 174.891 175.115 175.058 174.785 175.058Z" fill="#090F20"/>
<path d="M170.055 170.512C169.945 170.512 169.835 170.493 169.747 170.456C169.351 170.308 169.175 169.918 169.351 169.603C170.715 167.005 174.367 164.983 179.339 164.055C185.873 162.849 192.627 163.925 196.521 166.82C196.851 167.061 196.873 167.469 196.587 167.729C196.301 168.007 195.817 168.026 195.509 167.785C191.967 165.168 185.741 164.185 179.669 165.317C175.247 166.133 171.903 167.933 170.759 170.122C170.627 170.364 170.341 170.512 170.055 170.512Z" fill="#090F20"/>
<path d="M68.3016 77.9283C68.1256 77.9283 67.9276 77.8912 67.7296 77.7798C66.4975 77.2047 62.5594 72.7888 63.3294 70.785C64.5835 67.4824 75.8038 61.4339 81.788 60.8402C82.294 60.7845 83.086 60.97 84.516 62.8069C85.2201 63.6975 85.9681 64.8664 86.0781 65.5157C86.2101 66.1837 85.7041 66.462 85.3741 66.5176C83.834 66.796 71.4257 75.238 68.9836 77.6685C68.8296 77.8169 68.5876 77.9283 68.3016 77.9283ZM81.854 62.1575C76.0898 62.7883 65.7715 68.5957 64.7815 71.2118C64.3855 72.2693 67.0035 75.6276 68.1916 76.4996C70.8536 74.1618 81.2379 66.7959 84.472 65.4601C84.076 64.5324 82.514 62.4544 81.854 62.1575Z" fill="#090F20"/>
<path d="M62.7354 66.6841C62.6034 66.6841 62.4714 66.647 62.3394 66.5913C60.2053 65.5523 58.9073 63.1217 59.0173 60.3943C59.0833 58.8729 59.5673 57.5556 60.4253 56.5537C57.1252 56.7392 51.9111 56.6835 51.185 54.4014C50.239 51.4328 56.5752 49.9671 62.7134 48.5384C63.1094 48.4456 63.5054 48.3529 63.8794 48.2601C62.5154 44.3638 60.6893 40.115 59.8753 39.6326C59.5893 39.447 59.1053 39.2244 58.5552 38.9461C56.2232 37.7586 52.3071 35.7919 51.8231 33.1944C51.515 31.506 52.0651 30.0959 53.2971 29.4094C54.2651 28.8899 55.4752 28.9084 56.4872 29.4651C56.9932 29.7434 58.2252 30.3371 59.6773 31.0421C65.6835 33.9551 68.6315 35.458 69.1816 36.2001C69.9516 37.2391 79.9839 58.9842 81.1059 61.4704C81.2599 61.8044 81.0619 62.1755 80.6659 62.3054C80.2699 62.4352 79.8299 62.2682 79.6759 61.9343C75.2537 52.3234 68.4555 37.703 67.8835 36.8866C67.3335 36.2558 61.6573 33.4912 58.9293 32.1739C57.4112 31.4318 56.2012 30.8566 55.6512 30.5597C55.1451 30.2814 54.5731 30.2629 54.1331 30.5041C53.4291 30.8937 53.1211 31.8214 53.3411 32.9903C53.7151 34.9941 57.2352 36.7753 59.3473 37.8328C59.9193 38.1297 60.4253 38.3709 60.7773 38.5935C62.4494 39.614 64.8694 46.4789 65.5735 48.557C65.6395 48.7239 65.5955 48.9095 65.5075 49.0579C65.3975 49.2064 65.2434 49.3177 65.0454 49.3733C64.4294 49.5218 63.7914 49.6702 63.1094 49.8186C58.7313 50.8391 52.1091 52.3605 52.6591 54.086C53.0991 55.4961 58.8633 55.5147 62.6034 55.0879C62.9774 55.0508 63.3294 55.2363 63.4394 55.5332C63.5494 55.8301 63.3734 56.164 63.0434 56.3125C61.5693 56.9247 60.6233 58.4833 60.5353 60.45C60.4473 62.6579 61.4593 64.6803 63.0874 65.4781C63.4614 65.6636 63.5714 66.0532 63.3734 66.3687C63.2634 66.5727 62.9994 66.6841 62.7354 66.6841Z" fill="#090F20"/>
<path d="M64.0554 71.639C64.0114 71.639 63.9674 71.639 63.9234 71.6204C62.2514 71.3792 58.9953 69.8392 56.2892 67.4829C53.8911 65.3863 51.0311 61.8982 51.0971 57.2041C51.0971 56.8515 51.4491 56.5547 51.8671 56.5547C52.2851 56.5547 52.6371 56.8515 52.6371 57.2041C52.5711 61.4529 55.1892 64.6442 57.3892 66.5738C60.0293 68.8744 62.9334 70.1547 64.1654 70.3402C64.5835 70.3959 64.8695 70.7298 64.8035 71.0824C64.7375 71.4163 64.4075 71.639 64.0554 71.639Z" fill="#090F20"/>
<path d="M58.0932 51.0246C57.8071 51.0246 57.5431 50.8947 57.3891 50.6535C55.7391 47.7962 54.705 44.104 56.6851 42.2671C57.5431 41.4879 59.2592 40.8014 62.7133 41.9332C63.1093 42.0631 63.3073 42.4341 63.1533 42.7681C62.9993 43.1021 62.5593 43.2691 62.1633 43.1392C60.7112 42.6568 58.7752 42.2671 57.8291 43.1392C56.6631 44.2153 57.0371 47.0726 58.7752 50.0783C58.9512 50.3937 58.7972 50.7834 58.4232 50.9503C58.3132 51.006 58.2032 51.0246 58.0932 51.0246Z" fill="#090F20"/>
<path d="M53.385 52.7509C53.143 52.7509 52.879 52.6396 52.747 52.454C50.9869 50.1904 49.9309 46.7765 51.4709 44.9212C52.109 44.1419 53.451 43.3441 56.2451 43.9007C56.6631 43.9749 56.9051 44.3274 56.8171 44.68C56.7291 45.0325 56.3111 45.2366 55.8931 45.1624C54.331 44.8469 53.275 45.0139 52.725 45.6633C51.669 46.9435 52.549 49.8379 54.023 51.7304C54.265 52.0273 54.155 52.4355 53.803 52.621C53.693 52.7138 53.539 52.7509 53.385 52.7509Z" fill="#090F20"/>
<path d="M54.3752 58.4474C52.9671 58.4474 51.2071 57.8537 49.293 56.6848C46.587 55.0335 45.2669 51.768 46.477 49.69C46.895 48.9849 48.215 47.445 51.6911 48.317C52.1091 48.4098 52.3291 48.7808 52.2191 49.1334C52.0871 49.4859 51.6691 49.6714 51.2511 49.5786C50.063 49.2818 48.501 49.1519 47.841 50.2837C47.049 51.6381 47.907 54.2728 50.1731 55.6458C52.7251 57.2043 54.4632 57.3527 55.1672 57.0002C55.5192 56.8332 55.6732 56.4807 55.6072 55.9983C55.5632 55.6458 55.8712 55.3303 56.2892 55.2932C56.7072 55.2561 57.0813 55.5159 57.1253 55.8684C57.2353 56.8703 56.7952 57.6867 55.9152 58.132C55.5192 58.3361 54.9912 58.4474 54.3752 58.4474Z" fill="#090F20"/>
<path d="M10.0216 153.294C5.29148 153.294 4.34545 152.088 3.66343 149.824C2.80541 146.948 2.18939 143.386 1.04536 134.573C1.02335 134.35 1.00136 134.146 0.957354 133.942L0.825349 132.996C0.561341 130.936 0.341336 129.322 0.297335 128.024C0.165331 124.257 1.50737 122.977 6.25951 122.346C19.7899 120.546 38.0284 119.173 44.9146 118.654C45.5967 118.598 46.1687 118.561 46.6087 118.524C50.4368 118.227 52.5489 119.34 53.7149 122.253C54.2209 123.515 54.5509 125.166 54.7709 127.337L54.7929 127.523C54.8369 127.875 54.5069 128.191 54.0889 128.228C53.6709 128.265 53.2969 127.986 53.2529 127.634L53.2309 127.448C53.0329 125.389 52.7029 123.83 52.2409 122.68C51.2948 120.342 49.8648 119.6 46.7187 119.823C46.2787 119.86 45.7287 119.897 45.0246 119.953C38.1604 120.472 19.9439 121.827 6.47952 123.626C2.4754 124.164 1.70537 124.888 1.81538 127.986C1.85938 129.23 2.07938 130.844 2.34339 132.866L2.4754 133.812C2.4974 134.016 2.5414 134.239 2.5634 134.443C3.68543 143.182 4.30145 146.707 5.13748 149.509C5.8195 151.754 6.19351 152.997 20.7359 150.993C21.1539 150.938 21.55 151.179 21.616 151.531C21.682 151.884 21.396 152.218 20.9779 152.273C15.9838 152.96 12.4857 153.294 10.0216 153.294Z" fill="white"/>
<path d="M54.0009 127.375C45.3987 128.358 17.9859 131.475 1.66137 133.423C1.35336 131.141 1.11135 129.379 1.06735 127.987C12.8597 126.855 43.3306 123.516 52.9889 122.458C53.4729 123.683 53.8029 125.278 54.0009 127.375Z" fill="white"/>
<path d="M1.66143 133.702C1.59542 133.702 1.50742 133.683 1.46341 133.646C1.39741 133.609 1.35342 133.535 1.33142 133.46L1.26541 132.959C1.0014 130.918 0.781398 129.286 0.737396 128.005C0.737396 127.857 0.869397 127.746 1.0234 127.727C13.3218 126.54 46.4327 122.903 52.9229 122.198C53.0769 122.18 53.2309 122.254 53.2749 122.384C53.759 123.608 54.111 125.241 54.309 127.375C54.331 127.523 54.199 127.653 54.023 127.672L53.825 127.69C44.9367 128.711 17.8759 131.79 1.68342 133.72C1.70542 133.702 1.68343 133.702 1.66143 133.702ZM1.41942 128.247C1.48542 129.471 1.68342 130.993 1.94743 132.904L1.96943 133.126C18.1399 131.215 44.6947 128.172 53.649 127.152C53.451 125.315 53.1649 123.887 52.7469 122.773C45.7067 123.534 13.7838 127.041 1.41942 128.247Z" fill="white"/>
<path d="M9.60377 141.308C8.98776 141.308 8.48174 141.271 8.10773 141.215C7.86573 141.178 7.1397 141.03 6.8977 140.492C6.67769 139.972 6.32568 138.933 6.10567 138.005C5.70966 136.336 5.86367 135.779 6.21568 135.464C7.24971 134.536 13.4979 133.942 15.764 134.109C16.71 134.183 17.216 134.35 17.48 134.703C18.14 135.538 19.2181 138.84 17.942 139.954C17.084 140.659 12.3979 141.308 9.60377 141.308ZM8.28374 139.916C9.51577 140.325 15.962 139.545 16.842 139.007C17.216 138.618 16.82 136.336 16.248 135.464C15.83 135.334 14.2459 135.278 11.7598 135.519C9.38377 135.76 7.84372 136.113 7.40371 136.299C7.33771 136.855 7.82172 138.766 8.28374 139.916ZM6.76569 135.872L7.31571 136.317L6.76569 135.872Z" fill="white"/>
<path d="M113.359 178.249C112.963 178.249 112.611 177.989 112.589 177.637C112.501 176.393 112.391 175.169 112.281 173.963L112.193 173.017C112.171 172.664 112.479 172.349 112.897 172.33C113.315 172.312 113.689 172.571 113.711 172.924L113.799 173.87C113.909 175.076 114.019 176.301 114.107 177.562C114.129 177.915 113.821 178.23 113.381 178.249C113.403 178.249 113.381 178.249 113.359 178.249ZM112.655 168.99C112.237 168.99 111.907 168.712 111.885 168.36C111.841 167.562 111.819 166.838 111.819 166.17C111.819 165.243 111.863 164.426 111.929 163.647C111.951 163.294 112.325 163.016 112.765 163.053C113.183 163.072 113.513 163.387 113.469 163.758C113.403 164.5 113.359 165.28 113.359 166.17C113.359 166.82 113.381 167.525 113.403 168.323C113.425 168.675 113.095 168.99 112.655 168.99C112.677 168.99 112.655 168.99 112.655 168.99ZM113.887 159.862C113.777 159.862 113.667 159.843 113.579 159.806C113.183 159.658 113.029 159.268 113.205 158.953C113.821 157.803 114.679 156.893 115.735 156.244C116.175 155.966 116.747 155.706 117.407 155.465C117.803 155.316 118.243 155.483 118.419 155.799C118.595 156.133 118.397 156.504 118.023 156.652C117.473 156.856 117.011 157.06 116.637 157.283C115.779 157.821 115.097 158.545 114.591 159.491C114.459 159.714 114.173 159.862 113.887 159.862ZM123.017 155.465C122.643 155.465 122.335 155.242 122.269 154.927C122.203 154.574 122.467 154.24 122.885 154.166C124.491 153.925 126.361 153.702 128.407 153.517C128.825 153.479 129.199 153.739 129.243 154.092C129.287 154.444 128.979 154.76 128.561 154.797C126.559 154.964 124.733 155.186 123.171 155.428C123.105 155.465 123.061 155.465 123.017 155.465ZM133.973 154.481C133.577 154.481 133.225 154.222 133.203 153.869C133.181 153.517 133.511 153.201 133.929 153.183C136.569 153.053 138.681 153.016 139.473 153.016C139.473 153.016 139.473 153.016 139.495 153.016C139.914 153.016 140.266 153.294 140.266 153.646C140.266 153.999 139.936 154.296 139.518 154.314C138.747 154.333 136.657 154.352 134.039 154.481C133.995 154.481 133.973 154.481 133.973 154.481Z" fill="#090F20"/>
<path d="M231.239 215.598C230.843 215.598 230.513 215.357 230.469 215.023C230.425 214.67 230.733 214.337 231.151 214.299C232.999 214.114 234.825 213.928 236.607 213.724C237.025 213.669 237.421 213.928 237.465 214.281C237.531 214.633 237.223 214.967 236.805 215.004C235.023 215.209 233.175 215.394 231.327 215.58C231.305 215.58 231.283 215.598 231.239 215.598ZM242.173 214.374C241.799 214.374 241.469 214.151 241.403 213.817C241.337 213.464 241.623 213.13 242.041 213.075C244.065 212.815 245.891 212.555 247.453 212.296C247.871 212.221 248.267 212.463 248.355 212.815C248.443 213.168 248.157 213.502 247.739 213.576C246.155 213.836 244.329 214.095 242.283 214.355C242.261 214.374 242.217 214.374 242.173 214.374ZM252.975 212.518C252.645 212.518 252.359 212.351 252.249 212.073C252.117 211.739 252.337 211.368 252.733 211.257C253.019 211.182 253.283 211.09 253.503 211.015C254.823 210.552 255.681 209.809 256.209 208.678C256.363 208.344 256.803 208.177 257.199 208.307C257.595 208.436 257.793 208.807 257.639 209.141C256.957 210.626 255.813 211.628 254.097 212.221C253.833 212.314 253.547 212.407 253.217 212.5C253.129 212.5 253.041 212.518 252.975 212.518ZM257.639 204.985C257.221 204.985 256.869 204.707 256.869 204.336C256.847 203.111 256.737 201.609 256.517 199.772C256.473 199.419 256.781 199.104 257.199 199.067C257.617 199.03 257.991 199.289 258.035 199.642C258.255 201.516 258.387 203.056 258.387 204.336C258.409 204.688 258.079 204.985 257.639 204.985ZM256.627 195.746C256.253 195.746 255.923 195.504 255.857 195.189C255.637 193.797 255.395 192.295 255.131 190.699L255.109 190.606C255.043 190.254 255.351 189.92 255.769 189.883C256.187 189.827 256.583 190.087 256.627 190.439L256.649 190.532C256.913 192.128 257.155 193.63 257.375 195.041C257.441 195.393 257.133 195.727 256.715 195.764C256.693 195.746 256.671 195.746 256.627 195.746Z" fill="#090F20"/>
<path d="M134.743 228.381C132.653 228.363 130.783 228.27 129.155 228.103C128.737 228.066 128.429 227.732 128.495 227.379C128.539 227.027 128.935 226.767 129.353 226.823C130.915 226.99 132.719 227.082 134.743 227.101C135.161 227.101 135.513 227.398 135.513 227.75C135.513 228.084 135.161 228.381 134.743 228.381ZM140.221 228.233C139.825 228.233 139.473 227.973 139.451 227.62C139.429 227.268 139.759 226.952 140.177 226.934C141.387 226.878 142.685 226.785 144.049 226.693C144.468 226.656 144.842 226.934 144.886 227.286C144.93 227.639 144.6 227.954 144.181 227.991C142.817 228.103 141.497 228.177 140.265 228.233C140.265 228.233 140.243 228.233 140.221 228.233ZM123.963 226.952C123.853 226.952 123.743 226.934 123.655 226.897C121.631 226.136 120.201 225.06 119.277 223.594C119.079 223.279 119.211 222.889 119.585 222.722C119.959 222.555 120.421 222.666 120.619 222.982C121.389 224.169 122.577 225.06 124.271 225.709C124.667 225.858 124.843 226.247 124.667 226.563C124.535 226.804 124.249 226.952 123.963 226.952ZM118.595 219.475C118.199 219.475 117.869 219.215 117.825 218.882C117.715 217.805 117.671 216.674 117.627 215.468C117.605 215.059 117.605 214.633 117.583 214.206C117.561 213.853 117.891 213.538 118.331 213.538C118.749 213.519 119.123 213.798 119.123 214.169C119.145 214.596 119.145 215.022 119.167 215.43C119.211 216.618 119.255 217.731 119.343 218.77C119.387 219.123 119.057 219.438 118.639 219.475C118.639 219.475 118.617 219.475 118.595 219.475Z" fill="#090F20"/>
<path d="M21.7483 136.93C35.6308 132.366 53.8693 127.95 58.8414 126.799C63.8136 125.631 66.6737 124.183 69.2037 129.471C71.7118 134.759 75.3639 143.702 76.794 146.355C78.224 149.008 79.5 151.272 71.4038 153.647C63.3076 156.022 45.6411 160.734 38.3368 163.369C31.0326 166.004 28.5465 166.857 24.5864 159.065C20.6263 151.272 18.8883 146.93 17.4142 143.127C15.9182 139.286 18.7563 137.913 21.7483 136.93Z" fill="#FBD931"/>
<path d="M58.294 143.382C60.8705 142.864 62.4612 140.682 61.847 138.51C61.2327 136.337 58.6461 134.995 56.0695 135.513C53.493 136.031 51.9023 138.213 52.5166 140.385C53.1308 142.558 55.7175 143.9 58.294 143.382Z" fill="#FFFEF2"/>
<path d="M57.1908 144.148C54.1327 144.148 51.6246 142.051 51.6246 139.454C51.6246 136.875 54.1107 134.76 57.1908 134.76C60.2709 134.76 62.7569 136.856 62.7569 139.454C62.7569 142.051 60.2489 144.148 57.1908 144.148ZM57.1908 136.059C54.9687 136.059 53.1646 137.58 53.1646 139.454C53.1646 141.328 54.9687 142.849 57.1908 142.849C59.4128 142.849 61.2169 141.328 61.2169 139.454C61.2169 137.58 59.4128 136.059 57.1908 136.059Z" fill="#090F20"/>
<path d="M63.8577 142.57C63.7917 142.57 63.7257 142.57 63.6597 142.57C60.6016 142.477 58.1815 140.306 58.2915 137.727C58.4015 135.148 60.9756 133.108 64.0337 133.2C67.0918 133.293 69.5118 135.464 69.4018 138.043C69.3138 140.566 66.8278 142.57 63.8577 142.57ZM59.8316 137.746C59.7876 138.655 60.1836 139.509 60.9096 140.177C61.6356 140.844 62.6476 141.216 63.7037 141.253C64.7817 141.29 65.7937 140.956 66.5858 140.344C67.3778 139.731 67.8178 138.878 67.8618 137.987C67.9278 136.113 66.1898 134.536 63.9677 134.481C61.7676 134.406 59.8976 135.891 59.8316 137.746Z" fill="#090F20"/>
<path d="M62.5813 148.488C62.2733 148.488 61.9653 148.321 61.8553 148.043C61.7233 147.709 61.9213 147.338 62.3393 147.208C66.2994 146.058 69.4675 145.167 69.4895 145.167C69.8855 145.056 70.3255 145.241 70.4575 145.575C70.5895 145.909 70.3695 146.28 69.9735 146.392C69.9515 146.392 66.7834 147.282 62.8453 148.433C62.7573 148.47 62.6693 148.488 62.5813 148.488Z" fill="#090F20"/>
<path d="M52.3949 151.531C52.0869 151.531 51.8009 151.383 51.6909 151.123C51.5369 150.789 51.7129 150.418 52.1089 150.27C53.209 149.88 54.243 149.527 55.167 149.193C56.3991 148.767 57.7851 148.303 59.2591 147.802C59.6552 147.672 60.0952 147.839 60.2492 148.173C60.4032 148.507 60.2052 148.878 59.8092 149.008C58.3351 149.49 56.9711 149.973 55.739 150.399C54.815 150.715 53.781 151.086 52.6809 151.476C52.5929 151.513 52.4829 151.531 52.3949 151.531Z" fill="#090F20"/>
<path d="M41.9448 155.279C41.6368 155.279 41.3728 155.131 41.2408 154.889C41.0648 154.555 41.2408 154.184 41.6368 154.036C43.7929 153.238 46.2349 152.366 48.699 151.494C49.095 151.346 49.535 151.513 49.711 151.846C49.887 152.18 49.689 152.552 49.293 152.7C46.8289 153.572 44.4089 154.463 42.2528 155.242C42.1428 155.26 42.0328 155.279 41.9448 155.279Z" fill="#090F20"/>
<path d="M33.3866 158.546C33.1006 158.546 32.8365 158.416 32.7045 158.193C32.5065 157.878 32.6605 157.488 33.0566 157.321C34.3326 156.783 36.5326 155.93 39.5907 154.798C39.9867 154.649 40.4268 154.798 40.6028 155.132C40.7788 155.466 40.6028 155.837 40.2068 155.985C37.1707 157.098 35.0146 157.952 33.7386 158.471C33.6066 158.527 33.4966 158.546 33.3866 158.546Z" fill="#090F20"/>
</svg>
